<?xml version="1.0" encoding="UTF-8" standalone="no"?>
<!-- Created with Inkscape (http://www.inkscape.org/) -->

<svg
   width="30.476822mm"
   height="5.6877522mm"
   viewBox="0 0 30.476822 5.6877522"
   version="1.1"
   id="svg5"
   inkscape:version="1.2.2 (732a01da63, 2022-12-09)"
   sodipodi:docname="logo.svg"
   xmlns:inkscape="http://www.inkscape.org/namespaces/inkscape"
   xmlns:sodipodi="http://sodipodi.sourceforge.net/DTD/sodipodi-0.dtd"
   xmlns:xlink="http://www.w3.org/1999/xlink"
   xmlns="http://www.w3.org/2000/svg"
   xmlns:svg="http://www.w3.org/2000/svg">
  <sodipodi:namedview
     id="namedview7"
     pagecolor="#ffffff"
     bordercolor="#000000"
     borderopacity="0.25"
     inkscape:showpageshadow="2"
     inkscape:pageopacity="0.0"
     inkscape:pagecheckerboard="0"
     inkscape:deskcolor="#d1d1d1"
     inkscape:document-units="mm"
     showgrid="false"
     inkscape:zoom="4.2179991"
     inkscape:cx="44.096738"
     inkscape:cy="9.2460902"
     inkscape:window-width="1920"
     inkscape:window-height="1017"
     inkscape:window-x="-8"
     inkscape:window-y="-8"
     inkscape:window-maximized="1"
     inkscape:current-layer="layer1" />
  <defs
     id="defs2">
    <linearGradient
       inkscape:collect="always"
       id="linearGradient3117">
      <stop
         style="stop-color:#ff9f00;stop-opacity:1;"
         offset="0"
         id="stop3113" />
      <stop
         style="stop-color:#ff4005;stop-opacity:1;"
         offset="1"
         id="stop3115" />
    </linearGradient>
    <linearGradient
       inkscape:collect="always"
       id="linearGradient977">
      <stop
         style="stop-color:#ff3c12;stop-opacity:1;"
         offset="0.00457624"
         id="stop973" />
      <stop
         style="stop-color:#ff7818;stop-opacity:1;"
         offset="0.48816383"
         id="stop981" />
      <stop
         style="stop-color:#ff4e03;stop-opacity:1;"
         offset="1"
         id="stop975" />
    </linearGradient>
    <linearGradient
       inkscape:collect="always"
       xlink:href="#linearGradient977"
       id="linearGradient979"
       x1="37.486443"
       y1="64.11396"
       x2="62.416519"
       y2="64.11396"
       gradientUnits="userSpaceOnUse"
       gradientTransform="translate(-15.691799,-54.700119)" />
    <linearGradient
       inkscape:collect="always"
       xlink:href="#linearGradient3117"
       id="linearGradient3119"
       x1="13.480847"
       y1="10.207867"
       x2="19.645725"
       y2="10.207867"
       gradientUnits="userSpaceOnUse"
       gradientTransform="matrix(0.87790082,0,0,0.87790082,2.1478181,1.0827317)" />
  </defs>
  <g
     inkscape:label="Слой 1"
     inkscape:groupmode="layer"
     id="layer1"
     transform="translate(-13.982665,-7.06359)">
    <g
       aria-label="Mr.Apelsin"
       transform="scale(0.95151961,1.0509505)"
       id="text236"
       style="font-size:5.81324px;fill:url(#linearGradient979);stroke-width:0.484436">
      <path
         d="m 21.794645,10.803212 q 0,-0.546444 0.02907,-1.0812624 0.02907,-0.5406314 0.07557,-1.0870759 0.01744,-0.1743972 0.04069,-0.3546077 0.02325,-0.1802104 0.0872,-0.3255414 0.06395,-0.1511443 0.180211,-0.2441561 0.116265,-0.093012 0.308102,-0.093012 0.186023,0 0.284848,0.040693 0.09882,0.040693 0.174398,0.191837 0.0872,0.1685839 0.186023,0.4243665 0.09883,0.2557826 0.186024,0.5173784 0.0872,0.2557825 0.156957,0.4883121 0.07557,0.2267164 0.116265,0.3429812 0.03488,-0.1046383 0.06976,-0.3081017 0.04069,-0.2034634 0.09882,-0.4534328 0.05813,-0.2499693 0.139518,-0.5115651 0.0872,-0.2615958 0.21509,-0.4766857 0.04651,-0.081385 0.104638,-0.1278913 0.06395,-0.052319 0.122078,-0.075572 0.06395,-0.029066 0.122078,-0.034879 0.05813,-0.011627 0.09883,-0.011627 0.244156,0 0.366234,0.081385 0.122078,0.075572 0.197651,0.2964752 0.03488,0.093012 0.05813,0.2325296 0.02907,0.1395178 0.04651,0.2964753 0.01744,0.1511442 0.02907,0.3081017 0.01744,0.1569575 0.02325,0.2964752 0.02325,0.4185533 0.05232,0.8254801 0.02907,0.4069266 0.02907,0.8254796 0,0.273223 -0.122078,0.360421 -0.122078,0.09301 -0.37786,0.09301 -0.145331,0 -0.238343,-0.04651 -0.0872,-0.04651 -0.133705,-0.139517 -0.04651,-0.09883 -0.06395,-0.238343 -0.01744,-0.145331 -0.02325,-0.337168 L 24.40479,9.3673419 q -0.01744,0.058132 -0.05813,0.2034634 -0.04069,0.145331 -0.09301,0.3313547 -0.05232,0.186024 -0.116264,0.3953 -0.06395,0.203464 -0.127892,0.383674 -0.06394,0.174397 -0.127891,0.302289 -0.05813,0.127891 -0.110452,0.156957 -0.02907,0.01163 -0.07557,0.02325 -0.04651,0.01163 -0.0872,0.01163 -0.104639,0 -0.180211,-0.06395 -0.05232,-0.04651 -0.122078,-0.168584 -0.06395,-0.122078 -0.133704,-0.284849 -0.06976,-0.168584 -0.145331,-0.354607 Q 22.957293,10.11725 22.893347,9.9486659 22.835215,9.7742687 22.782896,9.634751 22.73639,9.48942 22.713137,9.4196611 q 0.0058,0.290662 0.01744,0.6452699 0.01163,0.348794 0.01163,0.639456 0,0.174397 -0.02325,0.290662 -0.01744,0.110452 -0.08139,0.174397 -0.05813,0.06395 -0.168584,0.0872 -0.104639,0.02907 -0.284849,0.02907 -0.238343,0 -0.313915,-0.127891 -0.07557,-0.122078 -0.07557,-0.354608 z m 0.918492,-2.9531257 q -0.145331,0.040693 -0.06395,0.1395177 0.01744,0.023253 0.03488,0.069759 0.02325,0.040693 0.04069,0.087199 0.02325,0.046506 0.04069,0.087199 0.01744,0.040693 0.02325,0.063946 0.01163,0.029066 0.04069,0.03488 0.02907,0 0.05813,-0.00581 0.05232,-0.011626 0.05232,-0.058132 0.0058,-0.052319 -0.01744,-0.1569574 -0.0058,-0.01744 -0.02325,-0.063946 -0.01744,-0.046506 -0.04651,-0.093012 -0.02325,-0.046506 -0.06395,-0.081385 -0.03488,-0.034879 -0.07557,-0.023253 z m 2.092766,0.1395177 q -0.05813,0.011627 -0.08139,0.063946 -0.01744,0.046506 -0.01744,0.1104515 0,0.058132 0.01163,0.1220781 0.01163,0.058132 0.01163,0.093012 0,0.029066 0.0058,0.093012 0.01163,0.058132 0.02907,0.122078 0.01744,0.058132 0.04651,0.1046383 0.02907,0.040693 0.06976,0.040693 0.04651,-0.00581 0.06976,-0.034879 0.02907,-0.029066 0.03488,-0.069759 0.01163,-0.046506 0.0058,-0.087199 0,-0.046506 0,-0.081385 -0.0058,-0.075572 -0.02325,-0.1569575 -0.01163,-0.087199 -0.03488,-0.1569575 -0.02325,-0.075572 -0.05813,-0.122078 -0.02907,-0.046506 -0.06976,-0.040693 z m 0.127891,0.8487331 q -0.05813,0.00581 -0.09301,0.058132 -0.02907,0.052319 -0.02325,0.1046383 0.01163,0.081385 0.0872,0.081385 0.05232,-0.00581 0.0872,-0.046506 0.03488,-0.040693 0.02907,-0.093012 0,-0.034879 -0.02325,-0.069759 -0.02325,-0.034879 -0.06395,-0.034879 z"
         style="font-family:'Glossy Sheen';-inkscape-font-specification:'Glossy Sheen'"
         id="path1667" />
      <path
         d="M 25.712767,9.3615287 V 9.2103844 l 0.0058,-0.2964752 V 8.762765 q 0,-0.2092767 0.01744,-0.4069268 0.01744,-0.1976502 0.06395,-0.3546077 0.05232,-0.1569575 0.139518,-0.2499693 0.0872,-0.093012 0.220903,-0.093012 0.09301,0 0.209276,-0.00581 0.122079,-0.00581 0.255783,-0.00581 0.360421,0 0.62783,0.046506 0.273222,0.040693 0.447619,0.1743972 0.180211,0.1278913 0.267409,0.3720473 0.0872,0.2383429 0.0872,0.6336432 0,0.1511443 -0.02907,0.313915 -0.02325,0.1627707 -0.0872,0.3197282 -0.05813,0.1569575 -0.16277,0.2964752 -0.09883,0.1337045 -0.255783,0.2325301 0.08139,0.0872 0.168584,0.156957 0.09301,0.06395 0.174397,0.07557 0.06976,0.0058 0.133705,0.02325 0.06395,0.01744 0.116264,0.06395 0.05232,0.04069 0.08139,0.116265 0.02907,0.07557 0.02907,0.203463 0,0.569697 -0.546445,0.569697 -0.09301,0 -0.18021,-0.01744 -0.0872,-0.01163 -0.168584,-0.06395 -0.06976,-0.04651 -0.162771,-0.162771 -0.0872,-0.116264 -0.18021,-0.255782 -0.0872,-0.145331 -0.168584,-0.290662 -0.08139,-0.151144 -0.139518,-0.261596 h -0.01744 v 0.04651 q 0,0.04069 0.0058,0.110451 0.0058,0.06395 0.01163,0.133705 0.0058,0.06976 0.01163,0.133705 0.0058,0.06395 0.0058,0.110451 0,0.122078 -0.01163,0.226716 -0.0058,0.09883 -0.0465,0.168584 -0.03488,0.06976 -0.122079,0.104639 -0.0872,0.04069 -0.244156,0.04069 -0.104638,0 -0.209276,-0.01744 -0.09882,-0.01744 -0.180211,-0.06976 -0.07557,-0.04651 -0.122078,-0.127891 -0.04651,-0.08139 -0.04651,-0.209277 z m 1.552135,-1.4242438 q -0.02907,0.011626 -0.0465,0.046506 -0.01744,0.029066 -0.0058,0.063946 0.01163,0.029066 0.04651,0.063946 0.03488,0.034879 0.08139,0.081385 0.05232,0.046506 0.09882,0.1046383 0.04651,0.058133 0.08139,0.1337046 0.01744,0.040693 0.02325,0.087199 0.0058,0.046506 0.01744,0.087199 0.01744,0.040693 0.04069,0.069759 0.02325,0.029066 0.06395,0.034879 0.08139,0.011627 0.104638,-0.081385 0.02325,-0.098825 -0.0058,-0.2150898 -0.02907,-0.1104516 -0.09301,-0.2034635 -0.06395,-0.098825 -0.139518,-0.1627707 -0.06976,-0.069759 -0.145331,-0.098825 -0.07557,-0.034879 -0.122078,-0.011626 z m -0.558071,1.4998159 q 0.139518,-0.00581 0.244156,-0.023253 0.104639,-0.023253 0.168584,-0.075572 0.06395,-0.052319 0.09301,-0.1395177 0.03488,-0.087199 0.03488,-0.2325296 0,-0.1743972 -0.09301,-0.3081018 -0.0872,-0.1337045 -0.279036,-0.1337045 -0.04651,0 -0.09301,0 -0.04069,0 -0.0872,0.00581 0.02907,0.2499693 0.01744,0.4534327 -0.0058,0.2034634 -0.0058,0.4534327 z M 27.642763,8.86159 q -0.02907,0.093012 0.02907,0.1337046 0.03488,0.029066 0.08139,0.00581 0.04651,-0.029066 0.05813,-0.069759 0.01163,-0.034879 0,-0.069759 -0.01163,-0.034879 -0.04069,-0.052319 -0.04069,-0.029066 -0.08139,-0.011627 -0.03488,0.011627 -0.04651,0.063946 z m 0.325541,1.528882 q -0.05813,0 -0.08139,0.02907 -0.02325,0.02907 -0.0058,0.07557 0.02325,0.05232 0.04069,0.151145 0.01744,0.09882 0.01744,0.139517 0,0.02907 0.02325,0.04069 0.02907,0.01163 0.05232,0.01163 0.08139,0 0.08139,-0.180211 0,-0.01163 -0.0058,-0.05232 -0.0058,-0.04651 -0.02325,-0.09301 -0.01163,-0.04651 -0.03488,-0.08138 -0.02325,-0.04069 -0.06395,-0.04069 z"
         style="font-family:'Glossy Sheen';-inkscape-font-specification:'Glossy Sheen'"
         id="path1669" />
      <path
         d="m 29.590202,10.611375 q 0,0.284849 -0.133704,0.459246 -0.133705,0.168584 -0.43018,0.168584 -0.279035,0 -0.401113,-0.156957 -0.116265,-0.162771 -0.116265,-0.424367 0,-0.249969 0.127891,-0.424366 0.127891,-0.174398 0.389487,-0.174398 0.563884,0 0.563884,0.552258 z m -0.342981,-0.360421 q -0.05813,0 -0.06976,0.04651 0,0.02907 0.01744,0.08139 0.01744,0.05232 0.02907,0.07557 0.01163,0.02907 0.01744,0.06395 0.0058,0.03488 0.01163,0.06976 0.01163,0.02907 0.02907,0.05232 0.01744,0.01744 0.05813,0.01744 0.05232,0 0.06976,-0.04069 0.02325,-0.04069 0.02325,-0.08139 0.0058,-0.0872 -0.04069,-0.18021 -0.04651,-0.09883 -0.145331,-0.104639 z m 0.0872,0.46506 q -0.02907,0 -0.05232,0.03488 -0.01744,0.02907 -0.02325,0.05813 0,0.02907 0.0058,0.07557 0.01163,0.04069 0.04651,0.04069 0.04651,0.01163 0.06976,-0.01744 0.02325,-0.02907 0.02907,-0.06976 0.0058,-0.04069 -0.01163,-0.07557 -0.01744,-0.03488 -0.06395,-0.04651 z"
         style="font-family:'Glossy Sheen';-inkscape-font-specification:'Glossy Sheen'"
         id="path1671" />
      <path
         d="m 30.415678,11.192699 q -0.284849,0 -0.41274,-0.116265 -0.122079,-0.116264 -0.122079,-0.37786 0,-0.08139 0.02325,-0.226716 0.02325,-0.151145 0.05813,-0.337168 0.03488,-0.1918373 0.08139,-0.4069272 0.05232,-0.2150899 0.104639,-0.4243665 0.05813,-0.2150899 0.110451,-0.4069268 0.05813,-0.1918369 0.110452,-0.3313547 0.09883,-0.2732223 0.186023,-0.4476195 0.09301,-0.1802104 0.19765,-0.2848488 0.104639,-0.1104515 0.23253,-0.1511442 0.127891,-0.046506 0.302289,-0.046506 0.238342,0 0.401113,0.069759 0.168584,0.063946 0.290662,0.2499693 0.127891,0.1860237 0.21509,0.5115651 0.09301,0.3197282 0.174397,0.8371066 0.02907,0.1802104 0.06395,0.4243665 0.03488,0.2383428 0.06395,0.4708722 0.03488,0.23253 0.05813,0.418554 0.02325,0.186023 0.02325,0.261595 0,0.366234 -0.511565,0.366234 -0.180211,0 -0.279036,-0.05813 -0.09301,-0.05232 -0.145331,-0.151144 -0.05232,-0.09883 -0.08139,-0.23253 -0.02325,-0.139518 -0.06395,-0.308102 h -0.622016 q -0.01744,0.110452 -0.03488,0.238343 -0.01163,0.122078 -0.05813,0.226717 -0.04069,0.09882 -0.127892,0.16277 -0.08139,0.06976 -0.238342,0.06976 z m 1.232406,-3.1333361 q -0.05232,0.029066 -0.05232,0.1278913 0.0058,0.098825 0.05813,0.2499693 0.122078,0.3371679 0.261596,0.2732223 0.127891,-0.063946 0.02907,-0.3371679 -0.06395,-0.168584 -0.151145,-0.2557826 -0.08139,-0.093012 -0.145331,-0.058132 z m 0.261596,0.8138536 q -0.04069,0.098825 0.01163,0.1511443 0.02325,0.023253 0.05232,0.023253 0.03488,0 0.06976,-0.023253 0.03488,-0.023253 0.04651,-0.058132 0.02907,-0.081385 -0.02907,-0.1395178 -0.02907,-0.029066 -0.06395,-0.029066 -0.05232,0 -0.0872,0.075572 z m -0.511565,0.7731609 q 0.0058,-0.093012 0,-0.2325296 -0.0058,-0.1395177 -0.02325,-0.267409 -0.01744,-0.1278913 -0.04069,-0.2209031 -0.02325,-0.093012 -0.05232,-0.093012 -0.02907,0 -0.06976,0.081385 -0.04069,0.075572 -0.08139,0.1976502 -0.03488,0.122078 -0.06395,0.267409 -0.02907,0.1395178 -0.03488,0.267409 z"
         style="font-family:'Glossy Sheen';-inkscape-font-specification:'Glossy Sheen'"
         id="path1673" />
      <path
         d="M 32.770045,9.3615287 V 9.2103844 l 0.0058,-0.2964752 V 8.762765 q 0,-0.2092767 0.01744,-0.4069268 0.01744,-0.1976502 0.05813,-0.3546077 0.04651,-0.1569575 0.122078,-0.2499693 0.07557,-0.093012 0.191837,-0.093012 h 0.127891 l 0.261596,-0.011626 q 0.372048,0 0.656896,0.029066 0.290662,0.029066 0.488312,0.1511442 0.203464,0.122078 0.308102,0.3720474 0.104639,0.2441561 0.104639,0.6743358 0,0.3546077 -0.05232,0.6220167 -0.05232,0.267409 -0.191837,0.4476195 -0.133704,0.1802103 -0.366234,0.2674093 -0.232529,0.0872 -0.598763,0.0872 -0.04651,0 -0.09301,0 -0.04651,-0.0058 -0.09301,-0.01163 v 0.04651 q 0,0.0872 0.01744,0.19765 0.01744,0.110451 0.01744,0.19765 0,0.122078 -0.01163,0.226716 -0.0058,0.09883 -0.04651,0.168584 -0.03488,0.06976 -0.122078,0.104639 -0.0872,0.04069 -0.244156,0.04069 -0.104638,0 -0.209277,-0.01744 -0.09882,-0.01744 -0.18021,-0.06976 -0.07557,-0.04651 -0.122078,-0.127891 -0.04651,-0.08139 -0.04651,-0.209277 z M 34.32218,7.9372849 q -0.02907,0.011626 -0.04651,0.046506 -0.01744,0.029066 -0.0058,0.063946 0.01163,0.029066 0.04651,0.063946 0.03488,0.034879 0.08138,0.081385 0.05232,0.046506 0.09883,0.1046383 0.04651,0.058133 0.08138,0.1337046 0.01744,0.040693 0.02325,0.087199 0.0058,0.046506 0.01744,0.087199 0.01744,0.040693 0.04069,0.069759 0.02325,0.029066 0.06394,0.034879 0.08139,0.011627 0.104639,-0.081385 0.02325,-0.098825 -0.0058,-0.2150898 -0.02907,-0.1104516 -0.09301,-0.2034635 -0.06395,-0.098825 -0.139518,-0.1627707 -0.06976,-0.069759 -0.145331,-0.098825 -0.07557,-0.034879 -0.122078,-0.011626 z m -0.558071,1.5928277 q 0.284849,-0.011626 0.41274,-0.1395177 0.127891,-0.1337045 0.127891,-0.4243665 0,-0.1743972 -0.09301,-0.3081018 -0.0872,-0.1337045 -0.279035,-0.1337045 -0.04651,0 -0.09301,0 -0.04069,0 -0.0872,0.00581 0.02907,0.2499693 0.01744,0.4999386 -0.0058,0.2499693 -0.0058,0.4999386 z M 34.70004,8.86159 q -0.02907,0.093012 0.02907,0.1337046 0.03488,0.029066 0.08139,0.00581 0.04651,-0.029066 0.05813,-0.069759 0.01163,-0.034879 0,-0.069759 -0.01163,-0.034879 -0.04069,-0.052319 -0.04069,-0.029066 -0.08139,-0.011627 -0.03488,0.011627 -0.04651,0.063946 z"
         style="font-family:'Glossy Sheen';-inkscape-font-specification:'Glossy Sheen'"
         id="path1675" />
      <path
         d="m 35.83943,11.279898 q -0.267409,0 -0.366234,-0.133705 -0.09883,-0.133704 -0.09883,-0.383673 V 8.6697531 q 0,-0.098825 -0.0058,-0.2557825 -0.0058,-0.1569575 0.01163,-0.3081018 0.02325,-0.1569575 0.09301,-0.267409 0.06976,-0.1162648 0.226717,-0.1337045 0.325541,-0.029066 0.656896,-0.058132 0.337168,-0.034879 0.662709,-0.034879 0.06395,0 0.122078,0.058132 0.05813,0.052319 0.09882,0.1278913 0.04651,0.075572 0.06976,0.1569575 0.02907,0.081385 0.02907,0.1337045 0,0.075572 -0.01163,0.1511442 -0.0058,0.075572 -0.03488,0.1395178 -0.02907,0.058132 -0.0872,0.098825 -0.05232,0.040693 -0.145331,0.046506 l -0.790601,0.063946 0.02907,0.3604208 h 0.569698 q 0.18021,0 0.244156,0.1220781 0.06395,0.1162648 0.06395,0.2732223 0,0.058132 -0.01163,0.1395177 -0.0058,0.075572 -0.03488,0.1511443 -0.02325,0.069759 -0.06976,0.122078 -0.04651,0.052319 -0.127891,0.052319 h -0.633644 l 0.03488,0.5173788 h 0.313915 q 0.06394,0 0.09882,-0.03488 0.04069,-0.04069 0.07557,-0.0872 0.04069,-0.05232 0.0872,-0.0872 0.05232,-0.04069 0.127891,-0.04069 0.186024,0 0.302288,0.09883 0.116265,0.09882 0.116265,0.290662 0,0.226717 -0.02325,0.377861 -0.02325,0.151144 -0.09882,0.244156 -0.07557,0.09301 -0.21509,0.133704 -0.139517,0.04651 -0.366234,0.05232 -0.133704,0.0058 -0.273222,0.0058 -0.139518,0 -0.273222,0 z m 0.959185,-3.5460765 q -0.01163,0.00581 -0.02907,0.029066 -0.01163,0.01744 0,0.040693 0.02907,0.046506 0.04651,0.075572 0.01744,0.023253 0.02907,0.046506 0.02907,0.063946 0.04651,0.122078 0.01744,0.058132 0.122078,0.063946 0.06395,0 0.09301,-0.063946 0.03488,-0.063946 -0.01163,-0.1627707 -0.05813,-0.1104516 -0.139517,-0.145331 -0.08139,-0.034879 -0.156958,-0.00581 z m 0.191837,0.4941254 q -0.0058,0.029066 0.0058,0.058132 0.01163,0.023253 0.03488,0.034879 0.02907,0.011627 0.05813,-0.011627 0.02907,-0.023253 0.03488,-0.058132 0,-0.069759 -0.04069,-0.087199 -0.07557,-0.034879 -0.09301,0.063946 z m -0.151144,0.8138536 q -0.01163,0.00581 -0.02325,0.023253 -0.0058,0.011627 0,0.029066 0.01163,0.034879 0.01744,0.052319 0.0058,0.01744 0.02325,0.052319 0.02907,0.046506 0.02907,0.1046383 0.0058,0.052319 0.05813,0.052319 0.04651,0 0.06976,-0.040693 0.02907,-0.046506 0.0058,-0.1278913 -0.02907,-0.087199 -0.08138,-0.1220781 -0.05232,-0.034879 -0.09882,-0.023253 z"
         style="font-family:'Glossy Sheen';-inkscape-font-specification:'Glossy Sheen'"
         id="path1677" />
      <path
         d="m 38.025211,11.221765 q -0.255782,0 -0.331354,-0.151144 -0.07557,-0.151144 -0.07557,-0.476685 V 8.5418618 q 0,-0.2964752 0.01163,-0.4766857 0.01163,-0.1802104 0.05813,-0.2790355 0.05232,-0.098825 0.156957,-0.1278913 0.104638,-0.034879 0.290662,-0.034879 0.122078,0 0.209277,0.01744 0.0872,0.01744 0.139517,0.069759 0.05232,0.052319 0.07557,0.145331 0.02325,0.093012 0.02325,0.2499693 0,0.3487944 0,0.7092153 0.0058,0.3546077 0.0058,0.8022271 0,0.063946 -0.0058,0.1569575 0,0.093012 -0.01163,0.1918369 -0.0058,0.093011 -0.02325,0.1802104 -0.01744,0.0872 -0.04651,0.151144 l 0.592951,-0.09882 q 0.09301,-0.01744 0.156957,0.03488 0.06395,0.04651 0.104638,0.133704 0.04069,0.0872 0.05813,0.203464 0.01744,0.110451 0.01744,0.220903 0,0.168584 -0.04651,0.255782 -0.04069,0.08139 -0.122078,0.116265 -0.08139,0.04069 -0.191837,0.04069 -0.104639,0.0058 -0.238343,0.0058 h -0.133705 l -0.273222,0.01163 h -0.133704 z m 0.26741,-3.3019199 q -0.05813,0.00581 -0.08139,0.058132 -0.01744,0.046506 -0.02325,0.1104516 -0.0058,0.058132 0,0.122078 0.0058,0.058132 0.0058,0.093012 0,0.029066 0,0.087199 0,0.052319 0.0058,0.1046383 0.0058,0.052319 0.02907,0.093012 0.02325,0.034879 0.06395,0.034879 0.04651,0 0.06976,-0.029066 0.02907,-0.029066 0.04069,-0.069759 0.01163,-0.040693 0.01163,-0.081385 0.0058,-0.046506 0.0058,-0.081385 0,-0.029066 -0.0058,-0.098825 -0.0058,-0.075572 -0.01744,-0.1511442 -0.01163,-0.081385 -0.04069,-0.1395178 -0.02325,-0.058132 -0.06395,-0.052319 z m 0.04651,0.8080404 q -0.05813,0 -0.09301,0.052319 -0.03488,0.052319 -0.03488,0.1046383 0,0.081385 0.08139,0.081385 0.05232,0 0.0872,-0.03488 0.04069,-0.040693 0.04069,-0.093012 0,-0.03488 -0.02325,-0.069759 -0.01744,-0.040693 -0.05813,-0.040693 z m 0.755722,1.6218935 q -0.05813,0 -0.08139,0.02907 -0.02325,0.02907 -0.0058,0.07557 0.01163,0.02325 0.01744,0.07557 0.01163,0.05232 0.01744,0.104638 0.01163,0.05232 0.01744,0.104639 0.0058,0.0465 0.0058,0.06395 0,0.02907 0.02325,0.04069 0.02907,0.01163 0.05232,0.01163 0.08138,0 0.08138,-0.18021 0,-0.01163 -0.0058,-0.06395 -0.0058,-0.05232 -0.02325,-0.110451 -0.01163,-0.05813 -0.03488,-0.104639 -0.02325,-0.04651 -0.06395,-0.04651 z"
         style="font-family:'Glossy Sheen';-inkscape-font-specification:'Glossy Sheen'"
         id="path1679" />
      <path
         d="m 40.205176,9.9370394 q 0.05232,0.093012 0.07557,0.1627706 0.02325,0.06395 0.104639,0.145331 0.02907,0.02907 0.133704,0.06976 0.104639,0.03488 0.255783,0.03488 0.133704,0 0.203463,-0.03488 0.06976,-0.04069 0.06976,-0.09882 0,-0.01744 -0.139518,-0.09301 Q 40.769061,10.047491 40.577224,9.9486659 40.40864,9.8614673 40.222616,9.756829 40.042406,9.6463774 39.885448,9.5010464 39.734304,9.3557154 39.635479,9.1580653 q -0.09882,-0.1976502 -0.09882,-0.4708725 0,-0.2499693 0.09301,-0.4592459 0.09301,-0.2092767 0.255783,-0.3604209 0.168584,-0.1569575 0.3953,-0.2383429 0.226717,-0.087199 0.494126,-0.087199 0.284849,0 0.499938,0.098825 0.21509,0.093012 0.360421,0.2441561 0.145331,0.145331 0.220903,0.313915 0.07557,0.1685839 0.07557,0.3197282 0,0.2615958 -0.09883,0.4243665 -0.09883,0.1627707 -0.348794,0.1627707 -0.249969,0 -0.331355,-0.087199 -0.07557,-0.093012 -0.06395,-0.2790355 0.01163,-0.168584 -0.05813,-0.2267164 -0.06395,-0.063946 -0.238343,-0.063946 -0.133704,0 -0.226716,0.075572 -0.09301,0.069759 -0.09301,0.1802105 0,0.063946 0.05232,0.122078 0.05232,0.058132 0.139518,0.1162648 0.0872,0.052319 0.19765,0.1104516 0.116265,0.052319 0.244156,0.1046383 0.162771,0.075572 0.319729,0.1569575 0.16277,0.081385 0.290662,0.1976501 0.133704,0.1162648 0.21509,0.2790355 0.08139,0.1569575 0.08139,0.3894876 0,0.244156 -0.104638,0.441806 -0.104639,0.191837 -0.284849,0.331354 -0.174397,0.133705 -0.406927,0.203464 -0.226716,0.07557 -0.476686,0.07557 -0.232529,0 -0.459246,-0.0872 -0.226716,-0.0872 -0.406926,-0.238342 -0.174398,-0.151145 -0.284849,-0.360421 -0.110452,-0.209277 -0.110452,-0.453433 0,-0.3778607 0.424367,-0.3778607 0.09883,0 0.186023,0.069759 0.0872,0.069759 0.116265,0.1511442 z m 0.959185,-2.1218326 q -0.02325,0.01744 -0.02907,0.052319 -0.0058,0.034879 0.01744,0.063946 0.02907,0.046506 0.07557,0.1104516 0.04651,0.063946 0.09883,0.122078 0.03488,0.03488 0.05232,0.081385 0.01744,0.040693 0.03488,0.081385 0.02325,0.034879 0.05232,0.058132 0.02907,0.01744 0.08139,0.011626 0.06976,-0.011626 0.07557,-0.1104515 0.0058,-0.1046384 -0.06976,-0.2325296 -0.09301,-0.1511443 -0.21509,-0.2150899 -0.116265,-0.069759 -0.174397,-0.023253 z m 0.3953,0.7440948 q 0,0.098825 0.07557,0.1278912 0.04651,0.011627 0.0872,-0.023253 0.04069,-0.040693 0.03488,-0.098825 0,-0.093012 -0.08139,-0.1104516 -0.116265,-0.040693 -0.116265,0.1046384 z"
         style="font-family:'Glossy Sheen';-inkscape-font-specification:'Glossy Sheen'"
         id="path1681" />
      <path
         d="m 43.582668,7.6524361 q 0.09883,-0.00581 0.168584,0.1337045 0.07557,0.1395178 0.07557,0.3313547 0,0.2092766 -0.0872,0.3487944 -0.08139,0.1395178 -0.21509,0.1395178 h -0.08138 q 0.03488,0.4011135 0.03488,0.8371065 0.0058,0.435993 -0.02325,0.837107 0.3953,0 0.3953,0.435993 0,0.255782 -0.139517,0.389487 -0.133705,0.139517 -0.383674,0.139517 -0.02325,0 -0.05813,0 -0.02907,0 -0.06976,-0.0058 l -0.366235,-0.01163 q -0.04651,-0.0058 -0.08138,-0.0058 -0.02907,0 -0.05232,0 -0.261596,0 -0.406927,-0.145331 -0.139518,-0.145331 -0.139518,-0.406926 0,-0.186024 0.06976,-0.290662 0.07557,-0.104639 0.209277,-0.104639 h 0.122078 q -0.02907,-0.3662338 -0.01163,-0.7906003 0.01744,-0.4243665 0.01744,-0.8429198 -0.244156,0 -0.337168,-0.093012 -0.09301,-0.098825 -0.09301,-0.3429812 0,-0.2441561 0.06976,-0.3778606 0.07557,-0.1395178 0.203464,-0.145331 z m -0.05232,0.1337045 q -0.05232,0 -0.06395,0.052319 0,0.023253 0.01744,0.075572 0.01744,0.052319 0.02907,0.075572 0.01163,0.029066 0.01744,0.069759 0.0058,0.034879 0.01163,0.069759 0.01163,0.029066 0.02907,0.052319 0.01744,0.01744 0.05813,0.01744 0.04651,0 0.06395,-0.040693 0.02325,-0.046506 0.02907,-0.087199 0.0058,-0.087199 -0.04651,-0.1802105 -0.04651,-0.093012 -0.145331,-0.1046383 z m 0.09882,0.4650592 q -0.02907,0 -0.04651,0.023253 -0.01744,0.023253 -0.02325,0.052319 0,0.029066 0.0058,0.063946 0.01163,0.029066 0.04069,0.029066 0.03488,0.00581 0.05813,-0.01744 0.02325,-0.023253 0.02907,-0.058132 0,-0.029066 -0.01163,-0.058132 -0.01163,-0.029066 -0.05232,-0.03488 z m -0.09882,2.1625252 q -0.05813,0 -0.08139,0.02907 -0.02325,0.02907 -0.0058,0.07557 0.02325,0.05232 0.04069,0.122078 0.01744,0.06976 0.01744,0.110452 0,0.02907 0.02325,0.04069 0.02907,0.01163 0.05232,0.01163 0.08139,0 0.08139,-0.18021 0,-0.01163 -0.0058,-0.04651 -0.0058,-0.03488 -0.02325,-0.06976 -0.01163,-0.03488 -0.03488,-0.06395 -0.02325,-0.02907 -0.06395,-0.02907 z"
         style="font-family:'Glossy Sheen';-inkscape-font-specification:'Glossy Sheen'"
         id="path1683" />
      <path
         d="m 44.605793,11.256645 q -0.470872,0 -0.505752,-0.383674 -0.04069,-0.470872 -0.03488,-1.0115037 0.0058,-0.5464445 0.03488,-1.1975274 0.01163,-0.2441561 0.02907,-0.4301798 0.02325,-0.1918369 0.07557,-0.3197282 0.05813,-0.1278913 0.151145,-0.1918369 0.09883,-0.069759 0.255782,-0.069759 0.122078,0 0.238343,0.052319 0.116265,0.046506 0.19765,0.1395177 0.03488,0.040693 0.06976,0.098825 0.03488,0.058132 0.06395,0.1278913 0.03488,0.063946 0.05813,0.1278913 0.02907,0.063946 0.05232,0.1162648 0.05232,0.1162648 0.110452,0.2790355 0.05813,0.1569575 0.122078,0.3255414 0.06395,0.1627708 0.127891,0.3197282 0.06976,0.1511443 0.133705,0.2615958 0,-0.1569574 -0.0058,-0.3546076 0,-0.1976502 -0.0058,-0.3894871 -0.0058,-0.1976501 -0.01163,-0.3604209 0,-0.1685839 0,-0.2615958 0,-0.2790355 0.127891,-0.3836738 0.133705,-0.1046383 0.302289,-0.1046383 0.226716,0 0.372047,0.1278912 0.151144,0.1278913 0.151144,0.3255415 0,0.3546076 0.0058,0.7150285 0.0058,0.3604209 0,0.7150285 0,0.3487944 -0.01744,0.6859624 -0.01163,0.331355 -0.05232,0.62783 -0.01744,0.122078 -0.04651,0.19765 -0.02907,0.07557 -0.08139,0.116265 -0.05232,0.04069 -0.133704,0.05232 -0.07557,0.01744 -0.186024,0.01744 -0.151144,0 -0.279036,-0.110452 -0.127891,-0.104638 -0.238342,-0.255782 -0.104639,-0.151145 -0.191837,-0.313915 -0.08139,-0.162771 -0.145331,-0.273223 -0.08139,-0.151144 -0.180211,-0.348794 -0.09301,-0.2034634 -0.151144,-0.3894871 0.0058,0.1395177 0.0058,0.3081017 0.0058,0.1627704 0.0058,0.3371684 0.0058,0.168583 0.0058,0.337167 0,0.162771 0,0.302289 0,0.203463 -0.09301,0.319728 -0.09301,0.116265 -0.337168,0.116265 z m 0.186024,-3.3309866 q -0.122078,0.052319 -0.04651,0.145331 0.04651,0.046506 0.09301,0.1511442 0.05232,0.098825 0.07557,0.145331 0.01163,0.023253 0.04069,0.023253 0.03488,0 0.05813,-0.00581 0.05232,-0.01744 0.04651,-0.063946 0,-0.052319 -0.03488,-0.1569575 -0.0058,-0.011627 -0.02907,-0.058132 -0.01744,-0.046506 -0.05232,-0.087199 -0.03488,-0.046506 -0.07557,-0.075572 -0.03488,-0.034879 -0.07557,-0.01744 z m 1.662586,0.046506 q -0.05813,0.00581 -0.08138,0.052319 -0.02325,0.046506 -0.03488,0.1104515 -0.0058,0.058132 -0.0058,0.1220781 0,0.058132 0,0.093012 0,0.029066 -0.0058,0.093012 0,0.063946 0.0058,0.1278912 0.01163,0.058132 0.03488,0.1104516 0.02325,0.046506 0.06395,0.046506 0.04651,0.00581 0.07557,-0.023253 0.02907,-0.029066 0.04069,-0.069759 0.01744,-0.040693 0.02325,-0.081385 0.0058,-0.046506 0.0058,-0.081385 0.0058,-0.075572 0,-0.1627708 0,-0.093012 -0.01744,-0.1627707 -0.01163,-0.075572 -0.04069,-0.122078 -0.02325,-0.052319 -0.06395,-0.052319 z m 0.01744,0.8603595 q -0.05813,-0.00581 -0.09882,0.046506 -0.03488,0.046506 -0.04069,0.098825 0,0.087199 0.07557,0.093012 0.05232,0.00581 0.0872,-0.029066 0.04069,-0.040693 0.04651,-0.098825 0,-0.029066 -0.01744,-0.063946 -0.01163,-0.040693 -0.05232,-0.046506 z"
         style="font-family:'Glossy Sheen';-inkscape-font-specification:'Glossy Sheen'"
         id="path1685" />
    </g>
    <path
       d="m 16.688741,10.044226 m -2.706076,0 a 2.7060757,2.7060757 0 1 0 5.412151,0 2.7060757,2.7060757 0 1 0 -5.412151,0 z"
       fill="#ff7100"
       id="path2526"
       style="fill:url(#linearGradient3119);fill-opacity:1;stroke-width:0.00573101" />
    <path
       d="M 16.677502,8.208779 C 16.558958,7.9529689 16.789063,7.5944015 17.1915,7.4078985 17.593906,7.2213954 18.016236,7.2776187 18.134809,7.5334287 Z"
       fill="#30c03f"
       id="path2528"
       style="stroke-width:0.00573101" />
    <path
       d="m 16.677502,8.208779 c 0.118545,0.25581 0.540875,0.3120332 0.94331,0.1255302 0.402407,-0.1865031 0.632542,-0.5450429 0.513997,-0.8008805 z"
       fill="#97cf43"
       id="path2530"
       style="stroke-width:0.00573101" />
    <path
       d="m 15.883958,8.2160554 m -0.135564,0 a 0.13556345,0.13556345 0 1 0 0.271126,0 0.13556345,0.13556345 0 1 0 -0.271126,0 z"
       fill="#ffa05f"
       id="path2532"
       style="fill:#ffab5f;fill-opacity:1;stroke-width:0.00573101" />
    <path
       d="m 15.218493,8.7500643 m -0.135563,0 a 0.13556351,0.13556351 0 1 0 0.271127,0 0.13556351,0.13556351 0 1 0 -0.271127,0 z"
       fill="#ffa05f"
       id="path2534"
       style="fill:#ffbc5f;fill-opacity:1;stroke-width:0.00573101" />
    <path
       d="m 18.022133,8.5631811 m -0.135563,0 a 0.13556369,0.13556369 0 1 0 0.271127,0 0.13556369,0.13556369 0 1 0 -0.271127,0 z"
       fill="#ffa05f"
       id="path2536"
       style="stroke-width:0.00573101" />
    <path
       d="m 18.687597,9.1772958 m -0.135563,0 a 0.1355635,0.1355635 0 1 0 0.271127,0 0.1355635,0.1355635 0 1 0 -0.271127,0 z"
       fill="#ffa05f"
       id="path2538"
       style="stroke-width:0.00573101" />
    <path
       d="m 18.157697,9.4443158 m -0.135564,0 a 0.135564,0.135564 0 1 0 0.271128,0 0.135564,0.135564 0 1 0 -0.271128,0 z"
       fill="#ffa05f"
       id="path2540"
       style="stroke-width:0.00573101" />
    <path
       d="m 17.381288,8.9390632 m -0.135563,0 a 0.1355635,0.1355635 0 1 0 0.271126,0 0.1355635,0.1355635 0 1 0 -0.271126,0 z"
       fill="#ffa05f"
       id="path2542"
       style="stroke-width:0.00573101" />
    <path
       d="m 18.794405,10.191939 m -0.135564,0 a 0.135564,0.135564 0 1 0 0.271128,0 0.135564,0.135564 0 1 0 -0.271128,0 z"
       fill="#ffa05f"
       id="path2544"
       style="stroke-width:0.00573101" />
    <path
       d="m 16.650184,8.2381505 c 0,0 -0.157571,-0.9927517 -0.04727,-1.1030517 0.1103,-0.1103001 0.194338,-0.069746 0.236386,-0.031525 0.08667,0.078785 -0.09454,0.91397 -0.09454,1.02427 0,0.1102965 -0.04728,0.2205965 -0.09457,0.1102965 z"
       fill="#5a4530"
       id="path2546"
       style="stroke-width:0.00573101" />
    <path
       d="m 16.400008,8.2227164 c 0,0 0.190259,-0.030039 0.310417,0 0.120158,0.030039 0.130164,0.040053 0.150205,0.070102 0.02001,0.030039 -0.14017,0.020014 -0.14017,0.020014 0,0 -0.110153,-0.030039 -0.180223,-0.030039 h -0.120159 c 0,0 -0.08013,-0.030004 -0.02007,-0.060067 z"
       fill="#5a4530"
       id="path2548"
       style="stroke-width:0.00573101" />
  </g>
</svg>
