<?xml version="1.0" standalone="no"?>
<!DOCTYPE svg PUBLIC "-//W3C//DTD SVG 1.1//EN" "http://www.w3.org/Graphics/SVG/1.1/DTD/svg11.dtd" >
<svg xmlns="http://www.w3.org/2000/svg" xmlns:xlink="http://www.w3.org/1999/xlink" version="1.1">
<metadata>
Created by FontForge 20170731 at Mon Jan 24 22:28:59 2022
 By Aleksey,,,
Copyright (c) Niskala Huruf
</metadata>
<defs>
<font id="GlossySheen-Shine" horiz-adv-x="474" >
  <font-face 
    font-family="Glossy Sheen Shine"
    font-weight="400"
    font-stretch="normal"
    units-per-em="1000"
    panose-1="0 0 0 0 0 0 0 0 0 0"
    ascent="800"
    descent="-200"
    x-height="589"
    cap-height="590"
    bbox="-100 -227 5213 823"
    underline-thickness="50"
    underline-position="-175"
    unicode-range="U+000D-FB02"
  />
<missing-glyph horiz-adv-x="338" 
 />
    <glyph glyph-name="uniE000" unicode="GLOSSY&#x20;SHEEN" horiz-adv-x="5217" 
d="M3029 270q-26 26 -42 60t-16 82q0 47 18 85t48.5 65t71 42t85.5 15q42 0 85.5 -17t74.5 -49l50 -50q28 -28 41 -63q0 24 2 51.5t11 50t27.5 37.5t51.5 15q23 0 42.5 -5t33.5 -18l50 -50q20 -20 20 -59q0 -26 -1 -52.5t-2 -52.5q3 0 6 0.5t6 0.5q0 26 -1.5 51.5t-1.5 51.5
q0 25 3.5 50.5t13.5 45.5t29 33t49 13q25 0 41 -5.5t27 -16.5l50 -50q5 -5 8 -10t6 -11q3 29 17 52.5t46 28.5q53 9 114 12.5t115 3.5q17 0 32 -15l50 -50q9 -9 15 -21q5 26 19 45.5t43 24.5q53 9 114 12.5t115 3.5q17 0 32 -15l50 -50q6 -6 11 -14.5t10 -16.5q7 37 27.5 63
t62.5 26q49 0 82 -36l45 -45q2 -2 3 -2.5t2 -2.5q14 -15 29 -46.5t29 -68.5q-1 27 -1.5 54t-0.5 54q0 41 20.5 67.5t63.5 26.5q21 0 41.5 -7.5t34.5 -21.5l50 -50q24 -24 24 -59q0 -57 1 -113.5t1 -113.5q0 -62 -1 -124t-12 -123q-4 -22 -9.5 -36t-15 -22.5t-24.5 -12
t-38 -3.5q-20 0 -37 9.5t-32 24.5l-50 50q-23 23 -40.5 51.5t-32.5 57.5q1 -29 1 -56.5v-56.5q0 -85 -84 -85q-23 0 -42 5t-32 18l-41 40q-6 -21 -18.5 -34t-29 -19.5t-36 -9t-39.5 -3.5t-39 -1h-39h-79q-44 0 -66 22l-43 42q-6 -20 -19 -32t-29.5 -19t-35.5 -9t-38 -3
q-20 -1 -39 -1h-39h-79q-44 0 -66 22l-50 50q-10 10 -16 25q0 -50 -22 -71.5t-72 -21.5q-42 0 -64 24l-50 50q-15 15 -22 35t-9 41q1 -6 1 -11.5v-10.5q0 -26 -2.5 -49t-12 -40.5t-27.5 -27.5t-48 -10q-23 0 -44.5 5t-35.5 19l-50 50q-15 15 -18 37q-15 -27 -38.5 -47.5
t-51 -34t-58.5 -20t-61 -6.5q-46 0 -90.5 19t-77.5 52l-50 50q-27 26 -43 60.5t-16 74.5q0 38 23 56.5t60 18.5q7 0 10 -1zM484 260l9 -3v219q0 11 0.5 27.5t3.5 33.5q4 23 11.5 36.5t19 20.5t27.5 9t37 2q49 0 68 -19l50 -50q11 -11 15 -29.5t4 -44.5v-65l1 -130v-65v-20
t-1 -22q18 3 35 3q11 0 18.5 -4t13.5 -10l42 -42q-10 37 -13 80t-3 90q0 73 9 135t36 107t77.5 70t133.5 25q54 0 93 -15t65 -41l50 -50q15 -15 26 -33.5t19 -38.5q5 43 25 77t50 57.5t68 36t79 12.5q42 0 85.5 -17t74.5 -49l50 -50q11 -10 19 -21.5t15 -24.5q8 39 29 69
t50 50.5t65 31.5t74 11q42 0 85.5 -17t74.5 -49l50 -50q17 -15 29 -37q0 6 -0.5 11.5t-0.5 11.5q0 26 3.5 47t14 35.5t28.5 22.5t46 8q48 0 72 -25l50 -50q25 -25 25 -71q0 -25 -2.5 -49t-4.5 -49q15 8 18 25.5t3 32.5q0 27 -3.5 54t-3.5 54q0 22 9 37t24 24t33.5 13t37.5 4
q20 0 37.5 -5.5t29.5 -17.5l50 -50q19 -17 19 -51q0 -63 -4.5 -125.5t-4.5 -125.5q0 -29 2 -58.5t2 -58.5q0 -57 -16.5 -96t-46.5 -63t-73 -35t-97 -11q-19 0 -40.5 4t-43 12t-41.5 19.5t-36 27.5l-50 50q-5 4 -8.5 8.5t-7.5 9.5q-13 -31 -36.5 -54t-52.5 -38t-61.5 -22.5
t-64.5 -7.5q-46 0 -90.5 19t-77.5 52l-50 50q-11 10 -21 23q-10 -36 -33 -63t-53.5 -45t-66 -27t-70.5 -9q-46 0 -90.5 19t-77.5 52l-50 50q-11 10 -19 21t-16 23q-22 -92 -80 -131t-152 -39q-63 0 -105 15t-69 42l-50 50q-8 7 -15 17q1 -9 1.5 -17.5t0.5 -15.5
q0 -41 -16 -60t-55 -21q-9 -1 -20 -1h-22q-23 0 -46.5 -1t-46.5 -1h-46q-29 0 -45.5 10.5t-24.5 29.5l-50 50q-7 16 -9 38q-1 9 -1 19v21v43q-4 -3 -13 -5l2 -32q0 -91 -52 -139t-142 -48q-58 0 -98 15t-66 41l-50 50q-24 24 -37.5 55t-21 66.5t-9.5 74.5t-2 79
q0 62 8 121.5t33 106t70 75t118 28.5q100 0 151 -51l50 -50q51 -51 51 -149q0 -20 -7 -38t-24 -29q3 -4 5.5 -8t4.5 -9zM1865 235q-32 0 -52.5 -15t-20.5 -50q0 -42 19 -78t49.5 -62t69.5 -41t79 -15t79.5 11.5t70.5 34.5t50 57t19 78q0 45 -19.5 76.5t-49 53t-64 36.5
t-64 28.5t-49 27t-19.5 32.5q0 22 18 33t37 11q20 0 30 -3.5t15 -11t5.5 -18.5t0.5 -27q0 -34 19.5 -43.5t48.5 -9.5q23 0 38 8.5t23.5 22.5t12 32t3.5 38q0 38 -18 69t-47 53t-64 34t-70 12q-43 0 -81.5 -14t-68 -39.5t-46.5 -62t-17 -81.5t15 -77.5t39.5 -57.5t57 -44.5
t67.5 -37.5q3 -1 16.5 -8t27.5 -14.5t25.5 -14.5t11.5 -9q0 -7 -5.5 -12t-13 -7t-15.5 -3t-13 -1q-30 0 -47.5 8t-27.5 20t-16 26.5t-12.5 26.5t-17 20t-29.5 8zM1403 235q-32 0 -52.5 -15t-20.5 -50q0 -42 19 -78t49.5 -62t69.5 -41t79 -15t79.5 11.5t70.5 34.5t50 57
t19 78q0 45 -19.5 76.5t-49 53t-64 36.5t-64 28.5t-49 27t-19.5 32.5q0 22 18 33t37 11q20 0 30 -3.5t15 -11t5.5 -18.5t0.5 -27q0 -34 19.5 -43.5t48.5 -9.5q23 0 38 8.5t23.5 22.5t12 32t3.5 38q0 38 -18 69t-47 53t-64 34t-70 12q-43 0 -81.5 -14t-68 -39.5t-46.5 -62
t-17 -81.5t15 -77.5t39.5 -57.5t57 -44.5t67.5 -37.5q3 -1 16.5 -8t27.5 -14.5t25.5 -14.5t11.5 -9q0 -7 -5.5 -12t-13 -7t-15.5 -3t-13 -1q-30 0 -47.5 8t-27.5 20t-16 26.5t-12.5 26.5t-17 20t-29.5 8zM3044 235q-32 0 -52.5 -15t-20.5 -50q0 -42 19 -78t49.5 -62
t69.5 -41t79 -15t79.5 11.5t70.5 34.5t50 57t19 78q0 45 -19.5 76.5t-49 53t-64 36.5t-64 28.5t-49 27t-19.5 32.5q0 22 18 33t37 11q20 0 30 -3.5t15 -11t5.5 -18.5t0.5 -27q0 -34 19.5 -43.5t48.5 -9.5q23 0 38 8.5t23.5 22.5t12 32t3.5 38q0 38 -18 69t-47 53t-64 34
t-70 12q-43 0 -81.5 -14t-68 -39.5t-46.5 -62t-17 -81.5t15 -77.5t39.5 -57.5t57 -44.5t67.5 -37.5q3 -1 16.5 -8t27.5 -14.5t25.5 -14.5t11.5 -9q0 -7 -5.5 -12t-13 -7t-15.5 -3t-13 -1q-30 0 -47.5 8t-27.5 20t-16 26.5t-12.5 26.5t-16.5 20t-30 8zM426 301
q-20 0 -40.5 -1t-40.5 -1h-85q-13 0 -20.5 -5.5t-11 -14t-4 -19t-0.5 -20.5q0 -37 12 -48t47 -11q1 -6 1.5 -11.5t0.5 -10.5q0 -20 -11 -27t-30 -7q-25 0 -38.5 16.5t-20 40t-7.5 49t-1 42.5t1.5 45.5t8 56t20 47.5t38.5 20q20 0 28.5 -7.5t10.5 -18.5t2 -24.5t4 -24.5
t14.5 -18.5t34.5 -7.5q37 0 61.5 16.5t24.5 57.5q0 190 -192 190q-72 0 -115 -28.5t-66.5 -74t-30.5 -103t-7 -115.5q0 -63 6 -121t29 -102.5t67.5 -71t121.5 -26.5q85 0 134.5 45t49.5 132q0 20 -3 41q23 0 32.5 18t9.5 38q0 8 -1.5 19t-5 21t-10.5 17t-18 7zM1062 -31
q80 0 127 26t71.5 70.5t31.5 104.5t7 128q0 59 -8 114.5t-32 98t-67.5 68t-113.5 25.5q-81 0 -129.5 -24.5t-74.5 -68t-34 -103.5t-8 -131q0 -67 7 -123.5t31 -97.5t69.5 -64t122.5 -23zM4456 -34h47t47 1q41 1 64.5 9t36.5 24t16.5 42t3.5 64q0 33 -20 50t-52 17
q-13 0 -21.5 -6.5t-15 -15t-13 -15t-17.5 -6.5h-54l-6 89h109q14 0 22 9t12.5 21.5t6 26t1.5 23.5q0 27 -11 47.5t-42 20.5h-98l-5 62l136 11q16 2 25.5 8.5t14.5 17t6.5 23.5t1.5 26q0 9 -4.5 23t-12 27t-17.5 22.5t-21 9.5q-57 0 -114 -4t-113 -12q-20 -3 -31.5 -14.5
t-17 -28t-7 -35t-1.5 -34.5q0 -104 0.5 -207t0.5 -207q0 -43 17 -66t63 -23h63zM4068 -34h47t47 1q41 1 64.5 9t36.5 24t16.5 42t3.5 64q0 33 -20 50t-52 17q-13 0 -21.5 -6.5t-15 -15t-13 -15t-17.5 -6.5h-54l-6 89h109q14 0 22 9t12.5 21.5t6 26t1.5 23.5q0 27 -11 47.5
t-42 20.5h-98l-5 62l136 11q16 2 25.5 8.5t14.5 17t6.5 23.5t1.5 26q0 9 -4.5 23t-12 27t-17.5 22.5t-21 9.5q-57 0 -114 -4t-113 -12q-20 -3 -31.5 -14.5t-17 -28t-7 -35t-1.5 -34.5q0 -104 0.5 -207t0.5 -207q0 -43 17 -66t63 -23h63zM619 -24q23 0 46.5 1t46.5 1
t41.5 0.5t32.5 7t21.5 21.5t7.5 43q0 12 -2 29.5t-7.5 34t-15.5 28t-26 11.5q-24 0 -54 -7t-55 -11q5 11 8 26t4.5 31t2 32t0.5 28v65l-1 130v65q0 24 -3 39.5t-11.5 25.5t-23.5 14t-39 4q-14 0 -30 -1t-29 -9q-14 -8 -20.5 -27t-8.5 -41.5t-1.5 -44.5t0.5 -35v-353
q0 -21 1 -40.5t8 -34.5t21 -24t40 -9h46zM3455 41q0 -22 7 -35.5t19 -21t28.5 -10.5t35.5 -3q29 0 45 10t23.5 26t9.5 37.5t2 43.5q0 28 -3.5 55t-3.5 55l78 2q0 -20 -2 -41t-2 -41q0 -24 1.5 -50t10 -48t26 -36t49.5 -14q40 0 62 16t22 59v110l3 221v110q0 24 -2.5 43.5
t-10.5 33.5t-24.5 22t-44.5 8t-45 -12.5t-26 -31.5t-11.5 -42.5t-2.5 -45.5v-28l3 -57v-28q-21 -1 -41.5 -1.5t-41.5 -0.5q0 42 2 83t2 83q0 43 -24 57.5t-62 14.5q-37 0 -54.5 -22t-23.5 -53.5t-4.5 -66t1.5 -59.5q0 -38 -0.5 -75t-0.5 -75v-192zM2427 197q26 0 49.5 10.5
t42.5 27.5q1 -5 1 -10v-10q0 -14 -1.5 -32.5t-6.5 -34.5t-16 -27t-31 -11q-30 0 -48 11t-30 23.5t-21.5 23.5t-22.5 11t-27.5 -6t-26.5 -16.5t-19.5 -24t-7.5 -27.5q0 -34 18.5 -60t47 -44t61.5 -27t62 -9q51 0 92 10t70 32.5t45 60t16 92.5q0 11 -0.5 22t-0.5 22l-2 29
q0 11 -0.5 22t-0.5 22q0 63 4.5 125.5t4.5 125.5q0 35 -22 49.5t-54 14.5q-16 0 -33 -3.5t-30.5 -11t-22 -20.5t-8.5 -33q0 -27 3.5 -54t3.5 -54q0 -14 -2 -27.5t-8 -23.5t-16.5 -16t-27.5 -6t-27.5 4.5t-10.5 24.5q0 34 4 67t4 67q0 44 -22.5 65t-64.5 21q-27 0 -43 -7.5
t-24.5 -21t-11.5 -32.5t-3 -42q0 -14 1 -28t1 -28q0 -48 2.5 -91t17.5 -75.5t48 -51t94 -18.5zM4788 -30q74 0 74 75q0 110 -3 221q11 -33 25.5 -65t31.5 -62q11 -19 25.5 -47t33 -54t41 -44.5t47.5 -18.5q21 0 34 2.5t21.5 10t13.5 20.5t8 33q10 61 11.5 123.5t1.5 123.5
v28.5t-1 28.5l-1 112v56q0 19 -7.5 33.5t-20 24.5t-29 15t-33.5 5q-39 0 -56.5 -23.5t-17.5 -60.5q0 -59 2 -117.5t2 -117.5q-14 24 -30.5 66t-33 85.5t-33 80.5t-30.5 53t-34 24.5t-41 8.5q-33 0 -50.5 -18t-25.5 -45t-9.5 -57t-2.5 -54l-4 -108t-2 -109q0 -40 0.5 -81
t5.5 -82q5 -38 28 -52t59 -14zM4558 576q13 5 27 -1t24 -25q8 -17 2.5 -28t-16.5 -11q-18 1 -21 11t-8 21q-2 4 -5 8.5t-8 12.5q-2 4 0.5 7.5t4.5 4.5zM4170 576q13 5 27 -1t24 -25q8 -17 2.5 -28t-16.5 -11q-18 1 -21 11t-8 21q-2 4 -5 8.5t-8 12.5q-2 4 0.5 7.5t4.5 4.5z
M3261 562q10 8 30.5 -3.5t36.5 -37.5q13 -22 12 -39.5t-13 -19.5q-9 -1 -14 2.5t-8.5 10t-6.5 14t-9 13.5q-9 10 -17 21t-13 19q-4 5 -3 11t5 9zM2082 562q10 8 30.5 -3.5t36.5 -37.5q13 -22 12 -39.5t-13 -19.5q-9 -1 -14 2.5t-8.5 10t-6.5 14t-9 13.5q-9 10 -17 21t-13 19
q-4 5 -3 11t5 9zM1620 562q10 8 30.5 -3.5t36.5 -37.5q13 -22 12 -39.5t-13 -19.5q-9 -1 -14 2.5t-8.5 10t-6.5 14t-9 13.5q-9 10 -17 21t-13 19q-4 5 -3 11t5 9zM309 554q11 7 30 -7.5t31 -42.5q10 -23 6.5 -40t-15.5 -18q-9 0 -13.5 4.5t-7 11t-4.5 14.5t-7 15
q-8 11 -14 22.5t-11 20.5q-3 6 -1 12t6 8zM3577 549q7 0 11 -5t6.5 -11t3.5 -12t1 -8q0 -31 -14 -31q-4 0 -8.5 2t-4.5 7q0 7 -3 19t-7 21q-3 8 1 13t14 5zM1137 546q8 5 21 1t27 -14t27 -25.5t20 -33.5q8 -20 5.5 -36t-16.5 -16q-7 0 -11.5 4.5t-7.5 11t-5.5 14.5t-5.5 14
q-7 12 -16.5 21.5t-18.5 16t-16.5 12t-9.5 10.5q-3 5 -0.5 11t7.5 9zM2386 548q12 0 16 -17.5t2 -33.5q-1 -7 -4.5 -17t-17.5 -9q-6 0 -9.5 5t-4.5 11t-0.5 12.5t0.5 9.5v10.5t1 12.5t4.5 11t12.5 5zM2635 546q7 0 11.5 -8.5t7 -21t3 -28t-0.5 -28.5q0 -6 -1 -13.5
t-3.5 -14.5t-7.5 -12t-13 -4q-7 0 -11 8.5t-5.5 19t-1 21.5t0.5 16v16.5t1.5 21t5.5 18.5t14 9zM619 544q7 1 11.5 -9t6.5 -23.5t3 -26t1 -17.5q0 -6 -0.5 -13.5t-2.5 -14.5t-6.5 -12t-12.5 -5q-7 0 -11 6.5t-5 15.5t-1 18.5v14.5q0 6 -1 16.5t0 21t4.5 19t13.5 9.5z
M4820 543q7 3 13.5 -2.5t12.5 -13t9.5 -15.5t4.5 -10q6 -18 6.5 -26.5t-8.5 -11.5q-4 -1 -9.5 -1t-7.5 4q-4 8 -12.5 25.5t-16.5 25.5q-13 16 8 25zM3814 537q7 1 11.5 -9t6.5 -23.5t3 -26t1 -17.5q0 -6 -0.5 -13.5t-2.5 -14.5t-6.5 -12t-12.5 -5q-7 0 -11 6.5t-5 15.5
t-1 18.5v14.5q0 6 -1 16.5t0 21t4.5 19t13.5 9.5zM5106 535q7 0 11.5 -8.5t7 -21t3 -28t-0.5 -28.5q0 -6 -1 -13.5t-3.5 -14.5t-7.5 -12t-13 -4q-7 0 -11 8.5t-5.5 19t-1 21.5t0.5 16v16.5t1.5 21t5.5 18.5t14 9zM4203 491q3 17 16 11q7 -3 7 -15q-1 -6 -6 -10t-10 -2
q-4 2 -6 6.5t-1 9.5zM4591 491q3 17 16 11q7 -3 7 -15q-1 -6 -6 -10t-10 -2q-4 2 -6 6.5t-1 9.5zM3329 434q0 25 20 18q14 -3 14 -19q1 -10 -6 -16.5t-15 -4.5q-13 5 -13 22zM2150 434q0 25 20 18q14 -3 14 -19q1 -10 -6 -16.5t-15 -4.5q-13 5 -13 22zM1688 434q0 25 20 18
q14 -3 14 -19q1 -10 -6 -16.5t-15 -4.5q-13 5 -13 22zM359 418q3 25 23 15q13 -5 11 -21q-1 -10 -8.5 -16t-15.5 -2q-5 2 -8 9t-2 15zM1000 256v14q0 16 1 43.5t7 54.5t19 46.5t37 19.5q27 0 41.5 -22t21 -51.5t7 -60t0.5 -48.5t-2 -39t-9 -39t-21 -30t-38 -12
q-25 0 -38 12.5t-19 31.5t-6.5 40.5t-0.5 39.5zM1220 395q2 10 7.5 13.5t13.5 -1.5q5 -2 7.5 -8t1.5 -12q-2 -8 -8.5 -13t-13.5 -1q-5 2 -7.5 8.5t-0.5 13.5zM627 405q7 0 10.5 -6.5t3.5 -12.5q0 -9 -6.5 -15.5t-15.5 -6.5q-14 0 -14 14q0 9 6 18t16 9zM2638 398
q7 -1 9.5 -7.5t2.5 -11.5q-1 -10 -7.5 -16.5t-15.5 -5.5q-13 1 -13 16q1 9 7.5 17.5t16.5 7.5zM3822 398q7 0 10.5 -6.5t3.5 -12.5q0 -9 -6.5 -15.5t-15.5 -6.5q-14 0 -14 14q0 9 6 18t16 9zM4654 166q6 -4 7 -5l24 -25q0 66 1 130t4 129q-6 -6 -15 -10t-21 -5
q-17 -2 -32.5 -3t-32.5 -2q14 -4 24 -14l50 -50q11 -11 15.5 -28t4.5 -34q0 -20 -5.5 -45t-23.5 -38zM4266 166q6 -4 7 -5l30 -31q0 66 -0.5 132.5t-0.5 132.5q-7 -6 -15.5 -10t-20.5 -5q-17 -2 -32.5 -3t-32.5 -2q14 -4 24 -14l50 -50q11 -11 15.5 -28t4.5 -34
q0 -20 -5.5 -45t-23.5 -38zM2075 348q-15 13 -16 44q-14 -2 -23.5 -9.5t-11.5 -18.5q14 -7 29.5 -13t32.5 -14zM1613 348q-15 13 -16 44q-14 -2 -23.5 -9.5t-11.5 -18.5q14 -7 29.5 -13t32.5 -14zM3254 348q-15 13 -16 44q-14 -2 -23.5 -9.5t-11.5 -18.5q14 -7 29.5 -13
t32.5 -14zM5109 387q7 -1 9.5 -7.5t2.5 -11.5q-1 -10 -7.5 -16.5t-15.5 -5.5q-13 1 -13 16q1 9 7.5 17.5t16.5 7.5zM329 309l-38 37q-11 13 -13 32q-17 -10 -24.5 -32.5t-10.5 -39.5q8 3 17 3h69zM4565 351q8 2 17 -4t14 -21q4 -14 -0.5 -21.5t-12.5 -7.5q-9 0 -9.5 9.5
t-5.5 17.5q-3 6 -4 9l-3 9q-1 3 0.5 5.5t3.5 3.5zM4177 351q8 2 17 -4t14 -21q4 -14 -0.5 -21.5t-12.5 -7.5q-9 0 -9.5 9.5t-5.5 17.5q-3 6 -4 9l-3 9q-1 3 0.5 5.5t3.5 3.5zM4970 342q3 -7 5.5 -13t5.5 -12zM1850 270q-14 14 -25.5 31t-19.5 37q-11 -33 -32.5 -45.5
t-54.5 -12.5q4 -3 10 -9l50 -50q3 -3 6 -6.5t6 -6.5q11 21 31.5 29t43.5 8q7 0 10 -1zM3445 233v52t1 52q-11 -32 -33 -44.5t-54 -12.5q4 -3 10 -9l50 -50q16 -16 26 -33v45zM2300 228q-19 19 -27.5 42.5t-12.5 49.5q-13 -25 -33.5 -32.5t-46.5 -7.5q4 -3 10 -9l50 -50
q13 -13 23 -28t16 -32q13 12 28.5 19.5t31.5 8.5zM1388 270q-17 17 -31 39q1 -18 1.5 -36t0.5 -36q21 8 44 8q7 0 10 -1zM410 287q8 3 17 -3.5t14 -21.5q4 -14 -0.5 -21.5t-12.5 -7.5q-9 0 -9.5 9.5t-5.5 17.5q-3 6 -4 9l-3 9q-1 3 0.5 5.5t3.5 3.5zM239 175q2 -21 6 -40
q21 0 26 8zM3205 137q-29 14 -61 33l9 -15l7 -15q7 -2 15 -3t19 -1q7 0 11 1zM1564 137q-29 14 -61 33l9 -15l7 -15q7 -2 15 -3t19 -1q7 0 11 1zM2026 137q-29 14 -61 33l9 -15l7 -15q7 -2 15 -3t19 -1q7 0 11 1zM1584 149q-5 3 -11.5 6.5t-13.5 7.5zM2046 149
q-5 3 -11.5 6.5t-13.5 7.5zM3225 149q-5 3 -11.5 6.5t-13.5 7.5zM4556 159h-23l1 -18l9 3zM4168 159h-23l1 -18l9 3zM2397 149l5 -5zM2497 139q-5 -1 -10 -1.5t-10 -0.5q-44 0 -77 11l13 -13q10 -7 22.5 -11t29.5 -4q21 0 32 19zM3678 138l2 -28t3 -28q-1 9 -1 18.5v17.5v10
t1 10h-5zM757 126q7 0 11 -8t6.5 -18t3.5 -19t1 -11q0 -31 -14 -31q-4 0 -8.5 2t-4.5 7q0 3 -1 11.5t-2.5 17.5l-3 18t-3.5 13q-3 8 1 13t14 5z" />
    <glyph glyph-name="fi" unicode="fi" horiz-adv-x="672" 
d="M28 47v92l1 187v92q0 53 0.5 85t7 50t21.5 24.5t44 9.5q48 5 95.5 8t95.5 3q34 0 45.5 -23t11.5 -61q0 -11 -1.5 -25t-6.5 -26t-14 -20.5t-23 -9.5l-116 -6l-3 -110q18 7 37 11.5t39 4.5q21 0 34 -8t19.5 -21t9 -29.5t2.5 -33.5q0 -35 -16.5 -48t-48.5 -17
q-19 -2 -37.5 -6.5t-37.5 -4.5q0 -20 3 -46t3 -46q0 -25 -2 -45t-11 -33.5t-26.5 -20.5t-47.5 -7q-47 0 -62.5 16.5t-15.5 63.5zM613 590q17 1 29.5 -23t12.5 -57q0 -36 -14.5 -60t-37.5 -24h-14q6 -69 6.5 -144t-4.5 -144q68 0 68 -75q0 -44 -23.5 -67.5t-66.5 -23.5h-9.5
t-12.5 1l-63 2q-8 1 -13.5 1h-9.5q-45 0 -69.5 25t-24.5 70q0 32 12.5 50t35.5 18h21q-5 63 -2 136t3 145q-42 0 -58 16.5t-16 58.5t12.5 65.5t34.5 24.5zM278 578q-10 0 -10 -10q0 -4 4.5 -14t6.5 -14q5 -10 6 -21t14 -13h2q8 0 11.5 8t3.5 15q0 15 -10.5 32t-27.5 17z
M604 567q-9 0 -11 -9q0 -4 3 -13t5 -13q2 -5 3 -11.5t2.5 -12t4.5 -9t10 -3.5q8 0 11.5 7.5t4.5 14.5q1 15 -7.5 31t-25.5 18zM305 498q-5 0 -8 -4.5t-3 -9.5t2 -10t7 -5q14 0 14 14q0 5 -2.5 10t-9.5 5zM621 487q-5 0 -8 -4t-4 -9q0 -5 1.5 -10.5t6.5 -5.5q6 -1 10 3t5 10
q0 5 -2 10t-9 6zM265 313q-5 -3 -3 -9q3 -6 4 -9t5 -8q6 -8 8 -17.5t10 -7.5q8 1 11.5 9t-1.5 21q-7 14 -16.5 19t-17.5 2zM604 115q-10 0 -14 -5t-1 -13q4 -9 7 -21t3 -19q0 -5 4.5 -7t8.5 -2q14 0 14 31q0 2 -1 8t-3.5 12t-6.5 11t-11 5z" />
    <glyph glyph-name="fl" unicode="fl" horiz-adv-x="716" 
d="M28 47v92l1 187v92q0 53 0.5 85t7 50t21.5 24.5t44 9.5q48 5 95.5 8t95.5 3q34 0 45.5 -23t11.5 -61q0 -11 -1.5 -25t-6.5 -26t-14 -20.5t-23 -9.5l-116 -6l-3 -110q18 7 37 11.5t39 4.5q21 0 34 -8t19.5 -21t9 -29.5t2.5 -33.5q0 -35 -16.5 -48t-48.5 -17
q-19 -2 -37.5 -6.5t-37.5 -4.5q0 -20 3 -46t3 -46q0 -25 -2 -45t-11 -33.5t-26.5 -20.5t-47.5 -7q-47 0 -62.5 16.5t-15.5 63.5zM456 -24q-44 0 -57 26t-13 82v353q0 51 2 82t10.5 48t26.5 22.5t50 5.5q21 0 36 -3t24 -12t13 -25t4 -43q0 -60 0.5 -121.5t0.5 -138.5
q0 -11 -0.5 -27t-2 -32.5t-4.5 -31.5t-8 -26l102 17q16 3 27 -5.5t18 -23.5t10 -34.5t3 -38.5q0 -29 -7.5 -43.5t-21.5 -21t-32.5 -7t-41.5 -0.5h-23l-47 -2h-23h-46zM278 578q-10 0 -10 -10q0 -4 4.5 -14t6.5 -14q5 -10 6 -21t14 -13h2q8 0 11.5 8t3.5 15q0 15 -10.5 32
t-27.5 17zM502 544q-10 -1 -13.5 -9.5t-4.5 -19t0 -21t1 -16.5v-14.5t1 -18.5t5 -15.5t11 -6.5q8 0 12.5 5t6.5 12t2.5 14.5t0.5 13.5q0 5 -1 17.5t-3 26t-6.5 23.5t-11.5 9zM305 498q-5 0 -8 -4.5t-3 -9.5t2 -10t7 -5q14 0 14 14q0 5 -2.5 10t-9.5 5zM510 405q-10 0 -16 -9
t-6 -18q0 -14 14 -14q9 0 15.5 6.5t6.5 15.5q0 6 -3.5 12.5t-10.5 6.5zM265 313q-5 -3 -3 -9q3 -6 4 -9t5 -8q6 -8 8 -17.5t10 -7.5q8 1 11.5 9t-1.5 21q-7 14 -16.5 19t-17.5 2zM640 126q-10 0 -14 -5t-1 -13q2 -4 3.5 -13l3 -18t2.5 -17.5t1 -11.5q0 -5 4.5 -7t8.5 -2
q14 0 14 31q0 2 -1 11t-3.5 19t-6.5 18t-11 8z" />
    <glyph glyph-name=".notdef" horiz-adv-x="338" 
 />
    <glyph glyph-name="uni0000" horiz-adv-x="0" 
 />
    <glyph glyph-name="uni0000" horiz-adv-x="0" 
 />
    <glyph glyph-name="uni000D" unicode="&#xd;" horiz-adv-x="250" 
 />
    <glyph glyph-name="space" unicode=" " horiz-adv-x="265" 
 />
    <glyph glyph-name="exclam" unicode="!" horiz-adv-x="294" 
d="M69 543q0 34 22 53t56 19q42 0 66 -16t24 -52q0 -45 -3.5 -95.5t-8 -96t-8.5 -81.5t-4 -51q0 -30 -17.5 -48t-47.5 -18q-31 0 -44.5 18t-13.5 47q0 16 -3.5 51.5t-7 80.5t-7 95t-3.5 94zM194 579q-10 -1 -14 -9t-5.5 -18.5t-1.5 -21v-16.5q0 -5 -0.5 -16t1 -21.5t5.5 -19
t11 -8.5q8 -1 13 4t7.5 12t3.5 14.5t1 13.5q1 13 0.5 28.5t-3 28t-7 21t-11.5 8.5zM197 431q-10 1 -16.5 -7.5t-7.5 -17.5q0 -15 13 -16q9 -1 15.5 5.5t7.5 16.5q0 5 -2.5 11.5t-9.5 7.5zM229 59q0 -16 -6 -32.5t-16.5 -29t-25.5 -20.5t-32 -8q-35 0 -56 24.5t-21 58.5
q0 35 19 59.5t57 24.5q34 0 57.5 -21t23.5 -56zM181 105q-7 -3 -8.5 -7t-0.5 -9t3 -10t3 -8t2.5 -8t4 -10.5t6.5 -8.5t9 -2q12 4 12.5 13t-1.5 15q-3 14 -11.5 26t-18.5 9z" />
    <glyph glyph-name="quotedbl" unicode="&#x22;" horiz-adv-x="393" 
d="M33 555q0 32 17.5 54.5t55.5 22.5t58 -20.5t20 -55.5q0 -21 -2.5 -49t-11 -54t-23.5 -44t-40 -18q-29 0 -44 17.5t-22 42.5t-7.5 53.5t-0.5 50.5zM207 555q0 32 17.5 54.5t55.5 22.5t58 -20.5t20 -55.5q0 -21 -2.5 -49t-11 -54t-23.5 -44t-40 -18q-29 0 -44 17.5
t-22 42.5t-7.5 53.5t-0.5 50.5zM313 606q-9 0 -11 -8q0 -4 2.5 -12.5t4.5 -12.5q4 -10 5.5 -22t14.5 -12q8 0 10.5 7t3.5 14q1 14 -6.5 29t-23.5 17z" />
    <glyph glyph-name="numbersign" unicode="#" horiz-adv-x="608" 
d="M135 259q0 2 0.5 7t1.5 12t2 16q-16 0 -32 1t-28.5 7.5t-20 20.5t-7.5 40q0 28 12.5 49t39.5 21h30t30 -2q2 16 7 43t13 53t21 45t32 19q38 0 58.5 -15t20.5 -52q0 -24 -3.5 -48.5t-8.5 -47.5q20 -1 39 -1h39q3 18 7 45t12 52.5t21 44t34 18.5q37 0 53 -16t16 -55
q0 -22 -3.5 -43.5t-8.5 -42.5q23 -4 39.5 -17.5t16.5 -45.5q0 -27 -7 -42t-19 -22t-28 -8.5t-34 -1.5l-4 -37q40 -1 58 -14t18 -54q0 -30 -7 -45t-20 -20t-30.5 -4.5t-37.5 0.5q-3 -21 -9 -42t-16.5 -37t-27 -26t-39.5 -10q-25 0 -36.5 18.5t-11.5 44.5q0 18 2 28.5t5 27.5
q-19 0 -37.5 1t-38.5 0q-4 -20 -8 -42t-12 -40t-21.5 -30t-36.5 -12q-11 0 -24 4.5t-23.5 13t-17.5 19.5t-7 24q0 19 2 31.5t6 30.5q-29 0 -45.5 12.5t-16.5 53.5q0 24 5.5 37.5t17 21t28.5 9.5t40 2zM529 407q-7 0 -9 -6q0 -3 2 -10t3 -9q4 -8 5 -17t11 -9q6 0 8 5.5
t3 10.5q1 11 -5.5 22t-17.5 13zM541 349q-4 0 -6.5 -3t-3.5 -6q-1 -4 1 -8.5t6 -4.5q8 0 10 10q0 11 -7 12zM351 257l5 38q-20 1 -40 1.5t-40 0.5l-5 -40h80zM523 226q-8 -2 -7 -9t3 -12q3 -6 4.5 -13t6.5 -7t6.5 5.5t-0.5 13.5q-1 8 -4.5 16t-8.5 6z" />
    <glyph glyph-name="dollar" unicode="$" horiz-adv-x="470" 
d="M148 209q8 -14 11 -23.5t16 -22.5q5 -5 20 -10.5t38 -5.5q20 0 30.5 6t10.5 14q0 3 -20.5 14t-49.5 26q-25 14 -53 29.5t-50.5 37.5t-37.5 51.5t-15 70.5q0 57 32 99.5t85 60.5v72q0 30 19 48t49 18q29 0 49.5 -15t20.5 -47v-22t-0.5 -17t-1 -17t-0.5 -21
q52 -20 78.5 -59.5t26.5 -74.5q0 -39 -14.5 -63.5t-52.5 -24.5q-37 0 -49 13.5t-10 41.5q2 26 -8 34.5t-36 8.5q-20 0 -34 -10.5t-14 -27.5q0 -9 7.5 -18t20.5 -17t30.5 -16.5t36.5 -16.5q24 -11 48 -23t43.5 -29.5t31.5 -41t12 -58.5q0 -57 -35 -94.5t-87 -53.5q1 -9 2 -19
t2 -23q2 -35 -18 -56.5t-55 -21.5t-53.5 21t-18.5 55q0 12 0.5 24t1.5 24q-51 20 -84 60t-33 97q0 56 63 56q15 0 28 -10t17 -23zM291 526q-3 -3 -4 -7.5t3 -9.5q5 -8 11.5 -17.5t14.5 -17.5q5 -5 8 -11.5t6 -12t7 -9t12 -2.5q11 2 11 17t-11 34q-14 23 -31.5 33t-26.5 3z
M350 415q0 -16 12 -19q6 -2 12.5 4t5.5 14q0 14 -12 16q-18 7 -18 -15z" />
    <glyph glyph-name="percent" unicode="%" horiz-adv-x="929" 
d="M221 247q-43 0 -75.5 14.5t-54.5 40t-33 60.5t-11 76q0 87 45 141.5t137 54.5q89 0 133 -51t44 -136q0 -43 -12 -79.5t-35.5 -63.5t-58 -42t-79.5 -15zM394 49q-7 -10 -16.5 -24.5t-21.5 -27.5t-25.5 -22.5t-27.5 -9.5q-34 0 -53.5 21.5t-19.5 51.5q0 13 14 41t33 58.5
t37 58t26 39.5q51 76 96 154.5t92 156.5q8 14 17.5 28t21 25t26 18t32.5 7q28 0 48.5 -20t20.5 -48q0 -11 -5 -25t-10 -24q-69 -117 -140 -231t-145 -227zM653 577q-4 2 -9.5 -0.5t-7.5 -7.5q-4 -8 -8 -19.5t-7 -22.5q-2 -7 -6.5 -13.5t-8 -12t-4.5 -11t4 -11.5q4 -5 11 -5
q19 0 35 30q13 25 12.5 47.5t-11.5 25.5zM181 435q0 -10 1.5 -23.5t6.5 -25.5t13.5 -20t22.5 -8t23.5 8.5t15.5 21t8.5 27t2.5 25.5t-2 24.5t-7.5 25.5t-14 20t-22.5 8q-15 0 -24.5 -8.5t-14.5 -21.5t-7 -27.5t-2 -25.5zM586 464q-14 -9 -11 -21q2 -8 9.5 -10.5t15.5 2.5
q12 9 10 20q-3 13 -13 13q-6 0 -11 -4zM711 -31q-86 0 -130 52.5t-44 136.5q0 44 11.5 81.5t34.5 65t58 43t82 15.5q46 0 79 -15t54.5 -41.5t32 -63t10.5 -78.5q0 -91 -48.5 -143.5t-139.5 -52.5zM766 325q-6 -8 2 -16q6 -5 14 -12t16 -13q6 -4 10 -10t7.5 -10.5t8 -6.5
t10.5 1q8 4 6 18t-16 29q-11 12 -23.5 18.5t-22.5 6.5q-9 0 -12 -5zM669 164q0 -12 1.5 -25.5t6.5 -24.5t14.5 -18.5t24.5 -7.5q17 0 27 7.5t16 19t8 25.5t2 27q0 12 -1.5 26t-7 26t-14.5 20.5t-24 8.5q-16 0 -26.5 -8t-16.5 -20.5t-8 -27.5t-2 -28z" />
    <glyph glyph-name="ampersand" unicode="&#x26;" horiz-adv-x="573" 
d="M530 103q8 -6 13 -19t5 -21q0 -15 -5.5 -31t-15 -29.5t-24 -22t-33.5 -8.5q-7 0 -21 7.5t-29 18.5t-27.5 21.5t-17.5 16.5q-31 -26 -68 -42t-78 -16q-37 0 -73 13t-65 36.5t-47 56.5t-18 72q0 50 21.5 84t59.5 63q-20 32 -29 68t-9 74q0 44 15 76.5t41.5 54t63 32.5
t80.5 11q38 0 70.5 -8.5t57 -25.5t38.5 -44t14 -65q0 -14 -6.5 -25.5t-17 -19.5t-23.5 -12.5t-26 -4.5q-28 0 -39.5 9.5t-19 21.5t-16.5 21.5t-32 9.5q-10 0 -19 -4.5t-15 -12.5t-9 -19t-1 -23q8 -40 43 -86.5t79 -84.5q1 24 1.5 44.5t5.5 35.5t17.5 23.5t38.5 8.5
q25 0 44.5 -11t19.5 -40q0 -35 -4 -73.5t-14 -73.5zM332 576q-4 -4 -5.5 -9.5t3.5 -10.5q8 -8 18 -13.5t20 -17.5q6 -7 9 -15.5t6 -15.5t7.5 -10.5t13.5 -1.5q6 2 10 8t5 15t-1.5 19.5t-10.5 20.5q-14 18 -31 27t-30 9q-9 0 -14 -5zM174 159q0 -9 5.5 -16.5t14.5 -13
t20 -8.5t21 -3q17 0 26 9q-19 16 -36 34t-34 37q-7 -9 -12 -20t-5 -19zM498 94q-2 -1 -3.5 -3.5t-0.5 -5.5l3 -9t4 -9q5 -8 5.5 -17.5t9.5 -9.5q8 0 12.5 7.5t0.5 21.5q-5 15 -14 21.5t-17 3.5z" />
    <glyph glyph-name="quotesingle" unicode="'" horiz-adv-x="225" 
d="M33 555q0 32 17.5 54.5t55.5 22.5t58 -20.5t20 -55.5q0 -21 -2.5 -49t-11 -54t-23.5 -44t-40 -18q-29 0 -44 17.5t-22 42.5t-7.5 53.5t-0.5 50.5zM139 606q-9 0 -11 -8q0 -4 2.5 -12.5t4.5 -12.5q4 -10 5.5 -22t14.5 -12q8 0 10.5 7t3.5 14q1 14 -6.5 29t-23.5 17z" />
    <glyph glyph-name="parenleft" unicode="(" horiz-adv-x="371" 
d="M58 289q0 96 30.5 183.5t99.5 147.5q31 26 54 39t55 13q30 0 45.5 -24.5t15.5 -56.5q0 -15 -7 -27t-19 -23t-27.5 -22t-32.5 -24q-18 -14 -30.5 -39t-21 -54.5t-12.5 -59.5t-4 -54q0 -76 29 -136t103 -111q11 -7 13 -21.5t2 -25.5q0 -12 -4 -26t-11.5 -26t-18.5 -20
t-25 -8q-9 0 -26 7t-36.5 18t-39 25.5t-33.5 29.5q-46 49 -72.5 120.5t-26.5 174.5zM294 650q-10 -2 -12.5 -8.5t2.5 -12.5q6 -8 12.5 -20t8.5 -18q1 -5 6 -6t9 0q14 4 5 34q-1 2 -3.5 8t-6.5 11.5t-9.5 9.5t-11.5 2z" />
    <glyph glyph-name="parenright" unicode=")" horiz-adv-x="356" 
d="M341 289q0 -103 -26.5 -174.5t-73.5 -120.5q-14 -15 -33.5 -29.5t-39 -25.5t-36 -18t-25.5 -7q-14 0 -25 8t-18.5 20t-11.5 26t-4 26q0 11 2 25.5t13 21.5q74 51 103 111t29 136q0 24 -4 54t-12.5 59.5t-21 54.5t-30.5 39q-16 13 -31.5 24t-27.5 22t-19.5 23t-7.5 27
q0 32 19 53t48 21q16 0 28.5 -2t23.5 -7.5t23 -14t27 -21.5q70 -60 100.5 -147.5t30.5 -183.5zM110 634q-3 -5 -4 -10.5t4 -10.5q8 -7 19.5 -13.5t22.5 -17.5q13 -13 23.5 -25.5t27.5 -6.5q12 5 7.5 21.5t-22.5 34.5q-16 17 -33.5 25t-30.5 8q-10 0 -14 -5zM209 523
q2 -8 7 -13.5t11 -6.5q8 -2 13.5 6.5t3.5 18.5q-2 7 -7 11t-10 5q-10 2 -15 -4t-3 -17z" />
    <glyph glyph-name="asterisk" unicode="*" horiz-adv-x="398" 
d="M95 360q-10 0 -20 7t-17.5 17.5t-12 22t-4.5 20.5q0 20 15.5 31t34.5 18q-17 2 -34.5 13t-17.5 32q0 13 4.5 26t12.5 23.5t20 17.5t27 7q3 0 8 -3t11 -7.5t11 -8.5t7 -6v5q0 29 12 47.5t40 18.5q32 0 44 -21t12 -50q8 6 20 17.5t22 11.5q11 0 21.5 -6t19 -16t14 -22.5
t5.5 -24.5q0 -23 -13.5 -32.5t-31.5 -14.5q18 -3 31.5 -11t13.5 -29q0 -13 -4 -27t-12 -25.5t-18.5 -19t-24.5 -7.5t-25 7.5t-20 15.5q0 -13 -1.5 -25.5t-7 -22t-16.5 -15t-31 -5.5q-28 0 -37 14t-9 40v6q-13 -8 -27 -13.5t-22 -5.5zM285 581q-6 -2 -4 -9q2 -3 7 -8.5
t7 -7.5q6 -6 11 -15t14 -4q5 2 5 9t-2 12q-4 10 -15 19t-23 4zM325 534q-3 0 -4.5 -3.5t-2.5 -6.5q0 -3 1.5 -6.5t4.5 -3.5q9 0 9 10t-8 10z" />
    <glyph glyph-name="plus" unicode="+" horiz-adv-x="491" 
d="M186 235q-24 0 -46 -1t-39.5 4t-27.5 19.5t-10 45.5q0 34 10.5 49.5t27.5 21t40 4t47 -0.5q0 24 -1.5 45.5t3 37.5t19 25.5t46.5 9.5q36 0 52.5 -12t16.5 -50v-27.5t-1 -27.5q24 -1 46 0.5t38.5 -3t26 -19.5t9.5 -49q0 -32 -8.5 -47t-24 -20.5t-37.5 -4.5t-48 1
q0 -22 -0.5 -42.5t-6.5 -36t-20.5 -24.5t-43.5 -9q-34 0 -51.5 10.5t-17.5 48.5v26t1 26zM380 356q-3 0 -7 -2t-4 -6t2.5 -14t6 -20t8.5 -17.5t10 -7.5q8 0 11 8.5t3 14.5q0 13 -7.5 28.5t-22.5 15.5zM396 280q-4 0 -8 -3.5t-4 -8.5t1.5 -10.5t7.5 -5.5q12 0 12 13
q0 5 -1.5 10t-7.5 5z" />
    <glyph glyph-name="comma" unicode="," horiz-adv-x="274" 
d="M85 11q-23 4 -35 22t-12 45q0 17 7.5 33t20.5 29t30.5 21t36.5 8q45 0 71 -28t26 -73q0 -21 -11 -47t-28.5 -48.5t-40 -38t-45.5 -15.5q-15 0 -28.5 6t-13.5 24t8.5 32t13.5 30zM162 145q-3 0 -6.5 -2t-4.5 -7q-1 -4 5 -13t8 -14q5 -9 8.5 -20.5t16.5 -10.5q8 1 10.5 9
t1.5 15q-1 16 -11.5 30.5t-27.5 12.5zM189 68q-5 0 -8 -6t-3 -11q1 -5 3.5 -12t8.5 -7q14 1 14 17q-1 8 -4 14t-11 5z" />
    <glyph glyph-name="hyphen" unicode="-" horiz-adv-x="388" 
d="M346 280q0 -47 -12.5 -63.5t-43.5 -16.5h-177q-32 0 -49 16.5t-17 56.5t12.5 57t43.5 17h71h15t14 1l60 2q22 0 38 -1.5t26 -8.5t14.5 -21t4.5 -39zM292 331q-9 0 -11 -8q0 -4 2.5 -12.5t4.5 -12.5q4 -10 5.5 -22t14.5 -12q8 0 10.5 7t3.5 14q1 14 -6.5 29t-23.5 17z
M308 255q-5 0 -8 -3.5t-4 -8.5q0 -5 1.5 -10.5t6.5 -5.5q11 -1 13 13q0 5 -1.5 9.5t-7.5 5.5z" />
    <glyph glyph-name="period" unicode="." horiz-adv-x="276" 
d="M231 81q0 -49 -23 -78.5t-74 -29.5q-48 0 -68.5 27.5t-20.5 72.5q0 43 22 73t67 30q97 0 97 -95zM172 143q-10 0 -12 -8q0 -5 3 -14t5 -13q2 -5 3 -11t2.5 -11.5t4.5 -9t10 -3.5q9 0 12.5 7t3.5 14q1 15 -7 31.5t-25 17.5zM187 63q-5 0 -8.5 -5.5t-4.5 -10.5
q0 -5 1.5 -12.5t7.5 -7.5q8 -2 12 3t5 12t-2 13t-11 8z" />
    <glyph glyph-name="slash" unicode="/" horiz-adv-x="424" 
d="M385 573q1 -10 -1.5 -26t-12.5 -48q-7 -22 -16.5 -50t-20.5 -59t-22 -64t-22 -65q-20 -57 -38.5 -114.5t-33.5 -102.5q-5 -16 -12 -35t-16.5 -36t-22.5 -29t-30 -13q-12 -1 -27.5 3.5t-29 13t-23 19t-10.5 21.5q-1 9 2 27t9 40.5t13.5 47.5t15.5 49q12 33 29.5 86
t38 111.5t42 116.5t40.5 101q18 41 37 55t41 14q11 0 23 -4.5t22 -13t17 -20t8 -25.5zM346 589q-4 1 -8.5 -2t-6.5 -8q-3 -9 -5 -21t-4 -23q-1 -8 -4.5 -15t-6 -13t-2.5 -11.5t6 -10.5q6 -4 9 -4q8 0 17.5 9.5t14.5 26.5q9 26 5 48t-15 24zM297 467q-5 -5 -7 -11t0 -11
q3 -9 14 -9q5 0 12 5q10 10 6 21q-5 11 -13 11q-6 0 -12 -6z" />
    <glyph glyph-name="zero" unicode="0" horiz-adv-x="1479" 
d="M1459 318q0 -80 -45 -126t-125 -46t-125 46t-45 126t45 126t125 46t125 -46.5t45 -125.5zM332 317q0 -60 -34.5 -103.5t-92.5 -55.5q-17 -4 -34.5 -4.5t-34.5 -0.5h-116v330h119q41 0 76 -9t61 -29t41 -51.5t15 -76.5zM397 153v330h239v-64h-154v-57h143v-63h-143v-82
h154v-64h-239zM969 153v221l-61 -144h-59l-62 144v-221h-80v330h99l74 -166l75 166h99v-330h-85zM1289 208q23 0 39 10t25.5 25.5t13.5 35.5t4 39q0 20 -4 39.5t-13.5 35t-25.5 25.5t-39 10t-39 -10t-25.5 -25.5t-13.5 -35t-4 -39.5q0 -19 4 -39t13.5 -35.5t25.5 -25.5
t39 -10zM244 319q0 29 -8.5 48.5t-23.5 31.5t-37 17t-49 5h-21v-206h21q55 0 86.5 22t31.5 82z" />
    <glyph glyph-name="one" unicode="1" horiz-adv-x="1479" 
d="M1459 318q0 -80 -45 -126t-125 -46t-125 46t-45 126t45 126t125 46t125 -46.5t45 -125.5zM332 317q0 -60 -34.5 -103.5t-92.5 -55.5q-17 -4 -34.5 -4.5t-34.5 -0.5h-116v330h119q41 0 76 -9t61 -29t41 -51.5t15 -76.5zM397 153v330h239v-64h-154v-57h143v-63h-143v-82
h154v-64h-239zM969 153v221l-61 -144h-59l-62 144v-221h-80v330h99l74 -166l75 166h99v-330h-85zM1289 208q23 0 39 10t25.5 25.5t13.5 35.5t4 39q0 20 -4 39.5t-13.5 35t-25.5 25.5t-39 10t-39 -10t-25.5 -25.5t-13.5 -35t-4 -39.5q0 -19 4 -39t13.5 -35.5t25.5 -25.5
t39 -10zM244 319q0 29 -8.5 48.5t-23.5 31.5t-37 17t-49 5h-21v-206h21q55 0 86.5 22t31.5 82z" />
    <glyph glyph-name="two" unicode="2" horiz-adv-x="1479" 
d="M1459 318q0 -80 -45 -126t-125 -46t-125 46t-45 126t45 126t125 46t125 -46.5t45 -125.5zM332 317q0 -60 -34.5 -103.5t-92.5 -55.5q-17 -4 -34.5 -4.5t-34.5 -0.5h-116v330h119q41 0 76 -9t61 -29t41 -51.5t15 -76.5zM397 153v330h239v-64h-154v-57h143v-63h-143v-82
h154v-64h-239zM969 153v221l-61 -144h-59l-62 144v-221h-80v330h99l74 -166l75 166h99v-330h-85zM1289 208q23 0 39 10t25.5 25.5t13.5 35.5t4 39q0 20 -4 39.5t-13.5 35t-25.5 25.5t-39 10t-39 -10t-25.5 -25.5t-13.5 -35t-4 -39.5q0 -19 4 -39t13.5 -35.5t25.5 -25.5
t39 -10zM244 319q0 29 -8.5 48.5t-23.5 31.5t-37 17t-49 5h-21v-206h21q55 0 86.5 22t31.5 82z" />
    <glyph glyph-name="three" unicode="3" horiz-adv-x="1479" 
d="M1459 318q0 -80 -45 -126t-125 -46t-125 46t-45 126t45 126t125 46t125 -46.5t45 -125.5zM332 317q0 -60 -34.5 -103.5t-92.5 -55.5q-17 -4 -34.5 -4.5t-34.5 -0.5h-116v330h119q41 0 76 -9t61 -29t41 -51.5t15 -76.5zM397 153v330h239v-64h-154v-57h143v-63h-143v-82
h154v-64h-239zM969 153v221l-61 -144h-59l-62 144v-221h-80v330h99l74 -166l75 166h99v-330h-85zM1289 208q23 0 39 10t25.5 25.5t13.5 35.5t4 39q0 20 -4 39.5t-13.5 35t-25.5 25.5t-39 10t-39 -10t-25.5 -25.5t-13.5 -35t-4 -39.5q0 -19 4 -39t13.5 -35.5t25.5 -25.5
t39 -10zM244 319q0 29 -8.5 48.5t-23.5 31.5t-37 17t-49 5h-21v-206h21q55 0 86.5 22t31.5 82z" />
    <glyph glyph-name="four" unicode="4" horiz-adv-x="1479" 
d="M1459 318q0 -80 -45 -126t-125 -46t-125 46t-45 126t45 126t125 46t125 -46.5t45 -125.5zM332 317q0 -60 -34.5 -103.5t-92.5 -55.5q-17 -4 -34.5 -4.5t-34.5 -0.5h-116v330h119q41 0 76 -9t61 -29t41 -51.5t15 -76.5zM397 153v330h239v-64h-154v-57h143v-63h-143v-82
h154v-64h-239zM969 153v221l-61 -144h-59l-62 144v-221h-80v330h99l74 -166l75 166h99v-330h-85zM1289 208q23 0 39 10t25.5 25.5t13.5 35.5t4 39q0 20 -4 39.5t-13.5 35t-25.5 25.5t-39 10t-39 -10t-25.5 -25.5t-13.5 -35t-4 -39.5q0 -19 4 -39t13.5 -35.5t25.5 -25.5
t39 -10zM244 319q0 29 -8.5 48.5t-23.5 31.5t-37 17t-49 5h-21v-206h21q55 0 86.5 22t31.5 82z" />
    <glyph glyph-name="five" unicode="5" horiz-adv-x="1479" 
d="M1459 318q0 -80 -45 -126t-125 -46t-125 46t-45 126t45 126t125 46t125 -46.5t45 -125.5zM332 317q0 -60 -34.5 -103.5t-92.5 -55.5q-17 -4 -34.5 -4.5t-34.5 -0.5h-116v330h119q41 0 76 -9t61 -29t41 -51.5t15 -76.5zM397 153v330h239v-64h-154v-57h143v-63h-143v-82
h154v-64h-239zM969 153v221l-61 -144h-59l-62 144v-221h-80v330h99l74 -166l75 166h99v-330h-85zM1289 208q23 0 39 10t25.5 25.5t13.5 35.5t4 39q0 20 -4 39.5t-13.5 35t-25.5 25.5t-39 10t-39 -10t-25.5 -25.5t-13.5 -35t-4 -39.5q0 -19 4 -39t13.5 -35.5t25.5 -25.5
t39 -10zM244 319q0 29 -8.5 48.5t-23.5 31.5t-37 17t-49 5h-21v-206h21q55 0 86.5 22t31.5 82z" />
    <glyph glyph-name="six" unicode="6" horiz-adv-x="1479" 
d="M1459 318q0 -80 -45 -126t-125 -46t-125 46t-45 126t45 126t125 46t125 -46.5t45 -125.5zM332 317q0 -60 -34.5 -103.5t-92.5 -55.5q-17 -4 -34.5 -4.5t-34.5 -0.5h-116v330h119q41 0 76 -9t61 -29t41 -51.5t15 -76.5zM397 153v330h239v-64h-154v-57h143v-63h-143v-82
h154v-64h-239zM969 153v221l-61 -144h-59l-62 144v-221h-80v330h99l74 -166l75 166h99v-330h-85zM1289 208q23 0 39 10t25.5 25.5t13.5 35.5t4 39q0 20 -4 39.5t-13.5 35t-25.5 25.5t-39 10t-39 -10t-25.5 -25.5t-13.5 -35t-4 -39.5q0 -19 4 -39t13.5 -35.5t25.5 -25.5
t39 -10zM244 319q0 29 -8.5 48.5t-23.5 31.5t-37 17t-49 5h-21v-206h21q55 0 86.5 22t31.5 82z" />
    <glyph glyph-name="seven" unicode="7" horiz-adv-x="1479" 
d="M1459 318q0 -80 -45 -126t-125 -46t-125 46t-45 126t45 126t125 46t125 -46.5t45 -125.5zM332 317q0 -60 -34.5 -103.5t-92.5 -55.5q-17 -4 -34.5 -4.5t-34.5 -0.5h-116v330h119q41 0 76 -9t61 -29t41 -51.5t15 -76.5zM397 153v330h239v-64h-154v-57h143v-63h-143v-82
h154v-64h-239zM969 153v221l-61 -144h-59l-62 144v-221h-80v330h99l74 -166l75 166h99v-330h-85zM1289 208q23 0 39 10t25.5 25.5t13.5 35.5t4 39q0 20 -4 39.5t-13.5 35t-25.5 25.5t-39 10t-39 -10t-25.5 -25.5t-13.5 -35t-4 -39.5q0 -19 4 -39t13.5 -35.5t25.5 -25.5
t39 -10zM244 319q0 29 -8.5 48.5t-23.5 31.5t-37 17t-49 5h-21v-206h21q55 0 86.5 22t31.5 82z" />
    <glyph glyph-name="eight" unicode="8" horiz-adv-x="1479" 
d="M1459 318q0 -80 -45 -126t-125 -46t-125 46t-45 126t45 126t125 46t125 -46.5t45 -125.5zM332 317q0 -60 -34.5 -103.5t-92.5 -55.5q-17 -4 -34.5 -4.5t-34.5 -0.5h-116v330h119q41 0 76 -9t61 -29t41 -51.5t15 -76.5zM397 153v330h239v-64h-154v-57h143v-63h-143v-82
h154v-64h-239zM969 153v221l-61 -144h-59l-62 144v-221h-80v330h99l74 -166l75 166h99v-330h-85zM1289 208q23 0 39 10t25.5 25.5t13.5 35.5t4 39q0 20 -4 39.5t-13.5 35t-25.5 25.5t-39 10t-39 -10t-25.5 -25.5t-13.5 -35t-4 -39.5q0 -19 4 -39t13.5 -35.5t25.5 -25.5
t39 -10zM244 319q0 29 -8.5 48.5t-23.5 31.5t-37 17t-49 5h-21v-206h21q55 0 86.5 22t31.5 82z" />
    <glyph glyph-name="nine" unicode="9" horiz-adv-x="1479" 
d="M1459 318q0 -80 -45 -126t-125 -46t-125 46t-45 126t45 126t125 46t125 -46.5t45 -125.5zM332 317q0 -60 -34.5 -103.5t-92.5 -55.5q-17 -4 -34.5 -4.5t-34.5 -0.5h-116v330h119q41 0 76 -9t61 -29t41 -51.5t15 -76.5zM397 153v330h239v-64h-154v-57h143v-63h-143v-82
h154v-64h-239zM969 153v221l-61 -144h-59l-62 144v-221h-80v330h99l74 -166l75 166h99v-330h-85zM1289 208q23 0 39 10t25.5 25.5t13.5 35.5t4 39q0 20 -4 39.5t-13.5 35t-25.5 25.5t-39 10t-39 -10t-25.5 -25.5t-13.5 -35t-4 -39.5q0 -19 4 -39t13.5 -35.5t25.5 -25.5
t39 -10zM244 319q0 29 -8.5 48.5t-23.5 31.5t-37 17t-49 5h-21v-206h21q55 0 86.5 22t31.5 82z" />
    <glyph glyph-name="colon" unicode=":" horiz-adv-x="297" 
d="M231 509q0 -49 -23 -78.5t-74 -29.5q-48 0 -68.5 27.5t-20.5 72.5q0 43 22 73t67 30q97 0 97 -95zM172 571q-4 0 -8 -2t-4 -6q-1 -5 2.5 -14t5.5 -13q2 -5 3 -11t2.5 -11.5t4.5 -9t10 -3.5q9 0 12.5 7t3.5 14q1 15 -7 31t-25 18zM187 491q-5 1 -8.5 -5t-4.5 -11
q0 -5 1.5 -13t7.5 -8q8 -1 12 4t5 12t-2 13.5t-11 7.5zM231 81q0 -49 -23 -78.5t-74 -29.5q-48 0 -68.5 27.5t-20.5 72.5q0 43 22 73t67 30q97 0 97 -95zM172 143q-10 0 -12 -8q0 -5 3 -14t5 -13q2 -5 3 -11t2.5 -11.5t4.5 -9t10 -3.5q9 0 12.5 7t3.5 14q1 15 -7 31t-25 18z
M187 63q-5 0 -8.5 -5.5t-4.5 -10.5q0 -5 1.5 -13t7.5 -8q8 -1 12 4t5 12t-2 13t-11 8z" />
    <glyph glyph-name="semicolon" unicode=";" horiz-adv-x="278" 
d="M231 509q0 -49 -23 -78.5t-74 -29.5q-48 0 -68.5 27.5t-20.5 72.5q0 43 22 73t67 30q97 0 97 -95zM172 571q-4 0 -8 -2t-4 -6q-1 -5 2.5 -14t5.5 -13q2 -5 3 -11t2.5 -11.5t4.5 -9t10 -3.5q9 0 12.5 7t3.5 14q1 15 -7 31t-25 18zM187 491q-5 1 -8.5 -5t-4.5 -11
q0 -5 1.5 -13t7.5 -8q8 -1 12 4t5 12t-2 13.5t-11 7.5zM92 11q-23 4 -35 22t-12 45q0 17 7.5 33t20.5 29t30.5 21t36.5 8q45 0 71 -28t26 -73q0 -21 -11 -47t-28.5 -48.5t-40 -38t-45.5 -15.5q-15 0 -28.5 6t-13.5 24t8.5 32.5t13.5 29.5zM169 145q-9 0 -11 -9
q-1 -5 5 -13.5t8 -13.5q5 -9 8.5 -20.5t16.5 -10.5q8 1 10.5 9t1.5 15q-1 16 -11.5 30.5t-27.5 12.5zM196 68q-5 0 -9 -6t-3 -11t4 -12t9 -7q14 1 14 17q-1 8 -4 14t-11 5z" />
    <glyph glyph-name="less" unicode="&#x3c;" horiz-adv-x="506" 
d="M384 99q-13 0 -36 4.5t-51.5 13t-59.5 21t-60 29.5q-21 12 -39 23t-31.5 23t-21.5 25.5t-8 30.5q0 40 34 76.5t104 80.5q13 8 35 19.5t46.5 22.5t47.5 19t37 8t24 -7t16 -18t9 -25t3 -29q0 -22 -17.5 -40t-42.5 -33t-52.5 -28.5t-48.5 -25.5q21 -11 49 -18.5t53.5 -17.5
t43 -26.5t17.5 -46.5q0 -35 -13.5 -58t-37.5 -23zM371 477q-8 -2 -7 -9q1 -3 4.5 -10t5.5 -9q3 -4 5 -9t4.5 -9t6 -6t8.5 -1q7 2 8 8.5t0 12.5q-2 12 -11.5 23t-23.5 9zM400 417q-9 -2 -7 -12q1 -4 3 -8.5t6 -3.5q11 2 9 13q-1 5 -3.5 8.5t-7.5 2.5zM388 210
q-2 -1 -3.5 -3.5t-0.5 -5.5l3 -9t4 -9q5 -8 5.5 -17.5t9.5 -9.5q8 0 12.5 7.5t0.5 21.5q-5 15 -14 21.5t-17 3.5z" />
    <glyph glyph-name="equal" unicode="=" horiz-adv-x="531" 
d="M422 450q30 0 42 -17.5t12 -52.5q0 -47 -12.5 -63.5t-43.5 -16.5h-307q-32 0 -49 16.5t-17 56.5t12.5 57t43.5 17h71h20.5t29.5 1l148 2h50zM422 431q-9 0 -11 -8q0 -4 2.5 -12.5t4.5 -12.5q4 -10 5.5 -22t14.5 -12q8 0 10.5 7t3.5 14q1 14 -6.5 29t-23.5 17zM438 355
q-5 0 -8 -3.5t-4 -8.5q0 -5 1.5 -10.5t6.5 -5.5q11 -1 13 13q0 5 -1.5 9.5t-7.5 5.5zM422 267q30 0 42 -17.5t12 -52.5q0 -47 -12.5 -63.5t-43.5 -16.5h-307q-32 0 -49 16.5t-17 56.5t12.5 57t43.5 17h71h20.5t29.5 1l148 2h50zM434 240q-7 0 -7 -5q-1 -3 1 -8.5t4 -8.5
q2 -6 3.5 -14t9.5 -8q5 0 6.5 4.5t2.5 9.5q1 9 -4 19t-16 11z" />
    <glyph glyph-name="greater" unicode="&#x3e;" horiz-adv-x="532" 
d="M128 99q-24 0 -37.5 23t-13.5 58q0 30 17.5 46.5t43 26.5t53.5 17.5t49 18.5q-21 12 -48.5 24.5t-52.5 26.5t-42.5 30.5t-17.5 38.5q0 15 3 29t9 25t16 18t24 7t37 -6.5t47.5 -16.5t46.5 -20.5t35 -18.5q70 -44 104 -80.5t34 -76.5q0 -17 -7.5 -30.5t-21 -25.5t-32 -23
t-39.5 -23q-28 -17 -59.5 -29.5t-60 -21t-51.5 -13t-36 -4.5zM384 326q-5 0 -7.5 -4.5t-1.5 -7.5q1 -6 5.5 -16.5t7.5 -16.5q5 -9 5 -18t9 -10q8 0 12.5 7t1.5 21q-4 15 -14.5 30t-17.5 15z" />
    <glyph glyph-name="question" unicode="?" horiz-adv-x="467" 
d="M234 469q-25 0 -39 -9t-21.5 -22t-11 -29t-9 -29t-15 -22t-28.5 -9q-31 0 -55 23t-24 55q0 40 17 73t44.5 57t63.5 37t74 13q41 0 78 -7t65.5 -25.5t45.5 -51t17 -82.5q0 -38 -11.5 -63t-29 -43t-38 -30.5t-38 -24.5t-29 -26t-11.5 -35q0 -15 -1.5 -28t-7.5 -22.5
t-17 -15t-30 -5.5q-26 0 -47 14t-21 44q0 45 9.5 75t24 50t31.5 32t31.5 22.5t24 21t9.5 26.5q0 20 -11 28t-40 8zM302 556q-4 -4 -5.5 -9.5t3.5 -10.5q8 -8 18 -13.5t20 -17.5q6 -7 9 -14.5t7 -13.5t9 -8.5t14 -0.5q12 3 14 20t-14 37q-14 18 -31 27t-30 9q-9 0 -14 -5z
M369 429q1 -8 5.5 -14t9.5 -8q8 -2 14.5 5.5t5.5 17.5q0 7 -5 11.5t-10 6.5q-22 5 -20 -19zM301 57q0 -16 -6.5 -32t-17.5 -28.5t-25.5 -20t-31.5 -7.5q-35 0 -54.5 24.5t-19.5 57.5q0 34 18.5 58t54.5 24q32 0 57 -21t25 -55zM234 108q-7 -3 -8 -8t0.5 -9.5t4.5 -9t4 -7.5
t3.5 -8t6 -10t7.5 -7.5t9 -0.5q11 5 10 14t-3 15q-4 14 -14.5 25t-19.5 6z" />
    <glyph glyph-name="at" unicode="@" horiz-adv-x="729" 
d="M34 259q0 74 28.5 138t78 111t116 74.5t143.5 27.5q145 0 224 -67.5t79 -191.5q0 -47 -16 -91.5t-42 -79.5t-59.5 -56t-68.5 -21q-29 0 -52.5 14t-38.5 40q-21 -32 -47 -49.5t-55 -17.5q-25 0 -47.5 13.5t-39.5 36.5t-27 53t-10 64q0 45 17.5 85t46.5 71t68 49t82 18
q28 0 51.5 -7.5t40.5 -21.5t26.5 -32.5t9.5 -41.5q0 -17 -4.5 -44t-8 -52.5t-3 -43.5t10.5 -18q25 0 42.5 37t17.5 115q0 66 -51.5 105.5t-137.5 39.5q-57 0 -104.5 -18.5t-82 -51.5t-53.5 -78.5t-19 -99.5q0 -98 63 -153t184 -49q50 3 86.5 8.5t62 13t42 15t26.5 13.5
q12 8 26 8q16 0 25.5 -10t9.5 -22q0 -46 -65 -83t-198 -46q-86 -6 -156 13t-119 58.5t-75.5 97t-26.5 127.5zM523 557q-2 -4 -2 -8.5t5 -8.5q8 -5 17 -7t20 -10q6 -4 11.5 -10.5t10.5 -11t11 -6.5t12 2q4 3 4 9t-2.5 13.5t-8.5 15.5t-14 14q-11 9 -22.5 13t-21.5 4
q-15 0 -20 -9zM617 474q2 -6 7 -10.5t10 -4.5q7 0 9.5 8t-0.5 16q-2 5 -6.5 8.5t-9.5 3.5q-8 0 -11 -6t1 -15zM408 367q-12 0 -25 -9t-23.5 -23t-17.5 -31t-7 -34q0 -14 5 -24.5t13 -10.5t17 12.5t17 32t14 42.5t7 45zM630 107q-2 -4 2.5 -8.5l7.5 -7.5q5 -6 5 -9.5t7 -1.5
q6 2 7 12t-7 18q-5 5 -12.5 4.5t-9.5 -7.5z" />
    <glyph glyph-name="A" unicode="A" 
d="M97 -19q-49 0 -70.5 20t-21.5 65q0 14 4 39.5t10 58t14.5 69.5t18 73.5t19 69.5t18.5 57q17 47 32.5 77.5t33.5 49t40 26t52 7.5q41 0 69.5 -11.5t50 -43.5t37 -87.5t29.5 -144.5q5 -31 11 -72.5t11.5 -81.5t9.5 -72t4 -45q0 -63 -88 -63q-31 0 -47.5 9.5t-25.5 26.5
t-13.5 40.5t-11.5 52.5h-107q-3 -19 -5.5 -40.5t-10 -39t-22 -29t-41.5 -11.5zM309 520q-9 -5 -8.5 -22t9.5 -43q21 -58 45 -47q22 11 5 58q-11 29 -25.5 44.5t-25.5 9.5zM354 380q-7 -17 2 -26q4 -4 9 -4q6 0 12 4t8 10q5 14 -5 24q-5 5 -11 5q-9 0 -15 -13zM266 247
q1 16 0 40t-4 46t-7 38t-9 16t-12 -13.5t-13.5 -34.5t-11.5 -45.5t-6 -46.5h63z" />
    <glyph glyph-name="B" unicode="B" horiz-adv-x="464" 
d="M214 -31q-56 0 -92.5 12.5t-57.5 39t-29 68t-8 98.5v174q0 50 0.5 94t13 76.5t44 51t92.5 18.5q64 0 112 -6t80 -24t48 -51t16 -87q0 -20 -6.5 -42.5t-18 -42t-28 -34.5t-37.5 -20q46 -2 75 -37t29 -100q0 -51 -19.5 -86.5t-52 -58t-74.5 -33t-87 -10.5zM318 543
q-4 -2 -6 -8t0 -12q4 -9 12.5 -17.5t15.5 -19.5q5 -7 6.5 -15.5t4 -15.5t6.5 -11.5t13 -4.5q12 0 16 17t-4 40q-11 29 -32 41t-32 6zM189 369q2 -1 9 -1q32 0 55 13t23 36q0 11 -13 19.5t-42 8.5h-14t-19 -2q-2 -18 -2 -37v-37h3zM350 407q-1 -8 2 -15t8 -9q8 -4 15.5 2
t8.5 16q2 16 -11 21q-20 10 -23 -15zM189 142q0 -14 6.5 -16.5t29.5 -2.5q63 0 63 42q0 24 -23 44t-78 22z" />
    <glyph glyph-name="C" unicode="C" horiz-adv-x="437" 
d="M234 -37q-70 0 -114 22t-68.5 63t-33 101t-8.5 135q0 66 9 124t33 102t66.5 69.5t110.5 25.5q78 0 123 -27t62 -100q6 -27 9.5 -63t3.5 -60q0 -40 -25 -55.5t-63 -15.5q-24 0 -40 9.5t-22 34.5q-3 13 -2.5 32.5t-1 37.5t-8.5 31t-24 13q-25 0 -38.5 -20.5t-20 -48t-8 -56
t-1.5 -44.5q0 -17 1 -42t7.5 -48.5t20 -40.5t38.5 -17t35.5 7t15 17t6 22.5t7 22.5t19 17t41.5 7q40 0 52 -21t12 -57q0 -44 -14.5 -77t-40 -55.5t-61 -33.5t-78.5 -11zM305 554q-4 -2 -6 -8t1 -12q5 -9 11 -20.5t14 -22.5q5 -7 7 -15t4.5 -14.5t7 -11t13.5 -4.5
q12 1 15.5 18t-6.5 40q-12 28 -31 42.5t-30 7.5zM355 418q-1 -8 2 -15t8 -9q8 -4 15.5 2t8.5 16q2 16 -11 21q-20 10 -23 -15z" />
    <glyph glyph-name="D" unicode="D" horiz-adv-x="487" 
d="M194 -30q-82 0 -120 29.5t-39 93.5l-6 349q-2 70 15 105.5t58 45.5q25 6 84 3q76 -4 129.5 -21.5t87 -52t49 -87.5t15.5 -127q0 -173 -66.5 -255.5t-206.5 -82.5zM299 526q-5 -3 -7 -9.5t1 -11.5q3 -4 10.5 -9t17 -11.5t19.5 -15t18 -20.5q4 -6 6.5 -13.5t5.5 -14
t8 -10.5t12 -4q14 1 15.5 17t-7.5 35q-7 15 -18 28t-23 22t-24 14.5t-22 5.5q-7 0 -12 -3zM192 141q0 -11 8 -14.5t17 -3.5q28 0 45.5 21t27 49.5t13 59.5t3.5 50q0 67 -26 100t-89 36zM391 380q-1 -7 1.5 -13.5t7.5 -8.5q7 -3 13.5 2.5t7.5 13.5q1 6 -2 11.5t-8 7.5
q-17 8 -20 -13z" />
    <glyph glyph-name="E" unicode="E" horiz-adv-x="388" 
d="M110 -34q-46 0 -63 23t-17 66v360q0 17 -1 44t2.5 53.5t15.5 46t39 22.5q56 5 113.5 10.5t113.5 5.5q11 0 21 -9.5t17.5 -22.5t12 -27t4.5 -23q0 -13 -1.5 -26t-6.5 -23.5t-14.5 -17.5t-25.5 -8l-136 -11l5 -62h98q31 0 42 -20.5t11 -47.5q0 -10 -1.5 -23.5t-6 -26
t-12.5 -21.5t-22 -9h-109l6 -89h54q11 0 17.5 6.5t13 15t15 15t21.5 6.5q32 0 52 -17t20 -50q0 -39 -4 -65t-17 -42t-37 -23.5t-63 -8.5q-23 -1 -47 -1h-47h-63zM275 576q-2 -1 -4.5 -4.5t-0.5 -7.5q5 -8 8 -12.5t5 -8.5q5 -11 8 -21t21 -11q11 0 16.5 11t-2.5 28
q-10 19 -24 25t-27 1zM308 491q-1 -5 1 -9.5t6 -6.5q5 -2 10 2t6 10q0 12 -7 15q-13 6 -16 -11zM282 351q-2 -1 -3.5 -3.5t-0.5 -5.5l3 -9t4 -9q5 -8 5.5 -17.5t9.5 -9.5q8 0 12.5 7.5t0.5 21.5q-5 15 -14 21t-17 4z" />
    <glyph glyph-name="F" unicode="F" horiz-adv-x="358" 
d="M28 47v92l1 187v92q0 53 0.5 85t7 50t21.5 24.5t44 9.5q48 5 95.5 8t95.5 3q34 0 45.5 -23t11.5 -61q0 -11 -1.5 -25t-6.5 -26t-14 -20.5t-23 -9.5l-116 -6l-3 -110q18 7 37 11.5t39 4.5q21 0 34 -8t19.5 -21t9 -29.5t2.5 -33.5q0 -35 -16.5 -48t-48.5 -17
q-19 -2 -37.5 -6.5t-37.5 -4.5q0 -20 3 -46t3 -46q0 -25 -2 -45t-11 -33.5t-26.5 -20.5t-47.5 -7q-47 0 -62.5 16.5t-15.5 63.5zM278 578q-10 0 -10 -10q0 -4 4.5 -14t6.5 -14q5 -10 6 -21t14 -13h2q8 0 11.5 8t3.5 15q0 15 -10.5 32t-27.5 17zM305 498q-5 0 -8 -4.5
t-3 -9.5t2 -10t7 -5q14 0 14 14q0 5 -2.5 10t-9.5 5zM265 313q-5 -3 -3 -9q3 -6 4 -9t5 -8q6 -8 8 -17.5t10 -7.5q8 1 11.5 9t-1.5 21q-7 14 -16.5 19t-17.5 2z" />
    <glyph glyph-name="G" unicode="G" horiz-adv-x="475" 
d="M426 301q11 0 18 -7t10.5 -16.5t5 -20.5t1.5 -20q0 -8 -2 -17.5t-6.5 -18t-11.5 -14.5t-16 -6h-6q3 -19 3 -41q0 -79 -45.5 -128t-138.5 -49q-70 0 -114 22t-68.5 63t-33 101t-8.5 135q0 66 9 124t33 102t66.5 69.5t110.5 25.5q99 0 145.5 -48.5t46.5 -141.5
q0 -40 -24 -57t-62 -17q-24 0 -37 9.5t-16 34.5q-1 13 -1.5 23.5t-3.5 18t-11 11.5t-25 4q-25 0 -38.5 -20.5t-20 -48t-8 -56t-1.5 -44.5q0 -17 1 -42t7.5 -48.5t20 -40.5t38.5 -17q18 0 26.5 4.5t11.5 12.5t2.5 18t-1.5 21h-15q-28 0 -36 16.5t-8 42.5q0 10 0.5 20.5t4 19
t11 14t20.5 5.5h85h20l40 2h21zM309 554q-4 -2 -6 -8t1 -12q5 -9 11 -20.5t14 -22.5q5 -7 7 -15t4.5 -14.5t7 -11t13.5 -4.5q12 1 15.5 18t-6.5 40q-12 28 -31 42.5t-30 7.5zM359 418q-1 -8 2 -15t8 -9q8 -4 15.5 2t8.5 16q2 16 -11 21q-20 10 -23 -15zM410 287
q-2 -1 -3.5 -3.5t-0.5 -5.5l3 -9t4 -9q5 -8 5.5 -17.5t9.5 -9.5q8 0 12.5 7.5t0.5 21.5q-5 15 -14 21.5t-17 3.5z" />
    <glyph glyph-name="H" unicode="H" horiz-adv-x="473" 
d="M33 233v50l1 100v50q0 32 2 60t10 48t24.5 31.5t44.5 11.5q40 0 63 -15t23 -57t-2 -83t-2 -83q21 0 41.5 0.5t41.5 1.5v28l-2 57q-1 7 -1 14v14q0 22 2.5 45.5t11.5 42.5t26 31.5t45 12.5t44.5 -8t24.5 -22t10.5 -33.5t2.5 -43.5v-110l-2 -221q-1 -27 -1 -54.5v-55.5
q0 -43 -22 -59t-62 -16q-32 0 -49.5 14t-26 36t-10 48t-1.5 50q0 20 2 41t2 41l-78 -2q0 -28 3.5 -55t3.5 -55q0 -22 -2 -43.5t-9.5 -37.5t-23.5 -26t-45 -10q-19 0 -35.5 3t-28.5 10.5t-19 21t-7 35.5v192zM155 549q-10 0 -14 -5t-1 -13q4 -9 7 -21t3 -19q0 -5 4.5 -7
t8.5 -2q14 0 14 31q0 2 -1 8t-3.5 12t-6.5 11t-11 5zM392 537q-10 -1 -13.5 -9.5t-4.5 -19t0 -21t1 -16.5v-14.5t1 -18.5t5 -15.5t11 -6.5q8 0 12.5 5t6.5 12t2.5 14.5t0.5 13.5q0 5 -1 17.5t-3 26t-6.5 23.5t-11.5 9zM400 398q-10 0 -16 -9t-6 -18q0 -14 14 -14
q9 0 15.5 6.5t6.5 15.5q0 6 -3.5 12.5t-10.5 6.5z" />
    <glyph glyph-name="I" unicode="I" horiz-adv-x="314" 
d="M255 590q17 1 29.5 -23t12.5 -57q0 -36 -14.5 -60t-37.5 -24h-14q6 -69 6.5 -144t-4.5 -144q68 0 68 -75q0 -44 -23.5 -67.5t-66.5 -23.5h-9.5t-12.5 1l-63 2q-8 1 -13.5 1h-9.5q-45 0 -69.5 25t-24.5 70q0 32 12.5 50t35.5 18h21q-5 63 -2 136t3 145q-42 0 -58 16.5
t-16 58.5t12.5 65.5t34.5 24.5zM246 567q-9 0 -11 -9q0 -4 3 -13t5 -13q2 -5 3 -11.5t2.5 -12t4.5 -9t10 -3.5q8 0 11.5 7.5t4.5 14.5q1 15 -7.5 31t-25.5 18zM263 487q-5 0 -8 -4t-4 -9q0 -5 1.5 -10.5t6.5 -5.5q6 -1 10 3t5 10q0 5 -2 10t-9 6zM246 115q-10 0 -14 -5
t-1 -13q4 -9 7 -21t3 -19q0 -5 4.5 -7t8.5 -2q14 0 14 31q0 2 -1 8t-3.5 12t-6.5 11t-11 5z" />
    <glyph glyph-name="J" unicode="J" horiz-adv-x="358" 
d="M10 92q0 12 4 27t12.5 27.5t22.5 21.5t34 9q16 0 23.5 -8.5t12 -19t9.5 -19t15 -8.5q9 0 14 3.5t7 14.5q5 35 4.5 67.5t-2.5 66.5l-7 202q-2 62 17.5 89.5t66.5 27.5q40 0 63.5 -15t23.5 -57q0 -88 -2 -184t-2 -196q0 -34 -12.5 -68t-35 -60t-54.5 -42.5t-71 -16.5
q-30 0 -56 10.5t-45.5 29t-30.5 43.5t-11 55zM280 544q-10 -1 -13.5 -9.5t-4.5 -19t0 -21t1 -16.5v-14.5t1 -18.5t5 -15.5t11 -6.5q8 0 12.5 5t6.5 12t2.5 14.5t0.5 13.5q0 5 -1 17.5t-3 26t-6.5 23.5t-11.5 9zM288 405q-10 0 -16 -9t-6 -18q0 -14 14 -14q9 0 15.5 6.5
t6.5 15.5q0 6 -3.5 12.5t-10.5 6.5z" />
    <glyph glyph-name="K" unicode="K" horiz-adv-x="484" 
d="M112 -24q-45 0 -64.5 20t-19.5 65v451q0 39 24.5 58t59.5 19q31 0 52.5 -12.5t27.5 -47.5q7 -42 6.5 -76t-8.5 -82q21 18 36 40t27 46t22 48.5t20 47.5q11 24 28 31.5t42 7.5q14 0 29 -6t27.5 -16t20.5 -23t8 -28q0 -6 -1.5 -11.5t-3.5 -10.5q-10 -33 -24 -68t-31 -67.5
t-38 -59.5t-46 -45q6 -12 17 -29.5t24.5 -34.5t28 -29t27.5 -14q35 -4 50 -20t15 -60q0 -98 -94 -98q-16 0 -31 2.5t-29 11.5t-32 34t-36 54t-33 57t-23 43q2 -29 7 -66t5 -66q0 -21 -6.5 -34t-18.5 -20t-28.5 -9.5t-36.5 -2.5zM404 539q-5 2 -11 -1t-8 -9q-4 -9 -8 -22
t-6 -25q-2 -8 -6.5 -15t-8 -13.5t-3.5 -13t6 -12.5q4 -4 10 -4q22 0 39 36q12 28 10 52t-14 27zM337 410q-6 -5 -9.5 -11.5t-1.5 -11.5q3 -11 16 -11q7 0 14 5q5 4 7.5 10.5t0.5 11.5q-3 12 -13 12q-6 0 -14 -5zM424 119q-10 0 -14 -5t-1 -13q4 -9 7 -26t3 -24q0 -5 4.5 -7
t8.5 -2q14 0 14 31q0 2 -1 9.5t-3.5 15.5t-6.5 14.5t-11 6.5z" />
    <glyph glyph-name="L" unicode="L" horiz-adv-x="358" 
d="M98 -24q-44 0 -57 26t-13 82v353q0 51 2 82t10.5 48t26.5 22.5t50 5.5q21 0 36 -3t24 -12t13 -25t4 -43q0 -60 0.5 -121.5t0.5 -138.5q0 -11 -0.5 -27t-2 -32.5t-4.5 -31.5t-8 -26l102 17q16 3 27 -5.5t18 -23.5t10 -34.5t3 -38.5q0 -29 -7.5 -43.5t-21.5 -21t-32.5 -7
t-41.5 -0.5h-23l-47 -2h-23h-46zM144 544q-10 -1 -13.5 -9.5t-4.5 -19t0 -21t1 -16.5v-14.5t1 -18.5t5 -15.5t11 -6.5q8 0 12.5 5t6.5 12t2.5 14.5t0.5 13.5q0 5 -1 17.5t-3 26t-6.5 23.5t-11.5 9zM152 405q-10 0 -16 -9t-6 -18q0 -14 14 -14q9 0 15.5 6.5t6.5 15.5
q0 6 -3.5 12.5t-10.5 6.5zM282 126q-10 0 -14 -5t-1 -13q2 -4 3.5 -13l3 -18t2.5 -17.5t1 -11.5q0 -5 4.5 -7t8.5 -2q14 0 14 31q0 2 -1 11t-3.5 19t-6.5 18t-11 8z" />
    <glyph glyph-name="M" unicode="M" horiz-adv-x="674" 
d="M28 48q0 94 5 186.5t13 186.5q3 30 7 61t15 56.5t31 41.5t53 16q32 0 49 -7t30 -33q15 -29 32 -73t32 -88.5t27.5 -84t19.5 -59.5q6 18 12.5 53t16.5 78t24.5 88t36.5 82q8 14 18.5 22.5t21 13t20.5 6t17 1.5q42 0 63 -13.5t34 -51.5q6 -16 10.5 -40t7.5 -50.5t5.5 -53.5
t3.5 -51q4 -72 9 -142t5 -142q0 -47 -21 -62.5t-65 -15.5q-25 0 -40.5 8t-23.5 24.5t-11 41t-4 57.5l-5 191q-3 -10 -10 -35t-16 -57t-20 -67.5t-22 -66t-21.5 -52.5t-19.5 -27q-5 -2 -13 -4t-15 -2q-18 0 -31 11q-9 8 -20.5 29t-23.5 49.5t-24.5 60.5t-23 61.5t-19 54
t-12.5 36.5q1 -50 3 -110.5t2 -110.5q0 -30 -3.5 -49.5t-14 -30.5t-29 -15.5t-49.5 -4.5q-41 0 -54 21.5t-13 61.5zM186 556q-25 -7 -11 -24q3 -4 6.5 -11.5t7 -15.5t6.5 -15t4 -11q2 -5 7 -5.5t10 0.5q9 2 9.5 10.5t-3.5 26.5q-1 3 -4 11t-7.5 16t-11 14t-13.5 4zM546 532
q-10 -2 -13.5 -10.5t-3.5 -19t2 -21t2 -16.5q0 -5 1.5 -15.5t4.5 -21t8 -18t12 -7.5q8 1 12.5 6t6 12.5t1 15t-0.5 13.5q-1 13 -3.5 27.5t-6.5 27t-9.5 20.5t-12.5 7zM568 386q-10 -1 -15.5 -10t-4.5 -18q2 -14 15 -14q9 1 15 8t5 16q0 6 -4 12t-11 6z" />
    <glyph glyph-name="N" unicode="N" horiz-adv-x="510" 
d="M117 -30q-81 0 -87 66q-7 81 -6 174.5t6 205.5q2 42 5.5 74.5t13 54.5t26 33.5t43.5 11.5q21 0 41 -8.5t34 -24.5q6 -7 12 -17t11.5 -21.5t10 -22.5t8.5 -20q9 -20 19 -47.5t21 -56t22.5 -55t22.5 -45.5q0 27 -0.5 61t-1.5 67.5t-1.5 62t-0.5 44.5q0 48 22.5 66t51.5 18
q39 0 64.5 -22t25.5 -56q0 -61 1 -123t0.5 -122.5t-3 -118t-9.5 -108.5q-3 -21 -8 -34t-14 -20t-22.5 -9.5t-32.5 -2.5q-26 0 -48 18.5t-40.5 44.5t-33 54t-25.5 47q-14 26 -30.5 60.5t-26.5 66.5q1 -24 1.5 -52.5t1 -58t0.5 -58v-52.5q0 -35 -16 -55t-58 -20zM149 543
q-21 -9 -8 -25q8 -8 16.5 -25.5t12.5 -25.5q2 -4 7.5 -4t9.5 1q9 3 8.5 11.5t-6.5 26.5q-1 2 -4.5 10t-9.5 15.5t-12.5 13t-13.5 2.5zM435 535q-10 -1 -14 -9t-5.5 -18.5t-1.5 -21v-16.5q0 -5 -0.5 -16t1 -21.5t5.5 -19t11 -8.5q8 -1 13 4t7.5 12t3.5 14.5t1 13.5
q1 13 0.5 28.5t-3 28t-7 21t-11.5 8.5zM438 387q-10 1 -16.5 -7.5t-7.5 -17.5q0 -15 13 -16q9 -1 15.5 5.5t7.5 16.5q0 5 -2.5 11.5t-9.5 7.5z" />
    <glyph glyph-name="O" unicode="O" horiz-adv-x="507" 
d="M250 -31q-64 0 -108 16t-71 52t-39 95t-12 145q0 95 14.5 157.5t44.5 100.5t76.5 53.5t110.5 15.5q115 0 168 -73.5t53 -232.5q0 -91 -12.5 -153.5t-40.5 -101.5t-73.5 -56.5t-110.5 -17.5zM325 546q-5 -3 -7.5 -9t0.5 -11q2 -5 9.5 -10.5t16.5 -12t18.5 -16t16.5 -21.5
q3 -6 5.5 -14t5.5 -14.5t7.5 -11t11.5 -4.5q14 0 16.5 16t-5.5 36q-7 18 -20 33.5t-27 25.5t-27 14t-21 -1zM188 256q0 -18 0.5 -40t6.5 -40.5t19 -31t38 -12.5q30 0 44.5 17.5t20 42.5t5 53t-0.5 49q0 66 -18.5 103t-50.5 37q-25 0 -38 -21t-19 -49.5t-6.5 -59t-0.5 -48.5z
M408 395q-2 -7 0.5 -13.5t7.5 -8.5q7 -4 13.5 1t8.5 13q1 6 -1.5 12t-7.5 8q-8 5 -13.5 1.5t-7.5 -13.5z" />
    <glyph glyph-name="P" unicode="P" horiz-adv-x="446" 
d="M28 296v26l1 51v26q0 36 3 70t10.5 61t20.5 43t33 16h22l45 2q64 0 113.5 -5t84 -26t52.5 -63.5t18 -116.5q0 -61 -9 -107t-32.5 -77t-63.5 -46t-103 -15q-8 0 -16 0.5t-16 1.5v-8q0 -15 3 -34t3 -34q0 -21 -1.5 -38.5t-8 -29.5t-21.5 -18.5t-42 -6.5q-18 0 -35.5 3
t-31 11.5t-21.5 22.5t-8 36v255zM295 541q-5 -2 -8 -7.5t-1 -11.5q2 -5 8 -11t14.5 -14t16.5 -18t14 -23q3 -7 4 -15t3.5 -15t6.5 -12t11 -6q14 -2 18 14.5t-1 36.5q-5 19 -16 35.5t-23.5 28t-25.5 17t-21 1.5zM199 267q49 2 71 24.5t22 72.5q0 30 -15.5 53t-48.5 23h-15.5
t-15.5 -1q5 -43 3.5 -86t-1.5 -86zM360 382q-5 -16 5 -23q6 -5 14 -0.5t10 11.5q2 6 0 12t-7 9q-7 5 -13.5 2.5t-8.5 -11.5z" />
    <glyph glyph-name="Q" unicode="Q" horiz-adv-x="523" 
d="M458 77q11 0 17.5 -7t10 -16.5t4.5 -21t1 -20.5q0 -15 -10.5 -31.5t-29.5 -18.5q-26 -2 -52 -3.5t-52 -1.5q-45 0 -86.5 4t-73.5 12q-1 0 -1.5 0.5t-1.5 0.5q-90 16 -127 89t-37 214q0 95 14.5 157.5t44.5 100.5t76.5 53.5t110.5 15.5q57 0 99 -18t69 -59t40 -108.5
t13 -166.5q0 -49 -15.5 -94t-41.5 -82q8 0 15 0.5t13 0.5zM325 546q-5 -3 -7.5 -9t0.5 -11q2 -5 9.5 -10.5t16.5 -12t18.5 -16t16.5 -21.5q3 -6 5.5 -14t5.5 -14.5t7.5 -11t11.5 -4.5q14 0 16.5 16t-5.5 36q-7 18 -20 33.5t-27 25.5t-27 14t-21 -1zM188 256q0 -18 0.5 -40
t6.5 -40.5t19 -31t38 -12.5q30 0 44.5 17.5t20 42.5t5 53t-0.5 49q0 66 -18.5 103t-50.5 37q-25 0 -38 -21t-19 -49.5t-6.5 -59t-0.5 -48.5zM408 395q-2 -7 0.5 -13.5t7.5 -8.5q7 -4 13.5 1t8.5 13q1 6 -1.5 12t-7.5 8q-8 5 -13.5 1.5t-7.5 -13.5zM445 59q-1 -1 -2.5 -3
t-1.5 -5l3 -7.5t4 -7.5q3 -7 3.5 -15t8.5 -8q6 0 10 6.5t1 17.5q-4 14 -11 19t-15 3z" />
    <glyph glyph-name="R" unicode="R" horiz-adv-x="464" 
d="M28 296v26l1 51v26q0 36 3 70t11.5 61t23.5 43t38 16q16 0 36.5 1t43.5 1q62 0 108.5 -7.5t77 -30t45.5 -64t15 -109.5q0 -26 -4.5 -54t-15 -55t-28 -50.5t-44.5 -40.5q14 -15 29.5 -26.5t29.5 -13.5q12 -1 23 -4t20 -10.5t14 -20.5t5 -35q0 -98 -94 -98q-16 0 -31 2.5
t-29 11.5q-12 8 -27.5 28t-31 44.5t-29.5 50t-24 44.5h-3v-8q0 -7 1 -18.5t2 -23.5t2 -23t1 -19q0 -21 -1.5 -38.5t-8 -29.5t-21.5 -18.5t-42 -6.5q-18 0 -35.5 3t-31 11.5t-21.5 22.5t-8 36v255zM295 541q-5 -2 -8 -7.5t-1 -11.5q2 -5 8 -11t14.5 -14t16.5 -18t14 -23
q3 -7 4 -15t3.5 -15t6.5 -12t11 -6q14 -2 18 14.5t-1 36.5q-5 19 -16 35.5t-23.5 28t-25.5 17t-21 1.5zM199 283q24 1 42 4.5t29 12.5t16.5 24t5.5 40q0 30 -15.5 53t-48.5 23h-15.5t-15.5 -1q5 -43 3.5 -78t-1.5 -78zM360 382q-5 -16 5 -23q6 -5 14 -0.5t10 11.5q2 6 0 12
t-7 9q-7 5 -13.5 2.5t-8.5 -11.5zM416 119q-10 0 -14 -5t-1 -13q4 -9 7 -26t3 -24q0 -5 4.5 -7t8.5 -2q14 0 14 31q0 2 -1 9.5t-3.5 15.5t-6.5 14.5t-11 6.5z" />
    <glyph glyph-name="S" unicode="S" horiz-adv-x="462" 
d="M136 197q9 -16 13 -27.5t18 -25.5q5 -5 23 -11.5t44 -6.5q23 0 35 6.5t12 16.5q0 3 -24 16t-57 30q-29 15 -60.5 33.5t-58 43.5t-43.5 59t-17 81q0 43 16 79t44.5 62.5t67.5 41t85 14.5q49 0 86 -16.5t62 -42t38 -54.5t13 -55q0 -45 -17 -73t-60 -28t-56.5 15.5
t-11.5 47.5q2 29 -9.5 39.5t-41.5 10.5q-23 0 -39 -12.5t-16 -31.5q0 -11 9 -21t24 -19.5t34.5 -19t41.5 -18.5q28 -13 55.5 -27t50 -34t36.5 -47.5t14 -67.5q0 -42 -18 -75.5t-48.5 -57t-70 -36t-82.5 -12.5q-40 0 -79 15t-69.5 41t-49.5 62t-19 78q0 65 73 65q17 0 32 -12
t20 -26zM301 562q-4 -3 -5 -9t3 -11q5 -8 13 -19t17 -21q6 -6 9 -13.5t6.5 -14t8.5 -10t14 -2.5q12 2 13 19.5t-12 39.5q-16 26 -36.5 37.5t-30.5 3.5zM369 434q0 -17 13 -22q8 -2 15 4.5t6 16.5q0 16 -14 19q-20 7 -20 -18z" />
    <glyph glyph-name="T" unicode="T" horiz-adv-x="393" 
d="M126 422q-29 0 -51.5 -1t-38 5t-23.5 24.5t-8 57.5q0 35 6.5 52t20.5 23t35.5 5.5t50.5 -0.5q37 1 73.5 2t73.5 1h74q29 0 39 -19.5t10 -64.5t-16.5 -66t-62.5 -19h-33q-2 -94 4 -185.5t6 -185.5q0 -44 -19 -60t-70 -16t-69.5 20t-16.5 56q5 94 6.5 185.5t8.5 185.5z
M340 567q-9 0 -11 -9q0 -4 2.5 -13t4.5 -13q2 -5 3 -11.5t3 -12t5 -9t10 -3.5q8 0 11 7.5t4 14.5q1 15 -7 31t-25 18zM357 487q-5 0 -8 -4t-4 -9q0 -5 1.5 -11t6.5 -6q6 -1 9.5 3.5t4.5 10.5q0 5 -1.5 10t-8.5 6z" />
    <glyph glyph-name="U" unicode="U" horiz-adv-x="477" 
d="M233 -31q-55 0 -93 16.5t-61 46.5t-33.5 72t-12.5 93l-4 134t-2 135q0 26 2 48.5t10 39t25.5 26t48.5 9.5q45 0 63 -23.5t18 -66.5v-286q0 -9 2 -19.5t6.5 -19.5t12 -15t19.5 -6q25 0 38.5 19t19.5 45.5t7 54t1 44.5q0 20 -0.5 40t-0.5 40l-2 53q0 20 -0.5 40t-0.5 40
q0 32 22 46t51 14q34 0 51 -24.5t23.5 -59t6 -71t-0.5 -60.5q0 -31 -0.5 -62t-1.5 -63q-1 -62 -9 -113.5t-30.5 -88.5t-64 -57.5t-110.5 -20.5zM397 544q-10 -1 -13.5 -9.5t-4.5 -19t0 -21t1 -16.5v-14.5t1 -18.5t5 -15.5t11 -6.5q8 0 12.5 5t6.5 12t2.5 14.5t0.5 13.5
q0 5 -1 17.5t-3 26t-6.5 23.5t-11.5 9zM405 405q-10 0 -16 -9t-6 -18q0 -14 14 -14q9 0 15.5 6.5t6.5 15.5q0 6 -3.5 12.5t-10.5 6.5z" />
    <glyph glyph-name="V" unicode="V" horiz-adv-x="483" 
d="M245 -31q-22 0 -38 2t-27.5 7.5t-20 15t-16.5 24.5q-5 9 -15.5 46.5t-23 89.5t-26.5 111.5t-25 112.5t-18.5 92t-7.5 51q0 24 4.5 38.5t14.5 21.5t26 9t38 2q29 0 46.5 -7t31.5 -35q4 -8 9 -32.5t10.5 -58t11.5 -72t11 -74t9.5 -65t7.5 -44.5q20 85 38 167.5t35 167.5
q3 17 8 27.5t12.5 16t19 7.5t28.5 2q13 0 27.5 -4.5t27 -12.5t21 -19.5t8.5 -26.5q0 -12 -8 -50.5t-20.5 -90.5t-27.5 -111t-29.5 -111.5t-26 -91.5t-17.5 -51q-14 -31 -35.5 -42.5t-62.5 -11.5zM422 557q-9 2 -15.5 -2.5t-6.5 -15.5q0 -7 2.5 -17.5t2.5 -22.5
q0 -9 -2 -17.5t-3.5 -16.5t0.5 -15t9 -12q11 -8 18.5 5t12.5 38q7 29 1.5 51.5t-19.5 24.5zM149 553q-7 -2 -9.5 -7.5t-2 -12t2.5 -13t3 -11.5q1 -4 2 -10.5t3.5 -12t6 -9.5t9.5 -3q7 1 9.5 4.5t3.5 8t0 10t-2 9.5q0 4 -2 12.5t-5.5 16.5t-8 14t-10.5 4zM171 460
q-8 -2 -12 -9.5t-2 -14.5q1 -12 13 -10q7 2 11.5 7.5t2.5 12.5q-1 5 -4.5 10t-8.5 4zM391 416q-5 -6 -7 -13t1 -12q4 -7 14 -7t16 7q5 5 5.5 11.5t-1.5 11.5q-7 10 -13 10q-7 0 -15 -8z" />
    <glyph glyph-name="W" unicode="W" horiz-adv-x="603" 
d="M140 -25q-35 0 -54 20t-28 52q-13 45 -20.5 97t-12 104.5t-6.5 101t-3 86.5q-1 36 -0.5 65.5t6.5 51t20 33t39 11.5q17 0 36.5 -5.5t30.5 -23.5q5 -9 9.5 -32.5t8 -54t6.5 -65t4.5 -66.5t2.5 -58t1 -38q3 9 9 30.5t14 49.5t17.5 59t18.5 57.5t17 46t13 24.5q6 6 16 8.5
t19 2.5q10 0 18.5 -2t15.5 -8t16 -25.5t18.5 -46t18.5 -56t16.5 -56t13.5 -47.5t8 -30q1 29 2 67.5t1.5 74.5t1.5 64t2 35q2 20 6 37.5t12.5 30t23 19.5t37.5 7q41 0 56.5 -17.5t15.5 -57.5q0 -57 -5.5 -118t-14 -120.5t-17.5 -113.5t-16 -97q-4 -23 -8.5 -41t-12.5 -30.5
t-21.5 -19t-34.5 -6.5q-22 0 -41 5.5t-36 19.5q-7 6 -15.5 23.5t-17.5 41t-17.5 50.5t-15.5 52.5t-13 47t-10 32.5q-5 -17 -15 -54.5t-21.5 -77.5t-23.5 -73.5t-23 -41.5q-19 -14 -32.5 -19.5t-35.5 -5.5zM113 570q-15 1 -17 -9q0 -4 2.5 -13t4.5 -13q2 -5 3.5 -11.5
t3 -12.5t5 -10t10.5 -4q8 0 10.5 9.5t2.5 16.5q0 16 -7.5 30.5t-17.5 16.5zM545 557q-9 2 -15.5 -2.5t-6.5 -15.5q0 -7 2.5 -17.5t2.5 -22.5q0 -9 -1.5 -19.5t-1 -19.5t3.5 -15.5t12 -6.5q13 0 17 12t4 50q0 20 -3 37.5t-14 19.5zM125 488q-5 0 -8 -4t-4 -9q0 -5 1.5 -11
t6.5 -6q6 -1 9.5 3.5t4.5 10.5q0 5 -1.5 10t-8.5 6zM523 416q-5 -6 -7 -13t1 -12q4 -7 14 -7t16 7q5 5 5.5 11.5t-1.5 11.5q-7 10 -13 10q-7 0 -15 -8z" />
    <glyph glyph-name="X" unicode="X" horiz-adv-x="493" 
d="M14 74q10 29 26 54.5t35 50l38 49t35 49.5q-11 18 -27 42.5t-33 51t-33 52.5t-27 46q-13 24 -15.5 45.5t4.5 37.5t22 26t36 13q17 2 30.5 -2t24.5 -12t20.5 -19t17.5 -23q19 -27 36.5 -65t37.5 -73q15 26 26 50.5t25 51.5q9 18 17.5 34t18.5 28t24 19t35 7q32 0 53.5 -18
t21.5 -53q0 -19 -17 -52.5t-40 -69t-46.5 -68t-35.5 -50.5q11 -17 22.5 -40.5t25 -46t28 -39.5t29.5 -22q29 -8 41.5 -31.5t12.5 -46.5q0 -27 -7.5 -43t-19 -23.5t-24.5 -9.5t-25 -2q-23 0 -39.5 3t-29 9.5t-21.5 16t-17 22.5q-22 33 -35 68t-33 70q-11 -19 -21 -41
t-21 -44.5t-23 -43t-27 -35.5q-21 -22 -50 -22q-38 0 -59 18t-21 60q0 4 1.5 11.5t2.5 9.5zM426 545q-5 1 -10.5 -3t-7.5 -9q-3 -8 -5.5 -18.5t-7.5 -21.5q-7 -14 -14.5 -26t3.5 -24q4 -4 9 -4q8 0 17.5 9t16.5 25q11 26 11 48t-12 24zM365 427q-5 -4 -8.5 -10t-1.5 -11
q3 -11 15 -11q5 0 12 5q5 3 6.5 9t-0.5 11q-3 12 -12 12q-4 0 -11 -5zM439 101q-8 -1 -11 -6t0 -11q4 -8 7 -22.5t4 -20.5q0 -4 4 -5t8 -1q11 0 8 27q0 2 -1 8.5t-3.5 13.5t-6 12t-9.5 5z" />
    <glyph glyph-name="Y" unicode="Y" horiz-adv-x="452" 
d="M184 197q-58 0 -90.5 17t-48.5 47t-20 70.5t-4 88.5l1 9v4q0 17 -1.5 44t3 52.5t18 43.5t44.5 18q3 0 6 1h10q33 0 51 -10t30 -42q6 -16 6 -34q0 -34 -4 -67t-4 -67q0 -20 10.5 -24.5t27.5 -4.5t27.5 6t16.5 16t8 23.5t2 27.5q0 27 -3.5 54t-3.5 54q0 20 8.5 33t22 20.5
t30.5 11t33 3.5q32 0 54 -14.5t22 -49.5q0 -63 -4.5 -125.5t-4.5 -125.5q0 -11 0.5 -22t0.5 -22l2 -29q0 -11 0.5 -22t0.5 -22q0 -55 -15.5 -92t-44.5 -60t-70.5 -33t-92.5 -10q-80 0 -132 42q-22 17 -39.5 42t-17.5 56q0 14 7.5 27.5t19.5 24t26.5 16.5t27.5 6
q10 0 18 -5.5t13 -13.5q16 -25 39.5 -37.5t51.5 -12.5q20 0 31 11t16 27t6.5 34.5t1.5 32.5v9.5t-1 10.5q-19 -17 -42.5 -27.5t-49.5 -10.5zM143 548q-9 0 -12.5 -5t-4.5 -11t-1 -12.5v-10.5q0 -3 -0.5 -9.5t0.5 -12.5t4.5 -11t9.5 -5q14 -1 17.5 9t4.5 17q2 16 -2 33.5
t-16 17.5zM392 546q-10 -1 -14 -9t-5.5 -18.5t-1.5 -21v-16.5q0 -5 -0.5 -16t1 -21.5t5.5 -19t11 -8.5q8 -1 13 4t7.5 12t3.5 14.5t1 13.5q1 13 0.5 28.5t-3 28t-7 21t-11.5 8.5zM395 398q-10 1 -16.5 -7.5t-7.5 -17.5q0 -15 13 -16q9 -1 15.5 5.5t7.5 16.5q0 5 -2.5 11.5
t-9.5 7.5z" />
    <glyph glyph-name="Z" unicode="Z" horiz-adv-x="448" 
d="M84 -34q-21 0 -34.5 10t-21 25.5t-10.5 33.5t-3 34q0 63 35 116q21 32 46 65.5t52.5 66.5t55.5 64t54 57q-45 -8 -83.5 -12.5t-81.5 -4.5q-40 0 -54 24t-14 65t12.5 63t48.5 22q72 0 133 -2.5t133 -6.5q33 -2 52.5 -25t19.5 -55q0 -12 -1 -28.5t-4 -33t-7 -32t-10 -26.5
q-20 -36 -44.5 -74.5t-51 -74.5t-55 -68.5t-55.5 -57.5q17 8 40 14t48.5 10t51.5 6.5t49 2.5q28 0 40 -24t12 -69q0 -42 -12 -58.5t-44 -16.5q-72 0 -148.5 -5t-148.5 -5zM362 555q-9 0 -11 -9q0 -4 2.5 -13t4.5 -13q2 -5 3 -11.5t3 -12t5 -9t10 -3.5q8 0 11 7.5t4 14.5
q1 15 -7 31t-25 18zM379 475q-5 0 -8 -4t-4 -9q0 -5 1.5 -11t6.5 -6q6 -1 9.5 3.5t4.5 10.5q0 5 -1.5 10t-8.5 6zM393 117q-8 -1 -11 -6t0 -11q4 -8 7 -22.5t4 -20.5q0 -4 4 -5t8 -1q11 0 8 27q0 2 -1 8.5t-3.5 13.5t-6 12t-9.5 5z" />
    <glyph glyph-name="bracketleft" unicode="[" horiz-adv-x="341" 
d="M258 -83q-16 0 -31.5 1t-31.5 1q-34 0 -59.5 -2t-42 2.5t-24.5 21.5t-8 56q0 144 4 287t4 287q0 20 1 37.5t7 30.5t19 20.5t37 7.5h135q31 0 44.5 -22.5t13.5 -49.5q0 -11 -2.5 -23t-8.5 -22.5t-15 -17t-22 -6.5q-19 0 -38.5 1.5t-38.5 2.5q-1 -73 -3.5 -157.5
t-2.5 -172.5q0 -37 1 -74t3 -74q1 5 5 7.5t9 2.5h57q17 0 27 -7.5t15 -19.5t6.5 -26.5t1.5 -27.5q0 -35 -13.5 -49.5t-48.5 -14.5zM259 647q-9 -3 -11.5 -9t2.5 -13q6 -8 12 -19.5t8 -18.5q2 -4 6.5 -5t8.5 0q8 2 9 9.5t-3 24.5q-1 2 -3.5 7.5t-6.5 11.5t-9.5 10t-12.5 2z
" />
    <glyph glyph-name="backslash" unicode="\" horiz-adv-x="416" 
d="M46 573q1 14 8 25.5t17 20t22 13t23 4.5q22 0 41 -14t37 -55q19 -43 40.5 -101t42 -116.5t38 -111.5t29.5 -86q8 -24 15.5 -49t13.5 -47.5t9 -40.5t2 -27q-1 -11 -10.5 -21.5t-23 -19t-29 -13t-27.5 -3.5q-17 1 -30 13t-22.5 29t-16.5 36t-12 35q-15 45 -33.5 102.5
t-38.5 114.5q-10 32 -21.5 65t-22.5 64t-20.5 59t-16.5 50q-10 32 -12.5 48t-1.5 26zM345 55q-10 2 -14.5 -3t-2.5 -13q2 -10 7.5 -26t3.5 -23q-1 -5 3.5 -7.5t8.5 -3.5q8 -1 12 5.5t6 23.5q0 2 -1 9.5t-4 15.5t-7.5 14.5t-11.5 7.5z" />
    <glyph glyph-name="bracketright" unicode="]" horiz-adv-x="330" 
d="M295 11v-25.5t-3 -30.5t-10.5 -25.5t-22.5 -10.5h-77t-77 -2q-36 -2 -52.5 12t-16.5 52q0 13 1.5 27.5t7 26.5t15.5 19.5t27 7.5h56q6 0 9 -0.5t6 -2.5q2 38 3 70.5t1 70.5q0 83 -2 165t-5 165q-20 -1 -38.5 -2.5t-38.5 -1.5q-13 0 -22 6.5t-15 17t-8.5 22.5t-2.5 23
q0 27 14 49.5t45 22.5h134q25 0 38 -7.5t19 -20.5t6.5 -30.5t0.5 -37.5q0 -141 4 -280t4 -280zM243 639q-9 0 -13 -7.5t-5 -17t-1 -19.5v-16q0 -5 -0.5 -15t1 -20t5 -18t10.5 -8q8 0 12 4t6.5 10.5t3.5 14t1 12.5q1 12 0.5 26.5t-3 26.5t-6.5 19.5t-11 7.5zM246 501
q-9 1 -15.5 -7t-6.5 -16q-2 -13 12 -15q8 -1 14.5 5t6.5 16q1 5 -2 11t-9 6z" />
    <glyph glyph-name="asciicircum" unicode="^" horiz-adv-x="439" 
d="M111 309q-11 0 -22.5 4.5t-20.5 12.5t-14.5 18.5t-5.5 22.5t16.5 44t38 68.5t42.5 69.5t30 47q10 16 21 26.5t31 10.5q15 0 27 -13t20 -24q7 -9 19 -27t26 -40.5t29 -47t27 -46.5t19.5 -40t7.5 -27q0 -10 -5 -20t-13 -18.5t-18 -13.5t-20 -5q-23 0 -38 9t-24 23
q-16 25 -29.5 60t-29.5 60q-7 -15 -18.5 -41t-26.5 -51t-32.5 -43.5t-36.5 -18.5zM367 405q-7 1 -12 -3.5t-4 -8.5q2 -6 1 -14.5t-1 -16.5t1.5 -13.5t8.5 -5.5q7 -1 13 7.5t7 13.5q2 13 -2 26.5t-12 14.5z" />
    <glyph glyph-name="underscore" unicode="_" horiz-adv-x="383" 
d="M350 11q14 0 22 -6t11.5 -15t4.5 -20.5t1 -23.5q0 -11 -1 -24.5t-5.5 -25.5t-12.5 -20t-22 -8h-295q-38 0 -49 15t-11 50q0 15 1 28.5t5.5 24t15 16.5t28.5 6h181q29 0 63 1.5t63 1.5zM342 -10q-4 1 -7.5 -1.5t-3.5 -6.5q-1 -4 2 -12.5t5 -12.5q2 -5 2.5 -12t2 -14
t4.5 -11.5t9 -4.5q8 0 11 7t3 14q1 7 -0.5 16t-5 17.5t-9 14.5t-13.5 6z" />
    <glyph glyph-name="grave" unicode="`" horiz-adv-x="301" 
d="M252 667q0 -6 -5 -16t-12.5 -19.5t-16 -16.5t-15.5 -7q-16 0 -44 12.5t-55 32t-47 42t-20 42.5q0 11 7 22.5t17.5 20.5t23 15t22.5 6q12 0 36 -16t48.5 -38t42.5 -44.5t18 -35.5zM226 695q-6 4 -11 -2q-2 -2 -4 -9.5t-3 -10.5q-2 -9 -7 -20.5t4 -17.5q6 -4 12 2t10 11
q7 9 8.5 24t-9.5 23z" />
    <glyph glyph-name="a" unicode="a" 
d="M97 -19q-49 0 -70.5 20t-21.5 65q0 14 4 39.5t10 58t14.5 69.5t18 73.5t19 69.5t18.5 57q17 47 32.5 77.5t33.5 49t40 26t52 7.5q41 0 69.5 -11.5t50 -43.5t37 -87.5t29.5 -144.5q5 -31 11 -72.5t11.5 -81.5t9.5 -72t4 -45q0 -63 -88 -63q-31 0 -47.5 9.5t-25.5 26.5
t-13.5 40.5t-11.5 52.5h-107q-3 -19 -5.5 -40.5t-10 -39t-22 -29t-41.5 -11.5zM309 520q-9 -5 -8.5 -22t9.5 -43q21 -58 45 -47q22 11 5 58q-11 29 -25.5 44.5t-25.5 9.5zM354 380q-7 -17 2 -26q4 -4 9 -4q6 0 12 4t8 10q5 14 -5 24q-5 5 -11 5q-9 0 -15 -13zM266 247
q1 16 0 40t-4 46t-7 38t-9 16t-12 -13.5t-13.5 -34.5t-11.5 -45.5t-6 -46.5h63z" />
    <glyph glyph-name="b" unicode="b" horiz-adv-x="464" 
d="M214 -31q-56 0 -92.5 12.5t-57.5 39t-29 68t-8 98.5v174q0 50 0.5 94t13 76.5t44 51t92.5 18.5q64 0 112 -6t80 -24t48 -51t16 -87q0 -20 -6.5 -42.5t-18 -42t-28 -34.5t-37.5 -20q46 -2 75 -37t29 -100q0 -51 -19.5 -86.5t-52 -58t-74.5 -33t-87 -10.5zM318 543
q-4 -2 -6 -8t0 -12q4 -9 12.5 -17.5t15.5 -19.5q5 -7 6.5 -15.5t4 -15.5t6.5 -11.5t13 -4.5q12 0 16 17t-4 40q-11 29 -32 41t-32 6zM189 369q2 -1 9 -1q32 0 55 13t23 36q0 11 -13 19.5t-42 8.5h-14t-19 -2q-2 -18 -2 -37v-37h3zM350 407q-1 -8 2 -15t8 -9q8 -4 15.5 2
t8.5 16q2 16 -11 21q-20 10 -23 -15zM189 142q0 -14 6.5 -16.5t29.5 -2.5q63 0 63 42q0 24 -23 44t-78 22z" />
    <glyph glyph-name="c" unicode="c" horiz-adv-x="437" 
d="M234 -37q-70 0 -114 22t-68.5 63t-33 101t-8.5 135q0 66 9 124t33 102t66.5 69.5t110.5 25.5q78 0 123 -27t62 -100q6 -27 9.5 -63t3.5 -60q0 -40 -25 -55.5t-63 -15.5q-24 0 -40 9.5t-22 34.5q-3 13 -2.5 32.5t-1 37.5t-8.5 31t-24 13q-25 0 -38.5 -20.5t-20 -48t-8 -56
t-1.5 -44.5q0 -17 1 -42t7.5 -48.5t20 -40.5t38.5 -17t35.5 7t15 17t6 22.5t7 22.5t19 17t41.5 7q40 0 52 -21t12 -57q0 -44 -14.5 -77t-40 -55.5t-61 -33.5t-78.5 -11zM305 554q-4 -2 -6 -8t1 -12q5 -9 11 -20.5t14 -22.5q5 -7 7 -15t4.5 -14.5t7 -11t13.5 -4.5
q12 1 15.5 18t-6.5 40q-12 28 -31 42.5t-30 7.5zM355 418q-1 -8 2 -15t8 -9q8 -4 15.5 2t8.5 16q2 16 -11 21q-20 10 -23 -15z" />
    <glyph glyph-name="d" unicode="d" horiz-adv-x="487" 
d="M194 -30q-82 0 -120 29.5t-39 93.5l-6 349q-2 70 15 105.5t58 45.5q25 6 84 3q76 -4 129.5 -21.5t87 -52t49 -87.5t15.5 -127q0 -173 -66.5 -255.5t-206.5 -82.5zM299 526q-5 -3 -7 -9.5t1 -11.5q3 -4 10.5 -9t17 -11.5t19.5 -15t18 -20.5q4 -6 6.5 -13.5t5.5 -14
t8 -10.5t12 -4q14 1 15.5 17t-7.5 35q-7 15 -18 28t-23 22t-24 14.5t-22 5.5q-7 0 -12 -3zM192 141q0 -11 8 -14.5t17 -3.5q28 0 45.5 21t27 49.5t13 59.5t3.5 50q0 67 -26 100t-89 36zM391 380q-1 -7 1.5 -13.5t7.5 -8.5q7 -3 13.5 2.5t7.5 13.5q1 6 -2 11.5t-8 7.5
q-17 8 -20 -13z" />
    <glyph glyph-name="e" unicode="e" horiz-adv-x="388" 
d="M110 -34q-46 0 -63 23t-17 66v360q0 17 -1 44t2.5 53.5t15.5 46t39 22.5q56 5 113.5 10.5t113.5 5.5q11 0 21 -9.5t17.5 -22.5t12 -27t4.5 -23q0 -13 -1.5 -26t-6.5 -23.5t-14.5 -17.5t-25.5 -8l-136 -11l5 -62h98q31 0 42 -20.5t11 -47.5q0 -10 -1.5 -23.5t-6 -26
t-12.5 -21.5t-22 -9h-109l6 -89h54q11 0 17.5 6.5t13 15t15 15t21.5 6.5q32 0 52 -17t20 -50q0 -39 -4 -65t-17 -42t-37 -23.5t-63 -8.5q-23 -1 -47 -1h-47h-63zM275 576q-2 -1 -4.5 -4.5t-0.5 -7.5q5 -8 8 -12.5t5 -8.5q5 -11 8 -21t21 -11q11 0 16.5 11t-2.5 28
q-10 19 -24 25t-27 1zM308 491q-1 -5 1 -9.5t6 -6.5q5 -2 10 2t6 10q0 12 -7 15q-13 6 -16 -11zM282 351q-2 -1 -3.5 -3.5t-0.5 -5.5l3 -9t4 -9q5 -8 5.5 -17.5t9.5 -9.5q8 0 12.5 7.5t0.5 21.5q-5 15 -14 21t-17 4z" />
    <glyph glyph-name="f" unicode="f" horiz-adv-x="358" 
d="M28 47v92l1 187v92q0 53 0.5 85t7 50t21.5 24.5t44 9.5q48 5 95.5 8t95.5 3q34 0 45.5 -23t11.5 -61q0 -11 -1.5 -25t-6.5 -26t-14 -20.5t-23 -9.5l-116 -6l-3 -110q18 7 37 11.5t39 4.5q21 0 34 -8t19.5 -21t9 -29.5t2.5 -33.5q0 -35 -16.5 -48t-48.5 -17
q-19 -2 -37.5 -6.5t-37.5 -4.5q0 -20 3 -46t3 -46q0 -25 -2 -45t-11 -33.5t-26.5 -20.5t-47.5 -7q-47 0 -62.5 16.5t-15.5 63.5zM278 578q-10 0 -10 -10q0 -4 4.5 -14t6.5 -14q5 -10 6 -21t14 -13h2q8 0 11.5 8t3.5 15q0 15 -10.5 32t-27.5 17zM305 498q-5 0 -8 -4.5
t-3 -9.5t2 -10t7 -5q14 0 14 14q0 5 -2.5 10t-9.5 5zM265 313q-5 -3 -3 -9q3 -6 4 -9t5 -8q6 -8 8 -17.5t10 -7.5q8 1 11.5 9t-1.5 21q-7 14 -16.5 19t-17.5 2z" />
    <glyph glyph-name="g" unicode="g" horiz-adv-x="475" 
d="M426 301q11 0 18 -7t10.5 -16.5t5 -20.5t1.5 -20q0 -8 -2 -17.5t-6.5 -18t-11.5 -14.5t-16 -6h-6q3 -19 3 -41q0 -79 -45.5 -128t-138.5 -49q-70 0 -114 22t-68.5 63t-33 101t-8.5 135q0 66 9 124t33 102t66.5 69.5t110.5 25.5q99 0 145.5 -48.5t46.5 -141.5
q0 -40 -24 -57t-62 -17q-24 0 -37 9.5t-16 34.5q-1 13 -1.5 23.5t-3.5 18t-11 11.5t-25 4q-25 0 -38.5 -20.5t-20 -48t-8 -56t-1.5 -44.5q0 -17 1 -42t7.5 -48.5t20 -40.5t38.5 -17q18 0 26.5 4.5t11.5 12.5t2.5 18t-1.5 21h-15q-28 0 -36 16.5t-8 42.5q0 10 0.5 20.5t4 19
t11 14t20.5 5.5h85h20l40 2h21zM309 554q-4 -2 -6 -8t1 -12q5 -9 11 -20.5t14 -22.5q5 -7 7 -15t4.5 -14.5t7 -11t13.5 -4.5q12 1 15.5 18t-6.5 40q-12 28 -31 42.5t-30 7.5zM359 418q-1 -8 2 -15t8 -9q8 -4 15.5 2t8.5 16q2 16 -11 21q-20 10 -23 -15zM410 287
q-2 -1 -3.5 -3.5t-0.5 -5.5l3 -9t4 -9q5 -8 5.5 -17.5t9.5 -9.5q8 0 12.5 7.5t0.5 21.5q-5 15 -14 21.5t-17 3.5z" />
    <glyph glyph-name="h" unicode="h" horiz-adv-x="473" 
d="M33 233v50l1 100v50q0 32 2 60t10 48t24.5 31.5t44.5 11.5q40 0 63 -15t23 -57t-2 -83t-2 -83q21 0 41.5 0.5t41.5 1.5v28l-2 57q-1 7 -1 14v14q0 22 2.5 45.5t11.5 42.5t26 31.5t45 12.5t44.5 -8t24.5 -22t10.5 -33.5t2.5 -43.5v-110l-2 -221q-1 -27 -1 -54.5v-55.5
q0 -43 -22 -59t-62 -16q-32 0 -49.5 14t-26 36t-10 48t-1.5 50q0 20 2 41t2 41l-78 -2q0 -28 3.5 -55t3.5 -55q0 -22 -2 -43.5t-9.5 -37.5t-23.5 -26t-45 -10q-19 0 -35.5 3t-28.5 10.5t-19 21t-7 35.5v192zM155 549q-10 0 -14 -5t-1 -13q4 -9 7 -21t3 -19q0 -5 4.5 -7
t8.5 -2q14 0 14 31q0 2 -1 8t-3.5 12t-6.5 11t-11 5zM392 537q-10 -1 -13.5 -9.5t-4.5 -19t0 -21t1 -16.5v-14.5t1 -18.5t5 -15.5t11 -6.5q8 0 12.5 5t6.5 12t2.5 14.5t0.5 13.5q0 5 -1 17.5t-3 26t-6.5 23.5t-11.5 9zM400 398q-10 0 -16 -9t-6 -18q0 -14 14 -14
q9 0 15.5 6.5t6.5 15.5q0 6 -3.5 12.5t-10.5 6.5z" />
    <glyph glyph-name="i" unicode="i" horiz-adv-x="314" 
d="M255 590q17 1 29.5 -23t12.5 -57q0 -36 -14.5 -60t-37.5 -24h-14q6 -69 6.5 -144t-4.5 -144q68 0 68 -75q0 -44 -23.5 -67.5t-66.5 -23.5h-9.5t-12.5 1l-63 2q-8 1 -13.5 1h-9.5q-45 0 -69.5 25t-24.5 70q0 32 12.5 50t35.5 18h21q-5 63 -2 136t3 145q-42 0 -58 16.5
t-16 58.5t12.5 65.5t34.5 24.5zM246 567q-9 0 -11 -9q0 -4 3 -13t5 -13q2 -5 3 -11.5t2.5 -12t4.5 -9t10 -3.5q8 0 11.5 7.5t4.5 14.5q1 15 -7.5 31t-25.5 18zM263 487q-5 0 -8 -4t-4 -9q0 -5 1.5 -10.5t6.5 -5.5q6 -1 10 3t5 10q0 5 -2 10t-9 6zM246 115q-10 0 -14 -5
t-1 -13q4 -9 7 -21t3 -19q0 -5 4.5 -7t8.5 -2q14 0 14 31q0 2 -1 8t-3.5 12t-6.5 11t-11 5z" />
    <glyph glyph-name="j" unicode="j" horiz-adv-x="358" 
d="M10 92q0 12 4 27t12.5 27.5t22.5 21.5t34 9q16 0 23.5 -8.5t12 -19t9.5 -19t15 -8.5q9 0 14 3.5t7 14.5q5 35 4.5 67.5t-2.5 66.5l-7 202q-2 62 17.5 89.5t66.5 27.5q40 0 63.5 -15t23.5 -57q0 -88 -2 -184t-2 -196q0 -34 -12.5 -68t-35 -60t-54.5 -42.5t-71 -16.5
q-30 0 -56 10.5t-45.5 29t-30.5 43.5t-11 55zM280 544q-10 -1 -13.5 -9.5t-4.5 -19t0 -21t1 -16.5v-14.5t1 -18.5t5 -15.5t11 -6.5q8 0 12.5 5t6.5 12t2.5 14.5t0.5 13.5q0 5 -1 17.5t-3 26t-6.5 23.5t-11.5 9zM288 405q-10 0 -16 -9t-6 -18q0 -14 14 -14q9 0 15.5 6.5
t6.5 15.5q0 6 -3.5 12.5t-10.5 6.5z" />
    <glyph glyph-name="k" unicode="k" horiz-adv-x="484" 
d="M112 -24q-45 0 -64.5 20t-19.5 65v451q0 39 24.5 58t59.5 19q31 0 52.5 -12.5t27.5 -47.5q7 -42 6.5 -76t-8.5 -82q21 18 36 40t27 46t22 48.5t20 47.5q11 24 28 31.5t42 7.5q14 0 29 -6t27.5 -16t20.5 -23t8 -28q0 -6 -1.5 -11.5t-3.5 -10.5q-10 -33 -24 -68t-31 -67.5
t-38 -59.5t-46 -45q6 -12 17 -29.5t24.5 -34.5t28 -29t27.5 -14q35 -4 50 -20t15 -60q0 -98 -94 -98q-16 0 -31 2.5t-29 11.5t-32 34t-36 54t-33 57t-23 43q2 -29 7 -66t5 -66q0 -21 -6.5 -34t-18.5 -20t-28.5 -9.5t-36.5 -2.5zM404 539q-5 2 -11 -1t-8 -9q-4 -9 -8 -22
t-6 -25q-2 -8 -6.5 -15t-8 -13.5t-3.5 -13t6 -12.5q4 -4 10 -4q22 0 39 36q12 28 10 52t-14 27zM337 410q-6 -5 -9.5 -11.5t-1.5 -11.5q3 -11 16 -11q7 0 14 5q5 4 7.5 10.5t0.5 11.5q-3 12 -13 12q-6 0 -14 -5zM424 119q-10 0 -14 -5t-1 -13q4 -9 7 -26t3 -24q0 -5 4.5 -7
t8.5 -2q14 0 14 31q0 2 -1 9.5t-3.5 15.5t-6.5 14.5t-11 6.5z" />
    <glyph glyph-name="l" unicode="l" horiz-adv-x="358" 
d="M98 -24q-44 0 -57 26t-13 82v353q0 51 2 82t10.5 48t26.5 22.5t50 5.5q21 0 36 -3t24 -12t13 -25t4 -43q0 -60 0.5 -121.5t0.5 -138.5q0 -11 -0.5 -27t-2 -32.5t-4.5 -31.5t-8 -26l102 17q16 3 27 -5.5t18 -23.5t10 -34.5t3 -38.5q0 -29 -7.5 -43.5t-21.5 -21t-32.5 -7
t-41.5 -0.5h-23l-47 -2h-23h-46zM144 544q-10 -1 -13.5 -9.5t-4.5 -19t0 -21t1 -16.5v-14.5t1 -18.5t5 -15.5t11 -6.5q8 0 12.5 5t6.5 12t2.5 14.5t0.5 13.5q0 5 -1 17.5t-3 26t-6.5 23.5t-11.5 9zM152 405q-10 0 -16 -9t-6 -18q0 -14 14 -14q9 0 15.5 6.5t6.5 15.5
q0 6 -3.5 12.5t-10.5 6.5zM282 126q-10 0 -14 -5t-1 -13q2 -4 3.5 -13l3 -18t2.5 -17.5t1 -11.5q0 -5 4.5 -7t8.5 -2q14 0 14 31q0 2 -1 11t-3.5 19t-6.5 18t-11 8z" />
    <glyph glyph-name="m" unicode="m" horiz-adv-x="674" 
d="M28 48q0 94 5 186.5t13 186.5q3 30 7 61t15 56.5t31 41.5t53 16q32 0 49 -7t30 -33q15 -29 32 -73t32 -88.5t27.5 -84t19.5 -59.5q6 18 12.5 53t16.5 78t24.5 88t36.5 82q8 14 18.5 22.5t21 13t20.5 6t17 1.5q42 0 63 -13.5t34 -51.5q6 -16 10.5 -40t7.5 -50.5t5.5 -53.5
t3.5 -51q4 -72 9 -142t5 -142q0 -47 -21 -62.5t-65 -15.5q-25 0 -40.5 8t-23.5 24.5t-11 41t-4 57.5l-5 191q-3 -10 -10 -35t-16 -57t-20 -67.5t-22 -66t-21.5 -52.5t-19.5 -27q-5 -2 -13 -4t-15 -2q-18 0 -31 11q-9 8 -20.5 29t-23.5 49.5t-24.5 60.5t-23 61.5t-19 54
t-12.5 36.5q1 -50 3 -110.5t2 -110.5q0 -30 -3.5 -49.5t-14 -30.5t-29 -15.5t-49.5 -4.5q-41 0 -54 21.5t-13 61.5zM186 556q-25 -7 -11 -24q3 -4 6.5 -11.5t7 -15.5t6.5 -15t4 -11q2 -5 7 -5.5t10 0.5q9 2 9.5 10.5t-3.5 26.5q-1 3 -4 11t-7.5 16t-11 14t-13.5 4zM546 532
q-10 -2 -13.5 -10.5t-3.5 -19t2 -21t2 -16.5q0 -5 1.5 -15.5t4.5 -21t8 -18t12 -7.5q8 1 12.5 6t6 12.5t1 15t-0.5 13.5q-1 13 -3.5 27.5t-6.5 27t-9.5 20.5t-12.5 7zM568 386q-10 -1 -15.5 -10t-4.5 -18q2 -14 15 -14q9 1 15 8t5 16q0 6 -4 12t-11 6z" />
    <glyph glyph-name="n" unicode="n" horiz-adv-x="510" 
d="M117 -30q-81 0 -87 66q-7 81 -6 174.5t6 205.5q2 42 5.5 74.5t13 54.5t26 33.5t43.5 11.5q21 0 41 -8.5t34 -24.5q6 -7 12 -17t11.5 -21.5t10 -22.5t8.5 -20q9 -20 19 -47.5t21 -56t22.5 -55t22.5 -45.5q0 27 -0.5 61t-1.5 67.5t-1.5 62t-0.5 44.5q0 48 22.5 66t51.5 18
q39 0 64.5 -22t25.5 -56q0 -61 1 -123t0.5 -122.5t-3 -118t-9.5 -108.5q-3 -21 -8 -34t-14 -20t-22.5 -9.5t-32.5 -2.5q-26 0 -48 18.5t-40.5 44.5t-33 54t-25.5 47q-14 26 -30.5 60.5t-26.5 66.5q1 -24 1.5 -52.5t1 -58t0.5 -58v-52.5q0 -35 -16 -55t-58 -20zM149 543
q-21 -9 -8 -25q8 -8 16.5 -25.5t12.5 -25.5q2 -4 7.5 -4t9.5 1q9 3 8.5 11.5t-6.5 26.5q-1 2 -4.5 10t-9.5 15.5t-12.5 13t-13.5 2.5zM435 535q-10 -1 -14 -9t-5.5 -18.5t-1.5 -21v-16.5q0 -5 -0.5 -16t1 -21.5t5.5 -19t11 -8.5q8 -1 13 4t7.5 12t3.5 14.5t1 13.5
q1 13 0.5 28.5t-3 28t-7 21t-11.5 8.5zM438 387q-10 1 -16.5 -7.5t-7.5 -17.5q0 -15 13 -16q9 -1 15.5 5.5t7.5 16.5q0 5 -2.5 11.5t-9.5 7.5z" />
    <glyph glyph-name="o" unicode="o" horiz-adv-x="507" 
d="M250 -31q-64 0 -108 16t-71 52t-39 95t-12 145q0 95 14.5 157.5t44.5 100.5t76.5 53.5t110.5 15.5q115 0 168 -73.5t53 -232.5q0 -91 -12.5 -153.5t-40.5 -101.5t-73.5 -56.5t-110.5 -17.5zM325 546q-5 -3 -7.5 -9t0.5 -11q2 -5 9.5 -10.5t16.5 -12t18.5 -16t16.5 -21.5
q3 -6 5.5 -14t5.5 -14.5t7.5 -11t11.5 -4.5q14 0 16.5 16t-5.5 36q-7 18 -20 33.5t-27 25.5t-27 14t-21 -1zM188 256q0 -18 0.5 -40t6.5 -40.5t19 -31t38 -12.5q30 0 44.5 17.5t20 42.5t5 53t-0.5 49q0 66 -18.5 103t-50.5 37q-25 0 -38 -21t-19 -49.5t-6.5 -59t-0.5 -48.5z
M408 395q-2 -7 0.5 -13.5t7.5 -8.5q7 -4 13.5 1t8.5 13q1 6 -1.5 12t-7.5 8q-8 5 -13.5 1.5t-7.5 -13.5z" />
    <glyph glyph-name="p" unicode="p" horiz-adv-x="446" 
d="M28 296v26l1 51v26q0 36 3 70t10.5 61t20.5 43t33 16h22l45 2q64 0 113.5 -5t84 -26t52.5 -63.5t18 -116.5q0 -61 -9 -107t-32.5 -77t-63.5 -46t-103 -15q-8 0 -16 0.5t-16 1.5v-8q0 -15 3 -34t3 -34q0 -21 -1.5 -38.5t-8 -29.5t-21.5 -18.5t-42 -6.5q-18 0 -35.5 3
t-31 11.5t-21.5 22.5t-8 36v255zM295 541q-5 -2 -8 -7.5t-1 -11.5q2 -5 8 -11t14.5 -14t16.5 -18t14 -23q3 -7 4 -15t3.5 -15t6.5 -12t11 -6q14 -2 18 14.5t-1 36.5q-5 19 -16 35.5t-23.5 28t-25.5 17t-21 1.5zM199 267q49 2 71 24.5t22 72.5q0 30 -15.5 53t-48.5 23h-15.5
t-15.5 -1q5 -43 3.5 -86t-1.5 -86zM360 382q-5 -16 5 -23q6 -5 14 -0.5t10 11.5q2 6 0 12t-7 9q-7 5 -13.5 2.5t-8.5 -11.5z" />
    <glyph glyph-name="q" unicode="q" horiz-adv-x="523" 
d="M458 77q11 0 17.5 -7t10 -16.5t4.5 -21t1 -20.5q0 -15 -10.5 -31.5t-29.5 -18.5q-26 -2 -52 -3.5t-52 -1.5q-45 0 -86.5 4t-73.5 12q-1 0 -1.5 0.5t-1.5 0.5q-90 16 -127 89t-37 214q0 95 14.5 157.5t44.5 100.5t76.5 53.5t110.5 15.5q57 0 99 -18t69 -59t40 -108.5
t13 -166.5q0 -49 -15.5 -94t-41.5 -82q8 0 15 0.5t13 0.5zM325 546q-5 -3 -7.5 -9t0.5 -11q2 -5 9.5 -10.5t16.5 -12t18.5 -16t16.5 -21.5q3 -6 5.5 -14t5.5 -14.5t7.5 -11t11.5 -4.5q14 0 16.5 16t-5.5 36q-7 18 -20 33.5t-27 25.5t-27 14t-21 -1zM188 256q0 -18 0.5 -40
t6.5 -40.5t19 -31t38 -12.5q30 0 44.5 17.5t20 42.5t5 53t-0.5 49q0 66 -18.5 103t-50.5 37q-25 0 -38 -21t-19 -49.5t-6.5 -59t-0.5 -48.5zM408 395q-2 -7 0.5 -13.5t7.5 -8.5q7 -4 13.5 1t8.5 13q1 6 -1.5 12t-7.5 8q-8 5 -13.5 1.5t-7.5 -13.5zM445 59q-1 -1 -2.5 -3
t-1.5 -5l3 -7.5t4 -7.5q3 -7 3.5 -15t8.5 -8q6 0 10 6.5t1 17.5q-4 14 -11 19t-15 3z" />
    <glyph glyph-name="r" unicode="r" horiz-adv-x="464" 
d="M28 296v26l1 51v26q0 36 3 70t11.5 61t23.5 43t38 16q16 0 36.5 1t43.5 1q62 0 108.5 -7.5t77 -30t45.5 -64t15 -109.5q0 -26 -4.5 -54t-15 -55t-28 -50.5t-44.5 -40.5q14 -15 29.5 -26.5t29.5 -13.5q12 -1 23 -4t20 -10.5t14 -20.5t5 -35q0 -98 -94 -98q-16 0 -31 2.5
t-29 11.5q-12 8 -27.5 28t-31 44.5t-29.5 50t-24 44.5h-3v-8q0 -7 1 -18.5t2 -23.5t2 -23t1 -19q0 -21 -1.5 -38.5t-8 -29.5t-21.5 -18.5t-42 -6.5q-18 0 -35.5 3t-31 11.5t-21.5 22.5t-8 36v255zM295 541q-5 -2 -8 -7.5t-1 -11.5q2 -5 8 -11t14.5 -14t16.5 -18t14 -23
q3 -7 4 -15t3.5 -15t6.5 -12t11 -6q14 -2 18 14.5t-1 36.5q-5 19 -16 35.5t-23.5 28t-25.5 17t-21 1.5zM199 283q24 1 42 4.5t29 12.5t16.5 24t5.5 40q0 30 -15.5 53t-48.5 23h-15.5t-15.5 -1q5 -43 3.5 -78t-1.5 -78zM360 382q-5 -16 5 -23q6 -5 14 -0.5t10 11.5q2 6 0 12
t-7 9q-7 5 -13.5 2.5t-8.5 -11.5zM416 119q-10 0 -14 -5t-1 -13q4 -9 7 -26t3 -24q0 -5 4.5 -7t8.5 -2q14 0 14 31q0 2 -1 9.5t-3.5 15.5t-6.5 14.5t-11 6.5z" />
    <glyph glyph-name="s" unicode="s" horiz-adv-x="462" 
d="M136 197q9 -16 13 -27.5t18 -25.5q5 -5 23 -11.5t44 -6.5q23 0 35 6.5t12 16.5q0 3 -24 16t-57 30q-29 15 -60.5 33.5t-58 43.5t-43.5 59t-17 81q0 43 16 79t44.5 62.5t67.5 41t85 14.5q49 0 86 -16.5t62 -42t38 -54.5t13 -55q0 -45 -17 -73t-60 -28t-56.5 15.5
t-11.5 47.5q2 29 -9.5 39.5t-41.5 10.5q-23 0 -39 -12.5t-16 -31.5q0 -11 9 -21t24 -19.5t34.5 -19t41.5 -18.5q28 -13 55.5 -27t50 -34t36.5 -47.5t14 -67.5q0 -42 -18 -75.5t-48.5 -57t-70 -36t-82.5 -12.5q-40 0 -79 15t-69.5 41t-49.5 62t-19 78q0 65 73 65q17 0 32 -12
t20 -26zM301 562q-4 -3 -5 -9t3 -11q5 -8 13 -19t17 -21q6 -6 9 -13.5t6.5 -14t8.5 -10t14 -2.5q12 2 13 19.5t-12 39.5q-16 26 -36.5 37.5t-30.5 3.5zM369 434q0 -17 13 -22q8 -2 15 4.5t6 16.5q0 16 -14 19q-20 7 -20 -18z" />
    <glyph glyph-name="t" unicode="t" horiz-adv-x="393" 
d="M126 422q-29 0 -51.5 -1t-38 5t-23.5 24.5t-8 57.5q0 35 6.5 52t20.5 23t35.5 5.5t50.5 -0.5q37 1 73.5 2t73.5 1h74q29 0 39 -19.5t10 -64.5t-16.5 -66t-62.5 -19h-33q-2 -94 4 -185.5t6 -185.5q0 -44 -19 -60t-70 -16t-69.5 20t-16.5 56q5 94 6.5 185.5t8.5 185.5z
M340 567q-9 0 -11 -9q0 -4 2.5 -13t4.5 -13q2 -5 3 -11.5t3 -12t5 -9t10 -3.5q8 0 11 7.5t4 14.5q1 15 -7 31t-25 18zM357 487q-5 0 -8 -4t-4 -9q0 -5 1.5 -11t6.5 -6q6 -1 9.5 3.5t4.5 10.5q0 5 -1.5 10t-8.5 6z" />
    <glyph glyph-name="u" unicode="u" horiz-adv-x="477" 
d="M233 -31q-55 0 -93 16.5t-61 46.5t-33.5 72t-12.5 93l-4 134t-2 135q0 26 2 48.5t10 39t25.5 26t48.5 9.5q45 0 63 -23.5t18 -66.5v-286q0 -9 2 -19.5t6.5 -19.5t12 -15t19.5 -6q25 0 38.5 19t19.5 45.5t7 54t1 44.5q0 20 -0.5 40t-0.5 40l-2 53q0 20 -0.5 40t-0.5 40
q0 32 22 46t51 14q34 0 51 -24.5t23.5 -59t6 -71t-0.5 -60.5q0 -31 -0.5 -62t-1.5 -63q-1 -62 -9 -113.5t-30.5 -88.5t-64 -57.5t-110.5 -20.5zM397 544q-10 -1 -13.5 -9.5t-4.5 -19t0 -21t1 -16.5v-14.5t1 -18.5t5 -15.5t11 -6.5q8 0 12.5 5t6.5 12t2.5 14.5t0.5 13.5
q0 5 -1 17.5t-3 26t-6.5 23.5t-11.5 9zM405 405q-10 0 -16 -9t-6 -18q0 -14 14 -14q9 0 15.5 6.5t6.5 15.5q0 6 -3.5 12.5t-10.5 6.5z" />
    <glyph glyph-name="v" unicode="v" horiz-adv-x="483" 
d="M245 -31q-22 0 -38 2t-27.5 7.5t-20 15t-16.5 24.5q-5 9 -15.5 46.5t-23 89.5t-26.5 111.5t-25 112.5t-18.5 92t-7.5 51q0 24 4.5 38.5t14.5 21.5t26 9t38 2q29 0 46.5 -7t31.5 -35q4 -8 9 -32.5t10.5 -58t11.5 -72t11 -74t9.5 -65t7.5 -44.5q20 85 38 167.5t35 167.5
q3 17 8 27.5t12.5 16t19 7.5t28.5 2q13 0 27.5 -4.5t27 -12.5t21 -19.5t8.5 -26.5q0 -12 -8 -50.5t-20.5 -90.5t-27.5 -111t-29.5 -111.5t-26 -91.5t-17.5 -51q-14 -31 -35.5 -42.5t-62.5 -11.5zM422 557q-9 2 -15.5 -2.5t-6.5 -15.5q0 -7 2.5 -17.5t2.5 -22.5
q0 -9 -2 -17.5t-3.5 -16.5t0.5 -15t9 -12q11 -8 18.5 5t12.5 38q7 29 1.5 51.5t-19.5 24.5zM149 553q-7 -2 -9.5 -7.5t-2 -12t2.5 -13t3 -11.5q1 -4 2 -10.5t3.5 -12t6 -9.5t9.5 -3q7 1 9.5 4.5t3.5 8t0 10t-2 9.5q0 4 -2 12.5t-5.5 16.5t-8 14t-10.5 4zM171 460
q-8 -2 -12 -9.5t-2 -14.5q1 -12 13 -10q7 2 11.5 7.5t2.5 12.5q-1 5 -4.5 10t-8.5 4zM391 416q-5 -6 -7 -13t1 -12q4 -7 14 -7t16 7q5 5 5.5 11.5t-1.5 11.5q-7 10 -13 10q-7 0 -15 -8z" />
    <glyph glyph-name="w" unicode="w" horiz-adv-x="603" 
d="M140 -25q-35 0 -54 20t-28 52q-13 45 -20.5 97t-12 104.5t-6.5 101t-3 86.5q-1 36 -0.5 65.5t6.5 51t20 33t39 11.5q17 0 36.5 -5.5t30.5 -23.5q5 -9 9.5 -32.5t8 -54t6.5 -65t4.5 -66.5t2.5 -58t1 -38q3 9 9 30.5t14 49.5t17.5 59t18.5 57.5t17 46t13 24.5q6 6 16 8.5
t19 2.5q10 0 18.5 -2t15.5 -8t16 -25.5t18.5 -46t18.5 -56t16.5 -56t13.5 -47.5t8 -30q1 29 2 67.5t1.5 74.5t1.5 64t2 35q2 20 6 37.5t12.5 30t23 19.5t37.5 7q41 0 56.5 -17.5t15.5 -57.5q0 -57 -5.5 -118t-14 -120.5t-17.5 -113.5t-16 -97q-4 -23 -8.5 -41t-12.5 -30.5
t-21.5 -19t-34.5 -6.5q-22 0 -41 5.5t-36 19.5q-7 6 -15.5 23.5t-17.5 41t-17.5 50.5t-15.5 52.5t-13 47t-10 32.5q-5 -17 -15 -54.5t-21.5 -77.5t-23.5 -73.5t-23 -41.5q-19 -14 -32.5 -19.5t-35.5 -5.5zM113 570q-15 1 -17 -9q0 -4 2.5 -13t4.5 -13q2 -5 3.5 -11.5
t3 -12.5t5 -10t10.5 -4q8 0 10.5 9.5t2.5 16.5q0 16 -7.5 30.5t-17.5 16.5zM545 557q-9 2 -15.5 -2.5t-6.5 -15.5q0 -7 2.5 -17.5t2.5 -22.5q0 -9 -1.5 -19.5t-1 -19.5t3.5 -15.5t12 -6.5q13 0 17 12t4 50q0 20 -3 37.5t-14 19.5zM125 488q-5 0 -8 -4t-4 -9q0 -5 1.5 -11
t6.5 -6q6 -1 9.5 3.5t4.5 10.5q0 5 -1.5 10t-8.5 6zM523 416q-5 -6 -7 -13t1 -12q4 -7 14 -7t16 7q5 5 5.5 11.5t-1.5 11.5q-7 10 -13 10q-7 0 -15 -8z" />
    <glyph glyph-name="x" unicode="x" horiz-adv-x="493" 
d="M14 74q10 29 26 54.5t35 50l38 49t35 49.5q-11 18 -27 42.5t-33 51t-33 52.5t-27 46q-13 24 -15.5 45.5t4.5 37.5t22 26t36 13q17 2 30.5 -2t24.5 -12t20.5 -19t17.5 -23q19 -27 36.5 -65t37.5 -73q15 26 26 50.5t25 51.5q9 18 17.5 34t18.5 28t24 19t35 7q32 0 53.5 -18
t21.5 -53q0 -19 -17 -52.5t-40 -69t-46.5 -68t-35.5 -50.5q11 -17 22.5 -40.5t25 -46t28 -39.5t29.5 -22q29 -8 41.5 -31.5t12.5 -46.5q0 -27 -7.5 -43t-19 -23.5t-24.5 -9.5t-25 -2q-23 0 -39.5 3t-29 9.5t-21.5 16t-17 22.5q-22 33 -35 68t-33 70q-11 -19 -21 -41
t-21 -44.5t-23 -43t-27 -35.5q-21 -22 -50 -22q-38 0 -59 18t-21 60q0 4 1.5 11.5t2.5 9.5zM426 545q-5 1 -10.5 -3t-7.5 -9q-3 -8 -5.5 -18.5t-7.5 -21.5q-7 -14 -14.5 -26t3.5 -24q4 -4 9 -4q8 0 17.5 9t16.5 25q11 26 11 48t-12 24zM365 427q-5 -4 -8.5 -10t-1.5 -11
q3 -11 15 -11q5 0 12 5q5 3 6.5 9t-0.5 11q-3 12 -12 12q-4 0 -11 -5zM439 101q-8 -1 -11 -6t0 -11q4 -8 7 -22.5t4 -20.5q0 -4 4 -5t8 -1q11 0 8 27q0 2 -1 8.5t-3.5 13.5t-6 12t-9.5 5z" />
    <glyph glyph-name="y" unicode="y" horiz-adv-x="452" 
d="M184 197q-58 0 -90.5 17t-48.5 47t-20 70.5t-4 88.5l1 9v4q0 17 -1.5 44t3 52.5t18 43.5t44.5 18q3 0 6 1h10q33 0 51 -10t30 -42q6 -16 6 -34q0 -34 -4 -67t-4 -67q0 -20 10.5 -24.5t27.5 -4.5t27.5 6t16.5 16t8 23.5t2 27.5q0 27 -3.5 54t-3.5 54q0 20 8.5 33t22 20.5
t30.5 11t33 3.5q32 0 54 -14.5t22 -49.5q0 -63 -4.5 -125.5t-4.5 -125.5q0 -11 0.5 -22t0.5 -22l2 -29q0 -11 0.5 -22t0.5 -22q0 -55 -15.5 -92t-44.5 -60t-70.5 -33t-92.5 -10q-80 0 -132 42q-22 17 -39.5 42t-17.5 56q0 14 7.5 27.5t19.5 24t26.5 16.5t27.5 6
q10 0 18 -5.5t13 -13.5q16 -25 39.5 -37.5t51.5 -12.5q20 0 31 11t16 27t6.5 34.5t1.5 32.5v9.5t-1 10.5q-19 -17 -42.5 -27.5t-49.5 -10.5zM143 548q-9 0 -12.5 -5t-4.5 -11t-1 -12.5v-10.5q0 -3 -0.5 -9.5t0.5 -12.5t4.5 -11t9.5 -5q14 -1 17.5 9t4.5 17q2 16 -2 33.5
t-16 17.5zM392 546q-10 -1 -14 -9t-5.5 -18.5t-1.5 -21v-16.5q0 -5 -0.5 -16t1 -21.5t5.5 -19t11 -8.5q8 -1 13 4t7.5 12t3.5 14.5t1 13.5q1 13 0.5 28.5t-3 28t-7 21t-11.5 8.5zM395 398q-10 1 -16.5 -7.5t-7.5 -17.5q0 -15 13 -16q9 -1 15.5 5.5t7.5 16.5q0 5 -2.5 11.5
t-9.5 7.5z" />
    <glyph glyph-name="z" unicode="z" horiz-adv-x="448" 
d="M84 -34q-21 0 -34.5 10t-21 25.5t-10.5 33.5t-3 34q0 63 35 116q21 32 46 65.5t52.5 66.5t55.5 64t54 57q-45 -8 -83.5 -12.5t-81.5 -4.5q-40 0 -54 24t-14 65t12.5 63t48.5 22q72 0 133 -2.5t133 -6.5q33 -2 52.5 -25t19.5 -55q0 -12 -1 -28.5t-4 -33t-7 -32t-10 -26.5
q-20 -36 -44.5 -74.5t-51 -74.5t-55 -68.5t-55.5 -57.5q17 8 40 14t48.5 10t51.5 6.5t49 2.5q28 0 40 -24t12 -69q0 -42 -12 -58.5t-44 -16.5q-72 0 -148.5 -5t-148.5 -5zM362 555q-9 0 -11 -9q0 -4 2.5 -13t4.5 -13q2 -5 3 -11.5t3 -12t5 -9t10 -3.5q8 0 11 7.5t4 14.5
q1 15 -7 31t-25 18zM379 475q-5 0 -8 -4t-4 -9q0 -5 1.5 -11t6.5 -6q6 -1 9.5 3.5t4.5 10.5q0 5 -1.5 10t-8.5 6zM393 117q-8 -1 -11 -6t0 -11q4 -8 7 -22.5t4 -20.5q0 -4 4 -5t8 -1q11 0 8 27q0 2 -1 8.5t-3.5 13.5t-6 12t-9.5 5z" />
    <glyph glyph-name="braceleft" unicode="{" horiz-adv-x="288" 
d="M66 508q0 29 4 50t13.5 38t26.5 33t44 34q14 11 28.5 15.5t27.5 4.5q29 0 44 -24.5t15 -58.5q0 -25 -11 -35.5t-24 -16.5t-24 -11t-11 -19q0 -26 8.5 -58.5t8.5 -69.5q0 -30 -12.5 -57t-34.5 -48q20 -20 35 -42.5t15 -51.5q0 -17 -4.5 -33.5t-9.5 -31.5t-9.5 -28
t-4.5 -24q0 -7 7.5 -14.5t16.5 -13t18 -9.5t12 -5q9 -3 11.5 -16.5t2.5 -21.5q0 -11 -3.5 -24t-10.5 -24.5t-17 -19.5t-23 -8q-32 0 -59.5 8t-48 24.5t-32 42t-11.5 60.5q0 18 3.5 36t8 35.5t8 34.5t3.5 33q0 15 -10.5 22l-22.5 15t-22.5 21t-10.5 40q0 25 10.5 36.5
t22.5 18.5t22.5 15.5t10.5 27.5q0 30 -5.5 60t-5.5 60zM211 662q-9 -2 -12 -8t2 -13q6 -8 12.5 -19.5t8.5 -18.5q2 -5 6.5 -6t8.5 1q8 2 9 9.5t-4 23.5q0 2 -2.5 8t-6.5 11.5t-9.5 9.5t-12.5 2z" />
    <glyph glyph-name="bar" unicode="|" horiz-adv-x="299" 
d="M87 -27q0 30 2.5 61t4.5 61q4 59 1.5 122.5t-2.5 123.5v72l1 143v72q0 30 19.5 48t48.5 18t49.5 -15t20.5 -47q0 -120 -4.5 -242.5t-4.5 -242.5q0 -44 3 -86t6 -86q2 -35 -18 -56.5t-55 -21.5t-53.5 20.5t-18.5 55.5zM190 650q-10 -1 -14 -9t-5.5 -18.5t-1.5 -21v-16.5
q0 -5 -0.5 -15.5t1 -21.5t5.5 -19t11 -9q8 0 13 4.5t7.5 11.5t3.5 14.5t1 13.5q1 13 0.5 28.5t-3 28t-7 21t-11.5 8.5zM193 502q-10 1 -16.5 -7.5t-7.5 -17.5q0 -15 13 -16q9 -1 16 5.5t7 16.5q1 5 -2 11.5t-10 7.5z" />
    <glyph glyph-name="braceright" unicode="}" horiz-adv-x="294" 
d="M228 508q0 -30 -5.5 -60t-5.5 -60q0 -19 10.5 -27.5t22.5 -15.5t22.5 -18.5t10.5 -36.5q0 -27 -10.5 -40t-22.5 -21l-22.5 -15t-10.5 -22q0 -16 3.5 -33t8 -34.5t8 -35.5t3.5 -36q0 -35 -11.5 -60.5t-32 -42t-48 -24.5t-59.5 -8q-13 0 -23 8t-17 19.5t-10.5 24.5t-3.5 24
q0 8 2.5 21.5t11.5 16.5q3 1 12 5t18 9.5t16.5 13t7.5 14.5q0 11 -4.5 24t-9.5 28t-9.5 31.5t-4.5 33.5q0 29 15 51.5t35 42.5q-22 21 -34.5 48t-12.5 57q0 37 8.5 69.5t8.5 58.5q0 14 -11 19t-24 11t-24 16.5t-11 35.5q0 34 15 58.5t44 24.5q13 0 33.5 -3.5t34.5 -14.5
q21 -16 35.5 -31.5t23.5 -34t13 -40.5t4 -51zM93 658q-3 -3 -4 -8t4 -9q7 -7 16.5 -12.5t19.5 -14.5l10 -12t10 -10.5t11 -6.5t13 1q11 4 7 18t-20 31q-14 14 -28.5 21t-25.5 7q-10 0 -13 -5zM173 556q1 -7 5.5 -12t9.5 -6q8 -1 12.5 6.5t2.5 15.5q-1 6 -5.5 9.5t-9.5 4.5
q-8 1 -12.5 -4t-2.5 -14z" />
    <glyph glyph-name="asciitilde" unicode="~" horiz-adv-x="531" 
d="M433 407q15 0 26.5 -7.5t18.5 -19t10.5 -25.5t3.5 -27q0 -27 -9.5 -50.5t-27 -41.5t-41 -28t-50.5 -10q-26 0 -48.5 7.5t-43 16t-39.5 16t-39 7.5q-21 0 -31.5 -9t-17.5 -20t-15 -20t-25 -9q-15 0 -25.5 8.5t-17 21.5t-9.5 28t-3 27q0 27 10 51t27 43t41 30t51 11
q24 0 47 -7.5t45.5 -16.5t45 -16.5t45.5 -7.5q15 0 30 10q6 4 10 10.5t8.5 12.5t9.5 10.5t13 4.5zM445 390q-3 0 -6 -2t-3 -6q-1 -3 1.5 -11t4.5 -11q4 -9 5 -19.5t13 -10.5q7 0 9.5 6.5t2.5 11.5q1 13 -5.5 26.5t-21.5 15.5zM460 322q-4 0 -7 -3.5t-4 -7.5q0 -4 1 -9t6 -5
q5 -1 8.5 2.5t3.5 8.5t-1.5 9.5t-6.5 4.5z" />
    <glyph glyph-name="exclamdown" unicode="&#xa1;" horiz-adv-x="294" 
d="M77 465q0 17 6 33t16.5 28.5t25.5 20.5t32 8q35 0 56 -24.5t21 -58.5q0 -35 -19 -59.5t-57 -24.5q-34 0 -57.5 21t-23.5 56zM171 535q-7 -3 -8 -7.5t0.5 -9t4.5 -8.5t4 -7q2 -5 9 -15.5t18 -9.5q6 0 8.5 4t2 8.5t-2 9.5t-2.5 8q-6 14 -15.5 22.5t-18.5 4.5zM201 471
q-5 -2 -5 -7t2 -10q1 -3 4.5 -6.5t9.5 -0.5q8 3 7.5 9.5t-2.5 10.5q-6 9 -16 4zM237 -19q0 -34 -22 -53t-56 -19q-42 0 -66 16t-24 52q0 45 4 95.5t8.5 96t8 81.5t3.5 51q0 30 17.5 48t47.5 18q31 0 44.5 -18t13.5 -47q0 -16 3.5 -51.5t7 -80.5t7 -95t3.5 -94zM216 6
q-8 2 -12 -5t-9 -15q-5 -7 -9 -12.5t-4 -9.5q-2 -16 13 -16q9 -2 14.5 5t8.5 17q1 2 2 7.5t1 11.5t-1 11t-4 6z" />
    <glyph glyph-name="cent" unicode="&#xa2;" horiz-adv-x="410" 
d="M139 30q-35 10 -57.5 32t-35 54t-17.5 74.5t-5 93.5q0 45 6 86.5t20 75t37 57.5t58 35q-1 21 -2.5 48t-1.5 42q0 30 19 48t49 18q29 0 49.5 -15t20.5 -47q0 -23 -1 -47.5t-3 -47.5q32 -10 51 -32t28 -63q5 -22 8 -51t3 -49q0 -32 -20.5 -45t-51.5 -13q-20 0 -33 8t-18 28
q-2 11 -1.5 26.5t-1 30.5t-7 25.5t-19.5 10.5q-20 0 -31 -16.5t-16.5 -39t-6.5 -46t-1 -36.5q0 -14 1 -34.5t6 -40t16 -33t31 -13.5t29 5.5t12.5 14t4.5 18.5t5.5 18.5t15.5 14t34 5.5q33 0 43 -17t10 -46q0 -55 -26 -89t-71 -47q2 -11 4 -24.5t3 -23.5q2 -35 -18 -56.5
t-55 -21.5t-53.5 21t-18.5 55q0 9 3 23t5 26zM265 504q-3 -2 -4.5 -6.5t0.5 -9.5q4 -8 9 -17.5t12 -17.5q4 -6 5.5 -12.5t3.5 -12t6 -9t11 -3.5q10 1 12.5 14.5t-5.5 33.5q-10 23 -25.5 34.5t-24.5 5.5zM306 393q-1 -6 1.5 -11.5t6.5 -7.5q6 -3 12.5 2t7.5 13q2 12 -9 17
q-16 8 -19 -13z" />
    <glyph glyph-name="sterling" unicode="&#xa3;" horiz-adv-x="481" 
d="M37 243q0 23 5 37t14.5 22t25 10.5t36.5 2.5q-2 10 -4.5 19.5t-4.5 19.5v-1l-10 42t-5 43q0 39 11.5 71.5t33.5 56.5t53.5 37t71.5 13q51 0 83 -21t55 -51q17 -22 22 -46.5t5 -47.5q0 -31 -21 -52.5t-52 -21.5q-21 0 -30.5 11.5t-14.5 30.5q-2 7 -3.5 16t-3 17.5t-3 15.5
t-4.5 9q-13 12 -26 12q-16 0 -27 -15.5t-11 -39.5q0 -29 8.5 -58t13.5 -58h23q37 0 59.5 -14.5t22.5 -55.5q0 -40 -21 -54t-57 -14h-17.5t-17.5 1q-6 -31 -16 -60h43q29 0 50.5 6t50.5 8q15 1 25.5 -7.5t16.5 -21t8.5 -28t2.5 -27.5q0 -22 -4.5 -34.5t-14 -18.5t-23.5 -7
t-33 -1l-46 -1h-27h-29l-59 -1h-29q-19 0 -36.5 2t-30.5 8t-20.5 18t-7.5 31q0 13 3.5 29t8.5 33.5t11 35.5t12 34q-15 1 -27 3.5t-20.5 9.5t-13.5 19.5t-5 32.5zM311 575q-3 -2 -3.5 -7t3.5 -9q5 -7 12.5 -15t16.5 -16q6 -5 9 -11t6.5 -11.5t8 -8t11.5 -0.5q11 2 11.5 16.5
t-13.5 32.5q-11 16 -26 24t-26 8q-5 0 -10 -3zM379 473q1 -6 4.5 -11t8.5 -6q8 -2 13 4.5t4 14.5q-2 13 -13 15q-19 5 -17 -17zM367 115q-6 -2 -4 -9l3 -9t4 -9q2 -4 2.5 -11.5t1.5 -15t3.5 -12.5t6.5 -5q11 0 14.5 16t-0.5 30q-5 15 -14 21.5t-17 3.5z" />
    <glyph glyph-name="currency" unicode="&#xa4;" horiz-adv-x="598" 
d="M91 150q-20 29 -28.5 62.5t-8.5 67.5q0 32 7 62.5t22 58.5q-4 6 -10.5 15t-11.5 18.5t-9 19t-4 16.5q0 26 17.5 48t44.5 22q21 0 41 -14t32 -30q27 13 55.5 22t58.5 9q53 0 105 -19q14 17 33.5 33t42.5 16q22 0 41 -19t19 -42q0 -20 -11 -36.5t-21 -32.5
q21 -29 29.5 -63.5t8.5 -69.5q0 -41 -11 -80t-37 -71q18 -30 18 -65q0 -21 -13.5 -40t-36.5 -19t-41 15t-32 32q-24 -8 -49 -12.5t-51 -4.5q-52 0 -100 21q-13 -15 -29.5 -26.5t-36.5 -11.5q-24 0 -36.5 18.5t-12.5 40.5q0 32 15 59zM465 542q-6 -2 -2 -10q2 -3 8 -7.5
t9 -6.5q8 -5 14.5 -13t14.5 -2q5 3 3 9t-5 11q-7 11 -19 18.5t-23 0.5zM514 497q-3 -1 -4 -5t1 -8q1 -4 4 -8t6 -2q5 1 6 5t-1 9q-2 4 -4.5 7.5t-7.5 1.5zM305 387q-53 0 -77 -28t-24 -79q0 -42 25 -66.5t67 -24.5q28 0 46 7t28.5 20t15 33t4.5 45q0 42 -20.5 67.5
t-64.5 25.5zM497 374q-9 0 -11 -10q-1 -8 5.5 -24.5t4.5 -37.5q-1 -11 -4.5 -22t4.5 -18q8 -6 14.5 3t10.5 24q3 14 2 29t-5 27t-9.5 20t-11.5 9z" />
    <glyph glyph-name="yen" unicode="&#xa5;" horiz-adv-x="562" 
d="M197 218q-14 -1 -28.5 -2t-28.5 -1q-31 0 -47.5 12.5t-16.5 45.5q0 30 13 43t43 13h26q-14 21 -34 50t-38.5 59t-31.5 56t-13 40q0 18 9.5 32t24 24t31.5 15t33 5q14 0 25.5 -8t18.5 -20q26 -43 49 -88l46 -90q20 42 46 88t55 88q8 11 18.5 19t24.5 8q15 0 31 -5.5
t29.5 -15.5t22.5 -24t9 -30q0 -8 -1 -15.5t-6 -14.5q-28 -43 -55.5 -85t-53.5 -86q18 0 31.5 -1t22.5 -6t13.5 -16.5t4.5 -32.5q0 -30 -12.5 -42.5t-42.5 -12.5h-33.5t-33.5 1v-23h61q30 0 46.5 -10.5t16.5 -42.5q0 -42 -21.5 -52.5t-59.5 -10.5h-42q0 -26 0.5 -47.5
t-6 -36.5t-23 -23.5t-50.5 -8.5q-42 0 -57 22t-15 61q0 8 0.5 16.5t1.5 16.5q-13 -1 -26 -1h-26q-33 0 -52.5 15.5t-19.5 50.5q0 18 5.5 28t15 15.5t22 7t27.5 1.5q13 0 25.5 -0.5t25.5 -0.5v20zM486 549q-3 2 -8 0.5t-7 -6.5q-6 -11 -7.5 -16t-5.5 -12q-8 -12 -16 -21.5
t0 -21.5q3 -4 8 -4q15 0 30 26q26 45 6 55zM423 459q-11 -7 -11 -18q1 -7 8 -9.5t14 1.5q11 7 9 18q-3 17 -20 8zM442 315q-10 -2 -7 -10q3 -5 5.5 -13.5t2.5 -12.5q1 -4 8 -4q6 0 5 17q0 1 -1 5t-2.5 8t-4 7t-6.5 3zM442 186q-11 -2 -5 -8l5 -10t4 -9q0 -2 2.5 -2h4.5
q7 1 4 13q0 2 -4 9.5t-11 6.5z" />
    <glyph glyph-name="brokenbar" unicode="&#xa6;" horiz-adv-x="267" 
d="M201 625v-66t-0.5 -67.5t-2 -65t-5.5 -57.5q-5 -34 -17 -43t-34 -9h-17q-19 0 -30 11t-17 29t-7.5 41t-2.5 47q-1 45 1 94t2 94q0 26 19.5 44t45.5 18q32 0 48.5 -19t16.5 -51zM164 648q-10 0 -14 -8t-5.5 -18.5t-1.5 -21.5v-17q0 -5 -0.5 -15.5t1 -21.5t5.5 -19t11 -9
q8 0 13 4.5t7.5 11.5t3.5 14.5t1 13.5q1 13 0.5 28.5t-3 28.5t-7 21.5t-11.5 7.5zM167 500q-10 1 -17 -7.5t-7 -17.5q-2 -14 13 -16q9 -1 15.5 5.5t7.5 16.5q0 5 -2.5 11.5t-9.5 7.5zM70 240q2 25 17.5 34.5t44.5 9.5q9 0 19.5 -1.5t19 -6t14 -13t6.5 -22.5q1 -13 1.5 -36
t1 -50t1.5 -55.5t1.5 -53t1 -41t0.5 -20.5q0 -38 -18 -59t-51 -21q-67 0 -67 87v19.5t0.5 39.5t1.5 50.5t2 54t2 49t2 35.5z" />
    <glyph glyph-name="section" unicode="&#xa7;" horiz-adv-x="610" 
d="M180 112q8 -14 11 -24t17 -23q5 -5 21 -11t39 -6q21 0 32 6t11 15q0 3 -22 14.5t-52 27.5q-26 14 -54.5 30.5t-52 39t-39 53t-15.5 73.5q0 60 33.5 104t89.5 63q7 30 24 55t41.5 42.5t55.5 27.5t66 10q44 0 78 -15t56.5 -37.5t34 -49.5t11.5 -50q0 -41 -15.5 -66
t-53.5 -25q-39 0 -51.5 14t-10.5 43q2 26 -8.5 35.5t-37.5 9.5q-20 0 -35 -11t-15 -28q0 -20 30 -37t69 -34q25 -11 50 -24t45.5 -31t33 -43t12.5 -61q0 -57 -34.5 -95.5t-86.5 -55.5q-6 -32 -24 -57.5t-44 -43t-59 -27t-68 -9.5q-36 0 -71.5 13.5t-63 37t-44.5 56t-17 70.5
q0 59 66 59q16 0 29 -10.5t18 -24.5zM447 567q-9 -7 -2 -18q5 -8 12 -18t15 -19q5 -5 8 -12t6 -12.5t7.5 -9t12.5 -2.5q11 2 12 18t-11 36q-14 23 -32.5 33.5t-27.5 3.5zM508 451q0 -15 12 -20q7 -2 13.5 4t5.5 15q0 6 -3.5 11t-9.5 6q-18 7 -18 -16zM229 326q-8 -11 -8 -22
q0 -19 30 -36t69 -35q25 -11 50.5 -24t45.5 -31q13 7 13 16q0 2 -22 14t-51 27q-32 17 -67 38t-60 53zM500 284q-9 -7 -2 -18q5 -8 10 -11t10 -14q3 -5 4 -12t3.5 -13t6.5 -9t12 -2q11 2 10 14.5t-8 32.5q-6 19 -16.5 27t-19.5 8q-5 0 -10 -3z" />
    <glyph glyph-name="dieresis" unicode="&#xa8;" horiz-adv-x="391" 
d="M188 711q0 -12 -4 -27.5t-13 -29t-22.5 -22.5t-32.5 -9q-27 0 -49 21.5t-22 60.5q0 31 17 55.5t54 24.5q31 0 51.5 -20.5t20.5 -53.5zM338 711q0 -12 -4 -27.5t-13 -29t-22.5 -22.5t-32.5 -9q-27 0 -49 21.5t-22 60.5q0 31 17 55.5t54 24.5q31 0 51.5 -20.5t20.5 -53.5z
M134 769q-7 -2 -6 -9q0 -2 3.5 -9t5.5 -10q5 -8 9.5 -19.5t14.5 -9.5q7 2 7.5 11t-0.5 14q-2 11 -11 22.5t-23 9.5zM284 769q-7 -2 -6 -9q0 -2 3.5 -9t5.5 -10q5 -8 9.5 -19.5t14.5 -9.5q7 2 7.5 11t-0.5 14q-2 11 -11 22.5t-23 9.5z" />
    <glyph glyph-name="copyright" unicode="&#xa9;" horiz-adv-x="754" 
d="M64 273q0 83 24 147t67 107.5t103.5 66t132.5 22.5t131.5 -21t102 -61.5t66.5 -99.5t24 -136q0 -76 -22 -139.5t-64.5 -109t-104.5 -71t-142 -25.5q-75 0 -134 21.5t-100 62.5t-62.5 100.5t-21.5 135.5zM552 557q-9 -7 -4 -16q5 -8 20 -19.5t31 -28.5q8 -8 15.5 -20
t19.5 -10q11 1 8.5 13.5t-12.5 26.5q-8 13 -19 24.5t-22 19.5t-21 11t-16 -1zM392 545q-109 0 -170.5 -70t-61.5 -199q0 -53 15 -97.5t43.5 -77t70 -50.5t94.5 -18q62 0 107 20.5t74 56t42.5 84t13.5 104.5q0 47 -15 91.5t-44 79t-71.5 55.5t-97.5 21zM389 55
q-76 0 -120 59.5t-44 170.5q0 112 44.5 171.5t122.5 59.5q45 0 72 -14t41 -38t18 -57t4 -71q0 -35 -16.5 -47.5t-42.5 -12.5q-38 0 -47 38q-3 17 -8 35q-1 4 -1 9t-1 10t-5 8.5t-12 3.5q-42 0 -42 -103q0 -47 10 -66.5t31 -19.5q29 0 32 12q9 27 18.5 37t35.5 10t37.5 -14.5
t11.5 -49.5q0 -28 -10.5 -52t-29 -41.5t-44 -27.5t-55.5 -10zM421 491q-7 -5 -3 -14q4 -6 17 -10t28 -18q7 -6 12 -16.5t14 -9.5q8 1 7 12.5t-9 22.5q-13 17 -29 26.5t-27 9.5q-5 0 -10 -3zM635 441q-2 -12 8 -16q6 -2 11 2.5t5 10.5q1 5 -2 9t-7 6q-13 5 -15 -12z" />
    <glyph glyph-name="ordfeminine" unicode="&#xaa;" horiz-adv-x="402" 
d="M141 399q-28 0 -49.5 13.5t-36.5 34.5t-23 47t-8 51q0 37 13.5 68t37.5 53.5t56 35t68 12.5q25 0 47.5 -5.5t39 -18t26 -32t9.5 -47.5q0 -22 -8.5 -42.5t-8.5 -42.5l6 -4q8 0 10 10l4.5 22.5t8.5 22.5t21 10q11 0 18 -6t11.5 -15t6.5 -19.5t2 -18.5q0 -24 -8.5 -47
t-24 -41t-36.5 -29t-46 -11q-23 0 -38 15t-23 35q-13 -20 -31 -35.5t-44 -15.5zM147 543q0 -4 4 -8q7 0 15 9t15 20.5t12 23t6 17.5q-2 3 -5 4t-6 1q-10 0 -18 -7.5t-13 -18t-7.5 -22t-2.5 -19.5zM361 577q-6 0 -6 -5q0 -2 0.5 -7.5t2.5 -11t5 -9.5t6 -4q5 0 6.5 4.5
t1.5 8.5q0 8 -4 16t-12 8zM265 384q38 0 55.5 -12.5t17.5 -52.5q0 -29 -10 -49t-43 -20q-9 0 -18.5 0.5t-18.5 0.5l-25 2q-9 1 -18.5 1h-18.5q-22 0 -43.5 -2.5t-43.5 -2.5q-32 0 -45.5 16t-13.5 47q0 37 15.5 52t51.5 15q17 0 33.5 -1.5t33.5 -1.5q23 0 45.5 4t45.5 4z
M296 364q-11 0 -11 -9q0 -4 2.5 -14t6 -19.5t8.5 -17t10 -7.5q9 0 11.5 9t2.5 16q0 13 -8 27.5t-22 14.5z" />
    <glyph glyph-name="guillemotleft" unicode="&#xab;" horiz-adv-x="514" 
d="M24 289q0 14 4 24t16 18q24 14 40.5 28.5t31.5 29.5l30 30t36 31q11 8 23 8q10 0 19 -5t16 -12t11.5 -15t6.5 -14q5 -20 4 -36t-15 -32q-15 -17 -34.5 -34t-39.5 -25q20 -12 43.5 -32t40.5 -45q9 -14 5 -30t-15 -30t-24.5 -23t-22.5 -9q-15 0 -37 17t-44.5 39t-42 42.5
t-29.5 26.5q-11 8 -17 18t-6 30zM235 289q0 14 4 24t17 18q23 14 39.5 28.5t31.5 29.5l30 30t36 31q11 8 24 8q20 0 34 -17t18 -29q5 -20 4 -36t-15 -32q-15 -17 -34.5 -34t-39.5 -25q20 -12 43.5 -32t40.5 -45q9 -14 5 -30t-15 -30t-24.5 -23t-22.5 -9q-15 0 -37 17
t-44.5 39t-42 42.5t-29.5 26.5q-11 8 -17 18t-6 30zM421 435q-8 -2 -7 -9q1 -3 4.5 -9.5t5.5 -8.5q5 -8 8.5 -17t13.5 -7q7 2 8 8t0 12q-2 11 -10.5 22t-22.5 9zM448 377q-3 0 -5 -3.5t-1 -7.5t2.5 -8t5.5 -4q11 2 9 13t-11 10z" />
    <glyph glyph-name="logicalnot" unicode="&#xac;" horiz-adv-x="540" 
d="M45 379q0 26 12.5 47.5t42.5 22.5q41 2 77 2h71t71 -0.5t77 -0.5q17 0 33 -6t28 -17.5t19.5 -27t7.5 -34.5q0 -15 -1 -30t-1 -30q0 -14 2 -29t2 -29q0 -29 -16 -51t-48 -22q-25 0 -47 18t-22 44v18t0.5 21t1.5 21.5t3 17.5q-19 -4 -49.5 -6.5t-66 -3t-72 0t-67.5 1.5
q-16 1 -27 7.5t-18 16.5t-10 23t-3 26zM409 429q-10 -2 -8 -12q1 -4 6.5 -11.5t7.5 -11.5q4 -4 6.5 -10t5.5 -11t7 -7.5t10 -0.5q8 2 10 10.5t0 14.5q-3 15 -15.5 28.5t-29.5 10.5zM447 356q-5 -1 -7.5 -5.5t-0.5 -9.5q1 -5 4 -10t8 -4q13 4 11 17q-2 5 -5 9.5t-10 2.5z" />
    <glyph glyph-name="registered" unicode="&#xae;" horiz-adv-x="523" 
d="M253 277q-54 0 -96 16t-71.5 45.5t-45 70.5t-15.5 90q0 53 17.5 95.5t48 72.5t72 46t90.5 16t91 -16t73.5 -45t49.5 -69.5t18 -90.5q0 -53 -16 -95.5t-46 -72.5t-73 -46.5t-97 -16.5zM374 673q-7 -5 -4 -12q4 -5 16 -13t22 -23q5 -7 9.5 -13t11.5 -5q8 0 9 7t-6 18
q-14 20 -31.5 33.5t-26.5 7.5zM88 500q0 -77 43.5 -123t121.5 -46q41 0 73 13t55 37t35 57t12 73q0 35 -14.5 64t-38.5 50t-55 32.5t-65 11.5q-77 0 -122 -46.5t-45 -122.5zM325 358q-17 0 -28 3.5t-19 10.5t-15 18t-16 25v-11q0 -17 -2.5 -26.5t-6.5 -14t-10 -5t-12 -0.5
q-47 0 -47 47v150q-9 4 -14 9.5t-5 22.5q0 14 5.5 29.5t22.5 20.5q16 5 32 5.5t32 0.5q18 0 37.5 -3.5t35.5 -14t26 -29.5t10 -50q0 -27 -15 -49t-30 -33q5 -7 13.5 -8t17.5 -1q16 -2 20.5 -12t4.5 -30v-2q0 -16 -8.5 -34.5t-28.5 -18.5zM246 508q8 0 16.5 9.5t8.5 26.5
q0 13 -8 16.5t-17 3.5v-56z" />
    <glyph glyph-name="macron" unicode="&#xaf;" horiz-adv-x="387" 
d="M278 767q39 0 54.5 -18t15.5 -54q0 -41 -13 -59.5t-57 -18.5q-20 0 -39 1.5t-39 1.5q-25 0 -49.5 -2t-49.5 -2q-36 0 -51.5 17t-15.5 52q0 34 15 56.5t53 22.5h10.5t10.5 -1l42 -2h21q23 0 46 3t46 3zM304 745q-8 0 -8 -7q0 -3 2 -10.5t3 -10.5q2 -4 3 -10t2.5 -11
t4.5 -9t8 -4q7 0 9 9t2 14q2 12 -5 25t-21 14z" />
    <glyph glyph-name="degree" unicode="&#xb0;" horiz-adv-x="322" 
d="M20 539q0 29 11.5 54.5t31 45.5t46 31.5t55.5 11.5q26 0 51 -10t44 -27.5t30.5 -42t11.5 -54.5q0 -35 -12 -61.5t-32 -44.5t-46.5 -27.5t-56.5 -9.5q-25 0 -49.5 10.5t-43 28.5t-30 42.5t-11.5 52.5zM200 650q-6 -7 1 -14q5 -5 11.5 -12t14.5 -12q5 -3 8.5 -8t6.5 -9
t6.5 -6t9.5 0q8 3 7 15t-13 26q-11 11 -22.5 17t-19.5 6q-7 0 -10 -3zM135 544q0 -14 8.5 -21t19.5 -7q10 0 19.5 7t9.5 21t-9.5 22t-19.5 8q-9 0 -18.5 -8t-9.5 -22z" />
    <glyph glyph-name="plusminus" unicode="&#xb1;" horiz-adv-x="508" 
d="M186 295q-24 0 -46 -1t-39.5 4t-27.5 19.5t-10 45.5q0 34 10.5 49.5t27.5 21t40 4t47 -0.5q0 24 -1.5 45.5t3 37.5t19 25.5t46.5 9.5q36 0 52.5 -12t16.5 -50v-27.5t-1 -27.5q24 -1 46 0.5t38.5 -3t26 -19.5t9.5 -49q0 -32 -8.5 -47t-24 -20.5t-37.5 -4.5t-48 1
q0 -22 -0.5 -42.5t-6.5 -36t-20.5 -24.5t-43.5 -9q-34 0 -51.5 10.5t-17.5 48.5v26t1 26zM380 416q-3 0 -7 -2t-4 -6t2.5 -14t6 -20t8.5 -17.5t10 -7.5q8 0 11 8.5t3 14.5q0 13 -7.5 28.5t-22.5 15.5zM396 340q-4 0 -8 -3.5t-4 -8.5t1.5 -10.5t7.5 -5.5q12 0 12 13
q0 5 -1.5 10t-7.5 5zM382 173q35 0 50 -17t15 -49q0 -35 -14.5 -55t-52.5 -20q-41 0 -81 1.5t-82 1.5q-19 0 -38 -2.5t-39 -2.5q-38 0 -55 18.5t-17 54.5q0 33 11 50.5t48 17.5h64l128 2h63zM398 147q-3 0 -9 -3t-6 -9q0 -8 8 -14t13 -20q1 -4 5 -4q5 0 10 4t5 9q0 13 -7 25
t-19 12z" />
    <glyph glyph-name="twosuperior" unicode="&#xb2;" horiz-adv-x="354" 
d="M35 325q0 34 23.5 61t52 51.5t52 48t23.5 48.5q0 8 -3.5 12t-8 6t-9 2.5t-6.5 0.5q-15 0 -19 -11t-8.5 -24t-14 -24t-34.5 -11q-24 0 -40 19t-16 42q0 26 12.5 48.5t33 39t45 26t48.5 9.5q30 0 56 -7.5t45 -23t30 -39.5t11 -56q0 -50 -20.5 -87.5t-55.5 -67.5
q14 1 25 1.5t13 0.5q26 0 36 -18t10 -41q0 -24 -13 -41.5t-39 -17.5t-52.5 1.5t-52.5 1.5h-37q-16 0 -31.5 -0.5t-28 3t-20 14.5t-7.5 33zM208 635q-2 -3 -3.5 -7t2.5 -9q5 -6 13 -10t16 -13q4 -5 6.5 -11.5t4.5 -11.5t5.5 -8t10.5 -2q9 2 11.5 17.5t-9.5 30.5
q-11 14 -23.5 21t-22.5 7q-7 0 -11 -4zM265 542q1 -5 4 -10t8 -6q6 -2 10.5 3.5t4.5 13.5q-1 11 -12 14q-7 2 -11.5 -2t-3.5 -13z" />
    <glyph glyph-name="threesuperior" unicode="&#xb3;" horiz-adv-x="360" 
d="M292 471q17 -14 27 -33t10 -45q0 -35 -12 -58.5t-32 -37.5t-47.5 -20t-58.5 -6q-26 0 -50.5 9t-43.5 25.5t-30.5 39.5t-11.5 50q0 23 13 42t38 19q26 0 36 -11.5t15.5 -26t11.5 -26t23 -11.5q9 0 19 2.5t10 14.5q0 17 -11 20t-24 5t-24 10t-11 36q0 22 10.5 28.5t23 9.5
t23 10t10.5 29t-21 22q-16 0 -24 -13t-14 -28.5t-15 -28.5t-29 -13q-23 0 -40 18.5t-17 41.5q0 27 12.5 49.5t32.5 39t45 26t50 9.5q34 0 60 -5t44 -18.5t27 -37t9 -59.5q0 -49 -34 -78zM228 635q-2 -3 -3.5 -7t2.5 -9q5 -6 13 -10t16 -13q4 -5 6.5 -11.5t4.5 -11.5t5.5 -8
t10.5 -2q9 2 11.5 17.5t-9.5 30.5q-11 14 -23.5 21t-22.5 7q-7 0 -11 -4zM285 542q1 -5 4 -10t8 -6q6 -2 10.5 3.5t4.5 13.5q-1 11 -12 14q-7 2 -11.5 -2t-3.5 -13z" />
    <glyph glyph-name="acute" unicode="&#xb4;" horiz-adv-x="315" 
d="M47 667q0 13 18 35.5t42.5 44.5t48.5 38t36 16q11 0 23 -6t22.5 -15t17.5 -20.5t7 -22.5q0 -20 -20 -42.5t-47 -42t-55 -32t-44 -12.5q-7 0 -15.5 7t-16 16.5t-12.5 19.5t-5 16zM192 782q-8 -2 -5 -9q2 -3 7 -9t7 -8q7 -6 14 -16t17 -6q6 3 4 11.5t-4 13.5q-5 11 -16 20
t-24 3z" />
    <glyph glyph-name="paragraph" unicode="&#xb6;" horiz-adv-x="630" 
d="M389 268q0 -68 -4 -145.5t-6 -143.5q0 -12 -6.5 -20.5t-15.5 -13.5t-20 -7.5t-21 -2.5q-9 0 -21 3.5t-22.5 9.5t-18 15t-7.5 20l2 230q-40 5 -75 18.5t-61 36.5t-41.5 55.5t-15.5 76.5q0 69 30 117t78 77t107.5 42t118.5 13q41 0 84.5 -3t83.5 -9q22 -3 29.5 -22.5
t7.5 -38.5q0 -8 -2 -20t-7 -23t-12 -19t-18 -8h-23q-3 -48 -4.5 -93t-2 -83t0 -66.5t0.5 -43.5q0 -97 2 -161.5t-6 -93.5q-3 -13 -22 -21t-37 -8q-9 0 -19.5 3t-19.5 8.5t-15 13.5t-6 18q0 72 -1 141t1 141l6 243h-17q-2 -63 -3 -118t-1 -118zM551 619q-3 0 -6 -1.5t-3 -5.5
q0 -3 2 -10t3 -10q4 -8 5 -18t12 -10q6 0 8.5 6t2.5 11q1 12 -5 24.5t-19 13.5zM564 557q-8 0 -10 -10q0 -4 1 -8.5t6 -4.5q10 -2 10 11q1 4 -0.5 8t-6.5 4z" />
    <glyph glyph-name="periodcentered" unicode="&#xb7;" horiz-adv-x="276" 
d="M231 321q0 -49 -23 -78t-74 -29q-48 0 -68.5 27t-20.5 72q0 43 22 73t67 30q97 0 97 -95zM172 383q-10 0 -12 -8q0 -5 3 -14t5 -13q2 -5 3 -11t2.5 -11.5t5 -9t10.5 -3.5q8 0 11.5 7t3.5 14q1 15 -7 31.5t-25 17.5zM187 303q-5 0 -9 -5.5t-4 -10.5q-1 -5 1 -12.5t8 -8.5
q15 0 17 16q1 7 -2 13.5t-11 7.5z" />
    <glyph glyph-name="cedilla" unicode="&#xb8;" horiz-adv-x="319" 
d="M90 -53q0 12 7 25.5t17.5 25.5t24 19.5t25.5 7.5q23 0 34.5 -12.5t6.5 -37.5q-1 -5 6 -11.5t20 -9.5q26 -8 36 -26t10 -46q0 -27 -12.5 -47t-32 -34t-44 -21t-48.5 -7q-29 0 -48 13.5t-19 45.5q0 25 6 36t35 11q4 0 10 -0.5t12 0t10 3.5t4 10q0 6 -9.5 10.5t-20.5 10.5
t-20.5 14t-9.5 20zM227 -68q-8 -2 -7 -9q1 -3 4.5 -10t5.5 -9q5 -8 9.5 -19.5t14.5 -9.5q7 2 7 10.5v13.5q-2 12 -11 23.5t-23 9.5z" />
    <glyph glyph-name="onesuperior" unicode="&#xb9;" horiz-adv-x="283" 
d="M27 542q0 20 15.5 42.5t38 41.5t48 31.5t44.5 12.5q25 0 44 -16t19 -42q0 -67 -1.5 -133t-1.5 -133q0 -34 -15 -52.5t-50 -18.5t-50 20t-15 53q0 35 1.5 70t1.5 70q-8 -5 -18 -11.5t-19 -6.5q-12 0 -20.5 8t-13 19t-6.5 23.5t-2 21.5zM204 626q-7 0 -10.5 -6.5t-5 -14.5
t-1 -16.5t0.5 -13.5q0 -4 -0.5 -12t0.5 -16.5t4 -15t9 -6.5q13 -1 16 12t3 22q1 10 0.5 22t-2 22t-5 16.5t-9.5 6.5zM206 511q-8 0 -13 -6.5t-5 -13.5q-2 -12 10 -12q7 -1 12 4t6 13q0 4 -2.5 9t-7.5 6z" />
    <glyph glyph-name="ordmasculine" unicode="&#xba;" horiz-adv-x="353" 
d="M178 403q-31 0 -58.5 11.5t-47.5 31.5t-31.5 47.5t-11.5 58.5q0 33 11 61.5t30.5 49.5t47.5 33t62 12q33 0 59.5 -10.5t45.5 -30t29 -46.5t10 -60q0 -34 -9 -63t-27 -50t-45.5 -33t-64.5 -12zM220 681q-4 -2 -5.5 -6t0.5 -8q3 -7 18 -16t25 -27q5 -8 7.5 -19.5
t13.5 -11.5t12 11.5t-4 25.5q-5 13 -14 24t-19 18t-19 9.5t-15 -0.5zM146 557q0 -14 8.5 -27.5t23.5 -13.5q17 0 30.5 11.5t13.5 29.5q0 17 -11.5 26.5t-27.5 9.5q-19 0 -28 -9.5t-9 -26.5zM236 390q20 0 36 -1.5t27 -7.5t17 -19t6 -37q0 -30 -9.5 -50.5t-44.5 -20.5
q-20 0 -40.5 2t-40.5 2q-24 0 -45 -2.5t-44 -2.5q-33 0 -46.5 16.5t-13.5 47.5q0 33 12 48.5t31 20.5t44 3.5t50 -1.5q15 0 30.5 1t30.5 1zM284 364q-11 0 -11 -9q0 -4 2.5 -14t6 -19.5t8.5 -17t10 -7.5q9 0 11.5 9t2.5 16q0 13 -8 27.5t-22 14.5z" />
    <glyph glyph-name="guillemotright" unicode="&#xbb;" horiz-adv-x="521" 
d="M487 289q0 -20 -6 -30t-17 -18q-10 -6 -29.5 -26.5t-42 -42.5t-44.5 -39t-37 -17q-9 0 -22.5 9t-24.5 23t-15 30t5 30q17 25 40.5 45t43.5 32q-20 8 -39.5 25t-34.5 34q-14 16 -15 32t4 36q2 6 6.5 14t11.5 15t16 12t19 5q12 0 23 -8q21 -16 36 -31l30 -30t31.5 -29.5
t40.5 -28.5q12 -8 16 -18t4 -24zM276 289q0 -20 -6 -30t-17 -18q-10 -6 -29.5 -26.5t-42 -42.5t-44.5 -39t-37 -17q-9 0 -22.5 9t-24.5 23t-15 30t5 30q17 25 40.5 45t43.5 32q-20 8 -39.5 25t-34.5 34q-15 16 -15.5 32t4.5 36q4 12 18 29t34 17q13 0 24 -8q21 -16 36 -31
l30 -30t31.5 -29.5t39.5 -28.5q13 -8 17 -18t4 -24zM445 321q-6 0 -6 -6q0 -2 1.5 -8t3.5 -8q2 -3 2.5 -9.5t1.5 -12.5t3 -10t6 -3q5 0 6.5 11.5t1.5 16.5q1 10 -4 20t-16 9z" />
    <glyph glyph-name="onequarter" unicode="&#xbc;" horiz-adv-x="762" 
d="M48 522q0 20 15.5 42.5t38 41.5t48 31.5t44.5 12.5q25 0 44 -16t19 -42q0 -67 -1.5 -133t-1.5 -133q0 -34 -15 -52.5t-50 -18.5t-50 20t-15 53q0 35 1.5 70t1.5 70q-8 -5 -18 -11.5t-19 -6.5q-12 0 -20.5 8t-13 19t-6.5 23.5t-2 21.5zM295 49q-7 -10 -16.5 -24.5
t-21.5 -27.5t-25.5 -22.5t-27.5 -9.5q-34 0 -53.5 21.5t-19.5 51.5q0 13 14 41t33 58.5t37 58t26 39.5q51 76 96 154.5t92 156.5q8 14 17.5 28t21 25t26 18t32.5 7q28 0 48.5 -20t20.5 -48q0 -11 -5 -25t-10 -24q-69 -117 -140 -231t-145 -227zM225 606q-7 0 -10.5 -6.5
t-5 -14.5t-1 -16.5t0.5 -13.5q0 -4 -0.5 -12t0.5 -16.5t4 -15t9 -6.5q13 -1 16 12t3 22q1 10 0.5 22t-2 22t-5 16.5t-9.5 6.5zM554 577q-4 2 -9.5 -0.5t-7.5 -7.5q-4 -8 -8 -19.5t-7 -22.5q-2 -7 -6.5 -13.5t-8 -12t-4.5 -11t4 -11.5q4 -5 11 -5q19 0 35 30q13 25 12.5 47.5
t-11.5 25.5zM227 491q-8 0 -13 -6.5t-5 -13.5q-2 -12 10 -12q7 -1 12 4t6 13q0 4 -2.5 9t-7.5 6zM487 464q-14 -9 -11 -21q2 -8 9.5 -10.5t15.5 2.5q12 9 10 20q-3 13 -13 13q-6 0 -11 -4zM693 338q0 -39 -3 -80q0 -16 -0.5 -31t-1.5 -31q16 -5 23.5 -17t7.5 -35
q0 -15 0.5 -25.5t-2 -18.5t-8.5 -13t-19 -8q0 -40 -16 -65.5t-63 -25.5q-13 0 -22.5 6t-16.5 15.5t-10.5 21.5t-3.5 23v10.5t1 10.5q-11 -1 -22 -1.5t-22 -0.5q-16 0 -34 2t-32 8.5t-23.5 19t-9.5 34.5q0 12 3 25t10 23q36 48 68.5 93t72.5 89q9 11 22 17.5t36 6.5
q11 0 22 -3t21 -9t16 -16t6 -25zM653 354q-8 -1 -11.5 -7t-4.5 -14.5t-1 -16.5v-13v-12.5t1 -16.5t4 -14.5t9 -7.5q6 0 10 3.5t5.5 9t2.5 12t1 10.5q1 10 0.5 22t-2 22t-5 16.5t-9.5 6.5zM542 188l42 1l1 60zM655 238q-8 1 -13 -5.5t-6 -13.5q0 -12 11 -13q7 0 12 5t5 13
q1 4 -1.5 9t-7.5 5z" />
    <glyph glyph-name="onehalf" unicode="&#xbd;" horiz-adv-x="747" 
d="M33 522q0 20 15.5 42.5t38 41.5t48 31.5t44.5 12.5q25 0 44 -16t19 -42q0 -67 -1.5 -133t-1.5 -133q0 -34 -15 -52.5t-50 -18.5t-50 20t-15 53q0 35 1.5 70t1.5 70q-8 -5 -18 -11.5t-19 -6.5q-12 0 -20.5 8t-13 19t-6.5 23.5t-2 21.5zM280 49q-7 -10 -16.5 -24.5
t-21.5 -27.5t-25.5 -22.5t-27.5 -9.5q-34 0 -53.5 21.5t-19.5 51.5q0 13 14 41t33 58.5t37 58t26 39.5q51 76 96 154.5t92 156.5q8 14 17.5 28t21 25t26 18t32.5 7q28 0 48.5 -20t20.5 -48q0 -11 -5 -25t-10 -24q-69 -117 -140 -231t-145 -227zM210 606q-7 0 -10.5 -6.5
t-5 -14.5t-1 -16.5t0.5 -13.5q0 -4 -0.5 -12t0.5 -16.5t4 -15t9 -6.5q13 -1 16 12t3 22q1 10 0.5 22t-2 22t-5 16.5t-9.5 6.5zM539 577q-4 2 -9.5 -0.5t-7.5 -7.5q-4 -8 -8 -19.5t-7 -22.5q-2 -7 -6.5 -13.5t-8 -12t-4.5 -11t4 -11.5q4 -5 11 -5q19 0 35 30q13 25 12.5 47.5
t-11.5 25.5zM212 491q-8 0 -13 -6.5t-5 -13.5q-2 -12 10 -12q7 -1 12 4t6 13q0 4 -2.5 9t-7.5 6zM472 464q-14 -9 -11 -21q2 -8 9.5 -10.5t15.5 2.5q12 9 10 20q-3 13 -13 13q-6 0 -11 -4zM440 25q0 34 23.5 61t52 51.5t52 48t23.5 48.5q0 8 -3.5 12t-8 6t-9 2.5t-6.5 0.5
q-15 0 -17.5 -11t-5 -24.5t-10.5 -24.5t-33 -11q-24 0 -40 19t-16 42q0 26 11 49t29.5 39.5t41.5 26t47 9.5q30 0 56 -7.5t45 -23t30 -39.5t11 -56q0 -25 -10 -47t-25 -41.5t-33.5 -37t-36.5 -32.5q7 1 18 2t21.5 1.5t18.5 1t9 0.5q26 0 36 -18t10 -41q0 -24 -13 -41.5
t-39 -17.5t-52.5 1.5t-52.5 1.5h-37q-16 0 -31.5 -0.5t-28 3t-20 14.5t-7.5 33zM614 335q-3 -3 -4.5 -7t2.5 -9q6 -6 13.5 -10t15.5 -13q4 -5 6.5 -11.5t4.5 -11.5t5.5 -8t10.5 -2q9 2 11.5 17.5t-9.5 30.5q-11 14 -23.5 21t-22.5 7q-6 0 -10 -4zM670 242q1 -5 4 -10t8 -6
q6 -2 10.5 3.5t4.5 13.5q-1 11 -12 14q-7 2 -11.5 -2t-3.5 -13z" />
    <glyph glyph-name="threequarters" unicode="&#xbe;" horiz-adv-x="788" 
d="M282 461q17 -14 27 -33t10 -45q0 -35 -12 -58.5t-32 -37.5t-47.5 -20t-58.5 -6q-26 0 -50.5 9t-43.5 25.5t-30.5 39.5t-11.5 50q0 23 13 42t38 19q26 0 36 -11.5t15.5 -26t11.5 -26t23 -11.5q9 0 19 2.5t10 14.5q0 17 -11 20t-24 5t-24 10t-11 36q0 22 10.5 28.5t23 9.5
t23 10t10.5 29t-21 22q-16 0 -24 -13t-14 -28.5t-15 -28.5t-29 -13q-23 0 -40 18.5t-17 41.5q0 27 12.5 49.5t32.5 39t45 26t50 9.5q34 0 60 -5t44 -18.5t27 -37t9 -59.5q0 -49 -34 -78zM218 625q-2 -3 -3.5 -7t2.5 -9q5 -6 13 -10t16 -13q4 -5 6.5 -11.5t4.5 -11.5t5.5 -8
t10.5 -2q9 2 11.5 17.5t-9.5 30.5q-11 14 -23.5 21t-22.5 7q-7 0 -11 -4zM325 49q-7 -10 -16.5 -24.5t-21.5 -27.5t-25.5 -22.5t-27.5 -9.5q-34 0 -53.5 21.5t-19.5 51.5q0 13 14 41t33 58.5t37 58t26 39.5q51 76 96 154.5t92 156.5q8 14 17.5 28t21 25t26 18t32.5 7
q28 0 48.5 -20t20.5 -48q0 -11 -5 -25t-10 -24q-69 -117 -140 -231t-145 -227zM584 577q-4 2 -9.5 -0.5t-7.5 -7.5q-4 -8 -8 -19.5t-7 -22.5q-2 -7 -6.5 -13.5t-8 -12t-4.5 -11t4 -11.5q4 -5 11 -5q19 0 35 30q13 25 12.5 47.5t-11.5 25.5zM275 532q1 -5 4 -10t8 -6
q6 -2 10.5 3.5t4.5 13.5q-1 11 -12 14q-7 2 -11.5 -2t-3.5 -13zM517 464q-14 -9 -11 -21q2 -8 9.5 -10.5t15.5 2.5q12 9 10 20q-3 13 -13 13q-6 0 -11 -4zM723 338q0 -39 -3 -80q0 -16 -0.5 -31t-1.5 -31q16 -5 23.5 -17t7.5 -35q0 -15 0.5 -25.5t-2 -18.5t-8.5 -13t-19 -8
q0 -40 -16 -65.5t-63 -25.5q-13 0 -22.5 6t-16.5 15.5t-10.5 21.5t-3.5 23v10.5t1 10.5q-11 -1 -22 -1.5t-22 -0.5q-16 0 -34 2t-32 8.5t-23.5 19t-9.5 34.5q0 12 3 25t10 23q36 48 68.5 93t72.5 89q9 11 22 17.5t36 6.5q11 0 22 -3t21 -9t16 -16t6 -25zM683 354
q-8 -1 -11.5 -7t-4.5 -14.5t-1 -16.5v-13v-12.5t1 -16.5t4 -14.5t9 -7.5q6 0 10 3.5t5.5 9t2.5 12t1 10.5q1 10 0.5 22t-2 22t-5 16.5t-9.5 6.5zM572 188l42 1l1 60zM685 238q-8 1 -13 -5.5t-6 -13.5q0 -12 11 -13q7 0 12 5t5 13q1 4 -1.5 9t-7.5 5z" />
    <glyph glyph-name="questiondown" unicode="&#xbf;" horiz-adv-x="467" 
d="M167 461q0 16 5 32t15 28.5t25 20t36 7.5q35 0 54.5 -24.5t19.5 -57.5q0 -34 -18.5 -58t-54.5 -24q-32 0 -57 21t-25 55zM260 525q-7 -3 -8 -7t0.5 -8t5 -8t4.5 -7q2 -5 8.5 -16t17.5 -10q6 0 8.5 4t2.5 9t-1.5 10t-2.5 8q-6 14 -16 22t-19 3zM290 461q-5 -2 -5 -6.5
t2 -9.5q1 -4 4.5 -7.5t9.5 -0.5q7 4 7 10t-2 10q-5 10 -16 4zM234 49q25 0 39 9t21.5 22t11 29t9 29t15 22t28.5 9q31 0 55 -23t24 -55q0 -40 -17.5 -74t-46.5 -59t-65.5 -39.5t-74.5 -14.5q-41 0 -77.5 8t-63.5 28t-43.5 53.5t-16.5 83.5q0 38 9.5 63t24 42t32.5 28.5
t35.5 22.5t31.5 24t20 33q5 14 8 28.5t8.5 26t16 18.5t30.5 7q24 0 44.5 -14t20.5 -44q0 -45 -9.5 -75t-24 -50t-31.5 -32t-31.5 -22.5t-24 -21t-9.5 -26.5q0 -20 11 -28t40 -8zM373 145q-7 -3 -6.5 -9t4.5 -12.5t9 -12.5t8 -9q2 -2 4 -6.5t5 -9t7 -7.5t9 -3q13 1 11 15
t-12 30q-2 3 -6.5 8t-10 9t-11.5 6.5t-11 0.5z" />
    <glyph glyph-name="Agrave" unicode="&#xc0;" 
d="M345 667q0 -6 -5 -16t-12.5 -19.5t-16 -16.5t-15.5 -7q-16 0 -44 12.5t-55 32t-47 42t-20 42.5q0 11 7 22.5t17.5 20.5t23 15t22.5 6q12 0 36 -16t48.5 -38t42.5 -44.5t18 -35.5zM318 695q-6 4 -10 -2q-2 -2 -4 -9.5t-3 -10.5q-2 -9 -7 -20.5t3 -17.5q6 -4 12.5 2t9.5 11
q8 9 9.5 24t-10.5 23zM97 -19q-49 0 -70.5 20t-21.5 65q0 14 4 39.5t10 58t14.5 69.5t18 73.5t19 69.5t18.5 57q17 47 32.5 77.5t33.5 49t40 26t52 7.5q41 0 69.5 -11.5t50 -43.5t37 -87.5t29.5 -144.5q5 -31 11 -72.5t11.5 -81.5t9.5 -72t4 -45q0 -63 -88 -63
q-31 0 -47.5 9.5t-25.5 26.5t-13.5 40.5t-11.5 52.5h-107q-3 -19 -5.5 -40.5t-10 -39t-22 -29t-41.5 -11.5zM309 520q-9 -5 -8.5 -22t9.5 -43q21 -58 45 -47q22 11 5 58q-11 29 -25.5 44.5t-25.5 9.5zM354 380q-7 -17 2 -26q4 -4 9 -4q6 0 12 4t8 10q5 14 -5 24q-5 5 -11 5
q-9 0 -15 -13zM266 247q1 16 0 40t-4 46t-7 38t-9 16t-12 -13.5t-13.5 -34.5t-11.5 -45.5t-6 -46.5h63z" />
    <glyph glyph-name="Aacute" unicode="&#xc1;" 
d="M130 667q0 13 18 35.5t42 44.5t48.5 38t36.5 16q10 0 22.5 -6t23 -15t17.5 -20.5t7 -22.5q0 -20 -20 -42.5t-47 -42t-55 -32t-44 -12.5q-7 0 -15.5 7t-16 16.5t-12.5 19.5t-5 16zM274 782q-8 -2 -4 -9q2 -3 6.5 -9t7.5 -8q6 -6 13.5 -16t16.5 -6q6 3 4.5 11.5t-3.5 13.5
q-5 11 -16.5 20t-24.5 3zM97 -19q-49 0 -70.5 20t-21.5 65q0 14 4 39.5t10 58t14.5 69.5t18 73.5t19 69.5t18.5 57q17 47 32.5 77.5t33.5 49t40 26t52 7.5q41 0 69.5 -11.5t50 -43.5t37 -87.5t29.5 -144.5q5 -31 11 -72.5t11.5 -81.5t9.5 -72t4 -45q0 -63 -88 -63
q-31 0 -47.5 9.5t-25.5 26.5t-13.5 40.5t-11.5 52.5h-107q-3 -19 -5.5 -40.5t-10 -39t-22 -29t-41.5 -11.5zM309 520q-9 -5 -8.5 -22t9.5 -43q21 -58 45 -47q22 11 5 58q-11 29 -25.5 44.5t-25.5 9.5zM354 380q-7 -17 2 -26q4 -4 9 -4q6 0 12 4t8 10q5 14 -5 24q-5 5 -11 5
q-9 0 -15 -13zM266 247q1 16 0 40t-4 46t-7 38t-9 16t-12 -13.5t-13.5 -34.5t-11.5 -45.5t-6 -46.5h63z" />
    <glyph glyph-name="Acircumflex" unicode="&#xc2;" 
d="M91 668q0 8 18 28.5t42 42.5t49 39t39 17q13 0 37 -12t48 -30.5t42 -40t18 -40.5q0 -11 -6.5 -23t-16 -22.5t-20.5 -17t-20 -6.5q-7 0 -17.5 5.5t-21.5 14t-21.5 18t-18.5 18.5q-9 -9 -21.5 -20t-25 -20t-23.5 -15t-17 -6q-9 0 -20 7.5t-20.5 18t-16.5 22.5t-7 22z
M347 696q-7 2 -10 -3q-2 -3 -3 -10.5t-1 -10.5q-1 -9 -4.5 -21t6.5 -17q6 -3 11.5 3.5t7.5 11.5q6 11 6 25.5t-13 21.5zM97 -19q-49 0 -70.5 20t-21.5 65q0 14 4 39.5t10 58t14.5 69.5t18 73.5t19 69.5t18.5 57q17 47 32.5 77.5t33.5 49t40 26t52 7.5q41 0 69.5 -11.5
t50 -43.5t37 -87.5t29.5 -144.5q5 -31 11 -72.5t11.5 -81.5t9.5 -72t4 -45q0 -63 -88 -63q-31 0 -47.5 9.5t-25.5 26.5t-13.5 40.5t-11.5 52.5h-107q-3 -19 -5.5 -40.5t-10 -39t-22 -29t-41.5 -11.5zM309 520q-9 -5 -8.5 -22t9.5 -43q21 -58 45 -47q22 11 5 58
q-11 29 -25.5 44.5t-25.5 9.5zM354 380q-7 -17 2 -26q4 -4 9 -4q6 0 12 4t8 10q5 14 -5 24q-5 5 -11 5q-9 0 -15 -13zM266 247q1 16 0 40t-4 46t-7 38t-9 16t-12 -13.5t-13.5 -34.5t-11.5 -45.5t-6 -46.5h63z" />
    <glyph glyph-name="Atilde" unicode="&#xc3;" 
d="M342 793q14 0 23 -8t14.5 -19.5t8 -24.5t2.5 -24q0 -19 -5.5 -39t-17 -36.5t-28 -26.5t-38.5 -10q-23 0 -40.5 7t-30 16t-22.5 16t-18 7q-4 0 -6 -7t-6.5 -16t-13 -16t-24.5 -7t-26.5 8t-17 20.5t-9 27t-2.5 27.5q0 19 7 38t19.5 34t29.5 24.5t38 9.5q20 0 37 -8t31 -17
t24 -17t15 -8t9.5 7.5t10 17t14 17t22.5 7.5zM351 774q-8 0 -8 -7q0 -3 1.5 -10.5t3.5 -10.5q3 -8 4.5 -18t12.5 -10q7 0 9 6t3 11q1 12 -5.5 25t-20.5 14zM97 -19q-49 0 -70.5 20t-21.5 65q0 14 4 39.5t10 58t14.5 69.5t18 73.5t19 69.5t18.5 57q17 47 32.5 77.5t33.5 49
t40 26t52 7.5q41 0 69.5 -11.5t50 -43.5t37 -87.5t29.5 -144.5q5 -31 11 -72.5t11.5 -81.5t9.5 -72t4 -45q0 -63 -88 -63q-31 0 -47.5 9.5t-25.5 26.5t-13.5 40.5t-11.5 52.5h-107q-3 -19 -5.5 -40.5t-10 -39t-22 -29t-41.5 -11.5zM309 520q-9 -5 -8.5 -22t9.5 -43
q21 -58 45 -47q22 11 5 58q-11 29 -25.5 44.5t-25.5 9.5zM354 380q-7 -17 2 -26q4 -4 9 -4q6 0 12 4t8 10q5 14 -5 24q-5 5 -11 5q-9 0 -15 -13zM266 247q1 16 0 40t-4 46t-7 38t-9 16t-12 -13.5t-13.5 -34.5t-11.5 -45.5t-6 -46.5h63z" />
    <glyph glyph-name="Adieresis" unicode="&#xc4;" 
d="M234 711q0 -12 -4 -27.5t-13 -29t-22.5 -22.5t-32.5 -9q-27 0 -49 21.5t-22 60.5q0 31 17 55.5t54 24.5q31 0 51.5 -20.5t20.5 -53.5zM384 711q0 -12 -4 -27.5t-13 -29t-22.5 -22.5t-32.5 -9q-27 0 -49 21.5t-22 60.5q0 31 17 55.5t54 24.5q31 0 51.5 -20.5t20.5 -53.5z
M179 769q-7 -2 -6 -9l4.5 -9t5.5 -10q5 -8 9 -19.5t15 -9.5q7 2 7 11t-1 14q-2 11 -11 22.5t-23 9.5zM329 769q-7 -2 -6 -9l4.5 -9t5.5 -10q5 -8 9 -19.5t15 -9.5q7 2 7 11t-1 14q-2 11 -11 22.5t-23 9.5zM97 -19q-49 0 -70.5 20t-21.5 65q0 14 4 39.5t10 58t14.5 69.5
t18 73.5t19 69.5t18.5 57q17 47 32.5 77.5t33.5 49t40 26t52 7.5q41 0 69.5 -11.5t50 -43.5t37 -87.5t29.5 -144.5q5 -31 11 -72.5t11.5 -81.5t9.5 -72t4 -45q0 -63 -88 -63q-31 0 -47.5 9.5t-25.5 26.5t-13.5 40.5t-11.5 52.5h-107q-3 -19 -5.5 -40.5t-10 -39t-22 -29
t-41.5 -11.5zM309 520q-9 -5 -8.5 -22t9.5 -43q21 -58 45 -47q22 11 5 58q-11 29 -25.5 44.5t-25.5 9.5zM354 380q-7 -17 2 -26q4 -4 9 -4q6 0 12 4t8 10q5 14 -5 24q-5 5 -11 5q-9 0 -15 -13zM266 247q1 16 0 40t-4 46t-7 38t-9 16t-12 -13.5t-13.5 -34.5t-11.5 -45.5
t-6 -46.5h63z" />
    <glyph glyph-name="Aring" unicode="&#xc5;" 
d="M128 711q0 22 8 42.5t23 36t35.5 24.5t45.5 9q24 0 43.5 -8.5t33.5 -22.5t22 -33.5t8 -40.5q0 -47 -29 -80t-77 -33t-80.5 29t-32.5 77zM282 790q-7 -4 -5 -10q2 -3 6.5 -9t6.5 -8q6 -6 13 -17t16 -7q7 3 5.5 11.5t-3.5 13.5q-4 11 -15 21t-24 5zM223 714q0 -8 3.5 -17.5
t11.5 -9.5q10 0 14.5 9.5t4.5 22.5q0 11 -3 19t-14 8q-10 0 -13.5 -9t-3.5 -23zM97 -19q-49 0 -70.5 20t-21.5 65q0 14 4 39.5t10 58t14.5 69.5t18 73.5t19 69.5t18.5 57q17 47 32.5 77.5t33.5 49t40 26t52 7.5q41 0 69.5 -11.5t50 -43.5t37 -87.5t29.5 -144.5
q5 -31 11 -72.5t11.5 -81.5t9.5 -72t4 -45q0 -63 -88 -63q-31 0 -47.5 9.5t-25.5 26.5t-13.5 40.5t-11.5 52.5h-107q-3 -19 -5.5 -40.5t-10 -39t-22 -29t-41.5 -11.5zM309 520q-9 -5 -8.5 -22t9.5 -43q21 -58 45 -47q22 11 5 58q-11 29 -25.5 44.5t-25.5 9.5zM354 380
q-7 -17 2 -26q4 -4 9 -4q6 0 12 4t8 10q5 14 -5 24q-5 5 -11 5q-9 0 -15 -13zM266 247q1 16 0 40t-4 46t-7 38t-9 16t-12 -13.5t-13.5 -34.5t-11.5 -45.5t-6 -46.5h63z" />
    <glyph glyph-name="AE" unicode="&#xc6;" horiz-adv-x="658" 
d="M97 -19q-49 0 -70.5 20t-21.5 65q0 14 4 39.5t10 58t14.5 69.5t18 73.5t19 69.5t18.5 57q17 47 32.5 77.5t33.5 49t40 26t52 7.5q26 0 47 -4.5t38 -15.5q10 7 23 8q56 5 113.5 10.5t113.5 5.5q11 0 21 -9.5t17.5 -22.5t12 -27t4.5 -23q0 -13 -1.5 -26t-6.5 -23.5
t-14.5 -17.5t-25.5 -8l-136 -11l5 -62h98q31 0 42 -20.5t11 -47.5q0 -10 -1.5 -23.5t-6 -26t-12.5 -21.5t-22 -9h-109l6 -89h54q11 0 17.5 6.5t13 15t15 15t21.5 6.5q32 0 52 -17t20 -50q0 -39 -4 -65t-17 -42t-37 -23.5t-63 -8.5q-23 -1 -47 -1h-47h-63q-36 0 -54 14.5
t-23 42.5q-5 16 -9 35.5t-10 42.5h-107q-3 -19 -5.5 -40.5t-10 -39t-22 -29t-41.5 -11.5zM544 576q-2 -1 -4.5 -4.5t-0.5 -7.5q5 -8 8 -12.5t5 -8.5q5 -11 8 -21t21 -11q11 0 16.5 11t-2.5 28q-10 19 -24 25t-27 1zM577 491q-1 -5 1 -9.5t6 -6.5q5 -2 10 2t6 10q0 12 -7 15
q-13 6 -16 -11zM266 247q1 16 0 40t-4 46t-7 38t-9 16t-12 -13.5t-13.5 -34.5t-11.5 -45.5t-6 -46.5h63zM551 351q-2 -1 -3.5 -3.5t-0.5 -5.5l3 -9t4 -9q5 -8 5.5 -17.5t9.5 -9.5q8 0 12.5 7.5t0.5 21.5q-5 15 -14 21t-17 4z" />
    <glyph glyph-name="Ccedilla" unicode="&#xc7;" horiz-adv-x="437" 
d="M133 -53q0 7 2.5 14t6.5 15q-40 13 -66 40.5t-40.5 66.5t-20 89.5t-5.5 111.5q0 66 9 124t33 102t66.5 69.5t110.5 25.5q78 0 123 -27t62 -100q6 -27 9.5 -63t3.5 -60q0 -40 -25 -55.5t-63 -15.5q-24 0 -40 9.5t-22 34.5q-3 13 -2.5 32.5t-1 37.5t-8.5 31t-24 13
q-25 0 -38.5 -20.5t-20 -48t-8 -56t-1.5 -44.5q0 -17 1 -42t7.5 -48.5t20 -40.5t38.5 -17t35.5 7t15 17t6 22.5t7 22.5t19 17t41.5 7q40 0 52 -21t12 -57q0 -83 -47.5 -127t-125.5 -49q7 -7 19 -10q26 -8 36.5 -26t10.5 -46q0 -27 -12.5 -47t-32 -34t-44 -21t-48.5 -7
q-30 0 -48.5 13.5t-18.5 45.5q0 25 6 36t35 11q4 0 10 -0.5t12 0t10 3.5t4 10q0 6 -9.5 10.5t-21 10.5t-21 14t-9.5 20zM305 554q-4 -2 -6 -8t1 -12q5 -9 11 -20.5t14 -22.5q5 -7 7 -15t4.5 -14.5t7 -11t13.5 -4.5q12 1 15.5 18t-6.5 40q-12 28 -31 42.5t-30 7.5zM355 418
q-1 -8 2 -15t8 -9q8 -4 15.5 2t8.5 16q2 16 -11 21q-20 10 -23 -15zM270 -68q-7 -2 -6 -9q1 -3 4 -10t5 -9q5 -8 9.5 -19.5t15.5 -9.5q7 2 7 10.5t-1 13.5q-2 12 -11 23.5t-23 9.5z" />
    <glyph glyph-name="Egrave" unicode="&#xc8;" horiz-adv-x="388" 
d="M302 667q0 -6 -5 -16t-12.5 -19.5t-16 -16.5t-15.5 -7q-16 0 -44 12.5t-55 32t-47 42t-20 42.5q0 11 7 22.5t17.5 20.5t23 15t22.5 6q12 0 36 -16t48.5 -38t42.5 -44.5t18 -35.5zM275 695q-6 4 -10 -2q-2 -2 -4 -9.5t-3 -10.5q-2 -9 -7 -20.5t3 -17.5q6 -4 12.5 2t9.5 11
q8 9 9.5 24t-10.5 23zM110 -34q-46 0 -63 23t-17 66v360q0 17 -1 44t2.5 53.5t15.5 46t39 22.5q56 5 113.5 10.5t113.5 5.5q11 0 21 -9.5t17.5 -22.5t12 -27t4.5 -23q0 -13 -1.5 -26t-6.5 -23.5t-14.5 -17.5t-25.5 -8l-136 -11l5 -62h98q31 0 42 -20.5t11 -47.5
q0 -10 -1.5 -23.5t-6 -26t-12.5 -21.5t-22 -9h-109l6 -89h54q11 0 17.5 6.5t13 15t15 15t21.5 6.5q32 0 52 -17t20 -50q0 -39 -4 -65t-17 -42t-37 -23.5t-63 -8.5q-23 -1 -47 -1h-47h-63zM275 576q-2 -1 -4.5 -4.5t-0.5 -7.5q5 -8 8 -12.5t5 -8.5q5 -11 8 -21t21 -11
q11 0 16.5 11t-2.5 28q-10 19 -24 25t-27 1zM308 491q-1 -5 1 -9.5t6 -6.5q5 -2 10 2t6 10q0 12 -7 15q-13 6 -16 -11zM282 351q-2 -1 -3.5 -3.5t-0.5 -5.5l3 -9t4 -9q5 -8 5.5 -17.5t9.5 -9.5q8 0 12.5 7.5t0.5 21.5q-5 15 -14 21t-17 4z" />
    <glyph glyph-name="Eacute" unicode="&#xc9;" horiz-adv-x="388" 
d="M87 667q0 13 18 35.5t42 44.5t48.5 38t36.5 16q10 0 22.5 -6t23 -15t17.5 -20.5t7 -22.5q0 -20 -20 -42.5t-47 -42t-55 -32t-44 -12.5q-7 0 -15.5 7t-16 16.5t-12.5 19.5t-5 16zM231 782q-8 -2 -4 -9q2 -3 6.5 -9t7.5 -8q6 -6 13.5 -16t16.5 -6q6 3 4.5 11.5t-3.5 13.5
q-5 11 -16.5 20t-24.5 3zM110 -34q-46 0 -63 23t-17 66v360q0 17 -1 44t2.5 53.5t15.5 46t39 22.5q56 5 113.5 10.5t113.5 5.5q11 0 21 -9.5t17.5 -22.5t12 -27t4.5 -23q0 -13 -1.5 -26t-6.5 -23.5t-14.5 -17.5t-25.5 -8l-136 -11l5 -62h98q31 0 42 -20.5t11 -47.5
q0 -10 -1.5 -23.5t-6 -26t-12.5 -21.5t-22 -9h-109l6 -89h54q11 0 17.5 6.5t13 15t15 15t21.5 6.5q32 0 52 -17t20 -50q0 -39 -4 -65t-17 -42t-37 -23.5t-63 -8.5q-23 -1 -47 -1h-47h-63zM275 576q-2 -1 -4.5 -4.5t-0.5 -7.5q5 -8 8 -12.5t5 -8.5q5 -11 8 -21t21 -11
q11 0 16.5 11t-2.5 28q-10 19 -24 25t-27 1zM308 491q-1 -5 1 -9.5t6 -6.5q5 -2 10 2t6 10q0 12 -7 15q-13 6 -16 -11zM282 351q-2 -1 -3.5 -3.5t-0.5 -5.5l3 -9t4 -9q5 -8 5.5 -17.5t9.5 -9.5q8 0 12.5 7.5t0.5 21.5q-5 15 -14 21t-17 4z" />
    <glyph glyph-name="Ecircumflex" unicode="&#xca;" horiz-adv-x="388" 
d="M48 668q0 8 18 28.5t42 42.5t49 39t39 17q13 0 37 -12t48 -30.5t42 -40t18 -40.5q0 -11 -6.5 -23t-16 -22.5t-20.5 -17t-20 -6.5q-7 0 -17.5 5.5t-21.5 14t-21.5 18t-18.5 18.5q-9 -9 -21.5 -20t-25 -20t-23.5 -15t-17 -6q-9 0 -20 7.5t-20.5 18t-16.5 22.5t-7 22z
M304 696q-7 2 -10 -3q-2 -3 -3 -10.5t-1 -10.5q-1 -9 -4.5 -21t6.5 -17q6 -3 11.5 3.5t7.5 11.5q6 11 6 25.5t-13 21.5zM110 -34q-46 0 -63 23t-17 66v360q0 17 -1 44t2.5 53.5t15.5 46t39 22.5q56 5 113.5 10.5t113.5 5.5q11 0 21 -9.5t17.5 -22.5t12 -27t4.5 -23
q0 -13 -1.5 -26t-6.5 -23.5t-14.5 -17.5t-25.5 -8l-136 -11l5 -62h98q31 0 42 -20.5t11 -47.5q0 -10 -1.5 -23.5t-6 -26t-12.5 -21.5t-22 -9h-109l6 -89h54q11 0 17.5 6.5t13 15t15 15t21.5 6.5q32 0 52 -17t20 -50q0 -39 -4 -65t-17 -42t-37 -23.5t-63 -8.5q-23 -1 -47 -1
h-47h-63zM275 576q-2 -1 -4.5 -4.5t-0.5 -7.5q5 -8 8 -12.5t5 -8.5q5 -11 8 -21t21 -11q11 0 16.5 11t-2.5 28q-10 19 -24 25t-27 1zM308 491q-1 -5 1 -9.5t6 -6.5q5 -2 10 2t6 10q0 12 -7 15q-13 6 -16 -11zM282 351q-2 -1 -3.5 -3.5t-0.5 -5.5l3 -9t4 -9q5 -8 5.5 -17.5
t9.5 -9.5q8 0 12.5 7.5t0.5 21.5q-5 15 -14 21t-17 4z" />
    <glyph glyph-name="Edieresis" unicode="&#xcb;" horiz-adv-x="388" 
d="M191 711q0 -12 -4 -27.5t-13 -29t-22.5 -22.5t-32.5 -9q-27 0 -49 21.5t-22 60.5q0 31 17 55.5t54 24.5q31 0 51.5 -20.5t20.5 -53.5zM341 711q0 -12 -4 -27.5t-13 -29t-22.5 -22.5t-32.5 -9q-27 0 -49 21.5t-22 60.5q0 31 17 55.5t54 24.5q31 0 51.5 -20.5t20.5 -53.5z
M136 769q-7 -2 -6 -9l4.5 -9t5.5 -10q5 -8 9 -19.5t15 -9.5q7 2 7 11t-1 14q-2 11 -11 22.5t-23 9.5zM286 769q-7 -2 -6 -9l4.5 -9t5.5 -10q5 -8 9 -19.5t15 -9.5q7 2 7 11t-1 14q-2 11 -11 22.5t-23 9.5zM110 -34q-46 0 -63 23t-17 66v360q0 17 -1 44t2.5 53.5t15.5 46
t39 22.5q56 5 113.5 10.5t113.5 5.5q11 0 21 -9.5t17.5 -22.5t12 -27t4.5 -23q0 -13 -1.5 -26t-6.5 -23.5t-14.5 -17.5t-25.5 -8l-136 -11l5 -62h98q31 0 42 -20.5t11 -47.5q0 -10 -1.5 -23.5t-6 -26t-12.5 -21.5t-22 -9h-109l6 -89h54q11 0 17.5 6.5t13 15t15 15t21.5 6.5
q32 0 52 -17t20 -50q0 -39 -4 -65t-17 -42t-37 -23.5t-63 -8.5q-23 -1 -47 -1h-47h-63zM275 576q-2 -1 -4.5 -4.5t-0.5 -7.5q5 -8 8 -12.5t5 -8.5q5 -11 8 -21t21 -11q11 0 16.5 11t-2.5 28q-10 19 -24 25t-27 1zM308 491q-1 -5 1 -9.5t6 -6.5q5 -2 10 2t6 10q0 12 -7 15
q-13 6 -16 -11zM282 351q-2 -1 -3.5 -3.5t-0.5 -5.5l3 -9t4 -9q5 -8 5.5 -17.5t9.5 -9.5q8 0 12.5 7.5t0.5 21.5q-5 15 -14 21t-17 4z" />
    <glyph glyph-name="Igrave" unicode="&#xcc;" horiz-adv-x="314" 
d="M265 667q0 -6 -5 -16t-12.5 -19.5t-16 -16.5t-15.5 -7q-16 0 -44 12.5t-55 32t-47 42t-20 42.5q0 11 7 22.5t17.5 20.5t23 15t22.5 6q12 0 36 -16t48.5 -38t42.5 -44.5t18 -35.5zM238 695q-6 4 -10 -2q-2 -2 -4 -9.5t-3 -10.5q-2 -9 -7 -20.5t3 -17.5q6 -4 12.5 2t9.5 11
q8 9 9.5 24t-10.5 23zM255 590q17 1 29.5 -23t12.5 -57q0 -36 -14.5 -60t-37.5 -24h-14q6 -69 6.5 -144t-4.5 -144q68 0 68 -75q0 -44 -23.5 -67.5t-66.5 -23.5h-9.5t-12.5 1l-63 2q-8 1 -13.5 1h-9.5q-45 0 -69.5 25t-24.5 70q0 32 12.5 50t35.5 18h21q-5 63 -2 136t3 145
q-42 0 -58 16.5t-16 58.5t12.5 65.5t34.5 24.5zM246 567q-9 0 -11 -9q0 -4 3 -13t5 -13q2 -5 3 -11.5t2.5 -12t4.5 -9t10 -3.5q8 0 11.5 7.5t4.5 14.5q1 15 -7.5 31t-25.5 18zM263 487q-5 0 -8 -4t-4 -9q0 -5 1.5 -10.5t6.5 -5.5q6 -1 10 3t5 10q0 5 -2 10t-9 6zM246 115
q-10 0 -14 -5t-1 -13q4 -9 7 -21t3 -19q0 -5 4.5 -7t8.5 -2q14 0 14 31q0 2 -1 8t-3.5 12t-6.5 11t-11 5z" />
    <glyph glyph-name="Iacute" unicode="&#xcd;" horiz-adv-x="314" 
d="M50 667q0 13 18 35.5t42 44.5t48.5 38t36.5 16q10 0 22.5 -6t23 -15t17.5 -20.5t7 -22.5q0 -20 -20 -42.5t-47 -42t-55 -32t-44 -12.5q-7 0 -15.5 7t-16 16.5t-12.5 19.5t-5 16zM194 782q-8 -2 -4 -9q2 -3 6.5 -9t7.5 -8q6 -6 13.5 -16t16.5 -6q6 3 4.5 11.5t-3.5 13.5
q-5 11 -16.5 20t-24.5 3zM255 590q17 1 29.5 -23t12.5 -57q0 -36 -14.5 -60t-37.5 -24h-14q6 -69 6.5 -144t-4.5 -144q68 0 68 -75q0 -44 -23.5 -67.5t-66.5 -23.5h-9.5t-12.5 1l-63 2q-8 1 -13.5 1h-9.5q-45 0 -69.5 25t-24.5 70q0 32 12.5 50t35.5 18h21q-5 63 -2 136
t3 145q-42 0 -58 16.5t-16 58.5t12.5 65.5t34.5 24.5zM246 567q-9 0 -11 -9q0 -4 3 -13t5 -13q2 -5 3 -11.5t2.5 -12t4.5 -9t10 -3.5q8 0 11.5 7.5t4.5 14.5q1 15 -7.5 31t-25.5 18zM263 487q-5 0 -8 -4t-4 -9q0 -5 1.5 -10.5t6.5 -5.5q6 -1 10 3t5 10q0 5 -2 10t-9 6z
M246 115q-10 0 -14 -5t-1 -13q4 -9 7 -21t3 -19q0 -5 4.5 -7t8.5 -2q14 0 14 31q0 2 -1 8t-3.5 12t-6.5 11t-11 5z" />
    <glyph glyph-name="Icircumflex" unicode="&#xce;" horiz-adv-x="314" 
d="M11 668q0 8 18 28.5t42 42.5t49 39t39 17q13 0 37 -12t48 -30.5t42 -40t18 -40.5q0 -11 -6.5 -23t-16 -22.5t-20.5 -17t-20 -6.5q-7 0 -17.5 5.5t-21.5 14t-21.5 18t-18.5 18.5q-9 -9 -21.5 -20t-25 -20t-23.5 -15t-17 -6q-9 0 -20 7.5t-20.5 18t-16.5 22.5t-7 22z
M267 696q-7 2 -10 -3q-2 -3 -3 -10.5t-1 -10.5q-1 -9 -4.5 -21t6.5 -17q6 -3 11.5 3.5t7.5 11.5q6 11 6 25.5t-13 21.5zM255 590q17 1 29.5 -23t12.5 -57q0 -36 -14.5 -60t-37.5 -24h-14q6 -69 6.5 -144t-4.5 -144q68 0 68 -75q0 -44 -23.5 -67.5t-66.5 -23.5h-9.5t-12.5 1
l-63 2q-8 1 -13.5 1h-9.5q-45 0 -69.5 25t-24.5 70q0 32 12.5 50t35.5 18h21q-5 63 -2 136t3 145q-42 0 -58 16.5t-16 58.5t12.5 65.5t34.5 24.5zM246 567q-9 0 -11 -9q0 -4 3 -13t5 -13q2 -5 3 -11.5t2.5 -12t4.5 -9t10 -3.5q8 0 11.5 7.5t4.5 14.5q1 15 -7.5 31t-25.5 18z
M263 487q-5 0 -8 -4t-4 -9q0 -5 1.5 -10.5t6.5 -5.5q6 -1 10 3t5 10q0 5 -2 10t-9 6zM246 115q-10 0 -14 -5t-1 -13q4 -9 7 -21t3 -19q0 -5 4.5 -7t8.5 -2q14 0 14 31q0 2 -1 8t-3.5 12t-6.5 11t-11 5z" />
    <glyph glyph-name="Idieresis" unicode="&#xcf;" horiz-adv-x="314" 
d="M154 711q0 -12 -4 -27.5t-13 -29t-22.5 -22.5t-32.5 -9q-27 0 -49 21.5t-22 60.5q0 31 17 55.5t54 24.5q31 0 51.5 -20.5t20.5 -53.5zM304 711q0 -12 -4 -27.5t-13 -29t-22.5 -22.5t-32.5 -9q-27 0 -49 21.5t-22 60.5q0 31 17 55.5t54 24.5q31 0 51.5 -20.5t20.5 -53.5z
M99 769q-7 -2 -6 -9l4.5 -9t5.5 -10q5 -8 9 -19.5t15 -9.5q7 2 7 11t-1 14q-2 11 -11 22.5t-23 9.5zM249 769q-7 -2 -6 -9l4.5 -9t5.5 -10q5 -8 9 -19.5t15 -9.5q7 2 7 11t-1 14q-2 11 -11 22.5t-23 9.5zM255 590q17 1 29.5 -23t12.5 -57q0 -36 -14.5 -60t-37.5 -24h-14
q6 -69 6.5 -144t-4.5 -144q68 0 68 -75q0 -44 -23.5 -67.5t-66.5 -23.5h-9.5t-12.5 1l-63 2q-8 1 -13.5 1h-9.5q-45 0 -69.5 25t-24.5 70q0 32 12.5 50t35.5 18h21q-5 63 -2 136t3 145q-42 0 -58 16.5t-16 58.5t12.5 65.5t34.5 24.5zM246 567q-9 0 -11 -9q0 -4 3 -13t5 -13
q2 -5 3 -11.5t2.5 -12t4.5 -9t10 -3.5q8 0 11.5 7.5t4.5 14.5q1 15 -7.5 31t-25.5 18zM263 487q-5 0 -8 -4t-4 -9q0 -5 1.5 -10.5t6.5 -5.5q6 -1 10 3t5 10q0 5 -2 10t-9 6zM246 115q-10 0 -14 -5t-1 -13q4 -9 7 -21t3 -19q0 -5 4.5 -7t8.5 -2q14 0 14 31q0 2 -1 8t-3.5 12
t-6.5 11t-11 5z" />
    <glyph glyph-name="Eth" unicode="&#xd0;" horiz-adv-x="487" 
d="M194 -30q-82 0 -120 29.5t-39 93.5l-3 158q-26 3 -39.5 19.5t-13.5 52.5q0 38 11.5 55t39.5 19l-1 45q-2 70 15 105.5t58 45.5q25 6 84 3q76 -4 129.5 -21.5t87 -52t49 -87.5t15.5 -127q0 -173 -66.5 -255.5t-206.5 -82.5zM299 526q-5 -3 -7 -9.5t1 -11.5q3 -4 10.5 -9
t17 -11.5t19.5 -15t18 -20.5q4 -6 6.5 -13.5t5.5 -14t8 -10.5t12 -4q14 1 15.5 17t-7.5 35q-7 15 -18 28t-23 22t-24 14.5t-22 5.5q-7 0 -12 -3zM191 399l3 1q22 0 38 -1.5t26 -8t15 -20.5t5 -40q0 -47 -12.5 -63.5t-43.5 -16.5h-30v-109q0 -11 8 -14.5t17 -3.5
q28 0 45.5 21t27 49.5t13 59.5t3.5 50q0 67 -26 100t-89 36v-40zM391 380q-1 -7 1.5 -13.5t7.5 -8.5q7 -3 13.5 2.5t7.5 13.5q1 6 -2 11.5t-8 7.5q-17 8 -20 -13zM224 381q-9 0 -11 -8q0 -4 2.5 -12.5t4.5 -12.5q4 -10 5.5 -22t14.5 -12q8 0 10.5 7t3.5 14q1 14 -6.5 29
t-23.5 17zM240 305q-5 0 -8 -3.5t-4 -8.5q0 -5 1.5 -10.5t6.5 -5.5q11 -1 13 13q0 5 -1.5 9.5t-7.5 5.5z" />
    <glyph glyph-name="Ntilde" unicode="&#xd1;" horiz-adv-x="510" 
d="M360 793q14 0 23 -8t14.5 -19.5t8 -24.5t2.5 -24q0 -19 -5.5 -39t-17 -36.5t-28 -26.5t-38.5 -10q-23 0 -40.5 7t-30 16t-22.5 16t-18 7q-4 0 -6 -7t-6.5 -16t-13 -16t-24.5 -7t-26.5 8t-17 20.5t-9 27t-2.5 27.5q0 19 7 38t19.5 34t29.5 24.5t38 9.5q20 0 37 -8t31 -17
t24 -17t15 -8t9.5 7.5t10 17t14 17t22.5 7.5zM369 774q-8 0 -8 -7q0 -3 1.5 -10.5t3.5 -10.5q3 -8 4.5 -18t12.5 -10q7 0 9 6t3 11q1 12 -5.5 25t-20.5 14zM117 -30q-81 0 -87 66q-7 81 -6 174.5t6 205.5q2 42 5.5 74.5t13 54.5t26 33.5t43.5 11.5q21 0 41 -8.5t34 -24.5
q6 -7 12 -17t11.5 -21.5t10 -22.5t8.5 -20q9 -20 19 -47.5t21 -56t22.5 -55t22.5 -45.5q0 27 -0.5 61t-1.5 67.5t-1.5 62t-0.5 44.5q0 48 22.5 66t51.5 18q39 0 64.5 -22t25.5 -56q0 -61 1 -123t0.5 -122.5t-3 -118t-9.5 -108.5q-3 -21 -8 -34t-14 -20t-22.5 -9.5
t-32.5 -2.5q-26 0 -48 18.5t-40.5 44.5t-33 54t-25.5 47q-14 26 -30.5 60.5t-26.5 66.5q1 -24 1.5 -52.5t1 -58t0.5 -58v-52.5q0 -35 -16 -55t-58 -20zM149 543q-21 -9 -8 -25q8 -8 16.5 -25.5t12.5 -25.5q2 -4 7.5 -4t9.5 1q9 3 8.5 11.5t-6.5 26.5q-1 2 -4.5 10t-9.5 15.5
t-12.5 13t-13.5 2.5zM435 535q-10 -1 -14 -9t-5.5 -18.5t-1.5 -21v-16.5q0 -5 -0.5 -16t1 -21.5t5.5 -19t11 -8.5q8 -1 13 4t7.5 12t3.5 14.5t1 13.5q1 13 0.5 28.5t-3 28t-7 21t-11.5 8.5zM438 387q-10 1 -16.5 -7.5t-7.5 -17.5q0 -15 13 -16q9 -1 15.5 5.5t7.5 16.5
q0 5 -2.5 11.5t-9.5 7.5z" />
    <glyph glyph-name="Ograve" unicode="&#xd2;" horiz-adv-x="507" 
d="M361 667q0 -6 -5 -16t-12.5 -19.5t-16 -16.5t-15.5 -7q-16 0 -44 12.5t-55 32t-47 42t-20 42.5q0 11 7 22.5t17.5 20.5t23 15t22.5 6q12 0 36 -16t48.5 -38t42.5 -44.5t18 -35.5zM335 695q-6 4 -11 -2q-2 -2 -4 -9.5t-3 -10.5q-2 -9 -7 -20.5t4 -17.5q6 -4 12 2t10 11
q7 9 8.5 24t-9.5 23zM250 -31q-64 0 -108 16t-71 52t-39 95t-12 145q0 95 14.5 157.5t44.5 100.5t76.5 53.5t110.5 15.5q115 0 168 -73.5t53 -232.5q0 -91 -12.5 -153.5t-40.5 -101.5t-73.5 -56.5t-110.5 -17.5zM325 546q-5 -3 -7.5 -9t0.5 -11q2 -5 9.5 -10.5t16.5 -12
t18.5 -16t16.5 -21.5q3 -6 5.5 -14t5.5 -14.5t7.5 -11t11.5 -4.5q14 0 16.5 16t-5.5 36q-7 18 -20 33.5t-27 25.5t-27 14t-21 -1zM188 256q0 -18 0.5 -40t6.5 -40.5t19 -31t38 -12.5q30 0 44.5 17.5t20 42.5t5 53t-0.5 49q0 66 -18.5 103t-50.5 37q-25 0 -38 -21t-19 -49.5
t-6.5 -59t-0.5 -48.5zM408 395q-2 -7 0.5 -13.5t7.5 -8.5q7 -4 13.5 1t8.5 13q1 6 -1.5 12t-7.5 8q-8 5 -13.5 1.5t-7.5 -13.5z" />
    <glyph glyph-name="Oacute" unicode="&#xd3;" horiz-adv-x="507" 
d="M146 667q0 13 18 35.5t42.5 44.5t48.5 38t36 16q11 0 23 -6t22.5 -15t17.5 -20.5t7 -22.5q0 -20 -20 -42.5t-47 -42t-55 -32t-44 -12.5q-7 0 -15.5 7t-16 16.5t-12.5 19.5t-5 16zM291 782q-8 -2 -5 -9q2 -3 7 -9t7 -8q7 -6 14 -16t17 -6q6 3 4 11.5t-4 13.5q-5 11 -16 20
t-24 3zM250 -31q-64 0 -108 16t-71 52t-39 95t-12 145q0 95 14.5 157.5t44.5 100.5t76.5 53.5t110.5 15.5q115 0 168 -73.5t53 -232.5q0 -91 -12.5 -153.5t-40.5 -101.5t-73.5 -56.5t-110.5 -17.5zM325 546q-5 -3 -7.5 -9t0.5 -11q2 -5 9.5 -10.5t16.5 -12t18.5 -16
t16.5 -21.5q3 -6 5.5 -14t5.5 -14.5t7.5 -11t11.5 -4.5q14 0 16.5 16t-5.5 36q-7 18 -20 33.5t-27 25.5t-27 14t-21 -1zM188 256q0 -18 0.5 -40t6.5 -40.5t19 -31t38 -12.5q30 0 44.5 17.5t20 42.5t5 53t-0.5 49q0 66 -18.5 103t-50.5 37q-25 0 -38 -21t-19 -49.5t-6.5 -59
t-0.5 -48.5zM408 395q-2 -7 0.5 -13.5t7.5 -8.5q7 -4 13.5 1t8.5 13q1 6 -1.5 12t-7.5 8q-8 5 -13.5 1.5t-7.5 -13.5z" />
    <glyph glyph-name="Ocircumflex" unicode="&#xd4;" horiz-adv-x="507" 
d="M107 668q0 8 18 28.5t42 42.5t49 39t39 17q13 0 37.5 -12t48.5 -30.5t41.5 -40t17.5 -40.5q0 -11 -6.5 -23t-16 -22.5t-20.5 -17t-20 -6.5q-7 0 -17.5 5.5t-21.5 14t-21.5 18t-18.5 18.5q-9 -9 -21.5 -20t-25 -20t-23.5 -15t-17 -6q-9 0 -20 7.5t-20.5 18t-16.5 22.5
t-7 22zM364 696q-8 2 -10 -3q-2 -3 -3 -10.5t-2 -10.5q0 -9 -3.5 -21t5.5 -17q6 -3 11.5 3.5t8.5 11.5q6 11 6 25.5t-13 21.5zM250 -31q-64 0 -108 16t-71 52t-39 95t-12 145q0 95 14.5 157.5t44.5 100.5t76.5 53.5t110.5 15.5q115 0 168 -73.5t53 -232.5
q0 -91 -12.5 -153.5t-40.5 -101.5t-73.5 -56.5t-110.5 -17.5zM325 546q-5 -3 -7.5 -9t0.5 -11q2 -5 9.5 -10.5t16.5 -12t18.5 -16t16.5 -21.5q3 -6 5.5 -14t5.5 -14.5t7.5 -11t11.5 -4.5q14 0 16.5 16t-5.5 36q-7 18 -20 33.5t-27 25.5t-27 14t-21 -1zM188 256
q0 -18 0.5 -40t6.5 -40.5t19 -31t38 -12.5q30 0 44.5 17.5t20 42.5t5 53t-0.5 49q0 66 -18.5 103t-50.5 37q-25 0 -38 -21t-19 -49.5t-6.5 -59t-0.5 -48.5zM408 395q-2 -7 0.5 -13.5t7.5 -8.5q7 -4 13.5 1t8.5 13q1 6 -1.5 12t-7.5 8q-8 5 -13.5 1.5t-7.5 -13.5z" />
    <glyph glyph-name="Otilde" unicode="&#xd5;" horiz-adv-x="507" 
d="M358 793q14 0 23 -8t14.5 -19.5t8 -24.5t2.5 -24q0 -19 -5.5 -39t-17 -36.5t-28 -26.5t-38.5 -10q-23 0 -40.5 7t-30 16t-22.5 16t-18 7q-4 0 -6 -7t-6.5 -16t-13 -16t-24.5 -7t-26.5 8t-17 20.5t-9 27t-2.5 27.5q0 19 7 38t19.5 34t29.5 24.5t38 9.5q20 0 37 -8t31 -17
t24 -17t15 -8t9.5 7.5t10 17t14 17t22.5 7.5zM367 774q-8 0 -8 -7q0 -3 1.5 -10.5t3.5 -10.5q3 -8 4.5 -18t12.5 -10q7 0 9 6t3 11q1 12 -5.5 25t-20.5 14zM250 -31q-64 0 -108 16t-71 52t-39 95t-12 145q0 95 14.5 157.5t44.5 100.5t76.5 53.5t110.5 15.5q115 0 168 -73.5
t53 -232.5q0 -91 -12.5 -153.5t-40.5 -101.5t-73.5 -56.5t-110.5 -17.5zM325 546q-5 -3 -7.5 -9t0.5 -11q2 -5 9.5 -10.5t16.5 -12t18.5 -16t16.5 -21.5q3 -6 5.5 -14t5.5 -14.5t7.5 -11t11.5 -4.5q14 0 16.5 16t-5.5 36q-7 18 -20 33.5t-27 25.5t-27 14t-21 -1zM188 256
q0 -18 0.5 -40t6.5 -40.5t19 -31t38 -12.5q30 0 44.5 17.5t20 42.5t5 53t-0.5 49q0 66 -18.5 103t-50.5 37q-25 0 -38 -21t-19 -49.5t-6.5 -59t-0.5 -48.5zM408 395q-2 -7 0.5 -13.5t7.5 -8.5q7 -4 13.5 1t8.5 13q1 6 -1.5 12t-7.5 8q-8 5 -13.5 1.5t-7.5 -13.5z" />
    <glyph glyph-name="Odieresis" unicode="&#xd6;" horiz-adv-x="507" 
d="M250 711q0 -12 -4 -27.5t-13 -29t-22.5 -22.5t-32.5 -9q-27 0 -49 21.5t-22 60.5q0 31 17 55.5t54 24.5q31 0 51.5 -20.5t20.5 -53.5zM400 711q0 -12 -4 -27.5t-13 -29t-22.5 -22.5t-32.5 -9q-27 0 -49 21.5t-22 60.5q0 31 17 55.5t54 24.5q31 0 51.5 -20.5t20.5 -53.5z
M196 769q-7 -2 -6 -9q0 -2 3.5 -9t5.5 -10q5 -8 9.5 -19.5t14.5 -9.5q7 2 7.5 11t-0.5 14q-2 11 -11 22.5t-23 9.5zM346 769q-7 -2 -6 -9q0 -2 3.5 -9t5.5 -10q5 -8 9.5 -19.5t14.5 -9.5q7 2 7.5 11t-0.5 14q-2 11 -11 22.5t-23 9.5zM250 -31q-64 0 -108 16t-71 52t-39 95
t-12 145q0 95 14.5 157.5t44.5 100.5t76.5 53.5t110.5 15.5q115 0 168 -73.5t53 -232.5q0 -91 -12.5 -153.5t-40.5 -101.5t-73.5 -56.5t-110.5 -17.5zM325 546q-5 -3 -7.5 -9t0.5 -11q2 -5 9.5 -10.5t16.5 -12t18.5 -16t16.5 -21.5q3 -6 5.5 -14t5.5 -14.5t7.5 -11
t11.5 -4.5q14 0 16.5 16t-5.5 36q-7 18 -20 33.5t-27 25.5t-27 14t-21 -1zM188 256q0 -18 0.5 -40t6.5 -40.5t19 -31t38 -12.5q30 0 44.5 17.5t20 42.5t5 53t-0.5 49q0 66 -18.5 103t-50.5 37q-25 0 -38 -21t-19 -49.5t-6.5 -59t-0.5 -48.5zM408 395q-2 -7 0.5 -13.5
t7.5 -8.5q7 -4 13.5 1t8.5 13q1 6 -1.5 12t-7.5 8q-8 5 -13.5 1.5t-7.5 -13.5z" />
    <glyph glyph-name="multiply" unicode="&#xd7;" horiz-adv-x="523" 
d="M90 199q0 10 8.5 23t21 26.5t27.5 26.5t27 22q-11 10 -25.5 21t-27 22.5t-21.5 23t-9 23.5q0 11 7.5 24.5t18.5 26.5t23.5 21.5t23.5 8.5q12 0 26.5 -9.5t29.5 -23t27.5 -28t19.5 -23.5q7 9 18.5 23t24.5 27.5t26.5 23.5t25.5 10q11 0 24.5 -8.5t26.5 -21.5t21.5 -26.5
t8.5 -24.5q0 -13 -9 -25.5t-22 -24.5t-28 -23t-27 -20q12 -10 27 -23.5t27.5 -26.5t21.5 -25t9 -20q0 -11 -9 -24t-21.5 -24t-26.5 -18.5t-25 -7.5q-10 0 -23.5 8.5t-27 20.5t-25.5 24.5t-20 21.5q-10 -10 -20.5 -24t-21 -26t-22.5 -20.5t-26 -8.5q-10 0 -24.5 8.5
t-27.5 20.5t-22.5 25.5t-9.5 23.5zM421 406q-7 2 -11 -2q-4 -5 -8 -11l-8 -12q-2 -4 -5.5 -7t-6.5 -5.5t-4 -5.5t1 -8t8 -5q9 0 22 13q11 13 14.5 26t-2.5 17zM364 350q-9 -4 -9 -11q0 -5 4.5 -7.5t9.5 -0.5q8 2 8 10q0 12 -13 9zM399 231q-4 -2 -2 -9q2 -5 4 -8t6 -8
q5 -8 5.5 -14t8.5 -6q6 -1 7 5.5t-4 17.5q-6 14 -13.5 19.5t-11.5 2.5z" />
    <glyph glyph-name="Oslash" unicode="&#xd8;" horiz-adv-x="507" 
d="M250 -31h-24q-11 -23 -26 -40t-34 -19q-12 -1 -27.5 3.5t-29 13t-23 19t-10.5 21.5q-1 9 2 22t8 30q-35 35 -50.5 97.5t-15.5 160.5q0 95 14.5 157.5t44.5 100.5t76.5 53.5t110.5 15.5h15q17 32 34.5 50.5t37.5 18.5q16 0 31.5 -4.5t27.5 -13.5t19.5 -22t8.5 -30
q1 -15 -14 -63q32 -37 46.5 -97t14.5 -145q0 -91 -12.5 -153.5t-40.5 -101.5t-73.5 -56.5t-110.5 -17.5zM325 546q-5 -3 -7.5 -9t0.5 -11q2 -5 9.5 -10.5t16.5 -12t18.5 -16t16.5 -21.5q3 -6 5.5 -14t5.5 -14.5t7.5 -11t11.5 -4.5q14 0 16.5 16t-5.5 36q-7 18 -20 33.5
t-27 25.5t-27 14t-21 -1zM188 256q0 -18 0.5 -40t6.5 -40.5t19 -31t38 -12.5q30 0 44.5 17.5t20 42.5t5 53t-0.5 49q0 66 -18.5 103t-50.5 37q-25 0 -38 -21t-19 -49.5t-6.5 -59t-0.5 -48.5zM408 395q-2 -7 0.5 -13.5t7.5 -8.5q7 -4 13.5 1t8.5 13q1 6 -1.5 12t-7.5 8
q-8 5 -13.5 1.5t-7.5 -13.5z" />
    <glyph glyph-name="Ugrave" unicode="&#xd9;" horiz-adv-x="477" 
d="M346 667q0 -6 -5 -16t-12.5 -19.5t-16 -16.5t-15.5 -7q-16 0 -44 12.5t-55 32t-47 42t-20 42.5q0 11 7 22.5t17.5 20.5t23 15t22.5 6q12 0 36 -16t48.5 -38t42.5 -44.5t18 -35.5zM320 695q-6 4 -11 -2q-2 -2 -4 -9.5t-3 -10.5q-2 -9 -7 -20.5t4 -17.5q6 -4 12 2t10 11
q7 9 8.5 24t-9.5 23zM233 -31q-55 0 -93 16.5t-61 46.5t-33.5 72t-12.5 93l-4 134t-2 135q0 26 2 48.5t10 39t25.5 26t48.5 9.5q45 0 63 -23.5t18 -66.5v-286q0 -9 2 -19.5t6.5 -19.5t12 -15t19.5 -6q25 0 38.5 19t19.5 45.5t7 54t1 44.5q0 20 -0.5 40t-0.5 40l-2 53
q0 20 -0.5 40t-0.5 40q0 32 22 46t51 14q34 0 51 -24.5t23.5 -59t6 -71t-0.5 -60.5q0 -31 -0.5 -62t-1.5 -63q-1 -62 -9 -113.5t-30.5 -88.5t-64 -57.5t-110.5 -20.5zM397 544q-10 -1 -13.5 -9.5t-4.5 -19t0 -21t1 -16.5v-14.5t1 -18.5t5 -15.5t11 -6.5q8 0 12.5 5t6.5 12
t2.5 14.5t0.5 13.5q0 5 -1 17.5t-3 26t-6.5 23.5t-11.5 9zM405 405q-10 0 -16 -9t-6 -18q0 -14 14 -14q9 0 15.5 6.5t6.5 15.5q0 6 -3.5 12.5t-10.5 6.5z" />
    <glyph glyph-name="Uacute" unicode="&#xda;" horiz-adv-x="477" 
d="M131 667q0 13 18 35.5t42.5 44.5t48.5 38t36 16q11 0 23 -6t22.5 -15t17.5 -20.5t7 -22.5q0 -20 -20 -42.5t-47 -42t-55 -32t-44 -12.5q-7 0 -15.5 7t-16 16.5t-12.5 19.5t-5 16zM276 782q-8 -2 -5 -9q2 -3 7 -9t7 -8q7 -6 14 -16t17 -6q6 3 4 11.5t-4 13.5q-5 11 -16 20
t-24 3zM233 -31q-55 0 -93 16.5t-61 46.5t-33.5 72t-12.5 93l-4 134t-2 135q0 26 2 48.5t10 39t25.5 26t48.5 9.5q45 0 63 -23.5t18 -66.5v-286q0 -9 2 -19.5t6.5 -19.5t12 -15t19.5 -6q25 0 38.5 19t19.5 45.5t7 54t1 44.5q0 20 -0.5 40t-0.5 40l-2 53q0 20 -0.5 40
t-0.5 40q0 32 22 46t51 14q34 0 51 -24.5t23.5 -59t6 -71t-0.5 -60.5q0 -31 -0.5 -62t-1.5 -63q-1 -62 -9 -113.5t-30.5 -88.5t-64 -57.5t-110.5 -20.5zM397 544q-10 -1 -13.5 -9.5t-4.5 -19t0 -21t1 -16.5v-14.5t1 -18.5t5 -15.5t11 -6.5q8 0 12.5 5t6.5 12t2.5 14.5
t0.5 13.5q0 5 -1 17.5t-3 26t-6.5 23.5t-11.5 9zM405 405q-10 0 -16 -9t-6 -18q0 -14 14 -14q9 0 15.5 6.5t6.5 15.5q0 6 -3.5 12.5t-10.5 6.5z" />
    <glyph glyph-name="Ucircumflex" unicode="&#xdb;" horiz-adv-x="477" 
d="M92 668q0 8 18 28.5t42 42.5t49 39t39 17q13 0 37.5 -12t48.5 -30.5t41.5 -40t17.5 -40.5q0 -11 -6.5 -23t-16 -22.5t-20.5 -17t-20 -6.5q-7 0 -17.5 5.5t-21.5 14t-21.5 18t-18.5 18.5q-9 -9 -21.5 -20t-25 -20t-23.5 -15t-17 -6q-9 0 -20 7.5t-20.5 18t-16.5 22.5
t-7 22zM349 696q-8 2 -10 -3q-2 -3 -3 -10.5t-2 -10.5q0 -9 -3.5 -21t5.5 -17q6 -3 11.5 3.5t8.5 11.5q6 11 6 25.5t-13 21.5zM233 -31q-55 0 -93 16.5t-61 46.5t-33.5 72t-12.5 93l-4 134t-2 135q0 26 2 48.5t10 39t25.5 26t48.5 9.5q45 0 63 -23.5t18 -66.5v-286
q0 -9 2 -19.5t6.5 -19.5t12 -15t19.5 -6q25 0 38.5 19t19.5 45.5t7 54t1 44.5q0 20 -0.5 40t-0.5 40l-2 53q0 20 -0.5 40t-0.5 40q0 32 22 46t51 14q34 0 51 -24.5t23.5 -59t6 -71t-0.5 -60.5q0 -31 -0.5 -62t-1.5 -63q-1 -62 -9 -113.5t-30.5 -88.5t-64 -57.5t-110.5 -20.5
zM397 544q-10 -1 -13.5 -9.5t-4.5 -19t0 -21t1 -16.5v-14.5t1 -18.5t5 -15.5t11 -6.5q8 0 12.5 5t6.5 12t2.5 14.5t0.5 13.5q0 5 -1 17.5t-3 26t-6.5 23.5t-11.5 9zM405 405q-10 0 -16 -9t-6 -18q0 -14 14 -14q9 0 15.5 6.5t6.5 15.5q0 6 -3.5 12.5t-10.5 6.5z" />
    <glyph glyph-name="Udieresis" unicode="&#xdc;" horiz-adv-x="477" 
d="M235 711q0 -12 -4 -27.5t-13 -29t-22.5 -22.5t-32.5 -9q-27 0 -49 21.5t-22 60.5q0 31 17 55.5t54 24.5q31 0 51.5 -20.5t20.5 -53.5zM385 711q0 -12 -4 -27.5t-13 -29t-22.5 -22.5t-32.5 -9q-27 0 -49 21.5t-22 60.5q0 31 17 55.5t54 24.5q31 0 51.5 -20.5t20.5 -53.5z
M181 769q-7 -2 -6 -9q0 -2 3.5 -9t5.5 -10q5 -8 9.5 -19.5t14.5 -9.5q7 2 7.5 11t-0.5 14q-2 11 -11 22.5t-23 9.5zM331 769q-7 -2 -6 -9q0 -2 3.5 -9t5.5 -10q5 -8 9.5 -19.5t14.5 -9.5q7 2 7.5 11t-0.5 14q-2 11 -11 22.5t-23 9.5zM233 -31q-55 0 -93 16.5t-61 46.5
t-33.5 72t-12.5 93l-4 134t-2 135q0 26 2 48.5t10 39t25.5 26t48.5 9.5q45 0 63 -23.5t18 -66.5v-286q0 -9 2 -19.5t6.5 -19.5t12 -15t19.5 -6q25 0 38.5 19t19.5 45.5t7 54t1 44.5q0 20 -0.5 40t-0.5 40l-2 53q0 20 -0.5 40t-0.5 40q0 32 22 46t51 14q34 0 51 -24.5
t23.5 -59t6 -71t-0.5 -60.5q0 -31 -0.5 -62t-1.5 -63q-1 -62 -9 -113.5t-30.5 -88.5t-64 -57.5t-110.5 -20.5zM397 544q-10 -1 -13.5 -9.5t-4.5 -19t0 -21t1 -16.5v-14.5t1 -18.5t5 -15.5t11 -6.5q8 0 12.5 5t6.5 12t2.5 14.5t0.5 13.5q0 5 -1 17.5t-3 26t-6.5 23.5t-11.5 9
zM405 405q-10 0 -16 -9t-6 -18q0 -14 14 -14q9 0 15.5 6.5t6.5 15.5q0 6 -3.5 12.5t-10.5 6.5z" />
    <glyph glyph-name="Yacute" unicode="&#xdd;" horiz-adv-x="452" 
d="M119 667q0 13 18 35.5t42 44.5t48.5 38t36.5 16q10 0 22.5 -6t23 -15t17.5 -20.5t7 -22.5q0 -20 -20 -42.5t-47 -42t-55 -32t-44 -12.5q-7 0 -15.5 7t-16 16.5t-12.5 19.5t-5 16zM263 782q-8 -2 -4 -9q2 -3 6.5 -9t7.5 -8q6 -6 13.5 -16t16.5 -6q6 3 4.5 11.5t-3.5 13.5
q-5 11 -16.5 20t-24.5 3zM184 197q-58 0 -90.5 17t-48.5 47t-20 70.5t-4 88.5l1 9v4q0 17 -1.5 44t3 52.5t18 43.5t44.5 18q3 0 6 1h10q33 0 51 -10t30 -42q6 -16 6 -34q0 -34 -4 -67t-4 -67q0 -20 10.5 -24.5t27.5 -4.5t27.5 6t16.5 16t8 23.5t2 27.5q0 27 -3.5 54t-3.5 54
q0 20 8.5 33t22 20.5t30.5 11t33 3.5q32 0 54 -14.5t22 -49.5q0 -63 -4.5 -125.5t-4.5 -125.5q0 -11 0.5 -22t0.5 -22l2 -29q0 -11 0.5 -22t0.5 -22q0 -55 -15.5 -92t-44.5 -60t-70.5 -33t-92.5 -10q-80 0 -132 42q-22 17 -39.5 42t-17.5 56q0 14 7.5 27.5t19.5 24
t26.5 16.5t27.5 6q10 0 18 -5.5t13 -13.5q16 -25 39.5 -37.5t51.5 -12.5q20 0 31 11t16 27t6.5 34.5t1.5 32.5v9.5t-1 10.5q-19 -17 -42.5 -27.5t-49.5 -10.5zM143 548q-9 0 -12.5 -5t-4.5 -11t-1 -12.5v-10.5q0 -3 -0.5 -9.5t0.5 -12.5t4.5 -11t9.5 -5q14 -1 17.5 9t4.5 17
q2 16 -2 33.5t-16 17.5zM392 546q-10 -1 -14 -9t-5.5 -18.5t-1.5 -21v-16.5q0 -5 -0.5 -16t1 -21.5t5.5 -19t11 -8.5q8 -1 13 4t7.5 12t3.5 14.5t1 13.5q1 13 0.5 28.5t-3 28t-7 21t-11.5 8.5zM395 398q-10 1 -16.5 -7.5t-7.5 -17.5q0 -15 13 -16q9 -1 15.5 5.5t7.5 16.5
q0 5 -2.5 11.5t-9.5 7.5z" />
    <glyph glyph-name="Thorn" unicode="&#xde;" horiz-adv-x="467" 
d="M134 -29q-39 0 -67.5 20t-28.5 63v116l-1 233v116v29q0 16 8.5 26.5t21.5 17t28 9.5t28 3q32 0 56 -15t24 -51v-25q46 4 89.5 -8t77.5 -39t54.5 -69.5t20.5 -101.5q0 -52 -13 -98t-40 -80.5t-68.5 -54t-98.5 -19.5h-11t-12 1q-2 -35 -16 -54t-52 -19zM281 471
q-12 -10 -5 -22q3 -4 11.5 -8t18.5 -9.5t20.5 -13.5t19.5 -19q5 -6 8 -13t7 -13t9 -10t12 -3q14 2 14 18.5t-11 34.5q-16 28 -43 45t-47 17q-9 0 -14 -4zM386 334q-1 -7 2.5 -13t8.5 -8q7 -3 13 3t6 14q0 15 -12 18q-8 4 -13 0t-5 -14zM277 298q0 17 -6.5 26.5t-17.5 14.5
t-25 7t-28 3v-42v-55.5t1 -55.5q2 0 4.5 -0.5t4.5 -0.5q20 0 33 10t20.5 25.5t10.5 33.5t3 34z" />
    <glyph glyph-name="germandbls" unicode="&#xdf;" horiz-adv-x="531" 
d="M34 253v52l-1 104v52q0 41 17.5 70.5t46 49t64 29t71.5 9.5q35 0 71.5 -10t66.5 -30t49.5 -50t19.5 -70q0 -39 -12 -63t-27 -39t-27 -25t-12 -22q0 -8 11 -15t28 -15.5t36 -20t36 -28t28 -39t11 -53.5q0 -34 -17 -61t-43.5 -46t-58.5 -29t-62 -10q-56 0 -90 28t-34 89
q0 31 14.5 46.5t32.5 15.5q23 0 37 -12.5t13 -32.5q0 -14 10.5 -15.5t16.5 -1.5q12 0 17.5 13t0.5 24q-7 12 -30.5 19t-49 20t-45.5 38.5t-20 75.5q0 30 11 53.5t24.5 41.5t24.5 31.5t11 24.5q0 17 -14 23t-28 6q-18 0 -27 -12.5t-13.5 -30.5t-5 -36.5t-0.5 -30.5
q0 -78 5 -155.5t5 -155.5q0 -15 -7 -27t-18 -21t-24.5 -13.5t-27.5 -4.5q-13 0 -28.5 4.5t-29 13t-22 21t-8.5 27.5q0 49 1.5 97t1.5 97zM301 570q-4 -4 -5.5 -9.5t3.5 -10.5q8 -8 18 -13.5t20 -17.5q6 -7 9 -15.5t6 -15.5t7.5 -10.5t13.5 -1.5q6 2 10 8t5 15t-1.5 19.5
t-10.5 20.5q-14 18 -31 27t-30 9q-9 0 -14 -5zM376 448q1 -8 5.5 -14t9.5 -8q8 -2 14.5 5.5t5.5 17.5q0 7 -5 11.5t-10 6.5q-22 5 -20 -19z" />
    <glyph glyph-name="agrave" unicode="&#xe0;" 
d="M345 667q0 -6 -5 -16t-12.5 -19.5t-16 -16.5t-15.5 -7q-16 0 -44 12.5t-55 32t-47 42t-20 42.5q0 11 7 22.5t17.5 20.5t23 15t22.5 6q12 0 36 -16t48.5 -38t42.5 -44.5t18 -35.5zM318 695q-6 4 -10 -2q-2 -2 -4 -9.5t-3 -10.5q-2 -9 -7 -20.5t3 -17.5q6 -4 12.5 2t9.5 11
q8 9 9.5 24t-10.5 23zM97 -19q-49 0 -70.5 20t-21.5 65q0 14 4 39.5t10 58t14.5 69.5t18 73.5t19 69.5t18.5 57q17 47 32.5 77.5t33.5 49t40 26t52 7.5q41 0 69.5 -11.5t50 -43.5t37 -87.5t29.5 -144.5q5 -31 11 -72.5t11.5 -81.5t9.5 -72t4 -45q0 -63 -88 -63
q-31 0 -47.5 9.5t-25.5 26.5t-13.5 40.5t-11.5 52.5h-107q-3 -19 -5.5 -40.5t-10 -39t-22 -29t-41.5 -11.5zM309 520q-9 -5 -8.5 -22t9.5 -43q21 -58 45 -47q22 11 5 58q-11 29 -25.5 44.5t-25.5 9.5zM354 380q-7 -17 2 -26q4 -4 9 -4q6 0 12 4t8 10q5 14 -5 24q-5 5 -11 5
q-9 0 -15 -13zM266 247q1 16 0 40t-4 46t-7 38t-9 16t-12 -13.5t-13.5 -34.5t-11.5 -45.5t-6 -46.5h63z" />
    <glyph glyph-name="aacute" unicode="&#xe1;" 
d="M130 667q0 13 18 35.5t42 44.5t48.5 38t36.5 16q10 0 22.5 -6t23 -15t17.5 -20.5t7 -22.5q0 -20 -20 -42.5t-47 -42t-55 -32t-44 -12.5q-7 0 -15.5 7t-16 16.5t-12.5 19.5t-5 16zM274 782q-8 -2 -4 -9q2 -3 6.5 -9t7.5 -8q6 -6 13.5 -16t16.5 -6q6 3 4.5 11.5t-3.5 13.5
q-5 11 -16.5 20t-24.5 3zM97 -19q-49 0 -70.5 20t-21.5 65q0 14 4 39.5t10 58t14.5 69.5t18 73.5t19 69.5t18.5 57q17 47 32.5 77.5t33.5 49t40 26t52 7.5q41 0 69.5 -11.5t50 -43.5t37 -87.5t29.5 -144.5q5 -31 11 -72.5t11.5 -81.5t9.5 -72t4 -45q0 -63 -88 -63
q-31 0 -47.5 9.5t-25.5 26.5t-13.5 40.5t-11.5 52.5h-107q-3 -19 -5.5 -40.5t-10 -39t-22 -29t-41.5 -11.5zM309 520q-9 -5 -8.5 -22t9.5 -43q21 -58 45 -47q22 11 5 58q-11 29 -25.5 44.5t-25.5 9.5zM354 380q-7 -17 2 -26q4 -4 9 -4q6 0 12 4t8 10q5 14 -5 24q-5 5 -11 5
q-9 0 -15 -13zM266 247q1 16 0 40t-4 46t-7 38t-9 16t-12 -13.5t-13.5 -34.5t-11.5 -45.5t-6 -46.5h63z" />
    <glyph glyph-name="acircumflex" unicode="&#xe2;" 
d="M91 668q0 8 18 28.5t42 42.5t49 39t39 17q13 0 37 -12t48 -30.5t42 -40t18 -40.5q0 -11 -6.5 -23t-16 -22.5t-20.5 -17t-20 -6.5q-7 0 -17.5 5.5t-21.5 14t-21.5 18t-18.5 18.5q-9 -9 -21.5 -20t-25 -20t-23.5 -15t-17 -6q-9 0 -20 7.5t-20.5 18t-16.5 22.5t-7 22z
M347 696q-7 2 -10 -3q-2 -3 -3 -10.5t-1 -10.5q-1 -9 -4.5 -21t6.5 -17q6 -3 11.5 3.5t7.5 11.5q6 11 6 25.5t-13 21.5zM97 -19q-49 0 -70.5 20t-21.5 65q0 14 4 39.5t10 58t14.5 69.5t18 73.5t19 69.5t18.5 57q17 47 32.5 77.5t33.5 49t40 26t52 7.5q41 0 69.5 -11.5
t50 -43.5t37 -87.5t29.5 -144.5q5 -31 11 -72.5t11.5 -81.5t9.5 -72t4 -45q0 -63 -88 -63q-31 0 -47.5 9.5t-25.5 26.5t-13.5 40.5t-11.5 52.5h-107q-3 -19 -5.5 -40.5t-10 -39t-22 -29t-41.5 -11.5zM309 520q-9 -5 -8.5 -22t9.5 -43q21 -58 45 -47q22 11 5 58
q-11 29 -25.5 44.5t-25.5 9.5zM354 380q-7 -17 2 -26q4 -4 9 -4q6 0 12 4t8 10q5 14 -5 24q-5 5 -11 5q-9 0 -15 -13zM266 247q1 16 0 40t-4 46t-7 38t-9 16t-12 -13.5t-13.5 -34.5t-11.5 -45.5t-6 -46.5h63z" />
    <glyph glyph-name="atilde" unicode="&#xe3;" 
d="M342 793q14 0 23 -8t14.5 -19.5t8 -24.5t2.5 -24q0 -19 -5.5 -39t-17 -36.5t-28 -26.5t-38.5 -10q-23 0 -40.5 7t-30 16t-22.5 16t-18 7q-4 0 -6 -7t-6.5 -16t-13 -16t-24.5 -7t-26.5 8t-17 20.5t-9 27t-2.5 27.5q0 19 7 38t19.5 34t29.5 24.5t38 9.5q20 0 37 -8t31 -17
t24 -17t15 -8t9.5 7.5t10 17t14 17t22.5 7.5zM351 774q-8 0 -8 -7q0 -3 1.5 -10.5t3.5 -10.5q3 -8 4.5 -18t12.5 -10q7 0 9 6t3 11q1 12 -5.5 25t-20.5 14zM97 -19q-49 0 -70.5 20t-21.5 65q0 14 4 39.5t10 58t14.5 69.5t18 73.5t19 69.5t18.5 57q17 47 32.5 77.5t33.5 49
t40 26t52 7.5q41 0 69.5 -11.5t50 -43.5t37 -87.5t29.5 -144.5q5 -31 11 -72.5t11.5 -81.5t9.5 -72t4 -45q0 -63 -88 -63q-31 0 -47.5 9.5t-25.5 26.5t-13.5 40.5t-11.5 52.5h-107q-3 -19 -5.5 -40.5t-10 -39t-22 -29t-41.5 -11.5zM309 520q-9 -5 -8.5 -22t9.5 -43
q21 -58 45 -47q22 11 5 58q-11 29 -25.5 44.5t-25.5 9.5zM354 380q-7 -17 2 -26q4 -4 9 -4q6 0 12 4t8 10q5 14 -5 24q-5 5 -11 5q-9 0 -15 -13zM266 247q1 16 0 40t-4 46t-7 38t-9 16t-12 -13.5t-13.5 -34.5t-11.5 -45.5t-6 -46.5h63z" />
    <glyph glyph-name="adieresis" unicode="&#xe4;" 
d="M234 711q0 -12 -4 -27.5t-13 -29t-22.5 -22.5t-32.5 -9q-27 0 -49 21.5t-22 60.5q0 31 17 55.5t54 24.5q31 0 51.5 -20.5t20.5 -53.5zM384 711q0 -12 -4 -27.5t-13 -29t-22.5 -22.5t-32.5 -9q-27 0 -49 21.5t-22 60.5q0 31 17 55.5t54 24.5q31 0 51.5 -20.5t20.5 -53.5z
M179 769q-7 -2 -6 -9l4.5 -9t5.5 -10q5 -8 9 -19.5t15 -9.5q7 2 7 11t-1 14q-2 11 -11 22.5t-23 9.5zM329 769q-7 -2 -6 -9l4.5 -9t5.5 -10q5 -8 9 -19.5t15 -9.5q7 2 7 11t-1 14q-2 11 -11 22.5t-23 9.5zM97 -19q-49 0 -70.5 20t-21.5 65q0 14 4 39.5t10 58t14.5 69.5
t18 73.5t19 69.5t18.5 57q17 47 32.5 77.5t33.5 49t40 26t52 7.5q41 0 69.5 -11.5t50 -43.5t37 -87.5t29.5 -144.5q5 -31 11 -72.5t11.5 -81.5t9.5 -72t4 -45q0 -63 -88 -63q-31 0 -47.5 9.5t-25.5 26.5t-13.5 40.5t-11.5 52.5h-107q-3 -19 -5.5 -40.5t-10 -39t-22 -29
t-41.5 -11.5zM309 520q-9 -5 -8.5 -22t9.5 -43q21 -58 45 -47q22 11 5 58q-11 29 -25.5 44.5t-25.5 9.5zM354 380q-7 -17 2 -26q4 -4 9 -4q6 0 12 4t8 10q5 14 -5 24q-5 5 -11 5q-9 0 -15 -13zM266 247q1 16 0 40t-4 46t-7 38t-9 16t-12 -13.5t-13.5 -34.5t-11.5 -45.5
t-6 -46.5h63z" />
    <glyph glyph-name="aring" unicode="&#xe5;" 
d="M128 711q0 22 8 42.5t23 36t35.5 24.5t45.5 9q24 0 43.5 -8.5t33.5 -22.5t22 -33.5t8 -40.5q0 -47 -29 -80t-77 -33t-80.5 29t-32.5 77zM282 790q-7 -4 -5 -10q2 -3 6.5 -9t6.5 -8q6 -6 13 -17t16 -7q7 3 5.5 11.5t-3.5 13.5q-4 11 -15 21t-24 5zM223 714q0 -8 3.5 -17.5
t11.5 -9.5q10 0 14.5 9.5t4.5 22.5q0 11 -3 19t-14 8q-10 0 -13.5 -9t-3.5 -23zM97 -19q-49 0 -70.5 20t-21.5 65q0 14 4 39.5t10 58t14.5 69.5t18 73.5t19 69.5t18.5 57q17 47 32.5 77.5t33.5 49t40 26t52 7.5q41 0 69.5 -11.5t50 -43.5t37 -87.5t29.5 -144.5
q5 -31 11 -72.5t11.5 -81.5t9.5 -72t4 -45q0 -63 -88 -63q-31 0 -47.5 9.5t-25.5 26.5t-13.5 40.5t-11.5 52.5h-107q-3 -19 -5.5 -40.5t-10 -39t-22 -29t-41.5 -11.5zM309 520q-9 -5 -8.5 -22t9.5 -43q21 -58 45 -47q22 11 5 58q-11 29 -25.5 44.5t-25.5 9.5zM354 380
q-7 -17 2 -26q4 -4 9 -4q6 0 12 4t8 10q5 14 -5 24q-5 5 -11 5q-9 0 -15 -13zM266 247q1 16 0 40t-4 46t-7 38t-9 16t-12 -13.5t-13.5 -34.5t-11.5 -45.5t-6 -46.5h63z" />
    <glyph glyph-name="ae" unicode="&#xe6;" horiz-adv-x="658" 
d="M97 -19q-49 0 -70.5 20t-21.5 65q0 14 4 39.5t10 58t14.5 69.5t18 73.5t19 69.5t18.5 57q17 47 32.5 77.5t33.5 49t40 26t52 7.5q26 0 47 -4.5t38 -15.5q10 7 23 8q56 5 113.5 10.5t113.5 5.5q11 0 21 -9.5t17.5 -22.5t12 -27t4.5 -23q0 -13 -1.5 -26t-6.5 -23.5
t-14.5 -17.5t-25.5 -8l-136 -11l5 -62h98q31 0 42 -20.5t11 -47.5q0 -10 -1.5 -23.5t-6 -26t-12.5 -21.5t-22 -9h-109l6 -89h54q11 0 17.5 6.5t13 15t15 15t21.5 6.5q32 0 52 -17t20 -50q0 -39 -4 -65t-17 -42t-37 -23.5t-63 -8.5q-23 -1 -47 -1h-47h-63q-36 0 -54 14.5
t-23 42.5q-5 16 -9 35.5t-10 42.5h-107q-3 -19 -5.5 -40.5t-10 -39t-22 -29t-41.5 -11.5zM544 576q-2 -1 -4.5 -4.5t-0.5 -7.5q5 -8 8 -12.5t5 -8.5q5 -11 8 -21t21 -11q11 0 16.5 11t-2.5 28q-10 19 -24 25t-27 1zM577 491q-1 -5 1 -9.5t6 -6.5q5 -2 10 2t6 10q0 12 -7 15
q-13 6 -16 -11zM266 247q1 16 0 40t-4 46t-7 38t-9 16t-12 -13.5t-13.5 -34.5t-11.5 -45.5t-6 -46.5h63zM551 351q-2 -1 -3.5 -3.5t-0.5 -5.5l3 -9t4 -9q5 -8 5.5 -17.5t9.5 -9.5q8 0 12.5 7.5t0.5 21.5q-5 15 -14 21t-17 4z" />
    <glyph glyph-name="ccedilla" unicode="&#xe7;" horiz-adv-x="437" 
d="M133 -53q0 7 2.5 14t6.5 15q-40 13 -66 40.5t-40.5 66.5t-20 89.5t-5.5 111.5q0 66 9 124t33 102t66.5 69.5t110.5 25.5q78 0 123 -27t62 -100q6 -27 9.5 -63t3.5 -60q0 -40 -25 -55.5t-63 -15.5q-24 0 -40 9.5t-22 34.5q-3 13 -2.5 32.5t-1 37.5t-8.5 31t-24 13
q-25 0 -38.5 -20.5t-20 -48t-8 -56t-1.5 -44.5q0 -17 1 -42t7.5 -48.5t20 -40.5t38.5 -17t35.5 7t15 17t6 22.5t7 22.5t19 17t41.5 7q40 0 52 -21t12 -57q0 -83 -47.5 -127t-125.5 -49q7 -7 19 -10q26 -8 36.5 -26t10.5 -46q0 -27 -12.5 -47t-32 -34t-44 -21t-48.5 -7
q-30 0 -48.5 13.5t-18.5 45.5q0 25 6 36t35 11q4 0 10 -0.5t12 0t10 3.5t4 10q0 6 -9.5 10.5t-21 10.5t-21 14t-9.5 20zM305 554q-4 -2 -6 -8t1 -12q5 -9 11 -20.5t14 -22.5q5 -7 7 -15t4.5 -14.5t7 -11t13.5 -4.5q12 1 15.5 18t-6.5 40q-12 28 -31 42.5t-30 7.5zM355 418
q-1 -8 2 -15t8 -9q8 -4 15.5 2t8.5 16q2 16 -11 21q-20 10 -23 -15zM270 -68q-7 -2 -6 -9q1 -3 4 -10t5 -9q5 -8 9.5 -19.5t15.5 -9.5q7 2 7 10.5t-1 13.5q-2 12 -11 23.5t-23 9.5z" />
    <glyph glyph-name="egrave" unicode="&#xe8;" horiz-adv-x="388" 
d="M302 667q0 -6 -5 -16t-12.5 -19.5t-16 -16.5t-15.5 -7q-16 0 -44 12.5t-55 32t-47 42t-20 42.5q0 11 7 22.5t17.5 20.5t23 15t22.5 6q12 0 36 -16t48.5 -38t42.5 -44.5t18 -35.5zM275 695q-6 4 -10 -2q-2 -2 -4 -9.5t-3 -10.5q-2 -9 -7 -20.5t3 -17.5q6 -4 12.5 2t9.5 11
q8 9 9.5 24t-10.5 23zM110 -34q-46 0 -63 23t-17 66v360q0 17 -1 44t2.5 53.5t15.5 46t39 22.5q56 5 113.5 10.5t113.5 5.5q11 0 21 -9.5t17.5 -22.5t12 -27t4.5 -23q0 -13 -1.5 -26t-6.5 -23.5t-14.5 -17.5t-25.5 -8l-136 -11l5 -62h98q31 0 42 -20.5t11 -47.5
q0 -10 -1.5 -23.5t-6 -26t-12.5 -21.5t-22 -9h-109l6 -89h54q11 0 17.5 6.5t13 15t15 15t21.5 6.5q32 0 52 -17t20 -50q0 -39 -4 -65t-17 -42t-37 -23.5t-63 -8.5q-23 -1 -47 -1h-47h-63zM275 576q-2 -1 -4.5 -4.5t-0.5 -7.5q5 -8 8 -12.5t5 -8.5q5 -11 8 -21t21 -11
q11 0 16.5 11t-2.5 28q-10 19 -24 25t-27 1zM308 491q-1 -5 1 -9.5t6 -6.5q5 -2 10 2t6 10q0 12 -7 15q-13 6 -16 -11zM282 351q-2 -1 -3.5 -3.5t-0.5 -5.5l3 -9t4 -9q5 -8 5.5 -17.5t9.5 -9.5q8 0 12.5 7.5t0.5 21.5q-5 15 -14 21t-17 4z" />
    <glyph glyph-name="eacute" unicode="&#xe9;" horiz-adv-x="388" 
d="M87 667q0 13 18 35.5t42 44.5t48.5 38t36.5 16q10 0 22.5 -6t23 -15t17.5 -20.5t7 -22.5q0 -20 -20 -42.5t-47 -42t-55 -32t-44 -12.5q-7 0 -15.5 7t-16 16.5t-12.5 19.5t-5 16zM231 782q-8 -2 -4 -9q2 -3 6.5 -9t7.5 -8q6 -6 13.5 -16t16.5 -6q6 3 4.5 11.5t-3.5 13.5
q-5 11 -16.5 20t-24.5 3zM110 -34q-46 0 -63 23t-17 66v360q0 17 -1 44t2.5 53.5t15.5 46t39 22.5q56 5 113.5 10.5t113.5 5.5q11 0 21 -9.5t17.5 -22.5t12 -27t4.5 -23q0 -13 -1.5 -26t-6.5 -23.5t-14.5 -17.5t-25.5 -8l-136 -11l5 -62h98q31 0 42 -20.5t11 -47.5
q0 -10 -1.5 -23.5t-6 -26t-12.5 -21.5t-22 -9h-109l6 -89h54q11 0 17.5 6.5t13 15t15 15t21.5 6.5q32 0 52 -17t20 -50q0 -39 -4 -65t-17 -42t-37 -23.5t-63 -8.5q-23 -1 -47 -1h-47h-63zM275 576q-2 -1 -4.5 -4.5t-0.5 -7.5q5 -8 8 -12.5t5 -8.5q5 -11 8 -21t21 -11
q11 0 16.5 11t-2.5 28q-10 19 -24 25t-27 1zM308 491q-1 -5 1 -9.5t6 -6.5q5 -2 10 2t6 10q0 12 -7 15q-13 6 -16 -11zM282 351q-2 -1 -3.5 -3.5t-0.5 -5.5l3 -9t4 -9q5 -8 5.5 -17.5t9.5 -9.5q8 0 12.5 7.5t0.5 21.5q-5 15 -14 21t-17 4z" />
    <glyph glyph-name="ecircumflex" unicode="&#xea;" horiz-adv-x="388" 
d="M48 668q0 8 18 28.5t42 42.5t49 39t39 17q13 0 37 -12t48 -30.5t42 -40t18 -40.5q0 -11 -6.5 -23t-16 -22.5t-20.5 -17t-20 -6.5q-7 0 -17.5 5.5t-21.5 14t-21.5 18t-18.5 18.5q-9 -9 -21.5 -20t-25 -20t-23.5 -15t-17 -6q-9 0 -20 7.5t-20.5 18t-16.5 22.5t-7 22z
M304 696q-7 2 -10 -3q-2 -3 -3 -10.5t-1 -10.5q-1 -9 -4.5 -21t6.5 -17q6 -3 11.5 3.5t7.5 11.5q6 11 6 25.5t-13 21.5zM110 -34q-46 0 -63 23t-17 66v360q0 17 -1 44t2.5 53.5t15.5 46t39 22.5q56 5 113.5 10.5t113.5 5.5q11 0 21 -9.5t17.5 -22.5t12 -27t4.5 -23
q0 -13 -1.5 -26t-6.5 -23.5t-14.5 -17.5t-25.5 -8l-136 -11l5 -62h98q31 0 42 -20.5t11 -47.5q0 -10 -1.5 -23.5t-6 -26t-12.5 -21.5t-22 -9h-109l6 -89h54q11 0 17.5 6.5t13 15t15 15t21.5 6.5q32 0 52 -17t20 -50q0 -39 -4 -65t-17 -42t-37 -23.5t-63 -8.5q-23 -1 -47 -1
h-47h-63zM275 576q-2 -1 -4.5 -4.5t-0.5 -7.5q5 -8 8 -12.5t5 -8.5q5 -11 8 -21t21 -11q11 0 16.5 11t-2.5 28q-10 19 -24 25t-27 1zM308 491q-1 -5 1 -9.5t6 -6.5q5 -2 10 2t6 10q0 12 -7 15q-13 6 -16 -11zM282 351q-2 -1 -3.5 -3.5t-0.5 -5.5l3 -9t4 -9q5 -8 5.5 -17.5
t9.5 -9.5q8 0 12.5 7.5t0.5 21.5q-5 15 -14 21t-17 4z" />
    <glyph glyph-name="edieresis" unicode="&#xeb;" horiz-adv-x="388" 
d="M191 711q0 -12 -4 -27.5t-13 -29t-22.5 -22.5t-32.5 -9q-27 0 -49 21.5t-22 60.5q0 31 17 55.5t54 24.5q31 0 51.5 -20.5t20.5 -53.5zM341 711q0 -12 -4 -27.5t-13 -29t-22.5 -22.5t-32.5 -9q-27 0 -49 21.5t-22 60.5q0 31 17 55.5t54 24.5q31 0 51.5 -20.5t20.5 -53.5z
M136 769q-7 -2 -6 -9l4.5 -9t5.5 -10q5 -8 9 -19.5t15 -9.5q7 2 7 11t-1 14q-2 11 -11 22.5t-23 9.5zM286 769q-7 -2 -6 -9l4.5 -9t5.5 -10q5 -8 9 -19.5t15 -9.5q7 2 7 11t-1 14q-2 11 -11 22.5t-23 9.5zM110 -34q-46 0 -63 23t-17 66v360q0 17 -1 44t2.5 53.5t15.5 46
t39 22.5q56 5 113.5 10.5t113.5 5.5q11 0 21 -9.5t17.5 -22.5t12 -27t4.5 -23q0 -13 -1.5 -26t-6.5 -23.5t-14.5 -17.5t-25.5 -8l-136 -11l5 -62h98q31 0 42 -20.5t11 -47.5q0 -10 -1.5 -23.5t-6 -26t-12.5 -21.5t-22 -9h-109l6 -89h54q11 0 17.5 6.5t13 15t15 15t21.5 6.5
q32 0 52 -17t20 -50q0 -39 -4 -65t-17 -42t-37 -23.5t-63 -8.5q-23 -1 -47 -1h-47h-63zM275 576q-2 -1 -4.5 -4.5t-0.5 -7.5q5 -8 8 -12.5t5 -8.5q5 -11 8 -21t21 -11q11 0 16.5 11t-2.5 28q-10 19 -24 25t-27 1zM308 491q-1 -5 1 -9.5t6 -6.5q5 -2 10 2t6 10q0 12 -7 15
q-13 6 -16 -11zM282 351q-2 -1 -3.5 -3.5t-0.5 -5.5l3 -9t4 -9q5 -8 5.5 -17.5t9.5 -9.5q8 0 12.5 7.5t0.5 21.5q-5 15 -14 21t-17 4z" />
    <glyph glyph-name="igrave" unicode="&#xec;" horiz-adv-x="314" 
d="M265 667q0 -6 -5 -16t-12.5 -19.5t-16 -16.5t-15.5 -7q-16 0 -44 12.5t-55 32t-47 42t-20 42.5q0 11 7 22.5t17.5 20.5t23 15t22.5 6q12 0 36 -16t48.5 -38t42.5 -44.5t18 -35.5zM238 695q-6 4 -10 -2q-2 -2 -4 -9.5t-3 -10.5q-2 -9 -7 -20.5t3 -17.5q6 -4 12.5 2t9.5 11
q8 9 9.5 24t-10.5 23zM255 590q17 1 29.5 -23t12.5 -57q0 -36 -14.5 -60t-37.5 -24h-14q6 -69 6.5 -144t-4.5 -144q68 0 68 -75q0 -44 -23.5 -67.5t-66.5 -23.5h-9.5t-12.5 1l-63 2q-8 1 -13.5 1h-9.5q-45 0 -69.5 25t-24.5 70q0 32 12.5 50t35.5 18h21q-5 63 -2 136t3 145
q-42 0 -58 16.5t-16 58.5t12.5 65.5t34.5 24.5zM246 567q-9 0 -11 -9q0 -4 3 -13t5 -13q2 -5 3 -11.5t2.5 -12t4.5 -9t10 -3.5q8 0 11.5 7.5t4.5 14.5q1 15 -7.5 31t-25.5 18zM263 487q-5 0 -8 -4t-4 -9q0 -5 1.5 -10.5t6.5 -5.5q6 -1 10 3t5 10q0 5 -2 10t-9 6zM246 115
q-10 0 -14 -5t-1 -13q4 -9 7 -21t3 -19q0 -5 4.5 -7t8.5 -2q14 0 14 31q0 2 -1 8t-3.5 12t-6.5 11t-11 5z" />
    <glyph glyph-name="iacute" unicode="&#xed;" horiz-adv-x="314" 
d="M50 667q0 13 18 35.5t42 44.5t48.5 38t36.5 16q10 0 22.5 -6t23 -15t17.5 -20.5t7 -22.5q0 -20 -20 -42.5t-47 -42t-55 -32t-44 -12.5q-7 0 -15.5 7t-16 16.5t-12.5 19.5t-5 16zM194 782q-8 -2 -4 -9q2 -3 6.5 -9t7.5 -8q6 -6 13.5 -16t16.5 -6q6 3 4.5 11.5t-3.5 13.5
q-5 11 -16.5 20t-24.5 3zM255 590q17 1 29.5 -23t12.5 -57q0 -36 -14.5 -60t-37.5 -24h-14q6 -69 6.5 -144t-4.5 -144q68 0 68 -75q0 -44 -23.5 -67.5t-66.5 -23.5h-9.5t-12.5 1l-63 2q-8 1 -13.5 1h-9.5q-45 0 -69.5 25t-24.5 70q0 32 12.5 50t35.5 18h21q-5 63 -2 136
t3 145q-42 0 -58 16.5t-16 58.5t12.5 65.5t34.5 24.5zM246 567q-9 0 -11 -9q0 -4 3 -13t5 -13q2 -5 3 -11.5t2.5 -12t4.5 -9t10 -3.5q8 0 11.5 7.5t4.5 14.5q1 15 -7.5 31t-25.5 18zM263 487q-5 0 -8 -4t-4 -9q0 -5 1.5 -10.5t6.5 -5.5q6 -1 10 3t5 10q0 5 -2 10t-9 6z
M246 115q-10 0 -14 -5t-1 -13q4 -9 7 -21t3 -19q0 -5 4.5 -7t8.5 -2q14 0 14 31q0 2 -1 8t-3.5 12t-6.5 11t-11 5z" />
    <glyph glyph-name="icircumflex" unicode="&#xee;" horiz-adv-x="314" 
d="M11 668q0 8 18 28.5t42 42.5t49 39t39 17q13 0 37 -12t48 -30.5t42 -40t18 -40.5q0 -11 -6.5 -23t-16 -22.5t-20.5 -17t-20 -6.5q-7 0 -17.5 5.5t-21.5 14t-21.5 18t-18.5 18.5q-9 -9 -21.5 -20t-25 -20t-23.5 -15t-17 -6q-9 0 -20 7.5t-20.5 18t-16.5 22.5t-7 22z
M267 696q-7 2 -10 -3q-2 -3 -3 -10.5t-1 -10.5q-1 -9 -4.5 -21t6.5 -17q6 -3 11.5 3.5t7.5 11.5q6 11 6 25.5t-13 21.5zM255 590q17 1 29.5 -23t12.5 -57q0 -36 -14.5 -60t-37.5 -24h-14q6 -69 6.5 -144t-4.5 -144q68 0 68 -75q0 -44 -23.5 -67.5t-66.5 -23.5h-9.5t-12.5 1
l-63 2q-8 1 -13.5 1h-9.5q-45 0 -69.5 25t-24.5 70q0 32 12.5 50t35.5 18h21q-5 63 -2 136t3 145q-42 0 -58 16.5t-16 58.5t12.5 65.5t34.5 24.5zM246 567q-9 0 -11 -9q0 -4 3 -13t5 -13q2 -5 3 -11.5t2.5 -12t4.5 -9t10 -3.5q8 0 11.5 7.5t4.5 14.5q1 15 -7.5 31t-25.5 18z
M263 487q-5 0 -8 -4t-4 -9q0 -5 1.5 -10.5t6.5 -5.5q6 -1 10 3t5 10q0 5 -2 10t-9 6zM246 115q-10 0 -14 -5t-1 -13q4 -9 7 -21t3 -19q0 -5 4.5 -7t8.5 -2q14 0 14 31q0 2 -1 8t-3.5 12t-6.5 11t-11 5z" />
    <glyph glyph-name="idieresis" unicode="&#xef;" horiz-adv-x="314" 
d="M154 711q0 -12 -4 -27.5t-13 -29t-22.5 -22.5t-32.5 -9q-27 0 -49 21.5t-22 60.5q0 31 17 55.5t54 24.5q31 0 51.5 -20.5t20.5 -53.5zM304 711q0 -12 -4 -27.5t-13 -29t-22.5 -22.5t-32.5 -9q-27 0 -49 21.5t-22 60.5q0 31 17 55.5t54 24.5q31 0 51.5 -20.5t20.5 -53.5z
M99 769q-7 -2 -6 -9l4.5 -9t5.5 -10q5 -8 9 -19.5t15 -9.5q7 2 7 11t-1 14q-2 11 -11 22.5t-23 9.5zM249 769q-7 -2 -6 -9l4.5 -9t5.5 -10q5 -8 9 -19.5t15 -9.5q7 2 7 11t-1 14q-2 11 -11 22.5t-23 9.5zM255 590q17 1 29.5 -23t12.5 -57q0 -36 -14.5 -60t-37.5 -24h-14
q6 -69 6.5 -144t-4.5 -144q68 0 68 -75q0 -44 -23.5 -67.5t-66.5 -23.5h-9.5t-12.5 1l-63 2q-8 1 -13.5 1h-9.5q-45 0 -69.5 25t-24.5 70q0 32 12.5 50t35.5 18h21q-5 63 -2 136t3 145q-42 0 -58 16.5t-16 58.5t12.5 65.5t34.5 24.5zM246 567q-9 0 -11 -9q0 -4 3 -13t5 -13
q2 -5 3 -11.5t2.5 -12t4.5 -9t10 -3.5q8 0 11.5 7.5t4.5 14.5q1 15 -7.5 31t-25.5 18zM263 487q-5 0 -8 -4t-4 -9q0 -5 1.5 -10.5t6.5 -5.5q6 -1 10 3t5 10q0 5 -2 10t-9 6zM246 115q-10 0 -14 -5t-1 -13q4 -9 7 -21t3 -19q0 -5 4.5 -7t8.5 -2q14 0 14 31q0 2 -1 8t-3.5 12
t-6.5 11t-11 5z" />
    <glyph glyph-name="eth" unicode="&#xf0;" horiz-adv-x="482" 
d="M230 -21q-51 0 -90.5 17.5t-67 48.5t-42 73.5t-14.5 92.5q0 43 15.5 80t43.5 64.5t67.5 43t87.5 15.5q17 0 33 -4q-3 4 -9 11t-12 15.5t-11.5 15.5t-8.5 11q-10 -8 -25 -20.5t-29 -12.5q-11 0 -21 6t-15 20q-5 16 6.5 27.5t28.5 24.5q-18 12 -32.5 22t-14.5 37
q0 14 7.5 25.5t19.5 20.5t26 14t27 5q9 0 19.5 -5t21.5 -12t20 -15.5t15 -14.5q13 11 26 20.5t23 11.5q9 1 17 -3t14 -10t10 -13.5t4 -13.5q0 -4 -5 -9t-12.5 -10.5t-15.5 -10.5t-14 -8q29 -24 55 -60.5t46 -78t31.5 -84.5t11.5 -79q0 -51 -17.5 -97.5t-49 -82t-75 -57
t-95.5 -21.5zM321 604q-4 -5 -2 -7l6 -4t6 -6q5 -4 5.5 -8.5t8.5 -1.5q5 2 5.5 8t-4.5 11q-7 7 -14 9t-11 -1zM358 513v-1v1zM397 326q-5 -2 -9.5 -5.5t-2.5 -10.5q2 -11 6 -22t6 -27q2 -9 1 -17t-1 -15t3 -12t12 -8q12 -4 19 11.5t4 40.5q-5 32 -16 50.5t-22 14.5zM244 294
q-15 0 -28.5 -7t-23.5 -18t-15.5 -25.5t-5.5 -29.5q0 -33 16 -56t51 -23q38 0 61.5 22.5t23.5 59.5q0 35 -23.5 56t-55.5 21z" />
    <glyph glyph-name="ntilde" unicode="&#xf1;" horiz-adv-x="510" 
d="M360 793q14 0 23 -8t14.5 -19.5t8 -24.5t2.5 -24q0 -19 -5.5 -39t-17 -36.5t-28 -26.5t-38.5 -10q-23 0 -40.5 7t-30 16t-22.5 16t-18 7q-4 0 -6 -7t-6.5 -16t-13 -16t-24.5 -7t-26.5 8t-17 20.5t-9 27t-2.5 27.5q0 19 7 38t19.5 34t29.5 24.5t38 9.5q20 0 37 -8t31 -17
t24 -17t15 -8t9.5 7.5t10 17t14 17t22.5 7.5zM369 774q-8 0 -8 -7q0 -3 1.5 -10.5t3.5 -10.5q3 -8 4.5 -18t12.5 -10q7 0 9 6t3 11q1 12 -5.5 25t-20.5 14zM117 -30q-81 0 -87 66q-7 81 -6 174.5t6 205.5q2 42 5.5 74.5t13 54.5t26 33.5t43.5 11.5q21 0 41 -8.5t34 -24.5
q6 -7 12 -17t11.5 -21.5t10 -22.5t8.5 -20q9 -20 19 -47.5t21 -56t22.5 -55t22.5 -45.5q0 27 -0.5 61t-1.5 67.5t-1.5 62t-0.5 44.5q0 48 22.5 66t51.5 18q39 0 64.5 -22t25.5 -56q0 -61 1 -123t0.5 -122.5t-3 -118t-9.5 -108.5q-3 -21 -8 -34t-14 -20t-22.5 -9.5
t-32.5 -2.5q-26 0 -48 18.5t-40.5 44.5t-33 54t-25.5 47q-14 26 -30.5 60.5t-26.5 66.5q1 -24 1.5 -52.5t1 -58t0.5 -58v-52.5q0 -35 -16 -55t-58 -20zM149 543q-21 -9 -8 -25q8 -8 16.5 -25.5t12.5 -25.5q2 -4 7.5 -4t9.5 1q9 3 8.5 11.5t-6.5 26.5q-1 2 -4.5 10t-9.5 15.5
t-12.5 13t-13.5 2.5zM435 535q-10 -1 -14 -9t-5.5 -18.5t-1.5 -21v-16.5q0 -5 -0.5 -16t1 -21.5t5.5 -19t11 -8.5q8 -1 13 4t7.5 12t3.5 14.5t1 13.5q1 13 0.5 28.5t-3 28t-7 21t-11.5 8.5zM438 387q-10 1 -16.5 -7.5t-7.5 -17.5q0 -15 13 -16q9 -1 15.5 5.5t7.5 16.5
q0 5 -2.5 11.5t-9.5 7.5z" />
    <glyph glyph-name="ograve" unicode="&#xf2;" horiz-adv-x="507" 
d="M361 667q0 -6 -5 -16t-12.5 -19.5t-16 -16.5t-15.5 -7q-16 0 -44 12.5t-55 32t-47 42t-20 42.5q0 11 7 22.5t17.5 20.5t23 15t22.5 6q12 0 36 -16t48.5 -38t42.5 -44.5t18 -35.5zM335 695q-6 4 -11 -2q-2 -2 -4 -9.5t-3 -10.5q-2 -9 -7 -20.5t4 -17.5q6 -4 12 2t10 11
q7 9 8.5 24t-9.5 23zM250 -31q-64 0 -108 16t-71 52t-39 95t-12 145q0 95 14.5 157.5t44.5 100.5t76.5 53.5t110.5 15.5q115 0 168 -73.5t53 -232.5q0 -91 -12.5 -153.5t-40.5 -101.5t-73.5 -56.5t-110.5 -17.5zM325 546q-5 -3 -7.5 -9t0.5 -11q2 -5 9.5 -10.5t16.5 -12
t18.5 -16t16.5 -21.5q3 -6 5.5 -14t5.5 -14.5t7.5 -11t11.5 -4.5q14 0 16.5 16t-5.5 36q-7 18 -20 33.5t-27 25.5t-27 14t-21 -1zM188 256q0 -18 0.5 -40t6.5 -40.5t19 -31t38 -12.5q30 0 44.5 17.5t20 42.5t5 53t-0.5 49q0 66 -18.5 103t-50.5 37q-25 0 -38 -21t-19 -49.5
t-6.5 -59t-0.5 -48.5zM408 395q-2 -7 0.5 -13.5t7.5 -8.5q7 -4 13.5 1t8.5 13q1 6 -1.5 12t-7.5 8q-8 5 -13.5 1.5t-7.5 -13.5z" />
    <glyph glyph-name="oacute" unicode="&#xf3;" horiz-adv-x="507" 
d="M146 667q0 13 18 35.5t42.5 44.5t48.5 38t36 16q11 0 23 -6t22.5 -15t17.5 -20.5t7 -22.5q0 -20 -20 -42.5t-47 -42t-55 -32t-44 -12.5q-7 0 -15.5 7t-16 16.5t-12.5 19.5t-5 16zM291 782q-8 -2 -5 -9q2 -3 7 -9t7 -8q7 -6 14 -16t17 -6q6 3 4 11.5t-4 13.5q-5 11 -16 20
t-24 3zM250 -31q-64 0 -108 16t-71 52t-39 95t-12 145q0 95 14.5 157.5t44.5 100.5t76.5 53.5t110.5 15.5q115 0 168 -73.5t53 -232.5q0 -91 -12.5 -153.5t-40.5 -101.5t-73.5 -56.5t-110.5 -17.5zM325 546q-5 -3 -7.5 -9t0.5 -11q2 -5 9.5 -10.5t16.5 -12t18.5 -16
t16.5 -21.5q3 -6 5.5 -14t5.5 -14.5t7.5 -11t11.5 -4.5q14 0 16.5 16t-5.5 36q-7 18 -20 33.5t-27 25.5t-27 14t-21 -1zM188 256q0 -18 0.5 -40t6.5 -40.5t19 -31t38 -12.5q30 0 44.5 17.5t20 42.5t5 53t-0.5 49q0 66 -18.5 103t-50.5 37q-25 0 -38 -21t-19 -49.5t-6.5 -59
t-0.5 -48.5zM408 395q-2 -7 0.5 -13.5t7.5 -8.5q7 -4 13.5 1t8.5 13q1 6 -1.5 12t-7.5 8q-8 5 -13.5 1.5t-7.5 -13.5z" />
    <glyph glyph-name="ocircumflex" unicode="&#xf4;" horiz-adv-x="507" 
d="M107 668q0 8 18 28.5t42 42.5t49 39t39 17q13 0 37.5 -12t48.5 -30.5t41.5 -40t17.5 -40.5q0 -11 -6.5 -23t-16 -22.5t-20.5 -17t-20 -6.5q-7 0 -17.5 5.5t-21.5 14t-21.5 18t-18.5 18.5q-9 -9 -21.5 -20t-25 -20t-23.5 -15t-17 -6q-9 0 -20 7.5t-20.5 18t-16.5 22.5
t-7 22zM364 696q-8 2 -10 -3q-2 -3 -3 -10.5t-2 -10.5q0 -9 -3.5 -21t5.5 -17q6 -3 11.5 3.5t8.5 11.5q6 11 6 25.5t-13 21.5zM250 -31q-64 0 -108 16t-71 52t-39 95t-12 145q0 95 14.5 157.5t44.5 100.5t76.5 53.5t110.5 15.5q115 0 168 -73.5t53 -232.5
q0 -91 -12.5 -153.5t-40.5 -101.5t-73.5 -56.5t-110.5 -17.5zM325 546q-5 -3 -7.5 -9t0.5 -11q2 -5 9.5 -10.5t16.5 -12t18.5 -16t16.5 -21.5q3 -6 5.5 -14t5.5 -14.5t7.5 -11t11.5 -4.5q14 0 16.5 16t-5.5 36q-7 18 -20 33.5t-27 25.5t-27 14t-21 -1zM188 256
q0 -18 0.5 -40t6.5 -40.5t19 -31t38 -12.5q30 0 44.5 17.5t20 42.5t5 53t-0.5 49q0 66 -18.5 103t-50.5 37q-25 0 -38 -21t-19 -49.5t-6.5 -59t-0.5 -48.5zM408 395q-2 -7 0.5 -13.5t7.5 -8.5q7 -4 13.5 1t8.5 13q1 6 -1.5 12t-7.5 8q-8 5 -13.5 1.5t-7.5 -13.5z" />
    <glyph glyph-name="otilde" unicode="&#xf5;" horiz-adv-x="507" 
d="M358 793q14 0 23 -8t14.5 -19.5t8 -24.5t2.5 -24q0 -19 -5.5 -39t-17 -36.5t-28 -26.5t-38.5 -10q-23 0 -40.5 7t-30 16t-22.5 16t-18 7q-4 0 -6 -7t-6.5 -16t-13 -16t-24.5 -7t-26.5 8t-17 20.5t-9 27t-2.5 27.5q0 19 7 38t19.5 34t29.5 24.5t38 9.5q20 0 37 -8t31 -17
t24 -17t15 -8t9.5 7.5t10 17t14 17t22.5 7.5zM367 774q-8 0 -8 -7q0 -3 1.5 -10.5t3.5 -10.5q3 -8 4.5 -18t12.5 -10q7 0 9 6t3 11q1 12 -5.5 25t-20.5 14zM250 -31q-64 0 -108 16t-71 52t-39 95t-12 145q0 95 14.5 157.5t44.5 100.5t76.5 53.5t110.5 15.5q115 0 168 -73.5
t53 -232.5q0 -91 -12.5 -153.5t-40.5 -101.5t-73.5 -56.5t-110.5 -17.5zM325 546q-5 -3 -7.5 -9t0.5 -11q2 -5 9.5 -10.5t16.5 -12t18.5 -16t16.5 -21.5q3 -6 5.5 -14t5.5 -14.5t7.5 -11t11.5 -4.5q14 0 16.5 16t-5.5 36q-7 18 -20 33.5t-27 25.5t-27 14t-21 -1zM188 256
q0 -18 0.5 -40t6.5 -40.5t19 -31t38 -12.5q30 0 44.5 17.5t20 42.5t5 53t-0.5 49q0 66 -18.5 103t-50.5 37q-25 0 -38 -21t-19 -49.5t-6.5 -59t-0.5 -48.5zM408 395q-2 -7 0.5 -13.5t7.5 -8.5q7 -4 13.5 1t8.5 13q1 6 -1.5 12t-7.5 8q-8 5 -13.5 1.5t-7.5 -13.5z" />
    <glyph glyph-name="odieresis" unicode="&#xf6;" horiz-adv-x="507" 
d="M250 711q0 -12 -4 -27.5t-13 -29t-22.5 -22.5t-32.5 -9q-27 0 -49 21.5t-22 60.5q0 31 17 55.5t54 24.5q31 0 51.5 -20.5t20.5 -53.5zM400 711q0 -12 -4 -27.5t-13 -29t-22.5 -22.5t-32.5 -9q-27 0 -49 21.5t-22 60.5q0 31 17 55.5t54 24.5q31 0 51.5 -20.5t20.5 -53.5z
M196 769q-7 -2 -6 -9q0 -2 3.5 -9t5.5 -10q5 -8 9.5 -19.5t14.5 -9.5q7 2 7.5 11t-0.5 14q-2 11 -11 22.5t-23 9.5zM346 769q-7 -2 -6 -9q0 -2 3.5 -9t5.5 -10q5 -8 9.5 -19.5t14.5 -9.5q7 2 7.5 11t-0.5 14q-2 11 -11 22.5t-23 9.5zM250 -31q-64 0 -108 16t-71 52t-39 95
t-12 145q0 95 14.5 157.5t44.5 100.5t76.5 53.5t110.5 15.5q115 0 168 -73.5t53 -232.5q0 -91 -12.5 -153.5t-40.5 -101.5t-73.5 -56.5t-110.5 -17.5zM325 546q-5 -3 -7.5 -9t0.5 -11q2 -5 9.5 -10.5t16.5 -12t18.5 -16t16.5 -21.5q3 -6 5.5 -14t5.5 -14.5t7.5 -11
t11.5 -4.5q14 0 16.5 16t-5.5 36q-7 18 -20 33.5t-27 25.5t-27 14t-21 -1zM188 256q0 -18 0.5 -40t6.5 -40.5t19 -31t38 -12.5q30 0 44.5 17.5t20 42.5t5 53t-0.5 49q0 66 -18.5 103t-50.5 37q-25 0 -38 -21t-19 -49.5t-6.5 -59t-0.5 -48.5zM408 395q-2 -7 0.5 -13.5
t7.5 -8.5q7 -4 13.5 1t8.5 13q1 6 -1.5 12t-7.5 8q-8 5 -13.5 1.5t-7.5 -13.5z" />
    <glyph glyph-name="divide" unicode="&#xf7;" horiz-adv-x="498" 
d="M318 481q0 -32 -21.5 -54t-55.5 -22q-35 0 -53 19.5t-18 51.5t18 52.5t53 20.5q32 0 54.5 -18t22.5 -50zM381 378q35 0 50.5 -17t15.5 -50q0 -35 -16 -55t-53 -20q-38 0 -76 1.5t-76 1.5q-28 0 -55.5 -2t-56.5 -2q-39 0 -55.5 18t-16.5 55q0 34 10.5 50.5t48.5 16.5
q70 0 140 1.5t140 1.5zM395 357q-3 0 -7 -2t-4 -6t2.5 -14t6 -20t8.5 -17.5t10 -7.5q8 0 11 8.5t3 14.5q0 13 -7.5 28.5t-22.5 15.5zM411 281q-4 0 -8 -3.5t-4 -8.5t1.5 -10.5t7.5 -5.5q12 0 12 13q0 5 -1.5 10t-7.5 5zM324 147q0 -32 -21.5 -54t-54.5 -22q-35 0 -53.5 19.5
t-18.5 52.5q0 32 18 52t53 20q32 0 54.5 -17.5t22.5 -50.5z" />
    <glyph glyph-name="oslash" unicode="&#xf8;" horiz-adv-x="507" 
d="M250 -31h-24q-11 -23 -26 -40t-34 -19q-12 -1 -27.5 3.5t-29 13t-23 19t-10.5 21.5q-1 9 2 22t8 30q-35 35 -50.5 97.5t-15.5 160.5q0 95 14.5 157.5t44.5 100.5t76.5 53.5t110.5 15.5h15q17 32 34.5 50.5t37.5 18.5q16 0 31.5 -4.5t27.5 -13.5t19.5 -22t8.5 -30
q1 -15 -14 -63q32 -37 46.5 -97t14.5 -145q0 -91 -12.5 -153.5t-40.5 -101.5t-73.5 -56.5t-110.5 -17.5zM325 546q-5 -3 -7.5 -9t0.5 -11q2 -5 9.5 -10.5t16.5 -12t18.5 -16t16.5 -21.5q3 -6 5.5 -14t5.5 -14.5t7.5 -11t11.5 -4.5q14 0 16.5 16t-5.5 36q-7 18 -20 33.5
t-27 25.5t-27 14t-21 -1zM188 256q0 -18 0.5 -40t6.5 -40.5t19 -31t38 -12.5q30 0 44.5 17.5t20 42.5t5 53t-0.5 49q0 66 -18.5 103t-50.5 37q-25 0 -38 -21t-19 -49.5t-6.5 -59t-0.5 -48.5zM408 395q-2 -7 0.5 -13.5t7.5 -8.5q7 -4 13.5 1t8.5 13q1 6 -1.5 12t-7.5 8
q-8 5 -13.5 1.5t-7.5 -13.5z" />
    <glyph glyph-name="ugrave" unicode="&#xf9;" horiz-adv-x="477" 
d="M346 667q0 -6 -5 -16t-12.5 -19.5t-16 -16.5t-15.5 -7q-16 0 -44 12.5t-55 32t-47 42t-20 42.5q0 11 7 22.5t17.5 20.5t23 15t22.5 6q12 0 36 -16t48.5 -38t42.5 -44.5t18 -35.5zM320 695q-6 4 -11 -2q-2 -2 -4 -9.5t-3 -10.5q-2 -9 -7 -20.5t4 -17.5q6 -4 12 2t10 11
q7 9 8.5 24t-9.5 23zM233 -31q-55 0 -93 16.5t-61 46.5t-33.5 72t-12.5 93l-4 134t-2 135q0 26 2 48.5t10 39t25.5 26t48.5 9.5q45 0 63 -23.5t18 -66.5v-286q0 -9 2 -19.5t6.5 -19.5t12 -15t19.5 -6q25 0 38.5 19t19.5 45.5t7 54t1 44.5q0 20 -0.5 40t-0.5 40l-2 53
q0 20 -0.5 40t-0.5 40q0 32 22 46t51 14q34 0 51 -24.5t23.5 -59t6 -71t-0.5 -60.5q0 -31 -0.5 -62t-1.5 -63q-1 -62 -9 -113.5t-30.5 -88.5t-64 -57.5t-110.5 -20.5zM397 544q-10 -1 -13.5 -9.5t-4.5 -19t0 -21t1 -16.5v-14.5t1 -18.5t5 -15.5t11 -6.5q8 0 12.5 5t6.5 12
t2.5 14.5t0.5 13.5q0 5 -1 17.5t-3 26t-6.5 23.5t-11.5 9zM405 405q-10 0 -16 -9t-6 -18q0 -14 14 -14q9 0 15.5 6.5t6.5 15.5q0 6 -3.5 12.5t-10.5 6.5z" />
    <glyph glyph-name="uacute" unicode="&#xfa;" horiz-adv-x="477" 
d="M131 667q0 13 18 35.5t42.5 44.5t48.5 38t36 16q11 0 23 -6t22.5 -15t17.5 -20.5t7 -22.5q0 -20 -20 -42.5t-47 -42t-55 -32t-44 -12.5q-7 0 -15.5 7t-16 16.5t-12.5 19.5t-5 16zM276 782q-8 -2 -5 -9q2 -3 7 -9t7 -8q7 -6 14 -16t17 -6q6 3 4 11.5t-4 13.5q-5 11 -16 20
t-24 3zM233 -31q-55 0 -93 16.5t-61 46.5t-33.5 72t-12.5 93l-4 134t-2 135q0 26 2 48.5t10 39t25.5 26t48.5 9.5q45 0 63 -23.5t18 -66.5v-286q0 -9 2 -19.5t6.5 -19.5t12 -15t19.5 -6q25 0 38.5 19t19.5 45.5t7 54t1 44.5q0 20 -0.5 40t-0.5 40l-2 53q0 20 -0.5 40
t-0.5 40q0 32 22 46t51 14q34 0 51 -24.5t23.5 -59t6 -71t-0.5 -60.5q0 -31 -0.5 -62t-1.5 -63q-1 -62 -9 -113.5t-30.5 -88.5t-64 -57.5t-110.5 -20.5zM397 544q-10 -1 -13.5 -9.5t-4.5 -19t0 -21t1 -16.5v-14.5t1 -18.5t5 -15.5t11 -6.5q8 0 12.5 5t6.5 12t2.5 14.5
t0.5 13.5q0 5 -1 17.5t-3 26t-6.5 23.5t-11.5 9zM405 405q-10 0 -16 -9t-6 -18q0 -14 14 -14q9 0 15.5 6.5t6.5 15.5q0 6 -3.5 12.5t-10.5 6.5z" />
    <glyph glyph-name="ucircumflex" unicode="&#xfb;" horiz-adv-x="477" 
d="M92 668q0 8 18 28.5t42 42.5t49 39t39 17q13 0 37.5 -12t48.5 -30.5t41.5 -40t17.5 -40.5q0 -11 -6.5 -23t-16 -22.5t-20.5 -17t-20 -6.5q-7 0 -17.5 5.5t-21.5 14t-21.5 18t-18.5 18.5q-9 -9 -21.5 -20t-25 -20t-23.5 -15t-17 -6q-9 0 -20 7.5t-20.5 18t-16.5 22.5
t-7 22zM349 696q-8 2 -10 -3q-2 -3 -3 -10.5t-2 -10.5q0 -9 -3.5 -21t5.5 -17q6 -3 11.5 3.5t8.5 11.5q6 11 6 25.5t-13 21.5zM233 -31q-55 0 -93 16.5t-61 46.5t-33.5 72t-12.5 93l-4 134t-2 135q0 26 2 48.5t10 39t25.5 26t48.5 9.5q45 0 63 -23.5t18 -66.5v-286
q0 -9 2 -19.5t6.5 -19.5t12 -15t19.5 -6q25 0 38.5 19t19.5 45.5t7 54t1 44.5q0 20 -0.5 40t-0.5 40l-2 53q0 20 -0.5 40t-0.5 40q0 32 22 46t51 14q34 0 51 -24.5t23.5 -59t6 -71t-0.5 -60.5q0 -31 -0.5 -62t-1.5 -63q-1 -62 -9 -113.5t-30.5 -88.5t-64 -57.5t-110.5 -20.5
zM397 544q-10 -1 -13.5 -9.5t-4.5 -19t0 -21t1 -16.5v-14.5t1 -18.5t5 -15.5t11 -6.5q8 0 12.5 5t6.5 12t2.5 14.5t0.5 13.5q0 5 -1 17.5t-3 26t-6.5 23.5t-11.5 9zM405 405q-10 0 -16 -9t-6 -18q0 -14 14 -14q9 0 15.5 6.5t6.5 15.5q0 6 -3.5 12.5t-10.5 6.5z" />
    <glyph glyph-name="udieresis" unicode="&#xfc;" horiz-adv-x="477" 
d="M235 711q0 -12 -4 -27.5t-13 -29t-22.5 -22.5t-32.5 -9q-27 0 -49 21.5t-22 60.5q0 31 17 55.5t54 24.5q31 0 51.5 -20.5t20.5 -53.5zM385 711q0 -12 -4 -27.5t-13 -29t-22.5 -22.5t-32.5 -9q-27 0 -49 21.5t-22 60.5q0 31 17 55.5t54 24.5q31 0 51.5 -20.5t20.5 -53.5z
M181 769q-7 -2 -6 -9q0 -2 3.5 -9t5.5 -10q5 -8 9.5 -19.5t14.5 -9.5q7 2 7.5 11t-0.5 14q-2 11 -11 22.5t-23 9.5zM331 769q-7 -2 -6 -9q0 -2 3.5 -9t5.5 -10q5 -8 9.5 -19.5t14.5 -9.5q7 2 7.5 11t-0.5 14q-2 11 -11 22.5t-23 9.5zM233 -31q-55 0 -93 16.5t-61 46.5
t-33.5 72t-12.5 93l-4 134t-2 135q0 26 2 48.5t10 39t25.5 26t48.5 9.5q45 0 63 -23.5t18 -66.5v-286q0 -9 2 -19.5t6.5 -19.5t12 -15t19.5 -6q25 0 38.5 19t19.5 45.5t7 54t1 44.5q0 20 -0.5 40t-0.5 40l-2 53q0 20 -0.5 40t-0.5 40q0 32 22 46t51 14q34 0 51 -24.5
t23.5 -59t6 -71t-0.5 -60.5q0 -31 -0.5 -62t-1.5 -63q-1 -62 -9 -113.5t-30.5 -88.5t-64 -57.5t-110.5 -20.5zM397 544q-10 -1 -13.5 -9.5t-4.5 -19t0 -21t1 -16.5v-14.5t1 -18.5t5 -15.5t11 -6.5q8 0 12.5 5t6.5 12t2.5 14.5t0.5 13.5q0 5 -1 17.5t-3 26t-6.5 23.5t-11.5 9
zM405 405q-10 0 -16 -9t-6 -18q0 -14 14 -14q9 0 15.5 6.5t6.5 15.5q0 6 -3.5 12.5t-10.5 6.5z" />
    <glyph glyph-name="yacute" unicode="&#xfd;" horiz-adv-x="452" 
d="M223 711q0 -12 -4 -27.5t-13 -29t-22.5 -22.5t-32.5 -9q-27 0 -49 21.5t-22 60.5q0 31 17 55.5t54 24.5q31 0 51.5 -20.5t20.5 -53.5zM373 711q0 -12 -4 -27.5t-13 -29t-22.5 -22.5t-32.5 -9q-27 0 -49 21.5t-22 60.5q0 31 17 55.5t54 24.5q31 0 51.5 -20.5t20.5 -53.5z
M168 769q-7 -2 -6 -9l4.5 -9t5.5 -10q5 -8 9 -19.5t15 -9.5q7 2 7 11t-1 14q-2 11 -11 22.5t-23 9.5zM318 769q-7 -2 -6 -9l4.5 -9t5.5 -10q5 -8 9 -19.5t15 -9.5q7 2 7 11t-1 14q-2 11 -11 22.5t-23 9.5zM184 197q-58 0 -90.5 17t-48.5 47t-20 70.5t-4 88.5l1 9v4
q0 17 -1.5 44t3 52.5t18 43.5t44.5 18q3 0 6 1h10q33 0 51 -10t30 -42q6 -16 6 -34q0 -34 -4 -67t-4 -67q0 -20 10.5 -24.5t27.5 -4.5t27.5 6t16.5 16t8 23.5t2 27.5q0 27 -3.5 54t-3.5 54q0 20 8.5 33t22 20.5t30.5 11t33 3.5q32 0 54 -14.5t22 -49.5q0 -63 -4.5 -125.5
t-4.5 -125.5q0 -11 0.5 -22t0.5 -22l2 -29q0 -11 0.5 -22t0.5 -22q0 -55 -15.5 -92t-44.5 -60t-70.5 -33t-92.5 -10q-80 0 -132 42q-22 17 -39.5 42t-17.5 56q0 14 7.5 27.5t19.5 24t26.5 16.5t27.5 6q10 0 18 -5.5t13 -13.5q16 -25 39.5 -37.5t51.5 -12.5q20 0 31 11t16 27
t6.5 34.5t1.5 32.5v9.5t-1 10.5q-19 -17 -42.5 -27.5t-49.5 -10.5zM143 548q-9 0 -12.5 -5t-4.5 -11t-1 -12.5v-10.5q0 -3 -0.5 -9.5t0.5 -12.5t4.5 -11t9.5 -5q14 -1 17.5 9t4.5 17q2 16 -2 33.5t-16 17.5zM392 546q-10 -1 -14 -9t-5.5 -18.5t-1.5 -21v-16.5q0 -5 -0.5 -16
t1 -21.5t5.5 -19t11 -8.5q8 -1 13 4t7.5 12t3.5 14.5t1 13.5q1 13 0.5 28.5t-3 28t-7 21t-11.5 8.5zM395 398q-10 1 -16.5 -7.5t-7.5 -17.5q0 -15 13 -16q9 -1 15.5 5.5t7.5 16.5q0 5 -2.5 11.5t-9.5 7.5z" />
    <glyph glyph-name="thorn" unicode="&#xfe;" horiz-adv-x="467" 
d="M134 -29q-39 0 -67.5 20t-28.5 63v116l-1 233v116v29q0 16 8.5 26.5t21.5 17t28 9.5t28 3q32 0 56 -15t24 -51v-25q46 4 89.5 -8t77.5 -39t54.5 -69.5t20.5 -101.5q0 -52 -13 -98t-40 -80.5t-68.5 -54t-98.5 -19.5h-11t-12 1q-2 -35 -16 -54t-52 -19zM281 471
q-12 -10 -5 -22q3 -4 11.5 -8t18.5 -9.5t20.5 -13.5t19.5 -19q5 -6 8 -13t7 -13t9 -10t12 -3q14 2 14 18.5t-11 34.5q-16 28 -43 45t-47 17q-9 0 -14 -4zM386 334q-1 -7 2.5 -13t8.5 -8q7 -3 13 3t6 14q0 15 -12 18q-8 4 -13 0t-5 -14zM277 298q0 17 -6.5 26.5t-17.5 14.5
t-25 7t-28 3v-42v-55.5t1 -55.5q2 0 4.5 -0.5t4.5 -0.5q20 0 33 10t20.5 25.5t10.5 33.5t3 34z" />
    <glyph glyph-name="ydieresis" unicode="&#xff;" horiz-adv-x="452" 
d="M119 667q0 13 18 35.5t42 44.5t48.5 38t36.5 16q10 0 22.5 -6t23 -15t17.5 -20.5t7 -22.5q0 -20 -20 -42.5t-47 -42t-55 -32t-44 -12.5q-7 0 -15.5 7t-16 16.5t-12.5 19.5t-5 16zM263 782q-8 -2 -4 -9q2 -3 6.5 -9t7.5 -8q6 -6 13.5 -16t16.5 -6q6 3 4.5 11.5t-3.5 13.5
q-5 11 -16.5 20t-24.5 3zM184 197q-58 0 -90.5 17t-48.5 47t-20 70.5t-4 88.5l1 9v4q0 17 -1.5 44t3 52.5t18 43.5t44.5 18q3 0 6 1h10q33 0 51 -10t30 -42q6 -16 6 -34q0 -34 -4 -67t-4 -67q0 -20 10.5 -24.5t27.5 -4.5t27.5 6t16.5 16t8 23.5t2 27.5q0 27 -3.5 54t-3.5 54
q0 20 8.5 33t22 20.5t30.5 11t33 3.5q32 0 54 -14.5t22 -49.5q0 -63 -4.5 -125.5t-4.5 -125.5q0 -11 0.5 -22t0.5 -22l2 -29q0 -11 0.5 -22t0.5 -22q0 -55 -15.5 -92t-44.5 -60t-70.5 -33t-92.5 -10q-80 0 -132 42q-22 17 -39.5 42t-17.5 56q0 14 7.5 27.5t19.5 24
t26.5 16.5t27.5 6q10 0 18 -5.5t13 -13.5q16 -25 39.5 -37.5t51.5 -12.5q20 0 31 11t16 27t6.5 34.5t1.5 32.5v9.5t-1 10.5q-19 -17 -42.5 -27.5t-49.5 -10.5zM143 548q-9 0 -12.5 -5t-4.5 -11t-1 -12.5v-10.5q0 -3 -0.5 -9.5t0.5 -12.5t4.5 -11t9.5 -5q14 -1 17.5 9t4.5 17
q2 16 -2 33.5t-16 17.5zM392 546q-10 -1 -14 -9t-5.5 -18.5t-1.5 -21v-16.5q0 -5 -0.5 -16t1 -21.5t5.5 -19t11 -8.5q8 -1 13 4t7.5 12t3.5 14.5t1 13.5q1 13 0.5 28.5t-3 28t-7 21t-11.5 8.5zM395 398q-10 1 -16.5 -7.5t-7.5 -17.5q0 -15 13 -16q9 -1 15.5 5.5t7.5 16.5
q0 5 -2.5 11.5t-9.5 7.5z" />
    <glyph glyph-name="Dcroat" unicode="&#x110;" horiz-adv-x="487" 
d="M194 -30q-82 0 -120 29.5t-39 93.5l-3 158q-26 3 -39.5 19.5t-13.5 52.5q0 38 11.5 55t39.5 19l-1 45q-2 70 15 105.5t58 45.5q25 6 84 3q76 -4 129.5 -21.5t87 -52t49 -87.5t15.5 -127q0 -173 -66.5 -255.5t-206.5 -82.5zM299 526q-5 -3 -7 -9.5t1 -11.5q3 -4 10.5 -9
t17 -11.5t19.5 -15t18 -20.5q4 -6 6.5 -13.5t5.5 -14t8 -10.5t12 -4q14 1 15.5 17t-7.5 35q-7 15 -18 28t-23 22t-24 14.5t-22 5.5q-7 0 -12 -3zM191 399l3 1q22 0 38 -1.5t26 -8t15 -20.5t5 -40q0 -47 -12.5 -63.5t-43.5 -16.5h-30v-109q0 -11 8 -14.5t17 -3.5
q28 0 45.5 21t27 49.5t13 59.5t3.5 50q0 67 -26 100t-89 36v-40zM391 380q-1 -7 1.5 -13.5t7.5 -8.5q7 -3 13.5 2.5t7.5 13.5q1 6 -2 11.5t-8 7.5q-17 8 -20 -13zM224 381q-9 0 -11 -8q0 -4 2.5 -12.5t4.5 -12.5q4 -10 5.5 -22t14.5 -12q8 0 10.5 7t3.5 14q1 14 -6.5 29
t-23.5 17zM240 305q-5 0 -8 -3.5t-4 -8.5q0 -5 1.5 -10.5t6.5 -5.5q11 -1 13 13q0 5 -1.5 9.5t-7.5 5.5z" />
    <glyph glyph-name="dcroat" unicode="&#x111;" horiz-adv-x="487" 
d="M194 -30q-82 0 -120 29.5t-39 93.5l-3 158q-26 3 -39.5 19.5t-13.5 52.5q0 38 11.5 55t39.5 19l-1 45q-2 70 15 105.5t58 45.5q25 6 84 3q76 -4 129.5 -21.5t87 -52t49 -87.5t15.5 -127q0 -173 -66.5 -255.5t-206.5 -82.5zM299 526q-5 -3 -7 -9.5t1 -11.5q3 -4 10.5 -9
t17 -11.5t19.5 -15t18 -20.5q4 -6 6.5 -13.5t5.5 -14t8 -10.5t12 -4q14 1 15.5 17t-7.5 35q-7 15 -18 28t-23 22t-24 14.5t-22 5.5q-7 0 -12 -3zM191 399l3 1q22 0 38 -1.5t26 -8t15 -20.5t5 -40q0 -47 -12.5 -63.5t-43.5 -16.5h-30v-109q0 -11 8 -14.5t17 -3.5
q28 0 45.5 21t27 49.5t13 59.5t3.5 50q0 67 -26 100t-89 36v-40zM391 380q-1 -7 1.5 -13.5t7.5 -8.5q7 -3 13.5 2.5t7.5 13.5q1 6 -2 11.5t-8 7.5q-17 8 -20 -13zM224 381q-9 0 -11 -8q0 -4 2.5 -12.5t4.5 -12.5q4 -10 5.5 -22t14.5 -12q8 0 10.5 7t3.5 14q1 14 -6.5 29
t-23.5 17zM240 305q-5 0 -8 -3.5t-4 -8.5q0 -5 1.5 -10.5t6.5 -5.5q11 -1 13 13q0 5 -1.5 9.5t-7.5 5.5z" />
    <glyph glyph-name="dotlessi" unicode="&#x131;" horiz-adv-x="314" 
d="M255 590q17 1 29.5 -23t12.5 -57q0 -36 -14.5 -60t-37.5 -24h-14q6 -69 6.5 -144t-4.5 -144q68 0 68 -75q0 -44 -23.5 -67.5t-66.5 -23.5h-9.5t-12.5 1l-63 2q-8 1 -13.5 1h-9.5q-45 0 -69.5 25t-24.5 70q0 32 12.5 50t35.5 18h21q-5 63 -2 136t3 145q-42 0 -58 16.5
t-16 58.5t12.5 65.5t34.5 24.5zM246 567q-9 0 -11 -9q0 -4 3 -13t5 -13q2 -5 3 -11.5t2.5 -12t4.5 -9t10 -3.5q8 0 11.5 7.5t4.5 14.5q1 15 -7.5 31t-25.5 18zM263 487q-5 0 -8 -4t-4 -9q0 -5 1.5 -10.5t6.5 -5.5q6 -1 10 3t5 10q0 5 -2 10t-9 6zM246 115q-10 0 -14 -5
t-1 -13q4 -9 7 -21t3 -19q0 -5 4.5 -7t8.5 -2q14 0 14 31q0 2 -1 8t-3.5 12t-6.5 11t-11 5z" />
    <glyph glyph-name="Lslash" unicode="&#x141;" horiz-adv-x="358" 
d="M98 -24q-44 0 -57 26t-13 82v54q-20 -6 -31.5 4.5t-22.5 36.5q-5 12 -9 23.5t-4.5 21.5t4.5 18t17 13l46 20v162q0 51 2 82t10.5 48t26.5 22.5t50 5.5q21 0 36 -3t24 -12t13 -25t4 -43v-79.5t1 -84.5l6 3q10 4 18 1.5t15 -9t12.5 -15.5t9.5 -19q4 -9 7 -20.5t3 -23
t-3.5 -21t-12.5 -13.5l-56 -24q-2 -20 -5 -39.5t-9 -32.5l102 17q16 3 27 -5.5t18 -23.5t10 -34.5t3 -38.5q0 -29 -7.5 -43.5t-21.5 -21t-32.5 -7t-41.5 -0.5h-23l-47 -2h-23h-46zM144 544q-10 -1 -13.5 -9.5t-4.5 -19t0 -21t1 -16.5v-14.5t1 -18.5t5 -15.5t11 -6.5
q8 0 12.5 5t6.5 12t2.5 14.5t0.5 13.5q0 5 -1 17.5t-3 26t-6.5 23.5t-11.5 9zM152 405q-10 0 -16 -9t-6 -18q0 -14 14 -14q9 0 15.5 6.5t6.5 15.5q0 6 -3.5 12.5t-10.5 6.5zM201 332q-7 -2 -5 -10q1 -3 6 -9.5t8 -9.5q5 -7 10.5 -16.5t14.5 -6.5q5 2 4.5 9t-2.5 13
q-5 12 -15 22.5t-21 7.5zM238 273q-7 -4 -4 -14q2 -4 4.5 -8t6.5 -3q9 3 4 15q-2 5 -4 8.5t-7 1.5zM282 126q-10 0 -14 -5t-1 -13q2 -4 3.5 -13l3 -18t2.5 -17.5t1 -11.5q0 -5 4.5 -7t8.5 -2q14 0 14 31q0 2 -1 11t-3.5 19t-6.5 18t-11 8z" />
    <glyph glyph-name="lslash" unicode="&#x142;" horiz-adv-x="358" 
d="M98 -24q-44 0 -57 26t-13 82v54q-20 -6 -31.5 4.5t-22.5 36.5q-5 12 -9 23.5t-4.5 21.5t4.5 18t17 13l46 20v162q0 51 2 82t10.5 48t26.5 22.5t50 5.5q21 0 36 -3t24 -12t13 -25t4 -43v-79.5t1 -84.5l6 3q10 4 18 1.5t15 -9t12.5 -15.5t9.5 -19q4 -9 7 -20.5t3 -23
t-3.5 -21t-12.5 -13.5l-56 -24q-2 -20 -5 -39.5t-9 -32.5l102 17q16 3 27 -5.5t18 -23.5t10 -34.5t3 -38.5q0 -29 -7.5 -43.5t-21.5 -21t-32.5 -7t-41.5 -0.5h-23l-47 -2h-23h-46zM144 544q-10 -1 -13.5 -9.5t-4.5 -19t0 -21t1 -16.5v-14.5t1 -18.5t5 -15.5t11 -6.5
q8 0 12.5 5t6.5 12t2.5 14.5t0.5 13.5q0 5 -1 17.5t-3 26t-6.5 23.5t-11.5 9zM152 405q-10 0 -16 -9t-6 -18q0 -14 14 -14q9 0 15.5 6.5t6.5 15.5q0 6 -3.5 12.5t-10.5 6.5zM201 332q-7 -2 -5 -10q1 -3 6 -9.5t8 -9.5q5 -7 10.5 -16.5t14.5 -6.5q5 2 4.5 9t-2.5 13
q-5 12 -15 22.5t-21 7.5zM238 273q-7 -4 -4 -14q2 -4 4.5 -8t6.5 -3q9 3 4 15q-2 5 -4 8.5t-7 1.5zM282 126q-10 0 -14 -5t-1 -13q2 -4 3.5 -13l3 -18t2.5 -17.5t1 -11.5q0 -5 4.5 -7t8.5 -2q14 0 14 31q0 2 -1 11t-3.5 19t-6.5 18t-11 8z" />
    <glyph glyph-name="OE" unicode="&#x152;" horiz-adv-x="685" 
d="M250 -31q-64 0 -108 16t-71 52t-39 95t-12 145q0 95 14.5 157.5t44.5 100.5t76.5 53.5t110.5 15.5q66 0 111 -24q2 1 6 1q56 5 113.5 10.5t113.5 5.5q11 0 21 -9.5t17.5 -22.5t12 -27t4.5 -23q0 -13 -1.5 -26t-6.5 -23.5t-14.5 -17.5t-25.5 -8l-136 -11l5 -62h98
q31 0 42 -20.5t11 -47.5q0 -10 -1.5 -23.5t-6 -26t-12.5 -21.5t-22 -9h-109l6 -89h54q11 0 17.5 6.5t13 15t15 15t21.5 6.5q32 0 52 -17t20 -50q0 -39 -4 -65t-17 -42t-37 -23.5t-63 -8.5q-23 -1 -47 -1h-47h-63q-37 0 -57 17q-21 -8 -46 -11t-54 -3zM572 576
q-2 -1 -4.5 -4.5t-0.5 -7.5q5 -8 8 -12.5t5 -8.5q5 -11 8 -21t21 -11q11 0 16.5 11t-2.5 28q-10 19 -24 25t-27 1zM605 491q-1 -5 1 -9.5t6 -6.5q5 -2 10 2t6 10q0 12 -7 15q-13 6 -16 -11zM188 256q0 -18 0.5 -40t6.5 -40.5t19 -31t38 -12.5q30 0 44.5 17.5t20 42.5t5 53
t-0.5 49q0 66 -18.5 103t-50.5 37q-25 0 -38 -21t-19 -49.5t-6.5 -59t-0.5 -48.5zM579 351q-2 -1 -3.5 -3.5t-0.5 -5.5l3 -9t4 -9q5 -8 5.5 -17.5t9.5 -9.5q8 0 12.5 7.5t0.5 21.5q-5 15 -14 21t-17 4z" />
    <glyph glyph-name="oe" unicode="&#x153;" horiz-adv-x="685" 
d="M250 -31q-64 0 -108 16t-71 52t-39 95t-12 145q0 95 14.5 157.5t44.5 100.5t76.5 53.5t110.5 15.5q66 0 111 -24q2 1 6 1q56 5 113.5 10.5t113.5 5.5q11 0 21 -9.5t17.5 -22.5t12 -27t4.5 -23q0 -13 -1.5 -26t-6.5 -23.5t-14.5 -17.5t-25.5 -8l-136 -11l5 -62h98
q31 0 42 -20.5t11 -47.5q0 -10 -1.5 -23.5t-6 -26t-12.5 -21.5t-22 -9h-109l6 -89h54q11 0 17.5 6.5t13 15t15 15t21.5 6.5q32 0 52 -17t20 -50q0 -39 -4 -65t-17 -42t-37 -23.5t-63 -8.5q-23 -1 -47 -1h-47h-63q-37 0 -57 17q-21 -8 -46 -11t-54 -3zM572 576
q-2 -1 -4.5 -4.5t-0.5 -7.5q5 -8 8 -12.5t5 -8.5q5 -11 8 -21t21 -11q11 0 16.5 11t-2.5 28q-10 19 -24 25t-27 1zM605 491q-1 -5 1 -9.5t6 -6.5q5 -2 10 2t6 10q0 12 -7 15q-13 6 -16 -11zM188 256q0 -18 0.5 -40t6.5 -40.5t19 -31t38 -12.5q30 0 44.5 17.5t20 42.5t5 53
t-0.5 49q0 66 -18.5 103t-50.5 37q-25 0 -38 -21t-19 -49.5t-6.5 -59t-0.5 -48.5zM579 351q-2 -1 -3.5 -3.5t-0.5 -5.5l3 -9t4 -9q5 -8 5.5 -17.5t9.5 -9.5q8 0 12.5 7.5t0.5 21.5q-5 15 -14 21t-17 4z" />
    <glyph glyph-name="Scaron" unicode="&#x160;" horiz-adv-x="462" 
d="M136 197q9 -16 13 -27.5t18 -25.5q5 -5 23 -11.5t44 -6.5q23 0 35 6.5t12 16.5q0 3 -24 16t-57 30q-29 15 -60.5 33.5t-58 43.5t-43.5 59t-17 81q0 39 13.5 72.5t37.5 59t57.5 42t73.5 21.5q-18 11 -38.5 28t-38.5 34t-29.5 32t-11.5 21q0 10 7 22t16.5 23t20.5 18.5
t20 7.5q6 0 17 -6t23.5 -15t25 -19.5t21.5 -19.5q8 8 18.5 18t21.5 18t21.5 13.5t17.5 5.5q9 0 20 -7t20.5 -17t16 -22t6.5 -22q0 -16 -11 -32.5t-28 -32t-36.5 -28t-36.5 -20.5q41 -6 72 -23.5t52 -41.5t32 -51t11 -50q0 -45 -17 -73t-60 -28t-56.5 15.5t-11.5 47.5
q2 29 -9.5 39.5t-41.5 10.5q-23 0 -39 -12.5t-16 -31.5q0 -11 9 -21t24 -19.5t34.5 -19t41.5 -18.5q28 -13 55.5 -27t50 -34t36.5 -47.5t14 -67.5q0 -42 -18 -75.5t-48.5 -57t-70 -36t-82.5 -12.5q-40 0 -79 15t-69.5 41t-49.5 62t-19 78q0 65 73 65q17 0 32 -12t20 -26z
M305 771q-7 -4 -4 -10q2 -3 7 -9t7 -8q7 -6 14 -16t16 -6q6 3 4.5 11.5t-3.5 13.5q-5 11 -16 20t-25 4zM301 562q-4 -3 -5 -9t3 -11q5 -8 13 -19t17 -21q6 -6 9 -13.5t6.5 -14t8.5 -10t14 -2.5q12 2 13 19.5t-12 39.5q-16 26 -36.5 37.5t-30.5 3.5zM369 434q0 -17 13 -22
q8 -2 15 4.5t6 16.5q0 16 -14 19q-20 7 -20 -18z" />
    <glyph glyph-name="scaron" unicode="&#x161;" horiz-adv-x="462" 
d="M136 197q9 -16 13 -27.5t18 -25.5q5 -5 23 -11.5t44 -6.5q23 0 35 6.5t12 16.5q0 3 -24 16t-57 30q-29 15 -60.5 33.5t-58 43.5t-43.5 59t-17 81q0 39 13.5 72.5t37.5 59t57.5 42t73.5 21.5q-18 11 -38.5 28t-38.5 34t-29.5 32t-11.5 21q0 10 7 22t16.5 23t20.5 18.5
t20 7.5q6 0 17 -6t23.5 -15t25 -19.5t21.5 -19.5q8 8 18.5 18t21.5 18t21.5 13.5t17.5 5.5q9 0 20 -7t20.5 -17t16 -22t6.5 -22q0 -16 -11 -32.5t-28 -32t-36.5 -28t-36.5 -20.5q41 -6 72 -23.5t52 -41.5t32 -51t11 -50q0 -45 -17 -73t-60 -28t-56.5 15.5t-11.5 47.5
q2 29 -9.5 39.5t-41.5 10.5q-23 0 -39 -12.5t-16 -31.5q0 -11 9 -21t24 -19.5t34.5 -19t41.5 -18.5q28 -13 55.5 -27t50 -34t36.5 -47.5t14 -67.5q0 -42 -18 -75.5t-48.5 -57t-70 -36t-82.5 -12.5q-40 0 -79 15t-69.5 41t-49.5 62t-19 78q0 65 73 65q17 0 32 -12t20 -26z
M305 771q-7 -4 -4 -10q2 -3 7 -9t7 -8q7 -6 14 -16t16 -6q6 3 4.5 11.5t-3.5 13.5q-5 11 -16 20t-25 4zM301 562q-4 -3 -5 -9t3 -11q5 -8 13 -19t17 -21q6 -6 9 -13.5t6.5 -14t8.5 -10t14 -2.5q12 2 13 19.5t-12 39.5q-16 26 -36.5 37.5t-30.5 3.5zM369 434q0 -17 13 -22
q8 -2 15 4.5t6 16.5q0 16 -14 19q-20 7 -20 -18z" />
    <glyph glyph-name="Ydieresis" unicode="&#x178;" horiz-adv-x="452" 
d="M223 711q0 -12 -4 -27.5t-13 -29t-22.5 -22.5t-32.5 -9q-27 0 -49 21.5t-22 60.5q0 31 17 55.5t54 24.5q31 0 51.5 -20.5t20.5 -53.5zM373 711q0 -12 -4 -27.5t-13 -29t-22.5 -22.5t-32.5 -9q-27 0 -49 21.5t-22 60.5q0 31 17 55.5t54 24.5q31 0 51.5 -20.5t20.5 -53.5z
M168 769q-7 -2 -6 -9l4.5 -9t5.5 -10q5 -8 9 -19.5t15 -9.5q7 2 7 11t-1 14q-2 11 -11 22.5t-23 9.5zM318 769q-7 -2 -6 -9l4.5 -9t5.5 -10q5 -8 9 -19.5t15 -9.5q7 2 7 11t-1 14q-2 11 -11 22.5t-23 9.5zM184 197q-58 0 -90.5 17t-48.5 47t-20 70.5t-4 88.5l1 9v4
q0 17 -1.5 44t3 52.5t18 43.5t44.5 18q3 0 6 1h10q33 0 51 -10t30 -42q6 -16 6 -34q0 -34 -4 -67t-4 -67q0 -20 10.5 -24.5t27.5 -4.5t27.5 6t16.5 16t8 23.5t2 27.5q0 27 -3.5 54t-3.5 54q0 20 8.5 33t22 20.5t30.5 11t33 3.5q32 0 54 -14.5t22 -49.5q0 -63 -4.5 -125.5
t-4.5 -125.5q0 -11 0.5 -22t0.5 -22l2 -29q0 -11 0.5 -22t0.5 -22q0 -55 -15.5 -92t-44.5 -60t-70.5 -33t-92.5 -10q-80 0 -132 42q-22 17 -39.5 42t-17.5 56q0 14 7.5 27.5t19.5 24t26.5 16.5t27.5 6q10 0 18 -5.5t13 -13.5q16 -25 39.5 -37.5t51.5 -12.5q20 0 31 11t16 27
t6.5 34.5t1.5 32.5v9.5t-1 10.5q-19 -17 -42.5 -27.5t-49.5 -10.5zM143 548q-9 0 -12.5 -5t-4.5 -11t-1 -12.5v-10.5q0 -3 -0.5 -9.5t0.5 -12.5t4.5 -11t9.5 -5q14 -1 17.5 9t4.5 17q2 16 -2 33.5t-16 17.5zM392 546q-10 -1 -14 -9t-5.5 -18.5t-1.5 -21v-16.5q0 -5 -0.5 -16
t1 -21.5t5.5 -19t11 -8.5q8 -1 13 4t7.5 12t3.5 14.5t1 13.5q1 13 0.5 28.5t-3 28t-7 21t-11.5 8.5zM395 398q-10 1 -16.5 -7.5t-7.5 -17.5q0 -15 13 -16q9 -1 15.5 5.5t7.5 16.5q0 5 -2.5 11.5t-9.5 7.5z" />
    <glyph glyph-name="Zcaron" unicode="&#x17d;" horiz-adv-x="448" 
d="M78 722q0 10 7 22t16.5 23t20.5 18.5t20 7.5q6 0 17 -6t23.5 -15t25 -19.5t21.5 -19.5q8 8 18.5 18t21.5 18t21.5 13.5t17.5 5.5q9 0 20 -7t20.5 -17t16 -22t6.5 -22q0 -21 -18.5 -43t-43.5 -40t-48.5 -29.5t-34.5 -11.5q-14 0 -39 17t-49 38.5t-42 42.5t-18 28zM298 771
q-7 -4 -4 -10q2 -3 7 -9t7 -8q7 -6 14 -16t16 -6q6 3 4.5 11.5t-3.5 13.5q-5 11 -16 20t-25 4zM84 -34q-21 0 -34.5 10t-21 25.5t-10.5 33.5t-3 34q0 63 35 116q21 32 46 65.5t52.5 66.5t55.5 64t54 57q-45 -8 -83.5 -12.5t-81.5 -4.5q-40 0 -54 24t-14 65t12.5 63t48.5 22
q72 0 133 -2.5t133 -6.5q33 -2 52.5 -25t19.5 -55q0 -12 -1 -28.5t-4 -33t-7 -32t-10 -26.5q-20 -36 -44.5 -74.5t-51 -74.5t-55 -68.5t-55.5 -57.5q17 8 40 14t48.5 10t51.5 6.5t49 2.5q28 0 40 -24t12 -69q0 -42 -12 -58.5t-44 -16.5q-72 0 -148.5 -5t-148.5 -5zM362 555
q-9 0 -11 -9q0 -4 2.5 -13t4.5 -13q2 -5 3 -11.5t3 -12t5 -9t10 -3.5q8 0 11 7.5t4 14.5q1 15 -7 31t-25 18zM379 475q-5 0 -8 -4t-4 -9q0 -5 1.5 -11t6.5 -6q6 -1 9.5 3.5t4.5 10.5q0 5 -1.5 10t-8.5 6zM393 117q-8 -1 -11 -6t0 -11q4 -8 7 -22.5t4 -20.5q0 -4 4 -5t8 -1
q11 0 8 27q0 2 -1 8.5t-3.5 13.5t-6 12t-9.5 5z" />
    <glyph glyph-name="zcaron" unicode="&#x17e;" horiz-adv-x="448" 
d="M78 722q0 10 7 22t16.5 23t20.5 18.5t20 7.5q6 0 17 -6t23.5 -15t25 -19.5t21.5 -19.5q8 8 18.5 18t21.5 18t21.5 13.5t17.5 5.5q9 0 20 -7t20.5 -17t16 -22t6.5 -22q0 -21 -18.5 -43t-43.5 -40t-48.5 -29.5t-34.5 -11.5q-14 0 -39 17t-49 38.5t-42 42.5t-18 28zM298 771
q-7 -4 -4 -10q2 -3 7 -9t7 -8q7 -6 14 -16t16 -6q6 3 4.5 11.5t-3.5 13.5q-5 11 -16 20t-25 4zM84 -34q-21 0 -34.5 10t-21 25.5t-10.5 33.5t-3 34q0 63 35 116q21 32 46 65.5t52.5 66.5t55.5 64t54 57q-45 -8 -83.5 -12.5t-81.5 -4.5q-40 0 -54 24t-14 65t12.5 63t48.5 22
q72 0 133 -2.5t133 -6.5q33 -2 52.5 -25t19.5 -55q0 -12 -1 -28.5t-4 -33t-7 -32t-10 -26.5q-20 -36 -44.5 -74.5t-51 -74.5t-55 -68.5t-55.5 -57.5q17 8 40 14t48.5 10t51.5 6.5t49 2.5q28 0 40 -24t12 -69q0 -42 -12 -58.5t-44 -16.5q-72 0 -148.5 -5t-148.5 -5zM362 555
q-9 0 -11 -9q0 -4 2.5 -13t4.5 -13q2 -5 3 -11.5t3 -12t5 -9t10 -3.5q8 0 11 7.5t4 14.5q1 15 -7 31t-25 18zM379 475q-5 0 -8 -4t-4 -9q0 -5 1.5 -11t6.5 -6q6 -1 9.5 3.5t4.5 10.5q0 5 -1.5 10t-8.5 6zM393 117q-8 -1 -11 -6t0 -11q4 -8 7 -22.5t4 -20.5q0 -4 4 -5t8 -1
q11 0 8 27q0 2 -1 8.5t-3.5 13.5t-6 12t-9.5 5z" />
    <glyph glyph-name="florin" unicode="&#x192;" horiz-adv-x="331" 
d="M0 -175q-30 0 -49.5 2.5t-30.5 9.5t-15.5 19.5t-4.5 32.5q0 19 7.5 30.5t19.5 17.5t26.5 8t27.5 2q10 0 20 5t18.5 13t13.5 18.5t6 21.5l23 277q-32 0 -46 16.5t-14 47.5q0 34 14.5 51.5t49.5 17.5h8q5 42 15 76.5t28 58.5t44.5 37.5t64.5 13.5q37 0 62 -11.5t40 -27.5
t21.5 -31.5t6.5 -24.5q0 -35 -13 -47.5t-40 -12.5q-20 0 -36.5 12t-28.5 24q-13 -8 -15.5 -27t-3.5 -38q20 0 36 -1t26.5 -7t16 -19t5.5 -37q0 -29 -14.5 -49.5t-46.5 -20.5h-34q-5 -74 -10.5 -142.5t-13.5 -145.5q-8 -83 -53.5 -126.5t-130.5 -43.5zM272 566q-4 -7 1 -12
t10.5 -7.5t11.5 -10.5q7 -8 12.5 -17.5t14.5 -5.5q6 3 4 15t-12 23q-8 10 -17 15t-15 5q-7 0 -10 -5zM318 492q2 -11 10 -13q5 -1 7.5 4.5t0.5 11.5q0 5 -3 7.5t-6 2.5q-12 4 -9 -13zM258 397q-1 -1 -2.5 -3.5t-0.5 -4.5q2 -5 2.5 -8t3.5 -8q4 -7 4.5 -15t8.5 -8q6 0 10 7
t1 18q-4 13 -11.5 18.5t-15.5 3.5z" />
    <glyph glyph-name="circumflex" unicode="&#x2c6;" horiz-adv-x="396" 
d="M59 668q0 8 18 28.5t42 42.5t49 39t39 17q13 0 37.5 -12t48.5 -30.5t41.5 -40t17.5 -40.5q0 -11 -6.5 -23t-16 -22.5t-20.5 -17t-20 -6.5q-7 0 -17.5 5.5t-21.5 14t-21.5 18t-18.5 18.5q-9 -9 -21.5 -20t-25 -20t-23.5 -15t-17 -6q-9 0 -20 7.5t-20.5 18t-16.5 22.5
t-7 22zM316 696q-8 2 -10 -3q-2 -3 -3 -10.5t-2 -10.5q0 -9 -3.5 -21t5.5 -17q6 -3 11.5 3.5t8.5 11.5q6 11 6 25.5t-13 21.5z" />
    <glyph glyph-name="caron" unicode="&#x2c7;" horiz-adv-x="420" 
d="M59 722q0 10 7 22t16.5 23t20.5 18.5t20 7.5q6 0 17 -6t23.5 -15t25 -19.5t21.5 -19.5q8 8 18.5 18t21.5 18t21.5 13.5t17.5 5.5q9 0 20 -7t20.5 -17t16 -22t6.5 -22q0 -21 -18.5 -43t-43 -40t-48.5 -29.5t-35 -11.5q-14 0 -39 17t-49 38.5t-42 42.5t-18 28zM280 771
q-8 -4 -4 -10q1 -3 6 -9t7 -8q7 -6 14 -16t17 -6q6 3 4 11.5t-4 13.5q-5 11 -16 20t-24 4z" />
    <glyph glyph-name="breve" unicode="&#x2d8;" horiz-adv-x="322" 
d="M241 810q14 0 23.5 -7t15 -17.5t8 -23t2.5 -24.5q0 -27 -10.5 -50t-28.5 -40.5t-42 -27t-50 -9.5q-25 0 -49 9t-42 25.5t-29 38.5t-11 49q0 11 2 23.5t7 23t14 17.5t23 7q16 0 24.5 -8t16 -17t18 -17t30.5 -8t28.5 9t14 19.5t12.5 19t23 8.5zM243 795q-7 -2 -6 -9
q0 -3 3.5 -10t5.5 -9q5 -8 9.5 -19.5t14.5 -9.5q7 2 7.5 10.5t-0.5 13.5q-2 12 -11 23.5t-23 9.5z" />
    <glyph glyph-name="dotaccent" unicode="&#x2d9;" horiz-adv-x="228" 
d="M188 711q0 -12 -4 -27.5t-13 -29t-22.5 -22.5t-32.5 -9q-27 0 -49 21.5t-22 60.5q0 31 17 55.5t54 24.5q31 0 51.5 -20.5t20.5 -53.5zM134 769q-7 -2 -6 -9q0 -2 3.5 -9t5.5 -10q5 -8 9.5 -19.5t14.5 -9.5q7 2 7.5 11t-0.5 14q-2 11 -11 22.5t-23 9.5z" />
    <glyph glyph-name="ring" unicode="&#x2da;" horiz-adv-x="314" 
d="M49 711q0 22 8 42.5t23 36t35.5 24.5t45.5 9q24 0 43.5 -8.5t33.5 -22.5t22 -33.5t8 -40.5q0 -47 -29 -80t-77 -33t-80.5 29t-32.5 77zM203 790q-6 -4 -4 -10q1 -3 5.5 -9t7.5 -8q3 -3 6 -8t6.5 -9t7.5 -6.5t9 -0.5q6 3 5 11.5t-3 13.5q-4 11 -15 21t-25 5zM144 714
q0 -8 4 -17.5t12 -9.5q10 0 14 9.5t4 22.5q0 11 -3 19t-14 8q-9 0 -13 -9t-4 -23z" />
    <glyph glyph-name="ogonek" unicode="&#x2db;" horiz-adv-x="304" 
d="M198 3q0 -18 -3.5 -26.5t-8.5 -13.5t-10 -9.5t-7 -13.5q0 -12 10 -12q6 0 13 3t12 4q22 3 35.5 -12.5t13.5 -41.5q0 -30 -20 -50t-50 -20q-26 0 -50 9t-42.5 25.5t-29.5 39.5t-11 50q0 18 8.5 39t23 38t33 28.5t37.5 11.5q22 0 34 -14t12 -35zM199 -80q-8 -2 -5 -10
q2 -2 6.5 -8.5t6.5 -8.5q3 -3 6 -8t7 -9t8 -6t8 0q7 2 5.5 11t-3.5 14q-4 11 -15 20.5t-24 4.5z" />
    <glyph glyph-name="tilde" unicode="&#x2dc;" horiz-adv-x="391" 
d="M304 793q14 0 23 -8t14.5 -19.5t8 -24.5t2.5 -24q0 -19 -5.5 -39t-17 -36.5t-28 -26.5t-38.5 -10q-23 0 -40.5 7t-30 16t-22.5 16t-18 7q-4 0 -6 -7t-6.5 -16t-13 -16t-24.5 -7t-26.5 8t-17 20.5t-9 27t-2.5 27.5q0 19 7 38t19.5 34t29.5 24.5t38 9.5q20 0 37 -8t31 -17
t24 -17t15 -8t9.5 7.5t10 17t14 17t22.5 7.5zM313 774q-8 0 -8 -7q0 -3 1.5 -10.5t3.5 -10.5q3 -8 4.5 -18t12.5 -10q7 0 9 6t3 11q1 12 -5.5 25t-20.5 14z" />
    <glyph glyph-name="hungarumlaut" unicode="&#x2dd;" horiz-adv-x="489" 
d="M37 667q0 13 18 35.5t42.5 44.5t48.5 38t36 16q11 0 23 -6t22.5 -15t17.5 -20.5t7 -22.5q0 -20 -20 -42.5t-47 -42t-55 -32t-44 -12.5q-7 0 -15.5 7t-16 16.5t-12.5 19.5t-5 16zM243 667q0 13 18 35.5t42.5 44.5t48.5 38t36 16q10 0 22.5 -6t23 -15t17.5 -20.5t7 -22.5
q0 -20 -20 -42.5t-47 -42t-55 -32t-44 -12.5q-7 0 -15.5 7t-16 16.5t-12.5 19.5t-5 16zM182 782q-8 -2 -5 -9q2 -3 7 -9t7 -8q7 -6 14 -16t17 -6q6 3 4 11.5t-4 13.5q-5 11 -16 20t-24 3zM387 782q-7 -2 -4 -9q2 -3 7 -9t7 -8q7 -6 14 -16t16 -6q7 3 5 11.5t-4 13.5
q-5 11 -16 20t-25 3z" />
    <glyph glyph-name="uni03BC" unicode="&#x3bc;" horiz-adv-x="487" 
d="M48 -104q0 46 2 91t4 91q2 38 2 86v97.5t1 97.5t5 86q2 14 9.5 24.5t18.5 18t24 11.5t26 4q9 0 22 -4.5t25 -11.5t20.5 -16.5t8.5 -19.5q0 -21 -1.5 -52t-3 -63.5t-3 -63.5t-1.5 -53q0 -4 0.5 -11t2.5 -14t5 -12t9 -5q14 0 26 16t21 42t14 59t5 68q0 20 1 38.5t1 38.5
q0 14 7.5 25.5t19 19.5t25.5 12.5t26 4.5q27 0 49.5 -14t22.5 -44q0 -25 -2 -59t-4.5 -70.5t-4.5 -71t-2 -59.5q5 -10 12.5 -24.5t14.5 -29.5t12 -29.5t5 -24.5q0 -14 -8 -29.5t-20 -28t-27 -21t-29 -8.5q-13 0 -23 9t-17.5 22t-13.5 26.5l-10 22.5q-17 -20 -44.5 -31
t-53.5 -11q-13 0 -24.5 5t-22.5 13q2 -3 3.5 -9.5t3 -22t2 -44t0.5 -74.5q0 -29 -19 -47.5t-48 -18.5q-13 0 -26.5 5.5t-24 14.5t-17 21.5t-6.5 26.5zM392 452q-8 0 -12 -7t-5 -16t-1 -18v-14v-13.5t1 -18.5t4.5 -16.5t9.5 -7.5q7 0 11 4t6.5 10t3 12.5t0.5 11.5
q1 11 0.5 24t-2.5 24.5t-6 18.5t-10 6zM395 326q-8 1 -14 -6.5t-7 -15.5q0 -13 12 -13q8 -1 13.5 4.5t5.5 14.5q0 4 -2 9.5t-8 6.5zM435 117q-2 -1 -4 -3t-2 -5v-9.5t2 -9.5q2 -10 0.5 -19t7.5 -11q8 -2 14 4t6 20q-1 16 -8 25t-16 8z" />
    <glyph glyph-name="endash" unicode="&#x2013;" horiz-adv-x="565" 
d="M449 350q14 0 23.5 -6t14.5 -15.5t7 -21t2 -23.5q0 -10 -2.5 -23.5t-8.5 -25.5t-15.5 -20t-22.5 -8h-315q-38 0 -49 15t-11 50q0 15 1 28.5t6 24t15 16.5t28 6h209q29 0 59 1.5t59 1.5zM438 331q-4 0 -7.5 -2t-3.5 -6q-1 -4 2 -12.5t5 -12.5q4 -10 5.5 -22t14.5 -12
q8 0 10.5 7t3.5 14q1 14 -6.5 29t-23.5 17zM454 255q-5 1 -8.5 -3t-3.5 -9q-1 -5 1 -10.5t7 -5.5q11 -1 13 13q0 5 -1.5 9.5t-7.5 5.5z" />
    <glyph glyph-name="emdash" unicode="&#x2014;" horiz-adv-x="635" 
d="M523 350q29 0 38.5 -21t9.5 -45q0 -10 -3 -23.5t-9 -25.5t-15 -20t-22 -8h-400q-38 0 -49 15t-11 50q0 15 1 28.5t6 24t15 16.5t28 6q98 0 205.5 1.5t205.5 1.5zM509 331q-4 0 -7.5 -2t-3.5 -6q-1 -4 2 -12.5t5 -12.5q4 -10 5.5 -22t14.5 -12q8 0 10.5 7t3.5 14
q1 14 -6.5 29t-23.5 17zM525 255q-5 1 -8.5 -3t-3.5 -9q-1 -5 1 -10.5t7 -5.5q11 -1 13 13q0 5 -1.5 9.5t-7.5 5.5z" />
    <glyph glyph-name="quoteleft" unicode="&#x2018;" horiz-adv-x="215" 
d="M164 581q14 -8 23 -22.5t9 -35.5q0 -12 -4 -27.5t-13.5 -29t-26 -23t-42.5 -9.5q-41 0 -64.5 25.5t-23.5 64.5q0 18 9 41.5t24.5 44t36 35t43.5 14.5q20 0 27.5 -15.5t7.5 -31.5q0 -20 -6 -31zM139 645q-7 0 -7 -4q-1 -3 1.5 -13.5t2.5 -12.5q2 -6 2 -13t8 -8q5 -1 7.5 3
t3.5 8q1 9 -3 23.5t-15 16.5z" />
    <glyph glyph-name="quoteright" unicode="&#x2019;" horiz-adv-x="221" 
d="M54 512q-14 8 -23 22.5t-9 35.5q0 12 4 27.5t13.5 29t26.5 23t42 9.5q41 0 64.5 -25.5t23.5 -64.5q0 -18 -9 -41.5t-24.5 -44t-36 -35t-43.5 -14.5q-20 0 -27.5 15.5t-7.5 31.5q0 21 6 31zM135 634q-10 -2 -11 -9q-1 -5 4.5 -14t8.5 -13q2 -5 4 -10.5t4 -10.5t6 -8t11 -2
q8 1 10 9t2 15q-2 16 -12 30t-27 13zM162 557q-5 -1 -9 -6.5t-3 -10.5t4 -12.5t9 -6.5q14 0 14 17q-1 8 -4 13.5t-11 5.5z" />
    <glyph glyph-name="quotesinglbase" unicode="&#x201a;" horiz-adv-x="254" 
d="M52 14q-30 21 -30 67q0 18 6.5 34t18.5 28t27.5 19.5t33.5 7.5q40 0 64 -26t24 -65q0 -19 -10 -42.5t-26 -43.5t-36 -34t-41 -14q-20 0 -27.5 15t-7.5 32q0 13 4 22zM121 152q-8 -2 -8 -10q0 -4 6.5 -10.5l9.5 -9.5q6 -7 11 -16.5t16 -6.5q7 3 7.5 10t-1.5 13
q-4 13 -15 23.5t-26 6.5zM157 91q-4 -2 -6 -7.5t0 -9.5q2 -5 5.5 -10.5t8.5 -3.5q12 3 9 18q-2 6 -6 10.5t-11 2.5z" />
    <glyph glyph-name="quotedblleft" unicode="&#x201c;" horiz-adv-x="398" 
d="M164 581q14 -8 23 -22.5t9 -35.5q0 -12 -4 -27.5t-13.5 -29t-26 -23t-42.5 -9.5q-41 0 -64.5 25.5t-23.5 64.5q0 18 9 41.5t24.5 44t36 35t43.5 14.5q20 0 27.5 -15.5t7.5 -31.5q0 -20 -6 -31zM348 581q32 -18 32 -58q0 -12 -3.5 -27.5t-13.5 -29t-26.5 -23t-42.5 -9.5
q-41 0 -64.5 25.5t-23.5 64.5q0 18 9 41.5t24.5 44t36 35t43.5 14.5q20 0 27.5 -15.5t7.5 -31.5q0 -20 -6 -31zM322 645q-6 0 -8 -4q-1 -3 1.5 -13.5t3.5 -12.5q2 -6 2 -13t8 -8q5 -1 7.5 3t2.5 8q2 9 -2.5 23.5t-14.5 16.5z" />
    <glyph glyph-name="quotedblright" unicode="&#x201d;" horiz-adv-x="393" 
d="M54 512q-14 8 -23 22.5t-9 35.5q0 12 4 27.5t13.5 29t26.5 23t42 9.5q41 0 64.5 -25.5t23.5 -64.5q0 -18 -9 -41.5t-24.5 -44t-36 -35t-43.5 -14.5q-20 0 -27.5 15.5t-7.5 31.5q0 21 6 31zM237 512q-15 8 -24 22.5t-9 35.5q0 12 4 27.5t13.5 29t26.5 23t42 9.5
q41 0 64.5 -25.5t23.5 -64.5q0 -18 -9 -41.5t-24.5 -44t-36 -35t-43.5 -14.5q-20 0 -27.5 15.5t-7.5 31.5q0 19 7 31zM304 634q-10 -2 -11 -9q-1 -5 5 -14t8 -13q5 -10 8.5 -21t16.5 -10q8 1 10.5 9t1.5 15q-1 16 -11.5 30t-27.5 13zM331 557q-5 -1 -9 -6.5t-3 -10.5
t4 -12.5t9 -6.5q14 0 14 17q-1 8 -4 13.5t-11 5.5z" />
    <glyph glyph-name="quotedblbase" unicode="&#x201e;" horiz-adv-x="398" 
d="M234 17q-29 24 -29 67q0 13 5 28.5t15.5 29t27 23t38.5 9.5q41 0 64.5 -25.5t23.5 -65.5q0 -18 -9.5 -41.5t-25 -44t-36 -35t-42.5 -14.5q-20 0 -27.5 15.5t-7.5 31.5q0 13 3 22zM51 17q-29 24 -29 67q0 13 5 28.5t15.5 29t27 23t38.5 9.5q40 0 64 -25.5t24 -65.5
q0 -18 -9.5 -41.5t-25 -44t-36 -35t-42.5 -14.5q-20 0 -27.5 15.5t-7.5 31.5q0 13 3 22zM308 152q-8 -2 -8 -10q0 -4 6.5 -10.5l9.5 -9.5q6 -7 11 -16.5t16 -6.5q7 3 7.5 10t-1.5 13q-4 13 -15 23.5t-26 6.5zM344 91q-4 -2 -6 -7.5t0 -9.5q2 -5 5.5 -10.5t8.5 -3.5
q12 3 9 18q-2 6 -6 10.5t-11 2.5z" />
    <glyph glyph-name="dagger" unicode="&#x2020;" horiz-adv-x="442" 
d="M11 475q0 36 12.5 52t51.5 16h36.5t36.5 -1q0 22 1.5 41.5t8.5 34t22 23t42 8.5q30 0 53 -15t23 -48v-9.5t-1 -9.5v1l-3 -25q14 0 29.5 1.5t29.5 1.5q35 0 53 -15.5t18 -50.5q0 -31 -15 -53.5t-49 -22.5q-18 0 -36 0.5t-36 0.5q-2 -30 -3 -60.5t-1 -61.5q0 -75 4.5 -150
t4.5 -150q0 -37 -20.5 -57.5t-57.5 -20.5q-38 0 -58 20.5t-20 58.5q0 78 5.5 156t5.5 156v109q-6 -2 -15 -2h-16q-22 0 -41.5 1.5t-33.5 8t-22.5 21t-8.5 41.5zM370 523q-3 0 -6 -1.5t-3 -6.5q0 -3 2 -10.5t4 -11.5q4 -9 5 -19.5t13 -10.5q7 0 9.5 6.5t2.5 12.5q2 12 -5 26
t-22 15zM385 455q-4 1 -7 -3t-4 -8q0 -4 1 -9t6 -5q5 -1 8.5 3t3.5 9q1 5 -1 9t-7 4zM267 -7q-6 6 -12 1q-3 -2 -6 -9.5t-5 -11.5q-3 -9 -9.5 -17.5t1.5 -16.5q5 -5 11.5 -2t10.5 7q10 9 14.5 23.5t-5.5 25.5z" />
    <glyph glyph-name="daggerdbl" unicode="&#x2021;" horiz-adv-x="433" 
d="M137 3q-23 -1 -45.5 -2t-40 5t-28.5 22t-11 47q0 35 12.5 51t49.5 16h70q2 66 3 132t1 132l-24 -2t-24 -1q-40 0 -64 13.5t-24 59.5q0 35 12 51.5t50 16.5h37t37 -1q0 21 1.5 40t8 34t21 23.5t41.5 8.5q29 0 51.5 -15.5t22.5 -47.5q0 -11 -0.5 -20.5t-1.5 -20.5
q21 0 42.5 1t38.5 -3.5t28 -18.5t11 -44q0 -29 -14.5 -52t-46.5 -23q-17 0 -33.5 0.5t-33.5 0.5q-3 -61 -3 -123q0 -35 1 -70t3 -70q21 0 43.5 1.5t41 -3.5t30.5 -19t12 -44q0 -29 -14.5 -52t-46.5 -23q-15 0 -30 0.5t-30 1.5q1 -21 -2 -39.5t-12 -32t-24.5 -21t-39.5 -7.5
q-37 0 -56.5 21.5t-19.5 57.5v19zM366 523q-3 0 -6 -1.5t-3 -6.5q0 -3 2 -10.5t4 -11.5q4 -9 5 -19.5t13 -10.5q7 0 9.5 6.5t2.5 12.5q2 12 -5 26t-22 15zM381 455q-4 1 -7 -3t-4 -8q0 -4 1 -9t6 -5q5 -1 8.5 3t3.5 9q1 5 -1 9t-7 4zM366 123q-7 2 -7 -6q-1 -3 1 -9.5
t4 -8.5q3 -8 4 -17t10 -9q6 0 8.5 5.5t2.5 10.5q1 11 -4.5 22t-18.5 12z" />
    <glyph glyph-name="bullet" unicode="&#x2022;" horiz-adv-x="371" 
d="M315 311q0 -22 -7.5 -46t-22.5 -43.5t-38.5 -32.5t-56.5 -13q-25 0 -47.5 9t-40 25.5t-28 41t-10.5 55.5q0 60 28 94.5t97 34.5q55 0 90.5 -32.5t35.5 -92.5zM220 406q-4 -1 -7 -4t-2 -8t7.5 -13t9.5 -12q4 -4 7 -10t6.5 -11t8 -7.5t11.5 -0.5q8 2 9.5 11t-0.5 16
q-5 16 -18 30t-32 9zM263 329q-5 -2 -8 -9t-1 -12t6 -12.5t10 -5.5q8 2 11 8.5t1 13.5q-1 8 -6 13.5t-13 3.5z" />
    </font>
</defs>
</svg>
